<svg width="221" height="211" viewBox="0 0 221 211" fill="none" xmlns="http://www.w3.org/2000/svg">
<path d="M213.852 17.6426C216.36 24.0158 217.685 32.0773 220.193 38.4506C213.947 38.746 207.654 39.0415 201.692 40.6875C195.73 42.3336 190.194 46.6808 186.976 51.4502C182.954 44.7815 178.885 38.1129 174.863 31.4442C183.144 21.399 200.083 15.6166 213.852 17.6426Z" fill="#F3C24C"/>
<path d="M79.1345 153.519L47.9463 154.585L37.2317 152.712L21.0059 166.127L65.2341 179.711C63.705 180.069 65.6589 179.957 67.6659 179.912L103.941 168.539L90.3694 150.457L79.1345 153.519Z" fill="#615BA3"/>
<g opacity="0.3">
<path d="M98.5993 161.416C95.0101 156.627 90.3802 150.469 90.3802 150.469L79.1346 153.509L47.9465 154.574L37.2319 152.701C37.2319 152.701 31.8799 157.232 27.25 160.968C38.4 163.649 76.1719 168.719 98.5993 161.416Z" fill="#615BA3"/>
</g>
<path d="M53.6919 180.204C55.5503 179.969 57.398 179.812 59.2563 179.655C61.1147 179.531 62.973 179.385 64.8419 179.318C68.5692 179.139 72.2965 179.015 76.0238 179.071C76.1193 179.071 76.1937 179.161 76.1937 179.262C76.1937 179.363 76.1194 179.441 76.0344 179.453L64.8844 180.114L59.3094 180.417C57.4511 180.496 55.5821 180.563 53.7238 180.586C53.6282 180.586 53.5539 180.507 53.5539 180.395C53.5433 180.294 53.607 180.215 53.6919 180.204Z" fill="#615BA3"/>
<path d="M63.6831 148.36C63.8211 150.469 63.9273 152.577 64.0229 154.686L64.2565 161.012L64.4901 167.339C64.5857 169.447 64.6494 171.556 64.7981 173.654C64.8087 173.755 64.7343 173.844 64.6494 173.856C64.5644 173.867 64.4795 173.788 64.4689 173.687C63.9591 169.481 63.7468 165.264 63.5662 161.046C63.4601 158.937 63.4176 156.828 63.3645 154.708C63.3326 152.6 63.3114 150.48 63.3539 148.371C63.3539 148.27 63.4282 148.18 63.5238 148.191C63.6087 148.18 63.6831 148.259 63.6831 148.36Z" fill="#615BA3"/>
<path d="M64.5767 172.039C65.1395 172.196 65.7129 171.882 66.0527 171.354C66.4138 170.827 66.6049 170.143 66.743 169.459C67.0297 168.079 67.0509 166.587 67.1146 165.129C67.189 162.19 67.1146 159.218 67.0615 156.268C67.0615 156.167 67.1253 156.077 67.2208 156.077C67.3058 156.077 67.3801 156.144 67.3907 156.245C67.6987 159.207 67.858 162.179 67.8049 165.163C67.7837 166.655 67.7093 168.158 67.3801 169.661C67.1996 170.401 66.9341 171.153 66.4669 171.769C65.9996 172.386 65.1607 172.745 64.4493 172.398C64.3643 172.353 64.3218 172.241 64.3643 172.151C64.3962 172.061 64.4811 172.016 64.5555 172.039H64.5767Z" fill="#615BA3"/>
<path d="M38.7186 168.001C39.6849 167.395 40.5769 166.621 41.3415 165.735C42.1167 164.86 42.7751 163.85 43.2742 162.74C43.4228 162.471 43.4971 162.179 43.614 161.899C43.7308 161.618 43.837 161.327 43.9007 161.024L44.1449 160.126L44.3148 159.207C44.4635 158.601 44.4422 157.961 44.5166 157.333C44.5484 156.705 44.5272 156.066 44.5484 155.426V155.404C44.5484 155.303 44.6334 155.213 44.7183 155.225C44.8033 155.225 44.867 155.303 44.8776 155.393C44.9307 156.043 44.9944 156.694 45.0157 157.345L44.9838 158.332C44.9838 158.657 44.952 158.993 44.8989 159.319L44.7714 160.306L44.5378 161.259C44.4741 161.585 44.3573 161.887 44.2405 162.201C44.1237 162.504 44.0387 162.83 43.8901 163.11C43.391 164.321 42.637 165.376 41.7875 166.284C40.9167 167.182 39.9398 167.911 38.8248 168.359C38.7398 168.393 38.6443 168.337 38.6124 168.247C38.5805 168.158 38.623 168.068 38.6867 168.023L38.7186 168.001Z" fill="#615BA3"/>
<path d="M90.8261 166.318C89.6792 165.959 88.6492 165.309 87.7253 164.479C86.8227 163.637 85.9944 162.639 85.4103 161.472C85.2404 161.203 85.1342 160.878 84.9962 160.586C84.8582 160.295 84.7307 159.992 84.6352 159.678L84.3378 158.736L84.1361 157.771C84.0617 157.446 84.0086 157.12 83.9874 156.795L83.8918 155.819C83.86 155.169 83.8812 154.507 83.8918 153.856C83.8918 153.755 83.9662 153.666 84.0617 153.677C84.1467 153.677 84.2104 153.755 84.221 153.845V153.867C84.2847 154.507 84.306 155.146 84.3803 155.763C84.5077 156.38 84.529 157.019 84.7201 157.614L84.9537 158.522L85.2617 159.397C85.3466 159.689 85.4741 159.969 85.6121 160.25C85.7502 160.519 85.8457 160.811 86.0156 161.069C86.5891 162.134 87.3218 163.088 88.1607 163.906C88.989 164.737 89.9341 165.432 90.9323 165.959L90.9429 165.97C91.0278 166.015 91.0597 166.127 91.0278 166.217C90.9853 166.307 90.9004 166.341 90.8261 166.318Z" fill="#615BA3"/>
<path d="M59.2225 194.64C59.2225 194.64 129.361 186.374 121.163 164.602C118.509 157.558 111.128 158.085 103.058 159.173C90.8884 160.81 79.7915 167.215 56.9075 176.436L47.584 184.557L48.614 195.089L59.2225 194.64Z" fill="#615BA3"/>
<path d="M56.9082 176.436L97.6216 160.183" stroke="#2F1C3B" stroke-miterlimit="10" stroke-linecap="round" stroke-linejoin="round"/>
<path d="M57.7908 201.022C54.8281 200.506 52.2689 201.606 50.1133 203.591C51.1009 206.485 51.7699 207.674 52.9167 210.029C52.9061 210.029 58.3961 210.074 57.7908 201.022Z" fill="white"/>
<path d="M57.9914 201.101C57.8534 198.981 57.864 198.914 57.6834 198.062C57.6834 198.062 65.3716 196.716 62.9292 189.514C61.6443 185.734 58.0657 184.736 56.5472 185.375C56.6215 185.33 56.5791 185.308 56.5472 185.375C57.2587 184.837 58.1825 183.906 58.5011 181.584C58.9896 178.006 55.8251 175.067 52.5332 176.065L44.1973 178.578C44.1973 178.578 45.8114 190.501 50.3138 203.67C52.4695 201.685 55.0393 200.585 57.9914 201.101Z" fill="#2A2A3C"/>
<path d="M50.4418 179.879C49.2525 180.216 48.5516 181.494 48.8596 182.751C49.1782 184.007 50.3887 184.747 51.5781 184.422C52.7674 184.085 53.4682 182.807 53.1603 181.55C52.8417 180.294 51.6205 179.543 50.4418 179.879Z" fill="white"/>
<path d="M43.9959 178.499L42.127 179.049C42.127 179.049 44.3039 198.061 50.8452 210.153C50.8452 210.153 53.2557 210.209 53.0221 209.671C46.5763 194.696 43.9959 178.499 43.9959 178.499Z" fill="white"/>
<path d="M57.8955 197.826L55.3894 190.142C55.3151 189.896 55.0602 189.772 54.8266 189.851C54.6036 189.929 54.4868 190.176 54.5505 190.412C54.5505 190.423 54.5505 190.434 54.5611 190.434L57.0672 198.117C57.1416 198.364 57.3964 198.488 57.63 198.409C57.853 198.342 57.9805 198.073 57.8955 197.826Z" fill="white"/>
<path d="M63.9274 198.824C63.7894 198.286 63.4283 197.893 63.0992 197.579C62.8549 197.333 62.6001 197.097 62.3346 196.861C62.77 196.94 63.216 196.996 63.662 197.018C64.6708 197.075 65.0637 196.648 65.223 196.278C65.4035 195.829 65.2761 195.269 64.8832 194.898C64.5964 194.618 64.246 194.495 63.8956 194.382C62.8549 194.068 61.8355 194.113 60.8585 194.158C60.0833 194.192 59.34 194.225 58.6285 194.08L56.8339 189.099C56.749 188.864 56.4941 188.74 56.2711 188.83C56.0587 188.92 55.9419 189.155 56.0056 189.391C56.0056 189.402 56.0163 189.413 56.0163 189.436L57.9277 194.753C57.9171 194.809 57.9277 194.865 57.9383 194.921C57.9595 194.999 58.002 195.067 58.0551 195.123L58.8834 197.422C58.9683 197.658 59.2232 197.781 59.4462 197.691C60.1364 198.69 60.9753 199.531 61.7505 200.114C61.9629 200.271 62.5894 200.754 63.2372 200.484C63.8743 200.215 64.0867 199.43 63.9274 198.824ZM60.901 195.089C61.8567 195.044 62.7487 195.011 63.662 195.28C63.885 195.347 64.1292 195.426 64.2885 195.583C64.3522 195.639 64.3947 195.717 64.4159 195.796C64.4265 195.841 64.4265 195.886 64.4159 195.919C64.3628 196.054 64.0867 196.121 63.7151 196.099C62.4833 196.031 61.2621 195.729 60.1258 195.235C60.0621 195.201 60.009 195.168 59.9453 195.123C60.2639 195.112 60.5931 195.1 60.901 195.089ZM62.2709 199.34C61.0709 198.432 60.0727 197.187 59.4781 195.93C59.563 195.975 59.648 196.009 59.7329 196.043C60.7311 196.66 61.655 197.4 62.5045 198.241C62.7487 198.488 63.0036 198.757 63.0885 199.06C63.1416 199.273 63.0673 199.531 62.9399 199.587C62.8337 199.643 62.6425 199.632 62.2709 199.34Z" fill="white"/>
<path d="M64.0755 195.01C64.0755 195.01 -5.79779 188.673 1.53997 166.688C3.91863 159.576 13.3165 157.681 21.0153 160.294C38.5154 166.239 46.5222 169.324 66.9957 177.176L75.2573 184.624L74.6096 195.179L64.0755 195.01Z" fill="#615BA3"/>
<path d="M65.721 176.76L24.7422 161.617" stroke="#2F1C3B" stroke-miterlimit="10" stroke-linecap="round" stroke-linejoin="round"/>
<path d="M65.5503 201.415C68.4918 200.798 71.0934 201.819 73.3022 203.726C72.3996 206.653 71.7624 207.865 70.7005 210.254C70.7005 210.254 65.2105 210.489 65.5503 201.415Z" fill="white"/>
<path d="M65.3484 201.494C65.4228 199.374 65.4122 199.307 65.5714 198.443C65.5714 198.443 57.8514 197.355 60.0708 190.075C61.2389 186.25 64.7856 185.14 66.3254 185.723C66.2511 185.689 66.2935 185.656 66.3254 185.723C65.5927 185.207 64.6476 184.31 64.2547 181.999C63.66 178.432 66.7289 175.392 70.0527 176.278L78.463 178.511C78.463 178.511 77.1993 190.479 73.1003 203.793C70.8916 201.898 68.2899 200.877 65.3484 201.494Z" fill="#2A2A3C"/>
<path d="M72.262 180.035C73.462 180.327 74.2053 181.583 73.9292 182.851C73.6531 184.118 72.4638 184.904 71.2638 184.612C70.0639 184.32 69.3205 183.064 69.5966 181.796C69.8833 180.529 71.0727 179.744 72.262 180.035Z" fill="white"/>
<path d="M78.6647 178.443L80.5549 178.926C80.5549 178.926 78.9514 198.006 72.7711 210.299C72.7711 210.299 70.3712 210.434 70.5836 209.895C76.5728 194.719 78.6647 178.443 78.6647 178.443Z" fill="white"/>
<path d="M65.3484 198.23L67.6209 190.468C67.6952 190.221 67.9394 190.086 68.173 190.165C68.396 190.243 68.5235 190.479 68.4704 190.715C68.4704 190.726 68.4704 190.737 68.4598 190.737L66.1873 198.499C66.113 198.746 65.8687 198.88 65.6351 198.802C65.4121 198.735 65.274 198.477 65.3484 198.23Z" fill="white"/>
<path d="M60.0819 201.045C60.7403 201.292 61.3562 200.787 61.5579 200.619C62.3119 200.013 63.1295 199.138 63.7879 198.118C64.0215 198.196 64.2658 198.073 64.3507 197.826L65.1047 195.504C65.1578 195.448 65.2002 195.381 65.2215 195.302C65.2321 195.246 65.2321 195.19 65.2321 195.134L66.9842 189.75C66.9842 189.739 66.9949 189.727 66.9949 189.705C67.048 189.469 66.9311 189.234 66.7081 189.155C66.4745 189.077 66.2303 189.2 66.1453 189.447L64.4994 194.495C63.7879 194.663 63.0552 194.652 62.2694 194.652C61.2924 194.64 60.273 194.629 59.243 194.977C58.9031 195.089 58.5527 195.235 58.2766 195.515C57.905 195.897 57.7882 196.458 57.9793 196.906C58.1386 197.265 58.5421 197.68 59.5615 197.59C60.0075 197.546 60.4535 197.478 60.8889 197.389C60.6341 197.624 60.3898 197.871 60.1456 198.129C59.827 198.465 59.4872 198.869 59.3598 199.408C59.2111 200.036 59.4447 200.81 60.0819 201.045ZM63.2145 195.583C63.1614 195.616 63.0977 195.661 63.0446 195.695C61.919 196.233 60.719 196.57 59.4872 196.682C59.1155 196.715 58.8394 196.659 58.7757 196.525C58.7651 196.491 58.7651 196.446 58.7757 196.401C58.797 196.334 58.8394 196.256 58.8925 196.188C59.0412 196.031 59.2961 195.942 59.5084 195.863C60.4111 195.56 61.3137 195.571 62.2694 195.583C62.5773 195.583 62.8959 195.594 63.2145 195.583ZM60.3686 200.17C60.2305 200.125 60.1562 199.856 60.1987 199.643C60.273 199.34 60.5172 199.06 60.7509 198.802C61.5685 197.927 62.4818 197.164 63.4587 196.514C63.5437 196.469 63.6286 196.435 63.703 196.39C63.1508 197.669 62.1844 198.936 61.0163 199.89C60.6553 200.182 60.4642 200.204 60.3686 200.17Z" fill="white"/>
<path d="M21.8325 160.575C21.121 160.496 20.4096 160.305 19.7193 159.991C15.8646 158.275 14.0488 153.575 15.6735 149.504L24.3068 127.866C25.9315 123.795 30.3808 121.877 34.2356 123.593C38.0903 125.309 39.9061 130.009 38.2814 134.08L29.6481 155.718C28.3101 159.06 25.0819 160.956 21.8325 160.575Z" fill="#DAA297"/>
<path d="M105.84 158.41C103.143 158.511 100.488 157.098 99.0226 154.473L87.724 134.249C85.6002 130.436 86.8001 125.534 90.4 123.279C94.0104 121.036 98.6509 122.303 100.785 126.106L112.084 146.33C114.208 150.144 113.008 155.045 109.408 157.3C108.282 158.007 107.051 158.365 105.84 158.41Z" fill="#DAA297"/>
<path d="M90.4641 128.428C98.3753 128.585 106.669 121.193 106.669 121.193C106.669 121.193 100.552 102.147 84.4537 101.249C73.4949 100.711 63.8846 101.362 61.6971 101.53C59.414 101.496 49.4003 101.451 38.5158 102.663C22.5447 104.536 18.1484 123.907 18.1484 123.907C18.1484 123.907 27.079 130.772 34.9584 130.133L33.6416 154.372C33.6416 154.372 46.7774 158.837 64.0014 158.399C64.0864 158.399 64.1607 158.388 64.2457 158.388C64.3306 158.388 64.405 158.388 64.4899 158.388C81.7034 157.771 93.9365 152.533 93.9365 152.533L90.4641 128.428Z" fill="#D46954"/>
<path opacity="0.3" d="M11.9883 104.928C11.9883 104.928 62.8322 117.67 115.704 97.749" stroke="#F7E7CC" stroke-width="0.707" stroke-miterlimit="10" stroke-linecap="round" stroke-linejoin="round"/>
<path opacity="0.3" d="M12.3711 113.386C12.3711 113.386 63.215 126.128 116.087 106.207" stroke="#F7E7CC" stroke-width="0.707" stroke-miterlimit="10" stroke-linecap="round" stroke-linejoin="round"/>
<path opacity="0.3" d="M12.7422 121.832C12.7422 121.832 63.5861 134.574 116.458 114.653" stroke="#F7E7CC" stroke-width="0.707" stroke-miterlimit="10" stroke-linecap="round" stroke-linejoin="round"/>
<path opacity="0.3" d="M13.125 130.289C13.125 130.289 63.9689 143.031 116.841 123.11" stroke="#F7E7CC" stroke-width="0.707" stroke-miterlimit="10" stroke-linecap="round" stroke-linejoin="round"/>
<path opacity="0.3" d="M13.5059 138.735C13.5059 138.735 64.3498 151.478 117.222 131.557" stroke="#F7E7CC" stroke-width="0.707" stroke-miterlimit="10" stroke-linecap="round" stroke-linejoin="round"/>
<path opacity="0.3" d="M13.8789 147.182C13.8789 147.182 64.7229 159.924 117.595 140.003" stroke="#F7E7CC" stroke-width="0.707" stroke-miterlimit="10" stroke-linecap="round" stroke-linejoin="round"/>
<path d="M49.6537 102.573C46.5954 103.111 46.7016 105.142 46.7016 105.142C46.8928 109.505 51.3209 112.904 56.5879 112.747L63.0125 112.545C69.0865 112.354 73.9182 108.652 73.6952 103.627C73.6952 103.627 73.8439 101.395 70.6157 101.496C66.5061 101.608 58.6905 100.98 49.6537 102.573Z" fill="#D2593E"/>
<path d="M17.5741 124.098C17.8608 123.739 18.4342 123.627 18.8909 123.84C20.951 124.805 27.4817 127.519 34.331 127.429C34.8619 127.418 35.3079 127.755 35.3398 128.192L35.446 129.695C35.4778 130.155 35.053 130.559 34.4902 130.57C26.5153 130.705 19.4324 127.643 17.0219 126.633C15.5246 125.983 17.5741 124.098 17.5741 124.098Z" fill="#D2593E"/>
<path d="M107.2 121.349C106.882 121.013 106.298 120.934 105.873 121.17C103.909 122.258 97.6327 125.365 90.7941 125.69C90.2631 125.713 89.849 126.072 89.8596 126.509L89.8914 128.023C89.902 128.483 90.3693 128.853 90.9215 128.831C98.8858 128.483 105.682 124.995 107.986 123.828C109.409 123.11 107.2 121.349 107.2 121.349Z" fill="#D2593E"/>
<path d="M118.572 118.422L116.3 149.324C115.854 155.336 110.884 159.834 105.192 159.363C99.5006 158.892 95.2423 153.642 95.6883 147.63C95.7414 146.968 95.8582 146.262 96.0069 145.645L103.621 115.707C104.715 111.422 108.888 108.876 112.944 110.031C116.555 111.052 118.848 114.63 118.572 118.422Z" fill="#EABAAF"/>
<path opacity="0.4" d="M117 157.872C116.299 162.302 110.268 164.938 103.525 163.749C96.7816 162.571 91.8756 158.017 92.5764 153.587C93.2773 149.156 99.3089 146.52 106.052 147.709C112.795 148.887 117.69 153.441 117 157.872Z" fill="url(#paint0_radial_1290_1065)"/>
<path d="M118.646 117.065C118.646 117.065 121.503 106.958 120.144 106.442C118.784 105.926 116.746 108.686 116.746 108.686C116.746 108.686 112.126 102.09 109.811 102.012C107.327 101.933 107.38 104.356 107.38 104.356C107.38 104.356 104.99 103.874 104.544 107.082C104.544 107.082 101.847 107.351 102.219 110.155C103.026 116.268 106.477 117.603 106.477 117.603" fill="#EABAAF"/>
<path d="M9.96014 117.996L11.4149 150.256C11.6698 156.279 16.4908 160.946 22.1933 160.676C27.8957 160.407 32.3132 155.315 32.0584 149.291C32.0265 148.629 31.9309 147.923 31.8035 147.295L25.1347 117.11C24.179 112.78 20.0907 110.1 15.9917 111.109C12.3707 112.006 9.80085 114.205 9.96014 117.996Z" fill="#EABAAF"/>
<path d="M9.93976 118.075C9.93976 118.075 7.40181 107.879 8.78229 107.408C10.1628 106.937 12.106 109.774 12.106 109.774C12.106 109.774 16.9271 103.347 19.2527 103.358C21.7375 103.37 21.6101 105.792 21.6101 105.792C21.6101 105.792 24.01 105.389 24.3604 108.619C24.3604 108.619 27.047 108.978 26.5904 111.771C25.5922 117.851 22.0986 119.062 22.0986 119.062" fill="#EABAAF"/>
<path opacity="0.4" d="M33.5785 152.107C35.2244 156.246 31.4547 161.877 25.1576 164.67C18.8605 167.463 12.4148 166.374 10.7688 162.235C9.12285 158.096 12.8926 152.466 19.1897 149.673C25.4868 146.88 31.9325 147.968 33.5785 152.107Z" fill="url(#paint1_radial_1290_1065)"/>
<path d="M18.9551 88.3828C20.2718 93.6772 24.1159 98.1863 28.9582 100.138C33.8005 102.09 39.5135 101.417 43.8249 98.3882" stroke="#773D14" stroke-width="0.7986" stroke-miterlimit="10" stroke-linecap="round" stroke-linejoin="round"/>
<path d="M20.5275 28.4297C14.3472 28.7774 9.01641 33.4661 5.73513 39.0072C0.850376 47.2516 -0.338957 57.829 2.58128 67.0605C3.91928 71.3005 6.18114 75.361 9.64295 77.9408C13.1048 80.5095 17.9046 81.3395 21.6531 79.2532" stroke="#773D14" stroke-width="0.7986" stroke-miterlimit="10" stroke-linecap="round" stroke-linejoin="round"/>
<path d="M88.5098 16.6855C96.6652 21.7668 101.667 32.019 100.849 41.9795C100.732 43.3592 100.509 44.7725 99.7978 45.9279C99.0863 47.0944 97.7908 47.9469 96.4953 47.7338" stroke="#773D14" stroke-width="0.7986" stroke-miterlimit="10" stroke-linecap="round" stroke-linejoin="round"/>
<path d="M77.2012 92.2978C78.2525 93.8345 80.0896 94.3842 81.7355 94.0701C83.3815 93.756 84.8469 92.7017 86.1636 91.5127C92.8643 85.4219 96.4323 74.8669 95.1261 64.9512" stroke="#773D14" stroke-width="0.7986" stroke-miterlimit="10" stroke-linecap="round" stroke-linejoin="round"/>
<path d="M23.851 25.1427C23.851 25.1427 10.4497 29.607 5.93665 42.7083C1.88018 54.5084 0.81828 69.7296 10.2374 74.25C10.2374 74.25 16.407 90.7051 20.421 91.5688C24.4456 92.4213 27.2172 103.111 43.5811 100.789C59.9451 98.4672 70.5216 101.675 77.9125 93.801C77.9125 93.801 85.1228 94.5301 91.4517 81.384C95.8162 72.3095 96.4108 63.3136 96.6869 57.7276C96.9737 52.1528 96.6126 46.6005 96.6126 46.6005C96.6126 46.6005 100.956 42.8877 99.7452 35.8548C98.5453 28.8218 94.2764 21.0598 89.2005 17.3695C89.2005 17.3695 90.8359 13.7576 82.3194 7.85756C73.8029 1.94629 65.9342 5.12065 65.9342 5.12065C65.9342 5.12065 50.749 -9.3042 23.851 25.1427Z" fill="#773D14"/>
<path d="M59.9361 113.229L59.4158 113.251C54.3292 113.453 50.1453 111.905 49.9542 106.532L49.3914 90.3238C49.2002 84.951 53.1718 80.4306 58.2583 80.2287L58.7786 80.2062C63.8651 80.0043 68.1446 84.1994 68.3358 89.5723L68.8986 105.781C69.0791 111.165 65.0226 113.027 59.9361 113.229Z" fill="#EABAAF"/>
<path opacity="0.2" d="M68.7063 100.407L68.324 89.583C68.1329 84.2102 63.864 80.0151 58.7669 80.217L58.2466 80.2394C53.16 80.4413 49.1885 84.9504 49.3797 90.3345L49.8151 102.785C53.8928 103.245 60.5827 103.268 68.7063 100.407Z" fill="#84332D"/>
<path d="M29.7666 80.8566C30.2869 87.6764 25.519 93.655 19.1051 94.2046C12.6912 94.7542 7.06308 89.673 6.54275 82.8532C6.02242 76.0333 10.7904 70.0547 17.2043 69.5051C23.6075 68.9443 29.2356 74.0367 29.7666 80.8566Z" fill="#DAA297"/>
<path opacity="0.2" d="M28.312 84.9509C28.6518 89.404 24.8714 93.3635 19.8698 93.7898C14.8577 94.216 10.5251 90.9631 10.1853 86.51C9.84548 82.0569 13.6259 78.0974 18.6274 77.6711C23.6396 77.2337 27.9722 80.4978 28.312 84.9509Z" fill="#84332D"/>
<path opacity="0.2" d="M28.312 84.9509C28.6518 89.404 24.8714 93.3635 19.8698 93.7898C14.8577 94.216 10.5251 90.9631 10.1853 86.51C9.84548 82.0569 13.6259 78.0974 18.6274 77.6711C23.6396 77.2337 27.9722 80.4978 28.312 84.9509Z" fill="#84332D"/>
<path opacity="0.5" d="M8.61331 84.5247C9.13365 83.6946 9.7177 82.9655 10.3761 82.2813C11.0132 81.5859 11.7247 80.9689 12.468 80.4081C13.9547 79.2752 15.675 78.4452 17.4696 77.9628C18.3616 77.6824 19.2961 77.6151 20.2199 77.5254L21.611 77.5702C22.0783 77.559 22.5242 77.7049 22.9809 77.7609C23.9047 77.8619 24.7649 78.2208 25.6356 78.5124C26.0816 78.6358 26.4745 78.9051 26.8887 79.0957L28.1205 79.7239C28.3116 79.8248 28.386 80.0604 28.301 80.2511C28.216 80.4418 28.0037 80.5315 27.8125 80.4417L27.77 80.4193L26.5595 79.8809C26.156 79.7239 25.7737 79.4771 25.3489 79.3874C24.51 79.1631 23.6923 78.849 22.8322 78.7704C21.1332 78.4676 19.3916 78.6022 17.7457 79.0509C16.0891 79.4995 14.5281 80.3184 13.1052 81.3279C11.6928 82.371 10.3655 83.5937 9.23983 84.9621L9.21859 84.9846C9.08054 85.1528 8.84692 85.1641 8.68764 85.0295C8.53897 84.9173 8.50712 84.6929 8.61331 84.5247Z" fill="#84332D"/>
<path opacity="0.5" d="M17.0655 86.2633C17.8089 84.9397 18.8177 83.8517 19.9858 82.9543C21.1539 82.0682 22.5025 81.4289 23.9148 81.0587C24.6157 80.8456 25.3484 80.7895 26.0705 80.7334C26.7926 80.7558 27.5253 80.767 28.2262 80.9353C28.9483 81.025 29.6173 81.3055 30.2969 81.5522C30.9659 81.8214 31.5818 82.2028 32.2083 82.5281C32.357 82.6066 32.4101 82.7861 32.3357 82.9431C32.272 83.0889 32.1127 83.145 31.9747 83.1002L31.9216 83.0777C31.2844 82.8422 30.6685 82.5169 30.0314 82.3262C29.373 82.1692 28.7465 81.9336 28.0775 81.8887C26.7714 81.6756 25.4333 81.799 24.1697 82.1467C22.8954 82.4945 21.7061 83.1226 20.6123 83.919C19.5186 84.7042 18.4779 85.6352 17.5434 86.6335L17.5222 86.6559C17.4054 86.7793 17.2248 86.7793 17.108 86.6559C17.0125 86.5437 17.0018 86.3867 17.0655 86.2633Z" fill="#84332D"/>
<path d="M85.0169 64.6595C88.0965 70.683 95.19 72.9375 100.85 69.6959C106.51 66.4654 108.602 58.9614 105.512 52.9379C102.432 46.9145 95.3386 44.6599 89.6787 47.9016C84.0294 51.1432 81.9374 58.6473 85.0169 64.6595Z" fill="#DAA297"/>
<path opacity="0.2" d="M88.3521 67.2613C90.3697 71.1872 95.5836 72.3313 100.001 69.8075C104.419 67.2838 106.373 62.0455 104.355 58.1196C102.337 54.1937 97.1234 53.0496 92.7059 55.5734C88.2884 58.0972 86.3345 63.3354 88.3521 67.2613Z" fill="#84332D"/>
<path opacity="0.5" d="M104.641 55.5511C103.77 55.1585 102.91 54.878 102.007 54.6874C101.115 54.4742 100.202 54.3733 99.2779 54.3284C97.4409 54.2387 95.5719 54.5303 93.8304 55.1585C92.9384 55.4389 92.1207 55.9212 91.303 56.3811L90.1562 57.2111C89.7633 57.4691 89.4553 57.8505 89.1049 58.1646C88.3828 58.7815 87.8412 59.5779 87.2678 60.3294C86.9599 60.6884 86.7687 61.1371 86.5139 61.5409L85.8024 62.7747C85.6962 62.9654 85.7493 63.2122 85.9298 63.3243C86.0997 63.4365 86.3227 63.3804 86.4395 63.2122L86.4714 63.1673L87.2041 62.0232C87.4589 61.653 87.6607 61.238 87.9687 60.9127C88.5527 60.2397 89.073 59.4994 89.7633 58.9498C91.0269 57.7159 92.5561 56.8298 94.1702 56.2577C95.7843 55.6744 97.5152 55.4613 99.2355 55.495C100.956 55.5511 102.708 55.8091 104.354 56.3138L104.375 56.325C104.577 56.3811 104.789 56.2577 104.842 56.0558C104.906 55.8315 104.81 55.6296 104.641 55.5511Z" fill="#84332D"/>
<path opacity="0.5" d="M98.4507 61.8776C97.1445 61.1934 95.7322 60.8681 94.2986 60.7896C92.8545 60.7223 91.3996 60.9578 90.0298 61.4626C89.3289 61.6869 88.6918 62.0571 88.0546 62.4272C87.46 62.8647 86.8547 63.2909 86.3556 63.8406C85.7928 64.3341 85.3787 64.951 84.9433 65.5455C84.5185 66.1512 84.1999 66.8242 83.8495 67.4748C83.7646 67.6206 83.8177 67.8113 83.9557 67.9011C84.0831 67.9796 84.2424 67.9459 84.338 67.8225L84.3698 67.7777C84.784 67.2056 85.1238 66.5887 85.5698 66.0503C86.037 65.5343 86.4406 64.9735 86.9715 64.5585C87.9591 63.6162 89.1378 62.9544 90.3802 62.517C91.6226 62.0683 92.95 61.9225 94.2774 61.9449C95.5942 61.9786 96.9428 62.1468 98.2489 62.4497H98.2702C98.4294 62.4833 98.5887 62.3824 98.6206 62.2141C98.6418 62.0795 98.5675 61.9449 98.4507 61.8776Z" fill="#84332D"/>
<path d="M92.2595 50.9304C95.2222 73.05 86.7588 94.2947 61.0501 97.9963C36.9768 101.462 20.7934 84.1547 17.8306 62.0351C14.8679 39.9155 29.1399 19.4897 49.6878 16.4275C70.2462 13.354 89.3074 28.8108 92.2595 50.9304Z" fill="#EABAAF"/>
<path d="M29.7871 34.5537C32.9941 41.3848 39.4504 45.6808 46.2466 48.2607C47.9563 48.9113 49.6766 48.8439 51.0995 47.9242C52.6074 46.9483 53.2764 44.9293 53.2021 43.0673C53.1171 41.2053 52.4163 39.433 51.726 37.7168C52.6393 40.0499 53.5525 42.4055 54.8693 44.503C56.186 46.6006 57.9594 48.4738 60.1575 49.4497C62.3557 50.4255 65.0317 50.4143 67.0281 49.0234C69.0244 47.6438 70.1182 44.7722 69.2262 42.4279C70.5854 45.3443 73.0384 47.6662 75.9268 48.7878C77.7002 49.4721 79.7815 49.6852 81.4062 48.6645C83.031 47.6437 83.8274 45.0863 82.6168 43.5496" stroke="#773D14" stroke-width="0.7986" stroke-miterlimit="10" stroke-linecap="round" stroke-linejoin="round"/>
<path opacity="0.4" d="M57.3653 82.9652C57.7051 87.4408 52.4699 91.5461 45.6525 92.1294C38.8351 92.7127 33.0371 89.5608 32.6973 85.0852C32.3575 80.6097 37.5927 76.5043 44.4101 75.9211C51.2275 75.3378 57.0255 78.4897 57.3653 82.9652Z" fill="url(#paint2_radial_1290_1065)"/>
<path opacity="0.4" d="M90.1574 68.5524C91.7502 72.7138 87.8955 78.2886 81.556 80.9806C75.2164 83.6839 68.7919 82.4949 67.199 78.3223C65.6062 74.1608 69.4609 68.586 75.8004 65.894C82.14 63.1907 88.5645 64.3797 90.1574 68.5524Z" fill="url(#paint3_radial_1290_1065)"/>
<path d="M49.9219 69.7522C50.0918 74.6876 46.4813 78.8266 41.862 79.0061C37.2428 79.1855 33.3456 75.3382 33.1757 70.4028C33.0058 65.4674 36.6162 61.3283 41.2355 61.1489C45.8654 60.9806 49.752 64.828 49.9219 69.7522Z" fill="black" stroke="black" stroke-width="0.5542" stroke-miterlimit="10"/>
<path d="M50.1341 70.4586C50.304 75.3603 46.7148 79.4769 42.1274 79.6564C37.5293 79.8359 33.664 76.0109 33.4941 71.1092C33.3242 66.2074 36.9134 62.0908 41.5008 61.9113C46.0989 61.7319 49.9642 65.5568 50.1341 70.4586Z" fill="white"/>
<path d="M47.2245 70.5704C47.3413 73.756 45.0052 76.4256 42.0212 76.549C39.0373 76.6611 36.5205 74.1822 36.4144 70.9967C36.2975 67.8111 38.6337 65.1415 41.6177 65.0181C44.6016 64.8947 47.1077 67.3848 47.2245 70.5704Z" fill="black"/>
<path d="M39.0063 70.3919C39.0382 71.1546 38.178 71.8164 37.1055 71.8613C36.0224 71.9062 35.1304 71.3117 35.0985 70.5489C35.0667 69.7862 35.9268 69.1244 36.9993 69.0795C38.0718 69.0347 38.9851 69.6291 39.0063 70.3919Z" fill="white"/>
<path d="M66.8162 63.0337C68.7276 67.5428 73.6973 69.5731 77.913 67.5765C82.1394 65.5799 84.019 60.308 82.1076 55.81C80.1961 51.3121 75.2264 49.2706 71.0107 51.2672C66.7843 53.2638 64.9047 58.5357 66.8162 63.0337Z" fill="black" stroke="black" stroke-width="0.5542" stroke-miterlimit="10"/>
<path d="M66.9112 63.7628C68.8014 68.2384 73.7499 70.2574 77.9444 68.2832C82.1389 66.2978 84.0079 61.0596 82.1177 56.5841C80.2275 52.1085 75.2791 50.0895 71.0845 52.0637C66.89 54.0491 65.0211 59.2873 66.9112 63.7628Z" fill="white"/>
<path d="M69.5776 62.5071C70.8094 65.4123 74.0164 66.7246 76.7455 65.4459C79.4746 64.156 80.6851 60.7573 79.4533 57.8521C78.2215 54.9469 75.0146 53.6346 72.2855 54.9133C69.5564 56.192 68.3458 59.5907 69.5776 62.5071Z" fill="black"/>
<path d="M76.8725 58.5128C77.1699 59.2195 78.2105 59.4101 79.1981 58.939C80.1857 58.4792 80.7379 57.5257 80.4405 56.8303C80.1432 56.1236 79.1025 55.9329 78.115 56.404C77.138 56.8639 76.5752 57.8174 76.8725 58.5128Z" fill="white"/>
<path d="M55.0488 77.1104C55.0488 77.1104 58.4682 82.2925 64.3723 79.9146" stroke="#84332D" stroke-width="0.7986" stroke-linecap="round" stroke-linejoin="round"/>
<path d="M56.8242 80.6777C58.056 82.035 59.9993 82.6182 61.7302 82.1583" stroke="#84332D" stroke-width="0.7986" stroke-linecap="round" stroke-linejoin="round"/>
<path d="M28.5339 52.007C29.5852 45.0974 29.7976 41.9118 30.3392 34.935C32.6754 39.8479 41.8821 46.7687 45.4182 46.9594C47.4571 47.0716 49.6977 47.2286 51.1737 45.7368C52.6604 44.2449 52.9471 41.4407 51.4711 39.9489C52.9683 42.1923 54.4762 44.4693 56.4408 46.2752C58.3947 48.0811 60.8689 49.4159 63.4706 49.4159C66.1891 49.4159 68.865 47.868 70.3305 45.4451C71.7959 43.0223 72.0083 39.8143 70.8614 37.2008C72.8472 40.1844 74.8648 43.2018 77.4558 45.6134C80.0575 48.025 83.3282 49.7973 86.79 49.8197C90.2412 49.8421 93.8198 47.8343 95.1259 44.4581C96.4852 40.9584 95.2534 36.9876 93.8941 33.488C90.6978 25.2212 86.5139 16.8983 79.4735 11.9629C74.6737 8.59782 68.8438 7.08354 63.0883 7.04989C57.3328 7.00502 51.6303 8.38471 46.204 10.4262C34.8523 14.6886 24.2226 22.2375 18.1804 33.2412C14.485 39.9601 12.7859 47.9914 13.6142 55.7198C14.0283 59.5671 15.069 63.4145 16.853 66.802C19.2104 71.2551 22.1731 67.2731 24.1058 64.3343C26.5057 60.6776 27.8649 56.3479 28.5339 52.007Z" fill="#773D14"/>
<path d="M38.6328 28.6653C40.4487 31.9182 43.0716 34.6775 46.1617 36.5731C47.4785 37.3808 49.1563 38.0201 50.4518 37.1789C51.4394 36.5395 51.8429 35.1823 51.7367 33.9596C51.6305 32.737 51.0996 31.6153 50.5792 30.5161C52.1933 33.0286 54.4021 35.1149 56.94 36.5283C59.2019 37.7846 62.3133 38.3566 64.0654 36.3937C65.1485 35.1935 65.3609 33.3315 64.9999 31.7163C64.6388 30.101 63.7893 28.6653 62.9504 27.252" stroke="#8D5428" stroke-width="0.7986" stroke-linecap="round" stroke-linejoin="round"/>
<path d="M80.8652 31.4918C81.3962 33.0285 81.959 34.61 83.0315 35.7766C84.1147 36.9431 85.8668 37.5825 87.2473 36.8422C88.3835 36.2252 88.9782 34.8231 89.0419 33.4771C89.1056 32.1311 88.7127 30.8075 88.3304 29.5176" stroke="#8D5428" stroke-width="0.7986" stroke-linecap="round" stroke-linejoin="round"/>
<path d="M12.2867 58.5694C11.9681 60.6446 13.7734 62.787 15.7591 62.686C17.7449 62.5851 19.359 60.2856 18.8493 58.2442C18.605 59.2313 19.4333 60.2744 20.3996 60.4202C21.3554 60.5661 22.3217 59.994 22.927 59.1976C23.5323 58.4012 23.8615 57.4029 24.1376 56.4271C25.5605 51.4356 26.2295 46.2085 26.1021 41.0039" stroke="#8D5428" stroke-width="0.7986" stroke-linecap="round" stroke-linejoin="round"/>
<path d="M64.6602 17.5268C65.5946 18.5139 66.5716 19.5234 67.7715 20.0955C68.9821 20.6787 70.5006 20.7348 71.5519 19.8936C72.6138 19.0523 72.8899 17.1567 71.8811 16.2481C72.9536 17.5605 74.9712 18.1662 76.288 17.123C77.5835 16.0911 77.626 13.9487 76.8296 12.468C76.0332 10.9762 74.6208 10.0003 73.2616 9.06934" stroke="#8D5428" stroke-width="0.7986" stroke-linecap="round" stroke-linejoin="round"/>
<path d="M11.8398 42.0577C12.1584 43.1681 13.5601 43.5944 14.5902 43.1793C15.6202 42.7643 16.3317 41.766 16.9051 40.7677C18.3812 38.2327 19.3688 35.3949 19.8148 32.4561" stroke="#8D5428" stroke-width="0.7986" stroke-linecap="round" stroke-linejoin="round"/>
<path d="M43.6445 17.661C45.5453 18.5808 47.5948 19.1305 49.6761 19.2875C50.5788 19.3548 51.5876 19.3099 52.2353 18.6481C52.8937 17.9863 52.968 16.8647 52.6707 15.9561C52.3734 15.0475 51.7575 14.3072 51.1522 13.5781" stroke="#8D5428" stroke-width="0.7986" stroke-linecap="round" stroke-linejoin="round"/>
<path d="M28.7988 90.9854C29.4254 93.1951 30.8802 95.1356 32.7704 96.2909C34.6605 97.4462 36.9649 97.8164 39.0993 97.3116" stroke="#8D5428" stroke-width="0.7986" stroke-linecap="round" stroke-linejoin="round"/>
<path d="M23.7972 30.1009C21.3017 28.1379 19.1885 25.6366 17.6169 22.8099C17.3408 22.3164 17.0753 21.7779 17.0647 21.2059C17.0541 20.6338 17.3621 20.0057 17.893 19.8711C18.6364 19.6916 19.2416 20.488 19.6345 21.1835C21.0256 23.6512 22.4167 26.1301 23.8078 28.5978C22.6503 25.0645 22.0557 21.3181 22.045 17.5829C22.045 17.022 22.0557 16.4387 22.2681 15.9228C22.4698 15.4068 22.9158 14.9469 23.4468 14.902C23.9883 14.8572 24.498 15.2386 24.7848 15.7321C25.0609 16.2256 25.1564 16.8089 25.2414 17.3809C25.783 21.3629 25.7617 25.4234 25.1883 29.4054" fill="#773D14"/>
<path d="M26.8137 62.0578C26.8137 62.0578 31.4011 47.0384 36.5514 48.3508C41.7122 49.6632 34.2576 60.2519 33.0258 61.6427C31.8047 63.0449 26.219 67.812 26.8137 62.0578Z" fill="#773D14"/>
<path d="M80.9924 43.729C80.9924 43.729 68.961 34.3742 65.4992 38.6254C62.048 42.8765 73.952 46.8585 75.7253 47.2287C77.4881 47.6101 84.6666 48.0363 80.9924 43.729Z" fill="#773D14"/>
<path opacity="0.05" d="M90.0073 69.8481C96.0522 62.8688 95.5963 52.0347 88.989 45.6495C82.3817 39.2643 72.125 39.7459 66.0801 46.7252C60.0351 53.7045 60.4911 64.5385 67.0984 70.9238C73.7057 77.309 83.9624 76.8274 90.0073 69.8481Z" fill="white"/>
<path d="M79.1969 78.086C69.1089 78.4786 60.603 70.1333 60.2313 59.4773C59.8597 48.8213 67.7602 39.8366 77.8483 39.444C87.9364 39.0514 96.4422 47.3967 96.8139 58.0527C97.1856 68.7087 89.285 77.6934 79.1969 78.086ZM77.9651 42.652C69.5549 42.9773 62.9604 50.4813 63.2684 59.3651C63.5763 68.2488 70.6805 75.2145 79.0907 74.8892C87.501 74.5639 94.0954 67.0598 93.7875 58.1761C93.4689 49.2924 86.3754 42.3267 77.9651 42.652Z" fill="#2A2A3C"/>
<g opacity="0.46">
<path d="M70.2661 48.7988C70.2661 48.7988 63.438 56.8301 68.2272 65.9157" stroke="white" stroke-width="0.7986" stroke-linecap="round" stroke-linejoin="round"/>
</g>
<path d="M58.5762 68.2378C60.9548 67.8901 63.5459 63.1117 65.4892 67.3405C67.4324 71.5692 61.8044 74.9455 61.8044 74.9455" fill="#EABAAF"/>
<path d="M54.2852 55.249C54.2852 55.249 56.186 68.5859 58.5753 68.2381C60.9539 67.8904 63.545 63.112 65.4882 67.3408C67.4315 71.5695 61.8034 74.9458 61.8034 74.9458" stroke="#84332D" stroke-width="0.7986" stroke-linecap="round" stroke-linejoin="round"/>
<path opacity="0.05" d="M48.9452 81.9086C54.88 74.8243 54.2542 63.9994 47.5474 57.7305C40.8407 51.4616 30.5927 52.1227 24.658 59.2069C18.7232 66.2912 19.349 77.1161 26.0557 83.385C32.7625 89.6539 43.0104 88.9928 48.9452 81.9086Z" fill="white"/>
<path d="M37.9528 90.3243C27.8647 90.7169 19.3589 82.3715 18.9872 71.7155C18.6155 61.0595 26.5161 52.0748 36.6042 51.6822C46.6923 51.2897 55.1981 59.635 55.5698 70.291C55.9308 80.947 48.0303 89.9317 37.9528 90.3243ZM36.7104 54.8902C28.3001 55.2155 21.7057 62.7196 22.0136 71.6034C22.3216 80.4871 29.4257 87.4528 37.836 87.1275C46.2463 86.8022 52.8407 79.2981 52.5327 70.4144C52.2142 61.5306 45.1206 54.565 36.7104 54.8902Z" fill="#2A2A3C"/>
<g opacity="0.46">
<path d="M29.0219 61.0479C29.0219 61.0479 22.1939 69.0791 26.9831 78.1647" stroke="white" stroke-width="0.7986" stroke-linecap="round" stroke-linejoin="round"/>
</g>
<path d="M53.8391 67.3177L52.1719 64.8613C52.363 64.6593 56.9717 59.8361 62.5254 61.1148L62.0901 64.2668C57.715 63.2685 53.8709 67.2841 53.8391 67.3177Z" fill="#2A2A3C"/>
<path d="M24.9551 23.808C27.2488 17.0891 31.5707 11.1666 37.1351 7.10613C42.6995 3.04564 49.485 0.892002 56.2387 1.00417C58.8723 1.04904 61.6651 1.52014 63.619 3.38213C65.5729 5.24413 66.1676 8.87839 64.2243 10.7516" stroke="#773D14" stroke-width="0.7986" stroke-miterlimit="10" stroke-linecap="round" stroke-linejoin="round"/>
<defs>
<radialGradient id="paint0_radial_1290_1065" cx="0" cy="0" r="1" gradientUnits="userSpaceOnUse" gradientTransform="translate(104.788 155.731) rotate(-20.3124) scale(10.3738 10.8208)">
<stop offset="0.1463" stop-color="#D8514E"/>
<stop offset="0.2701" stop-color="#D95754" stop-opacity="0.8549"/>
<stop offset="0.4356" stop-color="#DC6863" stop-opacity="0.6611"/>
<stop offset="0.6246" stop-color="#E0847D" stop-opacity="0.4397"/>
<stop offset="0.8294" stop-color="#E6AAA1" stop-opacity="0.1999"/>
<stop offset="1" stop-color="#ECD0C4" stop-opacity="0"/>
</radialGradient>
<radialGradient id="paint1_radial_1290_1065" cx="0" cy="0" r="1" gradientUnits="userSpaceOnUse" gradientTransform="translate(22.1725 157.174) rotate(-22.0002) scale(11.5195 8.86789)">
<stop offset="0.1463" stop-color="#D8514E"/>
<stop offset="0.2701" stop-color="#D95754" stop-opacity="0.8549"/>
<stop offset="0.4356" stop-color="#DC6863" stop-opacity="0.6611"/>
<stop offset="0.6246" stop-color="#E0847D" stop-opacity="0.4397"/>
<stop offset="0.8294" stop-color="#E6AAA1" stop-opacity="0.1999"/>
<stop offset="1" stop-color="#ECD0C4" stop-opacity="0"/>
</radialGradient>
<radialGradient id="paint2_radial_1290_1065" cx="0" cy="0" r="1" gradientUnits="userSpaceOnUse" gradientTransform="translate(45.0344 84.0285) rotate(-2.93136) scale(11.4372 8.93174)">
<stop offset="0.1463" stop-color="#D8514E"/>
<stop offset="0.2701" stop-color="#D95754" stop-opacity="0.8549"/>
<stop offset="0.4356" stop-color="#DC6863" stop-opacity="0.6611"/>
<stop offset="0.6246" stop-color="#E0847D" stop-opacity="0.4397"/>
<stop offset="0.8294" stop-color="#E6AAA1" stop-opacity="0.1999"/>
<stop offset="1" stop-color="#ECD0C4" stop-opacity="0"/>
</radialGradient>
<radialGradient id="paint3_radial_1290_1065" cx="0" cy="0" r="1" gradientUnits="userSpaceOnUse" gradientTransform="translate(78.6805 73.4366) rotate(-21.1219) scale(11.514 8.87196)">
<stop offset="0.1463" stop-color="#D8514E"/>
<stop offset="0.2701" stop-color="#D95754" stop-opacity="0.8549"/>
<stop offset="0.4356" stop-color="#DC6863" stop-opacity="0.6611"/>
<stop offset="0.6246" stop-color="#E0847D" stop-opacity="0.4397"/>
<stop offset="0.8294" stop-color="#E6AAA1" stop-opacity="0.1999"/>
<stop offset="1" stop-color="#ECD0C4" stop-opacity="0"/>
</radialGradient>
</defs>
</svg>
