<svg width="213" height="291" viewBox="0 0 213 291" fill="none" xmlns="http://www.w3.org/2000/svg">
<path d="M12.7283 231.905C7.66536 238.616 3.35951 245.834 0 253.389C9.55804 250.181 22.1917 253.811 27.1127 261.788C29.6678 265.924 30.4249 270.778 32.5068 275.125C35.9136 282.216 43.0585 287.829 51.4336 289.94C59.7614 292.05 69.1775 290.573 76.2278 286.099C74.477 279.937 73.8146 273.774 73.1048 267.443C70.1238 269.005 66.5751 270.356 63.1682 270.102C59.2409 269.807 56.0234 267.064 54.1307 263.982C52.238 260.901 51.339 257.44 49.9195 254.148C44.2887 241.106 28.3902 232.876 12.7283 231.905Z" fill="#D2593E"/>
<g clip-path="url(#clip0_1290_1068)">
<path d="M208.314 121.987C208.314 117.759 203.807 108.258 203.741 103.421C203.654 97.2538 209.033 91.4574 208.858 84.9854C208.728 79.8427 203.066 74.0462 202.958 69.1432C202.631 56.4389 206.224 50.7078 205.353 40.6621C201.368 -5.53529 140.008 -6.53768 123.264 9.06482C116.209 10.5684 91.735 16.975 88.0333 34.2119C85.9212 44.0833 89.6446 50.1412 88.4253 62.8019C87.968 67.6832 81.893 73.0874 81.414 78.1865C80.8043 84.6149 85.747 90.7818 85.2245 96.927C84.8108 101.721 79.6503 110.895 79.3454 115.123C78.6704 124.907 82.1543 128.895 83.8309 131.684C83.8309 131.684 86.2261 132.054 90.1672 132.556C91.1035 132.665 92.3446 124.929 93.4333 125.059C94.7616 125.212 95.9591 133.231 97.4833 133.405C108.523 134.604 124.287 135.846 137.265 135.062C137.33 135.279 137.374 135.388 137.374 135.388C150.787 139.551 174.063 139.507 188.891 138.962C190.416 138.897 192.179 130.987 193.529 130.921C194.64 130.878 195.337 138.679 196.273 138.614C200.236 138.396 202.653 138.2 202.653 138.2C204.547 135.519 208.292 131.793 208.314 121.987Z" fill="#ECB845"/>
<path d="M112.659 16.8008C105.212 21.0719 99.4421 28.154 96.7421 36.3039C94.0639 44.4538 94.5211 53.6061 97.9614 61.451C99.6163 65.1991 101.968 69.2304 100.618 73.0875C99.0284 77.5765 93.2147 79.2544 91.1461 83.5472C89.6655 86.598 90.4493 90.2589 91.6034 93.4405C92.7574 96.6438 94.2816 99.8253 94.1945 103.225C94.0856 107.67 91.2985 111.505 89.2735 115.45C87.2485 119.394 86.0727 124.558 88.8816 128.001" stroke="#EAC274" stroke-width="0.458" stroke-miterlimit="10" stroke-linecap="round" stroke-linejoin="round"/>
<path d="M173.061 4.55371C181.618 7.49552 189.065 13.5317 193.724 21.2894C198.384 29.047 200.235 38.439 198.863 47.3952C198.188 51.6881 196.816 55.8502 196.054 60.1431C195.292 64.4359 195.205 69.0121 197.012 72.9563C198.536 76.2686 201.389 79.2104 201.323 82.8495C201.258 87.4692 196.533 90.7597 195.553 95.2923C194.552 99.9338 197.665 104.292 199.582 108.629C203.044 116.452 202.608 125.887 198.449 133.383" stroke="#EAC274" stroke-width="0.458" stroke-miterlimit="10" stroke-linecap="round" stroke-linejoin="round"/>
<path d="M185.559 76.9004C188.39 78.3168 189.653 81.8034 189.413 84.9413C189.174 88.0793 187.759 90.9993 186.43 93.8757C185.102 96.7304 183.818 99.7594 183.926 102.919C184.013 106.079 185.494 109.042 187.018 111.81C188.543 114.599 190.176 117.41 190.655 120.526C191.134 123.664 190.197 127.238 187.519 128.938" stroke="#EAC274" stroke-width="0.458" stroke-miterlimit="10" stroke-linecap="round" stroke-linejoin="round"/>
<path d="M108.74 75.2012C105.495 77.9033 104.798 82.7409 105.691 86.8595C106.584 90.9998 108.761 94.7043 110.416 98.6049C112.071 102.506 113.225 106.907 111.94 110.917C111.156 113.314 109.632 115.362 108.696 117.672C107.76 119.982 107.564 122.902 109.262 124.733" stroke="#EAC274" stroke-width="0.458" stroke-miterlimit="10" stroke-linecap="round" stroke-linejoin="round"/>
<path d="M119.868 15.6458C116.471 13.4231 114.011 9.78401 113.27 5.77443C113.052 4.5977 113.27 2.98515 114.446 2.78903C115.491 2.6147 116.232 3.76964 116.667 4.75024C117.843 7.43056 119.04 10.0891 120.216 12.7694C119.933 9.67505 119.65 6.5807 119.367 3.50814C119.28 2.48396 119.28 1.24186 120.151 0.718869C120.782 0.326627 121.653 0.522748 122.219 1.02395C122.786 1.50335 123.112 2.22246 123.352 2.91978C124.615 6.38458 124.527 10.3288 123.134 13.75" fill="#ECB845"/>
<path d="M84.1137 133.231C78.2782 127.675 76.6016 118.283 80.1943 111.113C81.958 107.605 84.8322 104.532 85.5725 100.675C87.0967 92.7868 79.0838 85.3342 80.6733 77.4676C81.4572 73.5234 84.5274 70.429 86.0951 66.7027C89.4266 58.7925 85.5508 49.8799 85.529 41.316C85.5072 33.1443 89.5354 25.2994 95.6104 19.7427C101.446 14.4256 112.42 11.6146 117.319 11.5928C122.218 11.5928 118.843 16.8662 121.13 21.1373" stroke="#ECB845" stroke-width="0.458" stroke-miterlimit="10" stroke-linecap="round" stroke-linejoin="round"/>
<path d="M204.873 139.529C210.012 133.101 211.797 124.101 209.467 116.191C207.856 110.656 204.329 105.121 205.896 99.564C207.203 94.9225 211.841 91.5231 212.276 86.7072C212.755 81.2376 207.725 77.0755 205.33 72.1507C202.674 66.7247 203.283 60.3181 204.546 54.4127C205.809 48.5072 207.704 42.6236 207.421 36.6092C206.898 25.5175 198.885 15.7768 189.065 10.5905C179.245 5.40423 167.857 4.07497 156.752 3.81348" stroke="#ECB845" stroke-width="0.458" stroke-miterlimit="10" stroke-linecap="round" stroke-linejoin="round"/>
<path d="M176.893 196.316L110.285 193.963C101.576 193.658 95.3484 186.184 96.3718 177.532L105.038 103.835C105.8 97.4061 112.267 92.5249 119.496 92.7864L174.824 94.7476C182.075 95.0091 188.172 100.326 188.477 106.798L191.939 180.91C192.331 189.605 185.624 196.621 176.893 196.316Z" fill="#615BA3"/>
<path opacity="0.3" d="M175.15 193.419L112.244 191.196C104.014 190.913 98.1347 183.852 99.1145 175.681L107.302 106.101C108.02 100.043 114.117 95.4235 120.954 95.6632L173.212 97.5155C180.049 97.7552 185.819 102.789 186.102 108.89L189.369 178.884C189.717 187.099 183.381 193.724 175.15 193.419Z" fill="#615BA3"/>
<path d="M105.453 259.663C105.453 259.663 107.347 190.084 109.786 184.811C117.32 168.511 177.482 169.557 181.554 187.055C185.713 204.967 189.567 263.738 189.567 263.738C189.567 263.738 178.963 268.729 168.62 266.658L153.03 213.662L138.572 216.539L125.899 264.305C125.856 264.348 117.255 268.271 105.453 259.663Z" fill="#D46954"/>
<path d="M184.1 202.942C183.295 196.47 182.424 190.869 181.553 187.078C177.481 169.579 117.34 168.533 109.785 184.833C108.979 186.555 108.239 195.184 107.607 206.014C126.29 204.728 144.82 205.622 162.783 204.031C169.816 203.704 176.915 203.334 184.1 202.942Z" fill="#D2593E"/>
<path d="M175.827 101.438C168.51 95.8159 155.424 103.683 148.13 104.118C140.879 103.16 126.16 93.5714 118.974 99.978C115.185 103.356 99.0508 180.475 106.737 186.206C112.834 190.738 128.098 192.787 143.862 193.353C163.829 194.051 176.632 193.005 183.012 188.908C191.069 183.743 179.833 104.532 175.827 101.438Z" fill="#AFA7CF"/>
<path d="M134.303 102.287C130.666 102.788 130.579 105.665 130.579 105.665C130.362 111.854 135.195 117.062 141.401 117.28L148.957 117.541C156.099 117.803 162.152 112.943 162.413 105.796C162.413 105.796 162.805 102.636 159.016 102.505C154.183 102.353 145.081 100.784 134.303 102.287Z" fill="#D46954"/>
<path d="M177.568 139.377C185.407 140.749 193.246 141.817 201.106 142.667C201.237 141.795 201.324 140.793 201.302 140.052C201.281 139.028 201.193 138.091 201.085 137.35C200.845 135.781 197.601 122.663 188.804 108.128C184.231 102.048 175.108 100.37 174.15 100.283C168.227 99.6948 164.831 104.206 164.221 109.893L164.112 110.983C163.916 112.791 164.439 114.295 165.114 115.646C165.876 116.953 166.681 118.217 167.443 119.525C168.989 122.096 170.47 124.689 171.864 127.282C173.235 129.854 174.585 132.425 175.674 134.888C176.218 136.108 176.697 137.306 177.068 138.352C177.155 138.614 177.242 138.854 177.307 139.093C177.547 139.398 177.59 139.115 177.568 139.377Z" fill="#AFA7CF"/>
<path d="M185.843 166.223L183.426 162.496C182.62 161.211 181.815 159.968 181.053 158.661C179.507 156.068 178.004 153.475 176.654 150.838C175.304 148.201 173.998 145.543 172.953 142.841C172.365 141.511 171.951 140.138 171.428 138.809C171.211 138.134 171.015 137.458 170.819 136.783L170.514 135.78C170.427 135.453 170.361 135.105 170.274 134.778L169.795 132.751L169.36 130.507C169.033 129.003 168.837 127.521 168.576 126.018C168.14 123.054 167.77 120.091 167.596 117.214C167.465 114.359 167.444 111.527 167.792 108.933C167.944 107.626 168.184 106.406 168.511 105.251C168.837 104.118 169.425 102.374 170.078 101.742C170.753 101.067 173.105 100.239 173.105 100.239C175.282 101.437 174.019 98.3212 169.207 97.4277C166.769 96.9701 164.265 97.7982 163.829 98.125C162.98 98.7788 162.065 99.5851 161.695 100.37C160.715 102.047 159.932 103.834 159.322 105.665C158.124 109.348 157.624 113.117 157.449 116.8C157.297 120.505 157.515 124.122 157.907 127.674C158.146 129.439 158.364 131.204 158.712 132.926C158.865 133.797 159.017 134.647 159.191 135.519L159.866 138.264C159.975 138.722 160.084 139.18 160.215 139.637L160.65 140.945C160.955 141.816 161.216 142.71 161.543 143.56C162.218 145.238 162.871 146.937 163.655 148.506C165.136 151.731 166.899 154.673 168.75 157.484C170.601 160.295 172.648 162.889 174.76 165.307C175.304 165.917 175.827 166.506 176.393 167.094C176.937 167.683 177.503 168.271 178.069 168.816C179.224 169.949 180.334 170.973 181.662 172.041C183.186 173.261 185.211 172.825 186.191 171.017C186.953 169.6 186.844 167.77 185.995 166.44L185.843 166.223Z" fill="#615BA3"/>
<path d="M185.843 166.223L183.426 162.496C182.62 161.211 181.815 159.968 181.053 158.661C179.507 156.068 178.004 153.475 176.654 150.838C175.304 148.201 173.998 145.543 172.953 142.841C172.365 141.511 171.951 140.138 171.428 138.809C171.211 138.134 171.015 137.458 170.819 136.783L170.514 135.78C170.427 135.453 170.361 135.105 170.274 134.778L169.795 132.751L169.36 130.507C169.033 129.003 168.837 127.521 168.576 126.018C168.14 123.054 167.77 120.091 167.596 117.214C167.465 114.359 167.444 111.527 167.792 108.933C167.944 107.626 168.184 106.406 168.511 105.251C168.837 104.118 169.425 102.374 170.078 101.742C170.753 101.067 173.105 100.239 173.105 100.239C175.282 101.437 174.019 98.3212 169.207 97.4277C166.769 96.9701 164.265 97.7982 163.829 98.125C162.98 98.7788 162.065 99.5851 161.695 100.37C160.715 102.047 159.932 103.834 159.322 105.665C158.124 109.348 157.624 113.117 157.449 116.8C157.297 120.505 157.515 124.122 157.907 127.674C158.146 129.439 158.364 131.204 158.712 132.926C158.865 133.797 159.017 134.647 159.191 135.519L159.866 138.264C159.975 138.722 160.084 139.18 160.215 139.637L160.65 140.945C160.955 141.816 161.216 142.71 161.543 143.56C162.218 145.238 162.871 146.937 163.655 148.506C165.136 151.731 166.899 154.673 168.75 157.484C170.601 160.295 172.648 162.889 174.76 165.307C175.304 165.917 175.827 166.506 176.393 167.094C176.937 167.683 177.503 168.271 178.069 168.816C179.224 169.949 180.334 170.973 181.662 172.041C183.186 173.261 185.211 172.825 186.191 171.017C186.953 169.6 186.844 167.77 185.995 166.44L185.843 166.223Z" fill="#615BA3"/>
<path opacity="0.3" d="M185.843 166.223L183.426 162.496C182.62 161.211 181.815 159.968 181.053 158.661C179.507 156.068 178.004 153.475 176.654 150.838C175.304 148.201 173.998 145.543 172.953 142.841C172.365 141.511 171.951 140.138 171.428 138.809C171.211 138.134 171.015 137.458 170.819 136.783L170.514 135.78C170.427 135.453 170.361 135.105 170.274 134.778L169.795 132.751L169.36 130.507C169.033 129.003 168.837 127.521 168.576 126.018C168.14 123.054 167.77 120.091 167.596 117.214C167.465 114.359 167.444 111.527 167.792 108.933C167.944 107.626 168.184 106.406 168.511 105.251C168.837 104.118 169.425 102.374 170.078 101.742C170.753 101.067 173.105 100.239 173.105 100.239C175.282 101.437 174.019 98.3212 169.207 97.4277C166.769 96.9701 164.265 97.7982 163.829 98.125C162.98 98.7788 162.065 99.5851 161.695 100.37C160.715 102.047 159.932 103.834 159.322 105.665C158.124 109.348 157.624 113.117 157.449 116.8C157.297 120.505 157.515 124.122 157.907 127.674C158.146 129.439 158.364 131.204 158.712 132.926C158.865 133.797 159.017 134.647 159.191 135.519L159.866 138.264C159.975 138.722 160.084 139.18 160.215 139.637L160.65 140.945C160.955 141.816 161.216 142.71 161.543 143.56C162.218 145.238 162.871 146.937 163.655 148.506C165.136 151.731 166.899 154.673 168.75 157.484C170.601 160.295 172.648 162.889 174.76 165.307C175.304 165.917 175.827 166.506 176.393 167.094C176.937 167.683 177.503 168.271 178.069 168.816C179.224 169.949 180.334 170.973 181.662 172.041C183.186 173.261 185.211 172.825 186.191 171.017C186.953 169.6 186.844 167.77 185.995 166.44L185.843 166.223Z" fill="#615BA3"/>
<path d="M187.433 166.288L185.016 162.562C184.21 161.276 183.405 160.034 182.643 158.726C181.097 156.133 179.594 153.54 178.244 150.903C176.894 148.267 175.588 145.608 174.543 142.906C173.955 141.577 173.541 140.204 173.018 138.875C172.801 138.199 172.605 137.524 172.409 136.848L172.104 135.846C172.017 135.519 171.952 135.17 171.864 134.843L171.385 132.817L170.95 130.572C170.623 129.069 170.427 127.587 170.166 126.083C169.731 123.12 169.36 120.156 169.186 117.28C169.056 114.425 169.034 111.592 169.382 108.999C169.535 107.691 169.774 106.471 170.101 105.316C170.427 104.183 171.015 102.44 171.668 101.808C172.3 101.067 174.673 100.239 174.673 100.239C176.851 101.437 175.588 98.3212 170.776 97.4277C168.337 96.9701 165.833 97.7982 165.398 98.125C164.548 98.7788 163.634 99.5851 163.264 100.37C162.284 102.047 161.5 103.834 160.89 105.665C159.693 109.348 159.192 113.117 159.018 116.8C158.865 120.505 159.083 124.122 159.475 127.674C159.714 129.439 159.932 131.204 160.281 132.926C160.433 133.797 160.585 134.647 160.76 135.519L161.435 138.264C161.543 138.722 161.652 139.18 161.783 139.637L162.218 140.945C162.523 141.816 162.785 142.71 163.111 143.56C163.786 145.238 164.439 146.937 165.223 148.506C166.704 151.731 168.468 154.673 170.319 157.484C172.169 160.295 174.216 162.889 176.328 165.307C176.873 165.917 177.395 166.506 177.961 167.094C178.506 167.683 179.072 168.271 179.638 168.816C180.792 169.949 181.902 170.973 183.231 172.041C184.755 173.261 186.78 172.825 187.76 171.017C188.522 169.6 188.413 167.77 187.564 166.44L187.433 166.288Z" fill="#615BA3"/>
<path d="M98.3972 266.92C99.7472 270.189 99.2464 273.392 97.6787 276.377C94.2819 275.985 92.8013 275.506 89.9488 274.808C89.9271 274.787 88.4029 268.511 98.3972 266.92Z" fill="white"/>
<path d="M98.2439 266.702C100.574 266.332 100.661 266.288 101.619 266.288C101.619 266.288 101.009 257.136 109.479 258.116C113.921 258.618 115.968 262.475 115.663 264.371C115.685 264.262 115.729 264.327 115.663 264.371C116.055 263.412 116.817 262.126 119.256 261.167C123.001 259.707 127.029 262.584 126.833 266.593L126.354 276.792C126.354 276.792 112.985 277.968 97.5254 276.16C99.0931 273.174 99.6157 269.949 98.2439 266.702Z" fill="#615BA3"/>
<path d="M126.508 277.009L126.421 279.297C126.421 279.297 105.213 281.629 90.3632 277.205C90.3632 277.205 89.6664 274.46 90.2979 274.59C108.24 278.164 126.508 277.009 126.508 277.009Z" fill="white"/>
<path d="M117.319 269.752C117.254 271.191 118.386 272.411 119.823 272.476C121.26 272.542 122.48 271.408 122.545 269.97C122.61 268.532 121.478 267.312 120.041 267.246C118.582 267.203 117.384 268.314 117.319 269.752Z" fill="white"/>
<path d="M101.816 265.983L110.83 266.898C111.113 266.92 111.331 267.182 111.288 267.465C111.266 267.748 111.026 267.944 110.743 267.923H110.721L101.707 267.007C101.424 266.986 101.206 266.724 101.25 266.441C101.293 266.157 101.533 265.94 101.816 265.983Z" fill="white"/>
<path d="M97.5255 260.513C97.4166 261.319 98.0916 261.93 98.3311 262.126C99.1803 262.867 100.313 263.607 101.575 264.152C101.532 264.436 101.728 264.697 102.011 264.741L104.711 265.111C104.798 265.155 104.863 265.198 104.95 265.198C105.016 265.198 105.081 265.198 105.146 265.176L111.417 266.026C111.439 266.026 111.439 266.026 111.461 266.026C111.722 266.048 111.962 265.852 111.984 265.569C112.027 265.285 111.831 265.024 111.548 264.98L105.669 264.196C105.321 263.411 105.146 262.562 104.994 261.668C104.776 260.535 104.559 259.358 103.927 258.247C103.731 257.876 103.492 257.506 103.1 257.244C102.599 256.896 101.946 256.874 101.51 257.201C101.14 257.462 100.792 258.029 101.118 259.162C101.271 259.663 101.445 260.164 101.641 260.644C101.314 260.404 100.988 260.164 100.661 259.947C100.225 259.663 99.7029 259.336 99.0932 259.315C98.4182 259.293 97.6343 259.729 97.5255 260.513ZM104.21 262.932C104.145 262.867 104.101 262.823 104.036 262.758C103.187 261.581 102.534 260.252 102.142 258.857C102.011 258.443 102.011 258.094 102.142 258.007C102.163 257.985 102.229 257.964 102.272 257.985C102.359 257.985 102.446 258.029 102.534 258.073C102.729 258.203 102.904 258.487 103.034 258.704C103.579 259.685 103.775 260.709 103.992 261.821C104.058 262.191 104.123 262.562 104.21 262.932ZM98.5488 260.666C98.5706 260.491 98.8319 260.339 99.0932 260.361C99.4416 260.382 99.8117 260.6 100.138 260.818C101.271 261.581 102.316 262.453 103.274 263.433C103.339 263.52 103.404 263.607 103.47 263.695C101.946 263.346 100.334 262.496 99.0279 261.363C98.5924 260.993 98.5271 260.775 98.5488 260.666Z" fill="white"/>
<path d="M196.032 269.796C194.464 272.956 194.726 276.203 196.097 279.275C199.516 279.123 201.018 278.752 203.914 278.251C203.914 278.251 205.874 272.106 196.032 269.796Z" fill="white"/>
<path d="M196.184 269.578C193.876 269.033 193.81 269.011 192.83 268.924C192.83 268.924 194.072 259.837 185.58 260.207C181.116 260.403 178.808 264.086 178.96 266.026C178.938 265.917 178.895 265.982 178.96 266.026C178.634 265.045 177.959 263.694 175.607 262.583C171.971 260.861 167.747 263.432 167.659 267.464L167.42 277.662C167.42 277.662 180.659 279.776 196.227 279.057C194.877 275.984 194.594 272.737 196.184 269.578Z" fill="#615BA3"/>
<path d="M170.991 271.081C170.926 272.52 172.058 273.74 173.495 273.805C174.932 273.871 176.151 272.738 176.217 271.299C176.282 269.861 175.15 268.641 173.713 268.575C172.254 268.532 171.035 269.643 170.991 271.081Z" fill="white"/>
<path d="M167.268 277.88L167.203 280.168C167.203 280.168 188.193 284.003 203.305 280.626C203.305 280.626 204.197 277.945 203.544 278.011C185.406 280.321 167.268 277.88 167.268 277.88Z" fill="white"/>
<path d="M192.68 268.619L183.622 268.902C183.339 268.902 183.121 269.142 183.121 269.425C183.121 269.708 183.361 269.926 183.622 269.926H183.644L192.702 269.643C192.985 269.643 193.203 269.403 193.203 269.12C193.203 268.836 192.963 268.597 192.68 268.619Z" fill="white"/>
<path d="M195.837 262.169C195.227 262.147 194.683 262.43 194.226 262.692C193.877 262.888 193.529 263.106 193.202 263.324C193.442 262.866 193.659 262.365 193.834 261.886C194.247 260.774 193.921 260.186 193.594 259.902C193.18 259.554 192.527 259.51 192.005 259.815C191.613 260.055 191.351 260.404 191.112 260.752C190.415 261.82 190.11 262.975 189.805 264.086C189.566 264.98 189.348 265.808 188.934 266.571L183.012 266.941C182.729 266.963 182.511 267.203 182.533 267.486C182.555 267.747 182.772 267.965 183.034 267.965C183.055 267.965 183.055 267.965 183.077 267.965L189.392 267.573C189.457 267.595 189.522 267.617 189.588 267.617C189.675 267.617 189.762 267.595 189.849 267.551L192.571 267.377C192.854 267.355 193.071 267.115 193.05 266.832C194.356 266.396 195.532 265.721 196.425 265.045C196.664 264.871 197.405 264.304 197.339 263.498C197.296 262.67 196.534 262.191 195.837 262.169ZM190.807 264.326C191.09 263.237 191.373 262.212 191.983 261.275C192.135 261.057 192.309 260.796 192.527 260.665C192.614 260.622 192.701 260.6 192.788 260.6C192.854 260.6 192.897 260.622 192.919 260.643C193.028 260.752 193.028 261.079 192.854 261.493C192.353 262.866 191.613 264.13 190.676 265.241C190.611 265.307 190.567 265.35 190.502 265.416C190.611 265.045 190.698 264.697 190.807 264.326ZM195.793 264.195C194.4 265.241 192.745 265.96 191.199 266.222C191.264 266.135 191.33 266.069 191.417 265.982C192.418 265.067 193.529 264.261 194.726 263.585C195.075 263.389 195.445 263.193 195.793 263.193C196.033 263.193 196.294 263.367 196.294 263.542C196.316 263.651 196.229 263.869 195.793 264.195Z" fill="white"/>
<path d="M159.626 206.798L130.993 205.796C128.947 205.731 127.03 204.815 125.615 203.246C124.047 201.481 123.242 199.062 123.416 196.578L124.592 179.843C124.918 175.288 128.642 171.715 132.91 171.845L160.084 172.804C164.351 172.957 167.835 176.792 167.835 181.368V198.147C167.835 200.653 166.855 203.007 165.179 204.641C163.655 206.101 161.695 206.864 159.626 206.798ZM132.692 178.208C131.93 178.187 131.037 179.015 130.95 180.257L129.774 196.992C129.73 197.755 129.948 198.474 130.362 198.954C130.623 199.237 130.906 199.389 131.233 199.389L159.866 200.392C160.193 200.414 160.476 200.283 160.759 200.021C161.216 199.585 161.477 198.866 161.477 198.104V181.324C161.477 180.082 160.65 179.167 159.888 179.145L132.692 178.208Z" fill="#D77A9A"/>
<path d="M171.385 232.991L117.429 231.095C112.312 230.921 108.479 226.65 108.871 221.616L110.94 194.442C111.288 189.779 115.512 186.162 120.368 186.336L171.581 188.145C176.437 188.319 180.4 192.22 180.421 196.905L180.574 224.166C180.639 229.178 176.502 233.165 171.385 232.991Z" fill="#D77A9A"/>
<path d="M170.384 231.989L118.518 230.159C113.597 229.984 109.917 225.931 110.287 221.181L112.269 195.467C112.617 191.043 116.667 187.622 121.327 187.796L170.558 189.54C175.218 189.714 179.028 193.397 179.072 197.842L179.246 223.643C179.268 228.372 175.305 232.163 170.384 231.989Z" fill="#E189AD"/>
<path d="M169.687 207.648L166.138 206.297C165.855 206.188 165.55 206.232 165.289 206.406L162.175 208.564C161.544 208.999 160.695 208.52 160.738 207.757L160.912 203.966C160.934 203.661 160.782 203.377 160.542 203.203L157.515 200.893C156.906 200.435 157.102 199.477 157.82 199.281L161.522 198.3C161.805 198.213 162.045 197.995 162.153 197.712L163.416 194.116C163.656 193.397 164.636 193.288 165.049 193.92L167.14 197.101C167.314 197.363 167.575 197.515 167.88 197.515L171.669 197.603C172.431 197.624 172.845 198.496 172.365 199.084L169.992 202.048C169.796 202.288 169.753 202.593 169.84 202.876L170.928 206.515C171.103 207.256 170.406 207.91 169.687 207.648Z" fill="#E9B034"/>
<path d="M172.234 222.858L170.057 221.115C169.882 220.984 169.665 220.94 169.447 220.984L166.769 221.79C166.224 221.943 165.745 221.42 165.941 220.897L166.943 218.282C167.03 218.064 166.986 217.846 166.878 217.65L165.288 215.34C164.961 214.882 165.31 214.25 165.876 214.294L168.663 214.425C168.881 214.447 169.099 214.338 169.229 214.163L170.928 211.941C171.276 211.505 171.973 211.635 172.103 212.18L172.844 214.882C172.909 215.1 173.061 215.275 173.279 215.34L175.914 216.277C176.436 216.451 176.524 217.17 176.066 217.476L173.736 219.001C173.562 219.132 173.432 219.328 173.432 219.546L173.366 222.335C173.323 222.902 172.67 223.207 172.234 222.858Z" fill="#615BA3"/>
<path d="M155.49 220.897L153.029 219.568C152.833 219.459 152.594 219.459 152.398 219.568L149.915 220.832C149.415 221.093 148.848 220.658 148.957 220.113L149.458 217.367C149.502 217.149 149.436 216.931 149.262 216.779L147.281 214.796C146.889 214.403 147.107 213.728 147.673 213.663L150.438 213.292C150.656 213.27 150.852 213.118 150.939 212.922L152.202 210.437C152.463 209.936 153.16 209.958 153.399 210.459L154.619 212.987C154.706 213.183 154.902 213.336 155.119 213.357L157.885 213.793C158.429 213.88 158.647 214.556 158.255 214.948L156.23 216.888C156.077 217.04 155.99 217.258 156.034 217.476L156.469 220.243C156.557 220.745 155.969 221.159 155.49 220.897Z" fill="#6EB2AE"/>
<g opacity="0.24">
<path d="M113.443 221.507C113.792 216.451 114.118 211.374 114.467 206.318" stroke="white" stroke-width="0.458" stroke-linecap="round" stroke-linejoin="round"/>
</g>
<g opacity="0.24">
<path d="M114.598 204.205C114.924 201.11 115.273 198.038 115.599 194.943" stroke="white" stroke-width="0.458" stroke-linecap="round" stroke-linejoin="round"/>
</g>
<path d="M157.057 166.419C157.057 166.419 146.388 171.322 147.019 172.913C147.651 174.503 151.526 174.264 151.526 174.264C151.526 174.264 149.589 183.198 151.33 185.312C153.203 187.556 155.184 185.748 155.184 185.748C155.184 185.748 156.643 188.21 159.67 186.249C159.67 186.249 161.978 188.428 164.047 186.053C168.532 180.845 170.971 172.368 170.971 172.368L157.057 166.419Z" fill="#EABAAF"/>
<path d="M174.215 144.149C174.149 144.127 172.603 147.918 170.992 149.248C170.753 149.618 157.514 163.543 156.578 164.567C156.556 164.61 156.534 164.61 156.534 164.61L156.36 164.785C152.68 168.555 154.857 173.436 158.646 177.184C162.544 181.019 167.726 183.656 171.711 179.908C172.799 178.884 186.038 162.584 187.802 159.947C188.673 158.596 189.566 157.201 190.458 155.284C190.894 154.303 191.373 153.192 191.765 151.514C191.83 151.274 191.874 150.991 191.917 150.708" fill="#D46954"/>
<path d="M179.724 134.757C179.637 134.735 177.786 139.289 175.848 140.924C175.565 141.381 159.583 158.182 158.451 159.381C158.407 159.425 158.386 159.446 158.386 159.446L158.19 159.664C153.748 164.197 156.361 170.102 160.955 174.613C165.658 179.255 171.907 182.414 176.719 177.903C178.026 176.683 194.008 157.006 196.142 153.824C197.209 152.212 198.276 150.512 199.365 148.202C199.887 147.025 200.475 145.674 200.932 143.648C200.998 143.364 201.063 143.038 201.107 142.689" fill="#AFA7CF"/>
<path d="M116.818 137.24C108.892 138.068 100.988 138.57 93.1061 138.853C93.0408 137.959 93.019 136.979 93.0844 136.216C93.1715 135.192 93.3239 134.277 93.4981 133.536C93.8465 131.989 98.0053 119.132 107.804 105.251C112.79 99.4979 122.022 98.4737 122.98 98.4519C128.925 98.2776 131.995 103.006 132.213 108.737L132.256 109.849C132.321 111.679 131.69 113.139 130.928 114.425C130.079 115.667 129.186 116.887 128.337 118.129C126.617 120.592 124.962 123.076 123.394 125.56C121.848 128.044 120.324 130.507 119.061 132.86C118.43 134.037 117.863 135.192 117.428 136.216C117.319 136.478 117.232 136.717 117.145 136.935C116.818 137.262 116.796 136.957 116.818 137.24Z" fill="#AFA7CF"/>
<path d="M103.71 164.174L106.367 160.622C107.259 159.402 108.152 158.204 109.001 156.961C110.721 154.477 112.398 152.015 113.922 149.465C115.446 146.916 116.927 144.366 118.19 141.751C118.887 140.466 119.387 139.114 119.997 137.829C120.258 137.175 120.498 136.5 120.759 135.846L121.151 134.865C121.26 134.538 121.369 134.211 121.456 133.863L122.087 131.88L122.675 129.657C123.089 128.175 123.394 126.715 123.786 125.233C124.417 122.292 125.005 119.372 125.375 116.517C125.724 113.662 125.92 110.851 125.767 108.236C125.702 106.929 125.55 105.687 125.31 104.51C125.071 103.355 124.592 101.59 124.004 100.893C123.394 100.174 121.086 99.1712 121.086 99.1712C118.843 100.217 120.302 97.21 125.158 96.6434C127.618 96.3601 130.057 97.3408 130.471 97.7112C131.254 98.4085 132.125 99.2802 132.43 100.108C133.301 101.852 133.954 103.704 134.412 105.556C135.348 109.304 135.566 113.096 135.479 116.8C135.37 120.505 134.891 124.1 134.237 127.631C133.867 129.374 133.541 131.139 133.062 132.817C132.844 133.667 132.626 134.517 132.387 135.366L131.516 138.069C131.363 138.526 131.233 138.962 131.058 139.42L130.536 140.705C130.187 141.555 129.839 142.427 129.469 143.255C128.685 144.867 127.923 146.524 127.03 148.049C125.332 151.165 123.372 153.976 121.325 156.656C119.279 159.337 117.079 161.756 114.771 164.044C114.205 164.61 113.617 165.177 113.029 165.7C112.442 166.245 111.854 166.789 111.244 167.291C110.025 168.337 108.827 169.295 107.433 170.254C105.822 171.365 103.841 170.777 102.992 168.925C102.317 167.443 102.578 165.634 103.514 164.392L103.71 164.174Z" fill="#615BA3"/>
<path opacity="0.3" d="M103.71 164.174L106.367 160.622C107.259 159.402 108.152 158.204 109.001 156.961C110.721 154.477 112.398 152.015 113.922 149.465C115.446 146.916 116.927 144.366 118.19 141.751C118.887 140.466 119.387 139.114 119.997 137.829C120.258 137.175 120.498 136.5 120.759 135.846L121.151 134.865C121.26 134.538 121.369 134.211 121.456 133.863L122.087 131.88L122.675 129.657C123.089 128.175 123.394 126.715 123.786 125.233C124.417 122.292 125.005 119.372 125.375 116.517C125.724 113.662 125.92 110.851 125.767 108.236C125.702 106.929 125.55 105.687 125.31 104.51C125.071 103.355 124.592 101.59 124.004 100.893C123.394 100.174 121.086 99.1712 121.086 99.1712C118.843 100.217 120.302 97.21 125.158 96.6434C127.618 96.3601 130.057 97.3408 130.471 97.7112C131.254 98.4085 132.125 99.2802 132.43 100.108C133.301 101.852 133.954 103.704 134.412 105.556C135.348 109.304 135.566 113.096 135.479 116.8C135.37 120.505 134.891 124.1 134.237 127.631C133.867 129.374 133.541 131.139 133.062 132.817C132.844 133.667 132.626 134.517 132.387 135.366L131.516 138.069C131.363 138.526 131.233 138.962 131.058 139.42L130.536 140.705C130.187 141.555 129.839 142.427 129.469 143.255C128.685 144.867 127.923 146.524 127.03 148.049C125.332 151.165 123.372 153.976 121.325 156.656C119.279 159.337 117.079 161.756 114.771 164.044C114.205 164.61 113.617 165.177 113.029 165.7C112.442 166.245 111.854 166.789 111.244 167.291C110.025 168.337 108.827 169.295 107.433 170.254C105.822 171.365 103.841 170.777 102.992 168.925C102.317 167.443 102.578 165.634 103.514 164.392L103.71 164.174Z" fill="#615BA3"/>
<path d="M102.013 164.109L104.669 160.557C105.562 159.337 106.455 158.138 107.304 156.896C109.024 154.412 110.701 151.949 112.225 149.4C113.749 146.85 115.23 144.301 116.493 141.686C117.189 140.4 117.69 139.049 118.3 137.763C118.561 137.11 118.801 136.434 119.062 135.78L119.454 134.8C119.563 134.473 119.672 134.146 119.759 133.797L120.39 131.814L120.978 129.592C121.392 128.11 121.697 126.65 122.089 125.168C122.72 122.226 123.308 119.306 123.678 116.452C124.027 113.597 124.222 110.786 124.07 108.171C124.005 106.863 123.852 105.621 123.613 104.445C123.373 103.29 122.894 101.525 122.306 100.827C121.697 100.108 119.389 99.1058 119.389 99.1058C117.146 100.152 118.605 97.1446 123.46 96.578C125.921 96.2947 128.36 97.2753 128.773 97.6458C129.557 98.3431 130.428 99.2147 130.733 100.043C131.604 101.786 132.257 103.638 132.714 105.491C133.651 109.239 133.868 113.03 133.781 116.735C133.672 120.439 133.193 124.035 132.54 127.565C132.17 129.308 131.843 131.073 131.364 132.751C131.147 133.601 130.929 134.451 130.689 135.301L129.818 138.003C129.666 138.461 129.535 138.897 129.361 139.354L128.839 140.64C128.49 141.49 128.142 142.361 127.772 143.189C126.988 144.802 126.226 146.458 125.333 147.983C123.635 151.1 121.675 153.911 119.628 156.591C117.581 159.271 115.382 161.69 113.074 163.978C112.508 164.545 111.92 165.111 111.332 165.634C110.744 166.179 110.156 166.724 109.547 167.225C108.327 168.271 107.13 169.23 105.736 170.189C104.125 171.3 102.143 170.712 101.294 168.859C100.619 167.378 100.881 165.569 101.817 164.327L102.013 164.109Z" fill="#615BA3"/>
<path d="M135.327 165.635C135.327 165.635 145.626 171.279 144.886 172.804C144.146 174.329 140.292 173.828 140.292 173.828C140.292 173.828 141.598 182.872 139.704 184.855C137.679 186.968 135.828 185.007 135.828 185.007C135.828 185.007 134.195 187.382 131.321 185.225C131.321 185.225 128.86 187.252 126.966 184.702C122.851 179.189 121.021 170.56 121.021 170.56L135.327 165.635Z" fill="#EABAAF"/>
<path d="M119.78 142.23C119.846 142.23 121.13 146.088 122.633 147.548C122.851 147.94 135.066 162.758 135.937 163.826C135.959 163.869 135.98 163.891 135.98 163.891L136.133 164.087C139.551 168.097 137.026 172.825 132.976 176.29C128.817 179.842 123.46 182.108 119.759 178.077C118.757 176.987 106.672 159.772 105.105 157.027C104.321 155.632 103.537 154.172 102.775 152.189C102.405 151.187 102.013 150.032 101.73 148.332C101.686 148.092 101.664 147.809 101.643 147.526" fill="#D46954"/>
<path d="M114.945 132.469C115.032 132.469 116.556 137.132 118.385 138.897C118.647 139.377 133.388 157.245 134.433 158.553C134.476 158.596 134.476 158.618 134.476 158.618L134.672 158.836C138.788 163.674 135.761 169.361 130.862 173.545C125.854 177.838 119.387 180.562 114.923 175.702C113.726 174.395 99.1587 153.628 97.2643 150.316C96.3063 148.616 95.37 146.873 94.4555 144.476C93.9982 143.277 93.5192 141.883 93.2143 139.834C93.1708 139.551 93.1272 139.202 93.1055 138.854" fill="#AFA7CF"/>
<path d="M146.737 114.556L146.127 114.534C140.139 114.316 135.37 112.246 135.566 106.275L136.198 88.2102C136.416 82.2177 141.424 77.5326 147.412 77.7505L148.021 77.7723C154.009 77.9902 158.691 83.0021 158.473 88.9947L157.841 107.06C157.645 113.052 152.724 114.774 146.737 114.556Z" fill="#ECD0C4"/>
<path opacity="0.69" d="M157.885 105.84L158.32 93.7672C158.538 87.7746 153.857 82.7626 147.869 82.5447L147.259 82.5229C141.271 82.305 136.263 86.9901 136.045 92.9827L135.566 106.842C140.291 107.757 148.13 108.346 157.885 105.84Z" fill="#E2AEA2"/>
<path d="M116.493 77.7071C115.012 84.9418 108.001 89.6269 100.815 88.1669C93.6299 86.7069 88.992 79.6465 90.4727 72.4119C91.9533 65.1772 98.9646 60.4921 106.15 61.9521C113.336 63.4121 117.952 70.4724 116.493 77.7071Z" fill="#E6C2B6"/>
<path opacity="0.5" d="M113.683 81.4986C112.725 86.2273 107.391 89.1255 101.773 87.9924C96.155 86.8375 92.3881 82.087 93.3679 77.3583C94.326 72.6296 99.6607 69.7314 105.278 70.8645C110.874 72.0194 114.641 76.7699 113.683 81.4986Z" fill="#E2AEA2"/>
<path d="M92.2355 74.8092C93.0629 74.1119 93.9121 73.5453 94.8266 73.0441C95.7411 72.5211 96.6992 72.1071 97.679 71.7585C99.6605 71.0611 101.773 70.7343 103.885 70.8214C104.952 70.8214 105.997 71.0393 107.02 71.2355L108.523 71.7149C109.045 71.8456 109.481 72.1507 109.96 72.3468C110.939 72.7609 111.767 73.3928 112.638 73.9812C113.095 74.2427 113.444 74.6567 113.835 74.9836L114.989 76.0295C115.164 76.1821 115.185 76.4653 115.033 76.6397C114.881 76.814 114.619 76.8358 114.445 76.6833L114.402 76.6397L113.248 75.7027C112.856 75.3976 112.507 75.0271 112.072 74.8092C111.223 74.308 110.417 73.7197 109.502 73.371C107.739 72.5211 105.801 72.1071 103.841 72.0417C101.903 71.9764 99.9435 72.325 98.0709 72.9352C96.2201 73.5671 94.3911 74.417 92.758 75.4847L92.7363 75.5065C92.5403 75.6373 92.279 75.5719 92.1484 75.3758C92.0395 75.1797 92.083 74.94 92.2355 74.8092Z" fill="#E2AEA2"/>
<path d="M100.968 79.2981C102.165 78.165 103.624 77.3587 105.17 76.7921C106.716 76.2473 108.393 76.0076 110.047 76.073C110.875 76.073 111.702 76.2473 112.508 76.4217C113.292 76.6832 114.097 76.9229 114.816 77.3151C115.578 77.642 116.231 78.1432 116.885 78.6008C117.538 79.0802 118.104 79.6903 118.692 80.2351C118.822 80.3659 118.844 80.562 118.714 80.7145C118.605 80.8453 118.409 80.8671 118.278 80.7581L118.235 80.7145C117.603 80.2569 117.037 79.7339 116.384 79.3417C115.709 78.9712 115.099 78.5136 114.38 78.2521C113.009 77.5984 111.506 77.3151 110.026 77.2715C108.523 77.2279 107.043 77.5112 105.605 77.9688C104.168 78.4482 102.753 79.0584 101.425 79.7993L101.403 79.8211C101.251 79.9083 101.033 79.8429 100.946 79.6903C100.815 79.5596 100.859 79.4071 100.968 79.2981Z" fill="#E2AEA2"/>
<path d="M176.393 78.2957C177.961 85.5086 185.037 90.1066 192.201 88.5594C199.365 87.0122 203.916 79.8865 202.348 72.6736C200.78 65.4607 193.704 60.8628 186.54 62.41C179.376 63.9571 174.825 71.0611 176.393 78.2957Z" fill="#E6C2B6"/>
<path opacity="0.5" d="M179.246 82.0437C180.27 86.7506 185.626 89.6052 191.222 88.3849C196.818 87.1646 200.52 82.3705 199.496 77.6418C198.473 72.9349 193.116 70.0803 187.52 71.3006C181.924 72.5209 178.223 77.315 179.246 82.0437Z" fill="#E2AEA2"/>
<path d="M200.607 75.0707C199.78 74.3952 198.909 73.8286 197.994 73.3492C197.08 72.848 196.1 72.4558 195.12 72.1071C193.139 71.4316 191.005 71.1265 188.893 71.2355C187.826 71.2355 186.802 71.4752 185.757 71.6931L184.255 72.1943C183.732 72.325 183.297 72.6301 182.818 72.848C181.838 73.2621 181.011 73.9158 180.161 74.5042C179.704 74.7874 179.377 75.1797 178.986 75.5283L177.831 76.5743C177.657 76.7269 177.636 77.0101 177.81 77.1845C177.962 77.3588 178.223 77.3806 178.398 77.2281L178.441 77.1845L179.595 76.2257C179.987 75.9206 180.336 75.5501 180.771 75.3104C181.62 74.8092 182.404 74.1991 183.319 73.8504C185.082 72.9788 187.02 72.5429 188.958 72.4558C190.896 72.3686 192.856 72.6955 194.728 73.2621C196.579 73.8722 198.43 74.7003 200.085 75.7245L200.106 75.7463C200.302 75.877 200.586 75.8116 200.694 75.6155C200.803 75.4412 200.76 75.2015 200.607 75.0707Z" fill="#E2AEA2"/>
<path d="M191.919 79.6687C190.699 78.5573 189.24 77.7729 187.694 77.2281C186.148 76.7051 184.472 76.4872 182.817 76.5743C181.99 76.5743 181.162 76.7705 180.356 76.9448C179.573 77.2063 178.789 77.4678 178.07 77.8818C177.308 78.2087 176.677 78.7317 176.002 79.2111C175.348 79.7123 174.804 80.3006 174.216 80.8672C174.085 80.998 174.085 81.1941 174.194 81.3466C174.303 81.4774 174.499 81.4774 174.63 81.3902L174.673 81.3466C175.305 80.889 175.871 80.3442 176.502 79.9302C177.156 79.5379 177.787 79.1021 178.484 78.8188C179.856 78.1651 181.336 77.8382 182.817 77.7947C184.319 77.7293 185.8 77.9908 187.259 78.4484C188.696 78.906 190.111 79.5162 191.461 80.2353L191.483 80.2571C191.657 80.3442 191.853 80.2788 191.94 80.1263C192.071 79.9302 192.027 79.7777 191.919 79.6687Z" fill="#E2AEA2"/>
<path d="M190.241 60.6013C186.866 84.2665 171.232 103.421 141.989 99.1063C114.598 95.0749 102.056 72.1506 105.431 48.4853C108.806 24.7983 130.536 8.32415 153.965 11.68C177.373 15.0358 193.616 36.936 190.241 60.6013Z" fill="#ECD0C4"/>
<path d="M100.641 60.1652C100.641 60.1652 92.8238 33.2531 104.168 21.573C115.491 9.9147 143.057 2.39673 158.712 7.692C174.368 12.9655 191.592 14.7306 193.638 28.8077C195.685 42.9066 191.657 62.0611 191.657 62.0611C191.657 62.0611 183.339 52.255 181.205 50.7078C179.071 49.1607 177.787 39.3328 176.763 37.5024C175.74 35.6719 175.304 48.0493 175.304 48.0493C175.304 48.0493 165.158 47.0469 160.825 45.5869C156.513 44.1269 155.316 31.2047 155.316 31.2047C155.316 31.2047 156.121 44.6063 154.292 45.0203C152.463 45.4344 130.602 46.1317 128.446 44.7588C126.312 43.386 123.286 31.2047 123.286 31.2047C123.286 31.2047 124.788 45.2818 122.567 46.3496C120.368 47.4174 105.431 63.9351 100.641 60.1652Z" fill="#ECB845"/>
<path d="M153.639 3.4209C167.008 3.63881 180.094 10.4159 187.998 21.2025C195.902 31.9892 198.428 46.5239 194.618 59.3371" stroke="#EAC274" stroke-width="0.458" stroke-miterlimit="10" stroke-linecap="round" stroke-linejoin="round"/>
<path d="M118.344 14.0986C105.824 22.7497 99.2477 39.2239 102.34 54.1291" stroke="#EAC274" stroke-width="0.458" stroke-miterlimit="10" stroke-linecap="round" stroke-linejoin="round"/>
<path d="M147.957 8.12793C153.901 10.2853 159.127 14.3166 162.72 19.5247C166.313 24.7328 168.251 31.0523 168.163 37.3717" stroke="#EAC274" stroke-width="0.458" stroke-miterlimit="10" stroke-linecap="round" stroke-linejoin="round"/>
<path d="M166.857 19.0234C172.41 25.2993 174.13 34.7131 171.147 42.5579" stroke="#EAC274" stroke-width="0.458" stroke-miterlimit="10" stroke-linecap="round" stroke-linejoin="round"/>
<path d="M132.52 13.6846C141.382 19.6336 146.782 30.4202 146.237 41.0979" stroke="#EAC274" stroke-width="0.458" stroke-miterlimit="10" stroke-linecap="round" stroke-linejoin="round"/>
<path d="M118.953 23.251C116.34 29.9409 115.97 37.4806 117.864 44.3884" stroke="#EAC274" stroke-width="0.458" stroke-miterlimit="10" stroke-linecap="round" stroke-linejoin="round"/>
<path opacity="0.4" d="M140.705 78.9713C139.747 83.7218 132.758 86.315 125.137 84.746C117.494 83.1988 112.094 78.0779 113.074 73.3274C114.032 68.5769 121.021 65.9838 128.642 67.5527C136.263 69.0999 141.663 74.2209 140.705 78.9713Z" fill="url(#paint0_radial_1290_1068)"/>
<path opacity="0.4" d="M182.665 75.3545C183.144 80.1703 177.265 84.7247 169.513 85.5092C161.761 86.2937 155.077 83.025 154.598 78.1873C154.119 73.3715 159.998 68.8171 167.749 68.0326C175.501 67.2482 182.186 70.5386 182.665 75.3545Z" fill="url(#paint1_radial_1290_1068)"/>
<path d="M141.359 72.3906C141.359 72.3906 142.666 76.5745 148.305 76.7489C152.138 76.8796 154.163 74.8966 155.273 72.9136" stroke="#84332D" stroke-width="0.458" stroke-linecap="round" stroke-linejoin="round"/>
<path d="M117.82 53.9546C117.82 53.9546 129.056 41.1414 133.89 44.7805C138.723 48.4197 126.399 55.5236 124.505 56.3735C122.611 57.1797 114.728 59.4024 117.82 53.9546Z" fill="#ECB845"/>
<path d="M177.416 53.8243C177.416 53.8243 166.29 40.9239 161.434 44.5195C156.578 48.115 168.837 55.3279 170.732 56.1778C172.582 57.0276 180.465 59.2939 177.416 53.8243Z" fill="#ECB845"/>
<path d="M146.345 49.3135C146.345 49.3135 144.429 63.7393 147.129 64.1533C149.851 64.5455 154.118 60.4052 154.968 65.4172C155.817 70.4074 148.653 72.1289 148.653 72.1289" stroke="#84332D" stroke-width="0.458" stroke-linecap="round" stroke-linejoin="round"/>
<path d="M173.736 67.9672C173.932 67.1392 173.976 66.2675 173.867 65.3959C173.322 61.4299 169.468 58.6624 165.288 59.2508C161.107 59.8391 158.146 63.5218 158.712 67.5096" stroke="black" stroke-width="0.458" stroke-linecap="round" stroke-linejoin="round"/>
<path d="M174.281 66.2456L177.743 66.0059" stroke="black" stroke-width="0.458" stroke-linecap="round" stroke-linejoin="round"/>
<path d="M173.977 64.895L177.308 63.8926" stroke="black" stroke-width="0.458" stroke-linecap="round" stroke-linejoin="round"/>
<path d="M173.648 63.1951L176.675 61.4736" stroke="black" stroke-width="0.458" stroke-linecap="round" stroke-linejoin="round"/>
<path d="M122.873 66.7681C122.721 65.9182 122.743 65.0248 122.939 64.1314C123.788 60.1 127.925 57.5722 132.149 58.4656C136.395 59.3591 139.139 63.3469 138.29 67.3782" stroke="black" stroke-width="0.458" stroke-linecap="round" stroke-linejoin="round"/>
<path d="M122.438 64.9817L118.91 64.4805" stroke="black" stroke-width="0.458" stroke-linecap="round" stroke-linejoin="round"/>
<path d="M122.851 63.6086L119.52 62.3447" stroke="black" stroke-width="0.458" stroke-linecap="round" stroke-linejoin="round"/>
<path d="M123.309 61.887L120.348 59.9258" stroke="black" stroke-width="0.458" stroke-linecap="round" stroke-linejoin="round"/>
<path d="M168.684 179.428C170.252 179.777 171.863 179.864 173.322 179.384C174.802 178.949 176.087 177.99 177.089 176.791C179.223 174.351 181.313 171.845 183.512 169.426C183.599 169.339 183.73 169.339 183.795 169.404C183.882 169.469 183.882 169.6 183.817 169.687C181.879 172.302 179.854 174.874 177.742 177.358C176.697 178.687 175.216 179.711 173.54 180.169C171.863 180.626 170.099 180.409 168.553 179.798C168.444 179.755 168.401 179.646 168.444 179.537C168.488 179.45 168.575 179.406 168.684 179.428Z" fill="#807BA1"/>
<path d="M179.68 134.974C179.723 135.017 179.832 134.974 179.854 134.93C179.854 134.93 179.832 134.952 179.832 134.974L179.789 135.061L179.701 135.279L179.527 135.693L179.157 136.543C178.896 137.109 178.635 137.654 178.33 138.199C178.025 138.744 177.72 139.267 177.35 139.79C176.98 140.313 176.61 140.814 176.109 141.25L176.196 141.163C175.978 141.424 175.804 141.642 175.63 141.838L175.085 142.448L173.975 143.647L171.732 146.044L167.203 150.794C165.701 152.385 164.155 153.932 162.631 155.501C161.106 157.07 159.539 158.617 158.014 160.165C157.927 160.252 157.797 160.252 157.731 160.165C157.644 160.077 157.644 159.968 157.731 159.881C159.212 158.247 160.649 156.613 162.152 155.022L166.615 150.206L175.564 140.705L175.651 140.618C176.087 140.269 176.457 139.812 176.827 139.332C177.176 138.853 177.502 138.352 177.829 137.85C178.156 137.349 178.46 136.804 178.743 136.281L179.179 135.475L179.397 135.061L179.506 134.865L179.571 134.756L179.614 134.691C179.658 134.603 179.789 134.538 179.854 134.56C179.963 134.582 180.05 134.691 180.028 134.8C179.897 134.909 179.789 134.974 179.68 134.974Z" fill="#807BA1"/>
<path d="M122.066 177.597C120.498 177.837 118.865 177.815 117.428 177.227C115.991 176.682 114.771 175.658 113.857 174.372C111.897 171.779 109.981 169.142 107.978 166.571C107.913 166.484 107.782 166.462 107.695 166.527C107.608 166.593 107.586 166.723 107.651 166.811C109.415 169.556 111.244 172.258 113.182 174.895C114.118 176.29 115.555 177.423 117.167 177.989C118.8 178.556 120.585 178.469 122.175 177.989C122.284 177.946 122.349 177.837 122.305 177.728C122.284 177.641 122.175 177.575 122.066 177.597Z" fill="#807BA1"/>
<path d="M112.987 130.55C112.943 130.594 112.834 130.55 112.813 130.485C112.813 130.485 112.813 130.507 112.834 130.529L112.878 130.638L112.965 130.856L113.117 131.291L113.444 132.163C113.662 132.73 113.901 133.318 114.141 133.863C114.402 134.429 114.685 134.974 115.012 135.519C115.338 136.064 115.687 136.587 116.144 137.066L116.079 136.979C116.275 137.262 116.449 137.48 116.601 137.698L117.102 138.352L118.125 139.637L120.194 142.187L124.375 147.243C125.768 148.942 127.184 150.598 128.599 152.276C129.992 153.954 131.451 155.61 132.867 157.245C132.932 157.332 133.063 157.332 133.15 157.266C133.237 157.201 133.237 157.07 133.171 156.983C131.821 155.24 130.493 153.518 129.1 151.819L124.984 146.698L116.732 136.587L116.667 136.499C116.253 136.107 115.904 135.628 115.578 135.148C115.251 134.647 114.968 134.124 114.685 133.579C114.402 133.056 114.141 132.512 113.879 131.945L113.509 131.117L113.335 130.703L113.248 130.485L113.204 130.376L113.183 130.311C113.139 130.224 113.008 130.158 112.943 130.158C112.834 130.18 112.747 130.267 112.769 130.376C112.769 130.463 112.878 130.55 112.987 130.55Z" fill="#807BA1"/>
</g>
<defs>
<radialGradient id="paint0_radial_1290_1068" cx="0" cy="0" r="1" gradientUnits="userSpaceOnUse" gradientTransform="translate(126.879 76.1481) rotate(13.4026) scale(13.0332 9.64643)">
<stop offset="0.1463" stop-color="#D8514E"/>
<stop offset="1" stop-color="#ECD0C4"/>
</radialGradient>
<radialGradient id="paint1_radial_1290_1068" cx="0" cy="0" r="1" gradientUnits="userSpaceOnUse" gradientTransform="translate(168.635 76.7774) rotate(-3.92122) scale(13.033 9.6467)">
<stop offset="0.1463" stop-color="#D8514E"/>
<stop offset="1" stop-color="#ECD0C4"/>
</radialGradient>
<clipPath id="clip0_1290_1068">
<rect width="135" height="282" fill="white" transform="translate(77.7988)"/>
</clipPath>
</defs>
</svg>
