<svg width="186" height="220" viewBox="0 0 186 220" fill="none" xmlns="http://www.w3.org/2000/svg">
<g clip-path="url(#clip0_962_1479)">
<path d="M136.387 86.1357C134.789 82.7742 127.63 76.9829 125.732 73.222C123.301 68.396 125.365 61.7727 122.768 56.7137C120.704 52.7197 114.044 50.2568 112.08 46.4292C107.018 36.5109 107.651 30.6199 103.156 23.0314C82.5114 -11.9157 33.5973 10.5836 26.3051 29.2553C21.3105 33.1161 4.39537 47.4943 7.9915 62.4716C10.056 71.0586 15.317 74.4535 19.1462 84.9043C20.6446 88.9315 17.8809 95.4882 19.4459 99.7152C21.4104 105.04 27.6703 108.003 29.5683 113.062C31.0667 117.022 30.4673 126.208 31.8325 129.637C35.0291 137.591 39.2579 139.422 41.6553 140.986C41.6553 140.986 43.6865 140.354 46.9829 139.255C47.7488 138.989 45.8175 132.432 46.7165 132.099C47.8154 131.733 51.8111 137.591 53.0764 137.158C62.2665 133.897 75.1859 128.904 85.1419 123.346C85.2751 123.479 85.375 123.579 85.375 123.579C97.5619 121.782 115.942 112.895 127.463 106.838C128.662 106.205 127.03 99.2825 128.062 98.75C128.928 98.284 132.424 104.175 133.157 103.776C136.22 102.078 138.052 101.013 138.052 101.013C138.551 98.2507 140.083 93.8574 136.387 86.1357Z" fill="#773D14"/>
<path d="M20.8441 39.4062C16.582 45.5969 14.6841 53.3851 15.683 60.8404C16.6819 68.2958 20.4779 75.3518 26.205 80.2111C28.9354 82.5409 32.3318 84.8374 32.7314 88.3987C33.1975 92.5591 29.2351 96.087 29.2018 100.247C29.2018 103.21 31.1997 105.806 33.3307 107.902C35.4617 109.999 37.8592 111.93 39.0912 114.659C40.6895 118.187 39.9236 122.281 39.8237 126.175C39.7238 130.069 40.7561 134.595 44.2856 136.226" stroke="#8D5428" stroke-width="0.1753" stroke-miterlimit="10" stroke-linecap="round" stroke-linejoin="round"/>
<path d="M63.9648 6.78972C71.8564 5.85779 80.0143 7.82149 86.6405 12.1483C93.2667 16.5083 98.2946 23.2315 100.592 30.82C101.691 34.4811 102.19 38.2753 103.223 41.9365C104.255 45.5976 105.92 49.2587 108.85 51.6884C111.314 53.7186 114.677 54.9501 116.009 57.8457C117.707 61.5401 115.243 65.9334 116.175 69.8608C117.141 73.8881 121.27 76.1513 124.4 78.8472C130.094 83.7065 133.324 91.3283 132.891 98.817" stroke="#8D5428" stroke-width="0.1753" stroke-miterlimit="10" stroke-linecap="round" stroke-linejoin="round"/>
<path d="M101.291 59.1768C104.055 59.21 106.386 61.5066 107.384 64.0693C108.383 66.6321 108.383 69.4945 108.417 72.2569C108.45 75.0194 108.583 77.8817 109.848 80.3447C111.114 82.8076 113.411 84.5716 115.676 86.2025C117.94 87.8333 120.304 89.4309 121.869 91.6941C123.434 93.9907 124.067 97.1858 122.568 99.5156" stroke="#8D5428" stroke-width="0.1753" stroke-miterlimit="10" stroke-linecap="round" stroke-linejoin="round"/>
<path d="M39.9239 87.001C38.3922 90.3625 39.6575 94.4564 41.9218 97.3852C44.186 100.314 47.316 102.411 50.113 104.874C52.9099 107.304 55.4739 110.366 55.9733 114.027C56.273 116.19 55.8401 118.387 55.9733 120.583C56.1065 122.78 57.0721 125.143 59.1033 125.942" stroke="#8D5428" stroke-width="0.1753" stroke-miterlimit="10" stroke-linecap="round" stroke-linejoin="round"/>
<path d="M26.1056 35.7455C22.5761 35.2796 19.2463 33.3492 17.1486 30.4536C16.5159 29.6215 16.083 28.2569 16.9488 27.6578C17.7146 27.1253 18.7468 27.7576 19.4461 28.3567C21.4106 30.0209 23.3419 31.685 25.3065 33.3492C23.908 31.0194 22.5095 28.6896 21.111 26.3598C20.6448 25.5943 20.1786 24.5958 20.6781 23.8635C21.0111 23.2977 21.7769 23.1313 22.4096 23.2977C23.0422 23.4641 23.575 23.8968 24.0411 24.3628C26.3387 26.626 27.7705 29.7546 27.9703 32.9831" fill="#773D14"/>
<path d="M42.4542 142.151C35.7281 139.987 30.8667 133.198 30.9666 126.175C31.0332 122.747 32.132 119.219 31.2663 115.891C29.4682 109.101 20.3114 106.239 18.5799 99.4155C17.7142 95.9874 18.9462 92.3928 18.7797 88.8648C18.4134 81.3762 11.9537 75.7846 8.69053 69.0282C5.59385 62.5713 5.79364 54.883 8.49074 48.1598C11.0879 41.7362 18.6798 35.3459 22.5423 33.4821C26.4048 31.6182 25.7389 37.0766 29.1685 39.5728" stroke="#8D5428" stroke-width="0.1753" stroke-miterlimit="10" stroke-linecap="round" stroke-linejoin="round"/>
<path d="M140.316 101.28C141.948 94.2572 139.917 86.469 135.089 81.1105C131.692 77.3495 126.831 74.3208 125.965 69.3283C125.233 65.168 127.63 60.708 126.132 56.7807C124.433 52.2875 118.873 50.8896 115.11 47.9274C110.948 44.6657 108.983 39.3404 107.751 34.2149C106.519 29.0893 105.754 23.7307 103.256 19.0711C98.6278 10.5174 88.6053 5.85782 78.8824 5.49171C69.1595 5.1256 59.6364 8.4206 50.7793 12.4146" stroke="#8D5428" stroke-width="0.1753" stroke-miterlimit="10" stroke-linecap="round" stroke-linejoin="round"/>
<path d="M43.3867 39.5733L43.42 39.54L43.3867 39.5733Z" fill="#F1CB78"/>
<path d="M128.662 119.253C127.263 119.685 125.765 120.218 123.967 120.95C122.135 121.649 120.504 122.348 119.005 123.014C115.443 124.644 112.213 126.475 109.316 128.505C106.186 130.702 103.455 133.231 101.158 135.994C100.126 137.259 99.1267 138.657 98.1611 140.188C97.3619 141.486 96.6294 142.85 95.9302 144.248C95.1976 145.779 94.5983 147.277 94.1321 148.775C93.6326 150.439 93.3329 152.003 93.1998 153.501C93.0999 155.132 93.2331 156.629 93.6326 157.994C93.8657 158.726 94.1321 159.425 94.4984 160.091C94.8646 160.756 95.3641 161.389 95.8969 161.988C96.3963 162.52 96.9957 163.02 97.7282 163.552C98.2943 163.952 98.8936 164.351 99.5596 164.684C100.159 165.017 100.792 165.283 101.424 165.516C102.024 165.716 102.656 165.915 103.422 166.082C105.054 166.448 106.818 166.548 108.716 166.381C109.682 166.281 110.681 166.148 111.68 165.915C114.377 165.349 117.141 164.318 120.171 162.753C122.768 161.422 125.432 159.824 128.229 157.794C130.56 156.13 132.89 154.233 135.188 152.169C137.186 150.372 138.851 148.708 140.316 147.11C141.947 145.28 143.512 143.283 144.977 141.153C146.742 138.557 148.107 136.127 149.14 133.697C149.373 133.132 149.606 132.532 149.806 131.967C149.739 131.933 149.739 131.834 149.772 131.767C149.872 131.567 149.939 131.368 150.005 131.201C149.939 131.168 149.905 131.068 149.939 131.001C150.139 130.602 150.305 130.169 150.438 129.737C150.472 129.57 150.538 129.404 150.571 129.237C150.705 128.539 150.771 127.84 150.771 127.141V127.107C150.771 126.309 150.738 125.543 150.638 124.744C150.538 124.245 150.438 123.779 150.338 123.313C150.305 123.213 150.272 123.08 150.272 122.98C150.205 122.747 150.139 122.514 150.039 122.281C150.005 122.182 149.972 122.115 149.939 122.015L149.606 121.283C149.24 120.684 148.807 120.118 148.307 119.619C147.741 119.053 147.075 118.52 146.343 118.054C146.243 117.988 146.11 117.955 146.01 117.988C145.876 117.988 145.743 118.054 145.677 118.188C145.61 118.287 145.577 118.387 145.577 118.52C145.011 118.287 144.411 118.121 143.812 117.955C142.28 117.588 140.582 117.422 138.817 117.455C138.251 117.489 137.685 117.489 137.152 117.555C134.655 117.622 131.925 118.221 128.662 119.253Z" fill="#615BA3"/>
<path d="M74.4531 84.505C74.2201 84.5382 73.987 84.5382 73.7872 84.6048C72.8216 84.7712 71.8559 85.0708 70.857 85.5035C69.4918 86.1358 68.2598 86.9679 67.1943 87.9664C66.5283 88.5988 65.9956 89.2977 65.596 90.0299C65.5627 89.8968 65.4961 89.7637 65.4628 89.6305L65.3962 89.4974L65.3296 89.3643C65.2297 89.1646 65.0299 89.0314 64.8302 89.0647C64.7969 89.0647 64.7303 89.0647 64.697 89.098C64.5638 89.1313 64.4639 89.2311 64.4306 89.3643C64.364 89.4974 64.364 89.5972 64.4306 89.7304C64.7636 90.5625 64.9966 91.2614 65.1631 91.9603V91.8272C65.2963 92.4596 65.3296 93.0254 65.3296 93.5246C65.2963 93.8575 65.263 94.157 65.1631 94.4233C65.0965 94.6563 64.9966 94.8892 64.8634 95.0889C64.7303 95.2886 64.5638 95.4883 64.364 95.688C64.0976 95.921 63.8312 96.1207 63.4983 96.2871C62.9322 96.5867 62.2662 96.7864 61.4338 96.9861H61.5004C60.8011 97.1192 60.0353 97.2523 59.103 97.3189C58.8366 97.3522 58.6368 97.5851 58.6701 97.8514C58.6368 97.918 58.6035 98.0178 58.6035 98.1177C58.6035 99.3491 58.8366 100.547 59.2362 101.646C59.6024 102.677 60.1685 103.643 60.901 104.541C62.2662 106.172 64.1309 107.47 66.495 108.402C68.5928 109.234 70.9902 109.733 73.5208 109.833C74.5197 109.867 75.4854 109.867 76.4177 109.767C77.7163 109.667 78.9816 109.401 80.147 109.068C81.5122 108.668 82.7442 108.036 83.843 107.204C84.3758 106.805 84.8753 106.339 85.3747 105.806C85.8076 105.34 86.2072 104.808 86.6067 104.175C88.0052 101.978 88.6379 99.1827 88.3382 96.3537C88.2383 95.2886 87.9719 94.1903 87.5724 93.092C87.3393 92.4929 87.0729 91.8605 86.7399 91.1948C86.3737 90.4959 85.9408 89.8302 85.5079 89.2311C85.408 89.098 85.2415 89.0314 85.075 89.0314C84.9752 89.0314 84.9086 89.0647 84.842 89.1313C84.7088 89.0314 84.5756 88.9649 84.4091 88.9649C84.3092 88.9649 84.2426 88.9982 84.176 89.0647C83.8097 89.2977 83.5434 89.4974 83.2437 89.6305C82.8441 89.8302 82.4778 89.9634 82.1116 90.0632C81.9784 90.0965 81.8785 90.0965 81.7453 90.1298C81.6454 90.1298 81.5455 90.1298 81.4456 90.1298C81.2791 90.1298 81.1459 90.0965 80.9795 90.0632C80.8463 89.9966 80.7131 89.9634 80.5799 89.8635C80.4467 89.7637 80.3135 89.6638 80.2136 89.5307C80.0471 89.331 79.9139 89.1313 79.7807 88.8983L79.7141 88.7985C79.7474 88.7319 79.7474 88.6653 79.7474 88.5655C79.6143 87.4671 79.248 86.6018 78.6819 85.9361C78.3822 85.6033 78.0493 85.337 77.6497 85.1041C77.3167 84.9044 76.9504 84.7712 76.451 84.6381C76.0847 84.5382 75.6518 84.505 75.1191 84.4717C74.9193 84.4717 74.6862 84.4717 74.4531 84.505Z" fill="#ECD0C4"/>
<path d="M73.7873 84.5718C72.8217 84.7382 71.8561 85.0377 70.8571 85.5037C69.4919 86.1361 68.2599 86.9681 67.1944 87.9666C66.5285 88.6323 65.9957 89.2979 65.5961 90.0302C65.5961 89.897 65.5295 89.7639 65.4962 89.6308L65.4296 89.4976L65.363 89.3645C65.2631 89.1648 65.0634 89.0317 64.8636 89.0317C64.8303 89.0317 64.797 89.065 64.7304 89.065C64.5972 89.0982 64.4973 89.1981 64.464 89.3312C64.3974 89.4644 64.3974 89.5975 64.464 89.6973C64.5639 89.9969 64.6971 90.2631 64.7637 90.4961C65.1966 90.7957 65.6294 91.0952 66.0956 91.3615C66.595 91.6277 67.0945 91.894 67.6273 92.0937C68.16 92.2934 68.6595 92.4598 69.2256 92.6262C69.2256 92.6262 69.2256 92.6262 69.2588 92.6262C69.8582 92.7926 70.4576 92.8925 71.0569 92.9591C71.6563 93.0256 72.2889 93.0589 72.9216 93.0589H72.8883C73.5209 93.0589 74.1869 92.9923 74.8195 92.8925C75.4189 92.7926 76.0515 92.6595 76.6509 92.4931H76.6176C77.217 92.3267 77.8163 92.127 78.3824 91.8607C78.9484 91.5945 79.5145 91.3282 80.0473 90.9954C80.0473 90.9954 80.014 90.9954 80.014 91.0287C80.5134 90.7291 80.9796 90.3963 81.4125 90.0302C81.4125 90.0302 81.4457 90.0302 81.4457 89.9969C81.3126 89.9969 81.1794 89.9636 81.0462 89.9303C80.913 89.8637 80.7798 89.7972 80.6466 89.7306C80.5134 89.6308 80.3802 89.5309 80.2803 89.3978C80.1138 89.2314 79.9807 88.9984 79.8475 88.7654L79.7809 88.6656C79.8142 88.599 79.8142 88.5324 79.8142 88.4659C79.681 87.3675 79.3147 86.4689 78.7486 85.8365C78.449 85.5037 78.116 85.2374 77.7164 85.0044C77.3834 84.8047 77.0172 84.6716 76.5177 84.5385C76.1514 84.4386 75.7186 84.4054 75.1858 84.3721C74.9527 84.3721 74.7196 84.3721 74.4866 84.4054C74.2535 84.5052 74.0204 84.5385 73.7873 84.5718Z" fill="#DC9770"/>
<path d="M133.49 122.414H133.423H133.357C132.491 122.514 131.559 122.747 130.693 123.146C129.028 123.879 127.396 125.077 125.865 126.708C124.466 128.205 123.234 130.036 122.202 132.133C121.203 134.163 120.504 136.26 120.137 138.357C119.971 139.388 119.871 140.42 119.871 141.452C119.871 142.417 120.004 143.382 120.204 144.348C120.404 145.246 120.737 146.078 121.203 146.91C121.636 147.676 122.235 148.375 122.934 148.974C123.367 149.34 123.9 149.706 124.466 149.972H124.333C123.7 150.039 123.034 150.105 122.402 150.172C121.769 150.239 121.136 150.305 120.504 150.372C120.237 150.405 120.038 150.638 120.071 150.904C120.104 151.171 120.337 151.37 120.57 151.337C121.203 151.27 121.802 151.204 122.435 151.137C123.434 151.037 124.4 150.904 125.398 150.838C127.097 150.705 128.495 150.638 129.76 150.705H129.827C131.392 150.804 132.791 151.037 134.122 151.437C135.221 151.803 136.287 152.302 137.252 152.901C138.251 153.567 139.184 154.366 140.049 155.298C141.348 156.729 142.513 158.459 143.745 160.756L143.812 160.823C144.545 162.254 145.244 163.718 145.843 164.983C146.243 165.848 146.576 166.714 146.842 167.479C147.208 168.511 147.575 169.509 147.941 170.541C148.34 171.706 148.74 172.871 149.173 174.003C149.905 175.933 150.871 178.429 152.203 180.759C152.802 181.824 153.402 182.723 154.068 183.522C154.767 184.387 155.499 185.053 156.265 185.552C157.098 186.118 157.963 186.45 158.862 186.584C159.229 186.65 159.595 186.65 160.028 186.617C160.161 186.617 160.261 186.584 160.394 186.584C161.127 186.484 161.859 186.351 162.392 186.217C163.224 186.018 164.09 185.818 164.989 185.552C166.987 184.986 168.918 184.354 170.75 183.621C171.749 183.222 172.648 182.823 173.513 182.39C174.446 181.924 175.245 181.491 175.944 181.025C176.677 180.559 177.276 180.093 177.742 179.594C177.975 179.361 178.175 179.128 178.308 178.895C178.408 178.762 178.475 178.629 178.541 178.496C178.608 178.363 178.675 178.196 178.708 178.03C178.874 177.531 178.808 176.931 178.575 176.432C178.242 175.8 177.642 175.234 176.843 174.801C176.444 174.602 176.011 174.469 175.678 174.369C175.278 174.269 174.845 174.169 174.346 174.136C173.58 174.069 172.748 174.069 171.782 174.136L171.482 174.169C170.184 174.302 168.785 174.568 167.054 175.034C166.887 173.969 166.721 172.871 166.554 171.773C165.555 165.449 164.49 158.892 162.825 152.568C162.325 150.638 161.759 148.741 161.127 146.944C160.827 146.045 160.494 145.113 160.128 144.181C159.762 143.249 159.462 142.517 159.129 141.885C157.83 139.122 155.966 136.426 153.635 133.897C151.337 131.367 148.74 129.137 145.91 127.307C142.98 125.41 139.983 124.045 136.986 123.246C136.82 123.213 136.653 123.146 136.487 123.113C136.553 122.847 136.387 122.614 136.12 122.547C135.255 122.381 134.389 122.314 133.49 122.414Z" fill="#ECD0C4"/>
<path d="M171.483 174.169C171.216 174.202 170.95 174.236 170.684 174.269C170.584 174.435 170.517 174.635 170.451 174.835V174.801C170.317 175.201 170.251 175.633 170.251 176.066C170.218 176.665 170.284 177.264 170.417 177.863C170.55 178.462 170.75 179.028 171.017 179.561L170.983 179.528C171.15 179.827 171.316 180.093 171.516 180.326C171.549 180.36 171.616 180.426 171.649 180.459C171.683 180.459 171.683 180.493 171.716 180.526C171.749 180.559 171.749 180.593 171.749 180.659C171.749 180.692 171.716 180.726 171.683 180.759C170.284 181.491 168.852 182.19 167.354 182.723C166.588 182.989 165.822 183.255 165.056 183.488C164.657 183.588 164.224 183.721 163.824 183.821C163.491 183.888 163.158 183.987 162.792 184.054C161.327 184.387 159.862 184.72 158.397 184.919C157.431 185.052 156.466 185.119 155.5 185.086C155.733 185.285 155.999 185.485 156.233 185.652C157.098 186.217 157.964 186.584 158.83 186.683C159.196 186.75 159.562 186.75 160.028 186.717C160.162 186.717 160.262 186.683 160.395 186.683C160.628 186.65 160.894 186.617 161.127 186.584C161.593 186.484 162.026 186.384 162.393 186.317C163.225 186.151 164.091 185.918 164.99 185.652C166.988 185.086 168.919 184.42 170.75 183.721C171.749 183.322 172.648 182.922 173.514 182.49C174.446 182.024 175.245 181.591 175.945 181.125C176.677 180.659 177.277 180.193 177.743 179.694C177.976 179.428 178.176 179.195 178.309 178.995C178.409 178.862 178.475 178.729 178.542 178.562C178.608 178.429 178.675 178.263 178.708 178.096C178.875 177.597 178.808 176.998 178.575 176.499C178.242 175.866 177.643 175.301 176.844 174.868C176.444 174.668 176.011 174.535 175.678 174.435C175.312 174.335 174.879 174.236 174.346 174.202C173.547 174.136 172.715 174.136 171.782 174.202L171.483 174.169Z" fill="#615BA3"/>
<path d="M113.911 145.746C113.345 145.779 112.779 145.913 112.146 146.079C110.814 146.445 109.482 147.144 108.117 148.143C106.918 149.008 105.786 150.106 104.754 151.404C103.822 152.569 102.989 153.801 102.323 155.132C101.491 156.763 100.992 158.56 100.792 160.324C100.692 161.189 100.692 162.121 100.792 163.053C100.858 163.885 101.025 164.784 101.291 165.749C101.391 166.082 101.491 166.415 101.591 166.748C101.458 166.814 101.391 166.947 101.391 167.081C101.358 167.214 101.391 167.347 101.458 167.447C101.824 167.946 102.157 168.445 102.423 168.944C102.656 169.477 102.889 169.976 103.156 170.442C103.356 170.908 103.489 171.374 103.622 171.84C103.789 172.572 103.855 173.238 103.822 173.904C103.789 174.636 103.655 175.401 103.422 176.167C103.123 176.999 102.723 177.831 102.19 178.696C100.858 180.727 99.0936 182.491 97.3954 184.055C96.8626 184.554 96.2966 185.053 95.7305 185.519C95.1645 185.985 94.5651 186.418 93.999 186.817L93.6994 187.017C92.5339 187.849 91.3019 188.748 90.2364 189.779C89.7037 190.312 89.2708 190.878 88.9045 191.444C88.5382 192.043 88.2719 192.775 88.172 193.54C87.9722 194.838 88.2386 196.303 88.9378 197.834C89.5039 199.065 90.303 200.33 91.4351 201.795C92.2343 202.826 93.1333 203.792 93.999 204.723L94.2321 204.956C95.2643 206.088 96.3632 207.286 97.5619 208.385C98.9604 209.683 100.159 210.615 101.358 211.347C101.957 211.713 102.623 211.979 103.322 212.179C103.922 212.345 104.488 212.445 104.987 212.412H105.12C105.52 212.379 105.886 212.245 106.186 212.046C106.486 211.846 106.719 211.546 106.852 211.147C106.985 210.781 107.052 210.415 107.052 209.916C107.052 209.516 107.018 209.117 106.918 208.584C106.752 207.686 106.486 206.787 106.019 205.622C105.82 205.09 105.553 204.491 105.254 203.825C105.054 203.392 104.887 202.993 104.688 202.593C104.488 202.161 104.255 201.761 104.022 201.329L103.689 200.696C103.555 200.463 103.422 200.197 103.322 199.964C104.787 199.099 106.019 198.366 107.251 197.601C108.783 196.636 110.348 195.604 111.88 194.472C114.943 192.276 117.707 189.946 120.104 187.583C122.768 184.953 125.032 182.191 126.797 179.295C127.263 178.53 127.663 177.831 127.996 177.132C128.329 176.466 128.628 175.734 128.862 174.969C129.361 173.504 129.694 171.973 129.827 170.442C130.127 167.48 129.794 164.351 128.895 161.189C128.029 158.227 126.664 155.365 124.799 152.702C123.7 151.105 122.435 149.607 121.003 148.276C120.937 148.209 120.837 148.176 120.737 148.176C119.438 147.077 118.04 146.312 116.541 145.946C115.876 145.779 115.11 145.713 114.311 145.713C114.177 145.713 114.044 145.713 113.911 145.746Z" fill="#ECD0C4"/>
<path d="M88.1384 193.54C87.9719 194.738 88.1717 196.103 88.7711 197.534C88.8044 197.634 88.871 197.767 88.9043 197.867C89.4703 199.098 90.2694 200.363 91.4016 201.827C92.2007 202.859 93.0997 203.824 93.9322 204.723L94.1986 205.023C95.2308 206.154 96.3629 207.352 97.5283 208.451C98.9268 209.749 100.126 210.714 101.324 211.413C101.924 211.779 102.59 212.045 103.289 212.245C103.888 212.411 104.421 212.511 104.954 212.478H105.054C105.453 212.445 105.819 212.312 106.152 212.112C106.452 211.912 106.685 211.613 106.852 211.213C106.985 210.847 107.051 210.481 107.051 209.948C107.051 209.549 107.018 209.15 106.918 208.617C106.752 207.752 106.485 206.82 106.019 205.655C105.819 205.122 105.586 204.523 105.253 203.858C105.054 203.425 104.887 203.026 104.687 202.626C104.621 202.526 104.554 202.393 104.521 202.26C104.454 202.26 104.354 202.26 104.288 202.26C104.121 202.26 103.955 202.293 103.788 202.327H103.755C103.489 202.36 103.222 202.426 102.956 202.526C102.689 202.626 102.423 202.726 102.157 202.826H102.19C101.89 202.992 101.557 203.159 101.258 203.325C100.958 203.525 100.692 203.725 100.425 203.924C99.8591 204.39 99.3597 204.923 98.9268 205.522C98.9268 205.522 98.9268 205.489 98.9601 205.489L98.8602 205.622C98.8269 205.655 98.8269 205.688 98.7603 205.688C98.727 205.688 98.727 205.688 98.6937 205.688C98.6937 205.688 98.6937 205.688 98.6937 205.721C98.6271 205.788 98.5272 205.788 98.4606 205.721C97.2952 204.756 96.1964 203.725 95.1975 202.593C94.132 201.395 93.1663 200.163 92.2673 198.832C91.4016 197.501 90.6024 196.136 89.9365 194.705C89.4703 193.673 89.0707 192.641 88.7711 191.543C88.4714 192.142 88.2383 192.841 88.1384 193.54Z" fill="#615BA3"/>
<path d="M12.1866 78.8804C11.7538 78.9137 11.3209 79.1467 11.0545 79.4795C10.888 79.6792 10.7881 79.8456 10.6549 80.1119C10.5551 80.3116 10.4885 80.5113 10.4552 80.7776C10.3553 81.2768 10.322 81.8093 10.3553 82.4084C10.3886 82.7412 10.4219 83.0408 10.4885 83.3403C9.82251 82.8411 9.08996 82.4084 8.35741 82.0423C7.59157 81.6762 6.85903 81.4099 6.19307 81.2768C5.62702 81.1437 5.09426 81.1104 4.59479 81.1769C4.42831 81.1769 4.26182 81.2102 4.06203 81.2435C3.79565 81.3101 3.49597 81.4099 3.1297 81.5431C2.89662 81.6429 2.66354 81.776 2.43045 81.9425C2.09748 82.1754 1.8644 82.5748 1.8311 82.9742C1.7978 83.4069 2.03088 83.8063 2.23067 84.0726C2.49705 84.4387 2.86332 84.7382 3.22959 85.0045C3.59587 85.2707 3.99544 85.537 4.4616 85.8033C4.22852 85.8033 3.99544 85.8033 3.72906 85.8033C3.56257 85.8033 3.39608 85.8366 3.22959 85.8366C2.86332 85.8698 2.49705 85.9364 2.19737 86.003C1.69791 86.1361 1.26504 86.3025 0.898767 86.5688C0.532494 86.835 0.266114 87.1679 0.132924 87.5673C-0.066861 88.0665 0.0330316 88.6323 0.132924 88.9984C0.199519 89.2314 0.299412 89.4644 0.432602 89.6641C0.499197 89.7639 0.565792 89.8971 0.665685 89.9636C0.73228 90.0635 0.832172 90.1301 0.932065 90.2299L0.99866 90.2632C1.23174 90.4296 1.46483 90.5627 1.73121 90.6959C1.96429 90.7957 2.26397 90.8956 2.59694 90.9621C3.1963 91.0953 3.86225 91.1618 4.66139 91.1285C4.82788 91.1285 5.02766 91.1285 5.19415 91.1285C4.62809 91.4946 4.19522 91.8275 3.86225 92.1936C3.42938 92.6596 3.1963 93.0589 3.1297 93.4583C3.0964 93.7246 3.0964 93.9576 3.1297 94.1573C3.1963 94.3903 3.29619 94.6232 3.49597 94.8895C3.66246 95.1225 3.92884 95.3222 4.12863 95.4553C4.36171 95.6217 4.62809 95.7549 4.89447 95.7881C5.19415 95.8547 5.52712 95.888 5.8934 95.8547C6.12648 95.8214 6.35956 95.7881 6.59265 95.7216C7.2586 95.5552 7.85795 95.2889 8.45731 95.0559C8.92347 94.8562 9.38964 94.59 9.8891 94.357L10.2887 94.1573C10.8214 93.891 11.3542 93.6248 11.9202 93.4251C12.0201 93.3918 12.12 93.3585 12.1866 93.3585C15.3499 98.9167 19.612 103.976 24.5067 107.903C29.3016 111.764 34.5626 114.327 39.7237 115.325C39.7903 115.325 39.8569 115.358 39.9235 115.358C39.9901 115.358 40.0234 115.325 40.09 115.325C40.1899 115.259 40.2897 115.159 40.323 115.026C40.3563 114.893 40.3563 114.759 40.2897 114.66C40.2565 114.56 40.1233 114.427 39.9901 114.427C38.9245 114.227 37.859 113.961 36.8268 113.628C37.1931 113.561 37.5593 113.428 37.9256 113.295C38.4251 113.062 38.9245 112.729 39.424 112.33C39.8569 111.964 40.2564 111.498 40.6227 110.932C40.9557 110.466 41.2554 109.9 41.5218 109.268C41.7548 108.702 41.9546 108.136 42.0878 107.47C42.3875 106.172 42.4208 104.908 42.2543 103.676C42.1877 103.144 42.0212 102.578 41.7881 102.012C41.5551 101.413 41.2554 100.847 40.7559 100.181C40.2897 99.5491 39.7237 98.9167 39.0577 98.3176C41.1222 98.8169 43.1866 99.1497 45.1845 99.2828C45.2178 99.2828 45.2178 99.2828 45.2511 99.2828C45.4842 99.2496 45.6839 99.0499 45.6839 98.8169C45.6839 98.5506 45.4842 98.3176 45.2178 98.3176C43.9858 98.2511 42.6872 98.0847 41.3886 97.8517C38.0255 97.2193 34.5626 96.0877 31.1329 94.4901C29.1684 93.5582 27.2371 92.4931 25.3724 91.295C24.5733 90.7957 23.7409 90.1966 22.7086 89.4644C21.743 88.7654 20.9439 88.1331 20.2113 87.534C18.9793 86.4689 17.9804 85.4372 17.2479 84.3388C16.9815 83.7397 16.7151 83.2072 16.482 82.708L16.3821 82.5083C16.0491 81.8426 15.7495 81.2102 15.3166 80.6111C15.1168 80.3116 14.917 80.0786 14.7172 79.8789C14.4842 79.6459 14.1845 79.4462 13.8848 79.2798C13.5851 79.1134 13.3187 79.0136 13.0524 78.947C12.9192 78.9137 12.786 78.8804 12.6528 78.8804C12.4863 78.8471 12.3531 78.8471 12.1866 78.8804Z" fill="#ECD0C4"/>
<path d="M7.55777 90.3628C6.92511 90.4294 6.29246 90.5958 5.69311 90.8288C5.59321 90.8621 5.52662 90.9952 5.59321 91.0951C5.62651 91.1949 5.7597 91.2615 5.85959 91.1949C6.02608 91.1283 6.19257 91.0618 6.35906 90.9952C6.62544 90.9287 6.89182 90.8621 7.1582 90.8288C7.42458 90.7955 7.69096 90.7955 7.92404 90.7622C7.92404 90.7622 7.92404 90.7622 7.89074 90.7622C7.92404 90.7622 7.92404 90.7622 7.95734 90.7622C8.4568 90.7622 8.92297 90.7955 9.42243 90.8288C9.55562 90.8288 9.72211 90.729 9.72211 90.5958C9.72211 90.4627 9.62221 90.2963 9.48902 90.2963C8.85637 90.263 8.22372 90.263 7.59106 90.3296C7.59106 90.3296 7.59106 90.3628 7.55777 90.3628ZM6.42565 90.9952H6.39235H6.42565ZM7.99064 90.7955H7.95734H7.99064Z" fill="#DC9770"/>
<path d="M5.16052 86.0364C5.16052 86.1029 5.19382 86.1362 5.26041 86.2028C5.32701 86.2361 5.36031 86.2361 5.4269 86.2361C5.4602 86.2361 5.4935 86.2361 5.4935 86.2361C6.29264 86.2361 7.09178 86.3026 7.85762 86.5023H7.82432C7.85762 86.5023 7.85762 86.5023 7.89092 86.5023H7.92422C8.1906 86.5689 8.49027 86.6688 8.75665 86.7686C8.92314 86.8352 9.12293 86.7686 9.18952 86.5689C9.22282 86.4691 9.22282 86.4025 9.18952 86.3026C9.15622 86.2361 9.08963 86.1362 8.98974 86.1029C8.39038 85.9365 7.79103 85.8367 7.19167 85.7701C6.59231 85.7036 5.99296 85.7368 5.3936 85.7368C5.19382 85.7701 5.12722 85.9365 5.16052 86.0364ZM7.89092 86.5023C7.85762 86.5023 7.85762 86.5023 7.89092 86.5023C7.85762 86.5023 7.85762 86.5023 7.89092 86.5023C7.85762 86.5023 7.85762 86.5023 7.89092 86.5023Z" fill="#DC9770"/>
<path d="M117.041 46.9293C117.441 46.7297 117.907 46.6964 118.34 46.8295C118.573 46.8961 118.773 46.9959 119.006 47.129C119.206 47.2622 119.372 47.3953 119.539 47.5617C119.872 47.9278 120.205 48.3605 120.471 48.893C120.638 49.1926 120.737 49.4588 120.871 49.7584C121.17 48.9596 121.537 48.2274 121.969 47.5284C122.436 46.7962 122.902 46.1971 123.401 45.6979C123.801 45.2985 124.234 44.9657 124.7 44.7327C124.866 44.6661 125 44.5663 125.166 44.533C125.432 44.4331 125.732 44.3666 126.098 44.3C126.365 44.2667 126.631 44.2334 126.898 44.2667C127.33 44.3 127.697 44.4997 127.93 44.7992C128.196 45.1321 128.196 45.598 128.196 45.9641C128.163 46.4301 128.03 46.8628 127.863 47.2622C127.697 47.6949 127.497 48.1275 127.23 48.5935C127.43 48.4604 127.63 48.3272 127.83 48.1941C127.963 48.0942 128.13 48.0277 128.263 47.9611C128.596 47.7947 128.929 47.6616 129.228 47.5284C129.728 47.362 130.194 47.2955 130.627 47.2955C131.06 47.3287 131.459 47.4619 131.826 47.7281C132.258 48.061 132.491 48.5602 132.591 48.9263C132.658 49.1593 132.691 49.4256 132.691 49.6585C132.691 49.7917 132.691 49.9248 132.658 50.0579C132.625 50.1911 132.591 50.2909 132.558 50.4241L132.525 50.4906C132.425 50.7569 132.292 51.0231 132.125 51.2228C131.992 51.4558 131.792 51.6555 131.526 51.9218C131.093 52.3545 130.56 52.7539 129.894 53.1865C129.728 53.2864 129.595 53.3529 129.428 53.4528C130.094 53.4528 130.627 53.4861 131.126 53.6192C131.726 53.7856 132.125 53.9853 132.425 54.2849C132.591 54.4846 132.725 54.651 132.791 54.884C132.858 55.1169 132.891 55.3832 132.858 55.6827C132.824 55.9823 132.725 56.2818 132.625 56.5148C132.525 56.7811 132.358 57.0141 132.159 57.2138C131.925 57.4467 131.692 57.6464 131.359 57.8129C131.16 57.9127 130.96 58.0126 130.693 58.0791C130.061 58.3121 129.395 58.412 128.762 58.5118C128.229 58.5784 127.73 58.6449 127.197 58.6782L126.764 58.7115C126.165 58.7781 125.566 58.8446 125 58.9778C124.9 59.011 124.8 59.0443 124.733 59.0443C125.066 65.4346 124.167 71.9581 122.136 77.949C120.171 83.7735 117.075 88.766 113.246 92.3605C113.212 92.3938 113.146 92.4604 113.079 92.4936C113.046 92.5269 112.979 92.5269 112.913 92.5269C112.779 92.5269 112.646 92.4936 112.546 92.4271C112.446 92.3605 112.38 92.2274 112.38 92.0942C112.38 91.9944 112.413 91.828 112.48 91.7281C113.246 90.9959 114.011 90.1971 114.711 89.3651C114.344 89.4982 113.978 89.598 113.612 89.6646C113.079 89.7312 112.48 89.7312 111.814 89.6313C111.248 89.5315 110.682 89.3651 110.049 89.0988C109.516 88.8658 108.983 88.5663 108.384 88.1669C107.885 87.834 107.418 87.4346 106.919 86.9354C105.987 86.0035 105.254 84.9384 104.755 83.8068C104.522 83.3076 104.355 82.775 104.222 82.1427C104.089 81.5103 104.055 80.8446 104.089 80.0458C104.122 79.2803 104.288 78.4483 104.522 77.5829C103.056 79.1139 101.491 80.4785 99.8599 81.6767C99.8266 81.6767 99.8266 81.71 99.7933 81.71C99.5935 81.8098 99.3272 81.7433 99.194 81.5769C99.0275 81.3772 99.0941 81.0776 99.2939 80.9112C100.293 80.179 101.292 79.3469 102.291 78.4483C104.788 76.1185 107.085 73.3227 109.15 70.0942C110.315 68.2637 111.381 66.3 112.313 64.303C112.713 63.4377 113.112 62.5057 113.579 61.3408C114.011 60.2425 114.378 59.2773 114.644 58.3787C115.11 56.8144 115.377 55.4165 115.443 54.0852C115.443 53.5194 115.377 52.9203 115.31 52.3877L115.277 52.1548C115.177 51.4225 115.11 50.6903 115.143 49.9914C115.143 49.6585 115.21 49.3257 115.277 49.0595C115.343 48.7266 115.476 48.3938 115.676 48.0942C115.843 47.7947 116.009 47.5617 116.209 47.362C116.309 47.2622 116.409 47.1623 116.509 47.0958C116.775 47.0958 116.908 47.0292 117.041 46.9293Z" fill="#ECD0C4"/>
<path d="M127.096 54.1515C127.662 53.852 128.295 53.6523 128.928 53.5524C129.028 53.5191 129.161 53.619 129.161 53.7188C129.194 53.8187 129.094 53.9518 128.994 53.9518C128.828 53.9851 128.628 54.0184 128.462 54.085C128.195 54.1515 127.962 54.2514 127.696 54.3845C127.463 54.4843 127.23 54.6175 126.996 54.7506C126.996 54.7506 126.996 54.7506 127.03 54.7506L126.996 54.7839C126.597 55.0502 126.197 55.3164 125.798 55.6492C125.665 55.7491 125.498 55.7158 125.398 55.616C125.298 55.5161 125.332 55.3164 125.431 55.2166C125.964 54.8172 126.497 54.4511 127.096 54.1515ZM128.428 54.085H128.462C128.428 54.085 128.428 54.085 128.428 54.085Z" fill="#DC9770"/>
<path d="M126.829 49.2257C126.863 49.2922 126.863 49.3588 126.829 49.3921C126.796 49.4587 126.763 49.4919 126.696 49.5252C126.663 49.5252 126.663 49.5585 126.63 49.5585C125.964 49.9579 125.331 50.4904 124.798 51.0562L124.832 51.023L124.798 51.0562C124.598 51.2559 124.432 51.4889 124.232 51.7219C124.132 51.855 123.899 51.9216 123.766 51.7885C123.699 51.7219 123.633 51.6553 123.633 51.5555C123.633 51.4889 123.633 51.3558 123.699 51.2892C124.099 50.8233 124.565 50.4239 125.065 50.0578C125.531 49.6916 126.064 49.3588 126.563 49.0593C126.663 49.026 126.796 49.1258 126.829 49.2257Z" fill="#DC9770"/>
<path d="M102.857 75.9848C101.691 77.4159 100.359 78.7805 98.9276 80.1119C96.1306 82.6414 93.1339 84.7049 90.0039 86.3025C88.006 87.301 86.1081 88.0332 84.2101 88.5324C84.0103 88.599 83.8772 88.7987 83.8772 88.9984C83.8772 89.0982 83.9104 89.1981 83.9437 89.2646C84.4432 89.9636 84.8761 90.6625 85.2091 91.428C85.5753 92.2934 85.8417 93.192 86.0082 94.0907V94.124C86.0082 94.1572 86.0082 94.1905 86.0082 94.2238V94.1572C86.1414 95.0559 86.1414 95.9878 86.0415 96.8864C85.9416 97.7185 85.7418 98.5173 85.4421 99.2828C85.1092 100.082 84.7096 100.88 84.1768 101.579C83.6108 102.345 82.9448 103.044 82.179 103.676C81.2466 104.408 80.1811 105.074 78.9824 105.607L79.049 105.573C77.7504 106.139 76.3186 106.538 74.8202 106.771H74.9534C74.5871 106.805 74.1876 106.871 73.8213 106.905C72.6892 107.004 71.5238 107.004 70.4249 106.871H70.3584C69.093 106.705 67.8943 106.405 66.7955 106.006C65.8299 105.607 64.8976 105.141 64.0984 104.542L64.165 104.608C64.1317 104.575 64.1317 104.575 64.0984 104.542L64.0651 104.508C63.3992 104.009 62.7998 103.41 62.2671 102.811C61.7343 102.178 61.3014 101.446 60.9685 100.681V100.647V100.614C60.6022 99.782 60.3691 98.9167 60.2026 97.9848C60.1693 97.7518 60.136 97.5521 60.136 97.3191C60.136 97.2193 60.136 97.1527 60.136 97.1194C60.1027 96.9863 60.0361 96.8864 59.9695 96.8199C59.9029 96.7533 59.7697 96.72 59.6366 96.72C58.3712 97.0528 57.0726 97.2525 55.7407 97.3857C54.9749 97.4522 54.2091 97.4855 53.3766 97.4855C50.5463 97.4855 47.6827 97.0861 44.8524 96.3206C42.8546 95.7548 40.9899 95.0559 39.2918 94.1905C39.2252 94.1572 39.1586 94.1572 39.0587 94.1572C38.9588 94.1572 38.8589 94.1905 38.7923 94.2571C38.6924 94.2904 38.6258 94.3237 38.5592 94.3902C37.6269 95.0892 36.7611 96.0876 36.0286 97.2858C35.3627 98.3509 34.7966 99.6156 34.3304 101.147C33.9309 102.411 33.5979 103.809 33.3648 105.374C33.165 106.738 32.9985 108.136 32.9652 109.501C32.9319 110.566 32.9319 111.597 32.9985 112.596C33.0651 113.328 33.1317 113.994 33.2982 114.626C33.3648 114.959 33.4647 115.259 33.5979 115.591C33.6978 115.858 33.7977 116.124 33.9309 116.357L34.0308 116.557C34.0641 116.59 34.064 116.623 34.0973 116.656C34.1306 116.723 34.1972 116.79 34.3304 116.856C35.4625 117.455 36.7279 117.955 38.1596 118.454C39.5581 118.92 41.0898 119.286 42.6548 119.585C44.2198 119.885 45.8181 120.051 47.3831 120.085C48.4486 120.118 49.5141 120.085 50.513 120.018C51.0125 119.985 51.512 119.918 52.0114 119.852C53.643 119.585 55.1414 119.153 56.44 118.52C56.0404 121.05 55.8406 123.679 55.8406 126.309C55.8739 129.337 56.1736 132.499 56.7397 135.661C57.8385 141.752 59.9695 147.809 63.0329 153.634C66.0297 159.325 69.7923 164.484 74.2209 168.944C75.4529 170.175 76.7515 171.407 78.1167 172.538C78.8159 173.104 79.4819 173.637 80.1478 174.169C81.1468 174.935 82.1457 175.634 83.0114 176.2C83.078 176.266 83.2112 176.299 83.3111 176.266C83.3444 176.266 83.3777 176.266 83.4443 176.233C83.8772 176.333 84.3433 176.366 84.8428 176.366C85.0093 176.366 85.1758 176.366 85.3089 176.333C85.6419 176.299 85.9416 176.266 86.2746 176.2L86.4744 176.166L87.1403 176.066C87.4067 176.033 87.7064 176 87.9727 175.967C88.5055 175.9 89.0383 175.8 89.571 175.7C91.5689 175.334 93.5667 174.835 95.5313 174.236C99.2939 173.071 103.057 171.407 106.786 169.31C108.484 168.345 110.249 167.213 111.98 166.015C113.645 164.85 115.144 163.685 116.542 162.454C119.206 160.124 121.637 157.461 123.801 154.499C125.832 151.67 127.63 148.542 129.128 145.213C129.828 143.649 130.494 141.985 131.126 140.187C131.426 139.322 131.692 138.457 131.959 137.558C132.159 136.826 132.358 136.127 132.558 135.395L132.658 134.995C133.024 133.664 133.457 132.1 133.99 130.535C134.822 128.106 135.721 126.209 136.787 124.578C137.586 123.38 138.518 122.348 139.517 121.449C140.217 120.85 140.783 120.451 141.382 120.151L141.482 120.085L141.415 120.118C141.981 119.885 142.614 119.652 143.28 119.519C143.513 119.486 143.779 119.452 144.012 119.419C144.379 119.386 144.745 119.386 145.078 119.419C145.111 119.419 145.178 119.419 145.211 119.419C145.244 119.419 145.278 119.419 145.311 119.419C145.511 119.419 145.677 119.452 145.877 119.486C146.144 119.519 146.41 119.585 146.676 119.685C147.276 119.852 147.842 120.118 148.341 120.451C148.608 120.617 148.874 120.817 149.107 121.017C149.34 121.216 149.54 121.416 149.706 121.682C149.84 121.849 149.973 122.048 150.073 122.248C149.906 121.582 149.706 121.017 149.44 120.451C149.14 119.885 148.774 119.319 148.341 118.82C147.575 117.888 146.543 117.056 145.211 116.257C144.179 115.625 142.98 115.059 141.449 114.526C140.383 114.127 139.184 113.761 137.619 113.328C134.656 112.496 131.626 111.83 128.662 111.198C125.632 110.532 122.502 109.867 119.472 109.001C119.139 108.902 118.806 108.802 118.473 108.702C114.577 107.537 111.348 106.139 108.617 104.442L108.651 104.475C107.119 103.51 105.687 102.378 104.388 101.18H104.488L104.755 101.147C105.321 101.08 105.92 100.98 106.653 100.781C107.851 100.481 109.117 100.015 110.515 99.3827C111.78 98.7836 113.012 98.0846 114.145 97.3191C115.277 96.5536 116.242 95.7548 117.041 94.9227C117.141 94.8229 117.175 94.6565 117.141 94.4901C117.175 94.4235 117.175 94.3569 117.175 94.2904C116.808 91.8607 115.876 89.2646 114.311 86.4023C113.579 85.1043 112.746 83.8063 111.847 82.6081C110.915 81.3766 109.916 80.245 108.85 79.2798C108.018 78.5143 107.119 77.8153 106.186 77.2162C105.354 76.6837 104.455 76.251 103.523 75.9515C103.423 75.8516 103.29 75.8184 103.156 75.8184C103.057 75.8184 102.957 75.8849 102.857 75.9848ZM56.9062 130.203V130.136C56.9062 130.336 56.9395 130.569 56.9395 130.768L56.9062 130.269V130.203Z" fill="#AFA7CF"/>
<path d="M148.641 121.449C148.608 121.416 148.574 121.383 148.541 121.35C148.574 121.35 148.608 121.383 148.641 121.449Z" fill="#D34468"/>
<path d="M148.641 121.449C148.608 121.416 148.574 121.383 148.541 121.35C148.574 121.35 148.608 121.383 148.641 121.449Z" fill="#D34468"/>
<path d="M113.91 90.6631C112.811 91.9944 111.646 93.2259 110.381 94.3575C109.115 95.5224 107.75 96.5874 106.285 97.4861C104.986 98.2849 103.621 98.9838 102.189 99.4498C102.223 99.483 102.256 99.5163 102.289 99.5496C103.255 100.382 104.254 101.18 105.286 101.946C104.986 101.68 104.72 101.447 104.42 101.18L104.52 101.214L104.787 101.18C105.353 101.114 105.952 101.014 106.685 100.814C107.917 100.515 109.149 100.049 110.547 99.3832C111.846 98.7841 113.044 98.0852 114.177 97.3197C115.342 96.5541 116.274 95.7554 117.073 94.9233C117.173 94.8234 117.207 94.6237 117.173 94.4906C117.207 94.424 117.207 94.3575 117.207 94.2909C116.94 92.4936 116.374 90.6298 115.442 88.6328C114.976 89.3318 114.443 89.9974 113.91 90.6631Z" fill="#615BA3"/>
<path d="M32.9652 109.534C32.9319 110.599 32.9319 111.631 32.9985 112.629C33.0651 113.395 33.1317 114.06 33.2982 114.659C33.3648 114.959 33.4647 115.292 33.5979 115.625C33.6978 115.891 33.7977 116.157 33.9309 116.39L34.0308 116.59C34.0641 116.623 34.064 116.656 34.0973 116.723C34.1306 116.789 34.1972 116.856 34.3304 116.923C35.4625 117.522 36.7279 118.054 38.1596 118.52C39.5581 118.986 41.0898 119.385 42.6548 119.652C44.2531 119.951 45.8181 120.118 47.3831 120.151C48.4819 120.184 49.5474 120.151 50.513 120.084C51.0125 120.051 51.512 119.985 52.0114 119.918C53.643 119.652 55.1414 119.219 56.44 118.587C56.0071 121.083 55.8073 123.679 55.8073 126.375C55.8406 129.404 56.1403 132.565 56.7064 135.727C57.8052 141.818 59.9362 147.876 63.0329 153.7C66.0297 159.392 69.7923 164.55 74.2209 169.01C75.4529 170.242 76.7515 171.473 78.1167 172.605C78.8492 173.204 79.5152 173.736 80.1478 174.236C81.2134 175.034 82.2789 175.767 83.0114 176.266C83.1113 176.333 83.2112 176.366 83.3111 176.333C83.3444 176.333 83.3777 176.333 83.4443 176.299C83.8772 176.399 84.31 176.432 84.8428 176.432C85.0093 176.432 85.1758 176.432 85.309 176.399C85.6419 176.366 85.9416 176.333 86.2746 176.266L86.4744 176.233L87.1403 176.133C87.4067 176.1 87.7064 176.066 87.9728 176.033C88.5055 175.966 89.0383 175.867 89.571 175.767C91.5689 175.401 93.6 174.901 95.5646 174.302C99.2939 173.137 103.09 171.473 106.819 169.376C108.551 168.411 110.282 167.28 112.014 166.081C113.678 164.916 115.177 163.752 116.575 162.52C117.641 161.588 118.673 160.59 119.672 159.558C118.273 160.157 116.842 160.69 115.377 161.189C111.547 162.454 107.552 163.252 103.489 163.419C101.458 163.519 99.4271 163.452 97.396 163.219C95.7644 163.019 94.1328 162.72 92.5345 162.32C91.136 161.954 89.7708 161.488 88.4389 160.923C87.0737 160.357 85.7751 159.724 84.5098 158.992C81.9459 157.528 79.5485 155.797 77.3508 153.8C75.1199 151.77 73.0555 149.54 71.2241 147.143C69.3594 144.714 67.7279 142.118 66.3294 139.422C64.9309 136.726 63.7322 133.897 62.7998 130.968C61.0351 125.41 60.2026 119.552 60.7687 113.727C60.7687 113.727 60.7687 113.727 60.7687 113.694C58.9706 114.293 57.1059 114.693 55.208 114.892C53.2767 115.092 51.3122 115.092 49.3809 114.926C47.716 114.792 46.0845 114.526 44.4529 114.16C42.8546 113.794 41.2563 113.328 39.7246 112.762C37.3938 111.897 35.1296 110.798 33.0318 109.467C32.9652 109.434 32.9652 109.467 32.9652 109.534Z" fill="#615BA3"/>
<path d="M107.586 208.317C104.522 209.316 102.591 211.579 101.459 214.441C103.757 216.572 104.955 217.304 107.153 218.868C107.12 218.868 112.381 216.205 107.586 208.317Z" fill="white"/>
<path d="M107.784 208.284C106.652 206.454 106.619 206.387 106.053 205.688C106.053 205.688 112.745 200.662 107.052 195.37C104.055 192.575 100.192 193.473 99.0269 194.805C99.0935 194.738 99.0269 194.738 99.0269 194.805C99.4597 193.972 99.8926 192.674 99.1268 190.411C97.928 186.95 93.5328 185.851 90.8357 188.381L84.043 194.771C84.043 194.771 91.1686 204.723 101.624 214.408C102.789 211.546 104.721 209.283 107.784 208.284Z" fill="#615BA3"/>
<path d="M83.8774 194.838L82.3457 196.269C82.3457 196.269 93.3339 212.345 105.221 220.033C105.221 220.033 107.552 218.901 107.086 218.535C93.8999 208.184 83.8774 194.838 83.8774 194.838Z" fill="white"/>
<path d="M94.3668 196.902C93.4012 197.8 91.9028 197.734 91.0038 196.768C90.1048 195.803 90.1714 194.305 91.137 193.407C92.1026 192.508 93.601 192.575 94.5 193.54C95.3658 194.505 95.3325 196.003 94.3668 196.902Z" fill="white"/>
<path d="M106.187 205.388L100.193 199.697C99.9934 199.531 99.6937 199.531 99.5272 199.697C99.3607 199.863 99.3607 200.163 99.5272 200.329C99.5272 200.329 99.5272 200.329 99.5605 200.363L105.554 206.054C105.754 206.221 106.054 206.221 106.22 206.054C106.387 205.888 106.387 205.588 106.187 205.388Z" fill="white"/>
<path d="M112.413 203.325C112.013 202.926 111.514 202.726 111.047 202.593C110.681 202.493 110.348 202.393 109.982 202.327C110.448 202.193 110.881 201.994 111.314 201.827C112.313 201.395 112.479 200.796 112.446 200.396C112.413 199.897 112.013 199.464 111.48 199.298C111.081 199.198 110.681 199.231 110.315 199.331C109.183 199.564 108.217 200.097 107.318 200.629C106.586 201.029 105.886 201.428 105.154 201.661L101.125 198.033C100.925 197.867 100.625 197.867 100.459 198.066C100.292 198.266 100.292 198.532 100.459 198.699L100.492 198.732L104.788 202.593C104.821 202.659 104.854 202.693 104.887 202.726C104.954 202.793 105.021 202.826 105.087 202.859L106.952 204.523C107.152 204.69 107.451 204.69 107.618 204.49C108.75 205.056 109.949 205.389 110.948 205.522C111.214 205.555 112.046 205.688 112.546 205.122C113.012 204.59 112.846 203.791 112.413 203.325ZM107.751 201.428C108.65 200.929 109.482 200.429 110.481 200.23C110.714 200.196 111.014 200.13 111.214 200.196C111.314 200.23 111.38 200.263 111.414 200.33C111.447 200.363 111.48 200.396 111.48 200.429C111.48 200.563 111.247 200.762 110.881 200.929C109.682 201.461 108.384 201.794 107.052 201.927C106.985 201.927 106.919 201.927 106.819 201.927C107.185 201.761 107.451 201.594 107.751 201.428ZM111.047 204.59C109.482 204.357 107.951 203.724 106.785 202.892C106.885 202.892 106.985 202.892 107.085 202.859C108.317 202.926 109.549 203.125 110.748 203.458C111.114 203.558 111.48 203.691 111.68 203.924C111.847 204.091 111.88 204.357 111.78 204.49C111.747 204.59 111.547 204.656 111.047 204.59Z" fill="white"/>
<path d="M175.71 174.004C175.676 177.232 177.208 179.762 179.539 181.759C182.302 180.261 183.368 179.362 185.566 177.798C185.532 177.798 184.7 171.974 175.71 174.004Z" fill="white"/>
<path d="M175.744 173.77C173.646 174.236 173.579 174.236 172.747 174.569C172.747 174.569 170.15 166.614 163.324 170.309C159.727 172.239 159.328 176.2 160.194 177.731C160.127 177.664 160.127 177.698 160.194 177.731C159.528 177.065 158.462 176.233 156.065 176.233C152.369 176.266 149.938 180.061 151.47 183.422L155.332 191.876C155.332 191.876 167.053 188.315 179.573 181.525C177.209 179.528 175.71 176.999 175.744 173.77Z" fill="#615BA3"/>
<path d="M155.299 192.109L156.165 194.006C156.165 194.006 174.911 188.781 185.999 179.961C185.999 179.961 185.666 177.398 185.167 177.731C171.148 186.884 155.299 192.109 155.299 192.109Z" fill="white"/>
<path d="M160.627 182.856C161.16 184.055 160.627 185.486 159.428 186.018C158.23 186.551 156.798 186.018 156.265 184.82C155.732 183.622 156.265 182.191 157.464 181.658C158.663 181.092 160.094 181.658 160.627 182.856Z" fill="white"/>
<path d="M172.479 174.369L165.154 178.197C164.921 178.33 164.821 178.596 164.954 178.829C165.087 179.062 165.354 179.129 165.554 179.029H165.587L172.912 175.201C173.145 175.068 173.245 174.802 173.112 174.569C172.979 174.336 172.713 174.236 172.479 174.369Z" fill="white"/>
<path d="M172.48 167.813C171.98 168.046 171.647 168.479 171.348 168.878C171.148 169.178 170.948 169.477 170.748 169.81C170.748 169.344 170.748 168.845 170.682 168.379C170.582 167.28 170.082 166.948 169.683 166.848C169.183 166.715 168.651 166.948 168.351 167.414C168.118 167.746 168.051 168.146 167.985 168.545C167.851 169.71 168.051 170.775 168.251 171.807C168.417 172.639 168.551 173.404 168.517 174.203L163.789 176.866C163.556 176.999 163.489 177.299 163.623 177.498C163.756 177.698 164.022 177.798 164.222 177.698C164.222 177.698 164.255 177.698 164.255 177.665L169.283 174.802C169.35 174.802 169.416 174.769 169.45 174.769C169.516 174.736 169.583 174.669 169.616 174.603L171.78 173.371C172.014 173.238 172.08 172.938 171.947 172.739C172.846 171.84 173.545 170.842 174.011 169.91C174.145 169.677 174.511 168.911 174.145 168.279C173.878 167.646 173.079 167.547 172.48 167.813ZM169.217 171.607C169.017 170.609 168.85 169.643 168.95 168.645C168.983 168.412 169.017 168.112 169.15 167.946C169.183 167.879 169.283 167.813 169.35 167.78C169.383 167.746 169.45 167.746 169.483 167.746C169.616 167.78 169.749 168.079 169.783 168.479C169.916 169.81 169.816 171.141 169.483 172.406C169.45 172.473 169.416 172.539 169.416 172.606C169.35 172.273 169.283 171.94 169.217 171.607ZM173.279 169.51C172.546 170.941 171.481 172.173 170.315 173.005C170.349 172.905 170.382 172.805 170.382 172.705C170.848 171.541 171.447 170.442 172.147 169.41C172.347 169.111 172.58 168.811 172.879 168.678C173.079 168.578 173.345 168.612 173.445 168.745C173.479 168.845 173.512 169.044 173.279 169.51Z" fill="white"/>
<path d="M76.0522 104.043L75.5194 104.209C70.4249 105.707 65.7965 105.308 64.2981 100.215L59.7364 84.8053C58.238 79.7131 61.1349 74.3545 66.2627 72.8235L66.7954 72.6571C71.89 71.1594 77.2509 74.055 78.7825 79.1805L83.3443 94.5905C84.8094 99.6828 81.1467 102.512 76.0522 104.043Z" fill="#ECD0C4"/>
<path opacity="0.69" d="M83.0112 93.5249L79.9811 83.2404C78.4827 78.1482 73.1218 75.2193 67.994 76.717L67.4613 76.8834C62.3667 78.3811 59.4366 83.7397 60.9349 88.8653L64.4312 100.681C68.6933 100.115 75.486 98.3842 83.0112 93.5249Z" fill="#E2AEA2"/>
<path d="M42.7207 82.6414C43.5198 89.1648 38.8914 95.0892 32.4317 95.8547C25.972 96.6535 20.0783 91.9939 19.2792 85.4704C18.4801 78.947 23.1084 73.0226 29.5681 72.2571C36.0278 71.4583 41.9215 76.1179 42.7207 82.6414Z" fill="#E6C2B6"/>
<path opacity="0.5" d="M41.3882 86.6023C41.9209 90.8625 38.2249 94.7899 33.1637 95.4223C28.1024 96.0213 23.574 93.0925 23.0745 88.8322C22.5418 84.572 26.2378 80.6446 31.299 80.0123C36.3602 79.4132 40.8887 82.3421 41.3882 86.6023Z" fill="#E2AEA2"/>
<path d="M21.4428 87.0011C21.9423 86.2023 22.5084 85.4701 23.141 84.7712C23.7737 84.0722 24.4729 83.4731 25.2055 82.874C26.6373 81.7424 28.3354 80.8771 30.1335 80.3445C31.0325 80.045 31.9649 79.9451 32.8972 79.812L34.2957 79.7787C34.7619 79.7455 35.228 79.8786 35.6942 79.9119C36.6265 79.9784 37.5256 80.278 38.4246 80.511C38.8908 80.6108 39.2903 80.8438 39.7232 81.0102L40.9885 81.576C41.1883 81.6759 41.2882 81.8756 41.1883 82.0753C41.1217 82.275 40.8886 82.3415 40.6888 82.275L40.6555 82.2417L39.4235 81.7757C38.9906 81.6426 38.6244 81.4096 38.1582 81.343C37.2925 81.1433 36.46 80.8771 35.5943 80.8438C33.8628 80.6108 32.0981 80.8105 30.4665 81.3098C28.8016 81.809 27.2699 82.6411 25.8381 83.6728C24.4396 84.7379 23.141 85.9694 22.0755 87.3007L22.0422 87.334C21.909 87.5004 21.6759 87.5337 21.5094 87.4005C21.3763 87.3672 21.343 87.1675 21.4428 87.0011Z" fill="#E2AEA2"/>
<path d="M30.0679 88.3327C30.7671 87.0347 31.7661 85.9696 32.8982 85.0377C34.0636 84.139 35.3955 83.4734 36.794 83.074C37.4932 82.841 38.2258 82.7412 38.9583 82.6746C39.6909 82.6746 40.4234 82.6413 41.156 82.7744C41.8885 82.841 42.5878 83.074 43.287 83.2737C43.9863 83.5067 44.6189 83.8395 45.2516 84.139C45.3848 84.2056 45.4514 84.372 45.3848 84.5384C45.3182 84.6716 45.1517 84.7381 45.0185 84.7049H44.9852C44.3192 84.5052 43.6866 84.2056 43.0539 84.0725C42.388 83.9393 41.722 83.7396 41.0561 83.7396C39.7242 83.5732 38.359 83.7729 37.0937 84.139C35.8284 84.5052 34.6297 85.1708 33.5641 85.9696C32.4986 86.7684 31.4664 87.7003 30.5674 88.6988L30.5341 88.7321C30.4342 88.8652 30.2344 88.8652 30.1012 88.7654C30.0013 88.599 30.0013 88.4325 30.0679 88.3327Z" fill="#E2AEA2"/>
<path d="M93.4007 66.2333C96.7637 71.8914 104.023 73.7552 109.617 70.4269C115.211 67.0986 117.042 59.8097 113.712 54.1849C110.349 48.5268 103.09 46.6629 97.4963 49.9912C91.869 53.3195 90.0376 60.6085 93.4007 66.2333Z" fill="#E6C2B6"/>
<path opacity="0.5" d="M96.8636 68.596C99.0612 72.2904 104.389 73.1558 108.751 70.5597C113.146 67.9636 114.911 62.8713 112.713 59.1769C110.516 55.4825 105.188 54.6172 100.826 57.2132C96.464 59.8093 94.6993 64.9349 96.8636 68.596Z" fill="#E2AEA2"/>
<path d="M112.947 56.7142C112.048 56.3814 111.182 56.1484 110.25 55.982C109.351 55.8156 108.418 55.749 107.486 55.749C105.621 55.749 103.757 56.0819 101.992 56.7808C101.093 57.0803 100.294 57.5796 99.4945 58.0455L98.3624 58.8776C97.9628 59.1439 97.6964 59.51 97.3302 59.8428C96.6309 60.4752 96.0982 61.2407 95.5654 62.0062C95.2657 62.3723 95.0992 62.805 94.8661 63.2044L94.2002 64.4026C94.1003 64.6023 94.1669 64.8353 94.3667 64.9351C94.5332 65.035 94.7662 64.9684 94.8661 64.802L94.8994 64.7687L95.5987 63.6371C95.8318 63.271 96.0316 62.8716 96.3312 62.5387C96.8973 61.8731 97.3968 61.1409 98.0627 60.575C99.2947 59.3436 100.826 58.4449 102.425 57.8126C104.056 57.1802 105.788 56.9139 107.519 56.8806C109.251 56.8806 111.049 57.0471 112.747 57.4465H112.78C112.98 57.513 113.18 57.3799 113.246 57.1802C113.213 56.9805 113.113 56.7808 112.947 56.7142Z" fill="#E2AEA2"/>
<path d="M106.919 63.0382C105.587 62.4391 104.122 62.1729 102.657 62.1729C101.192 62.1729 99.7269 62.4391 98.3617 63.0049C97.6625 63.2379 97.0298 63.6373 96.3972 64.0034C95.7978 64.4361 95.1985 64.8688 94.7323 65.4346C94.1996 65.9338 93.8 66.5329 93.3671 67.132C92.9675 67.7311 92.6679 68.3968 92.3349 69.0291C92.2683 69.1623 92.3016 69.362 92.4681 69.4285C92.6013 69.4951 92.7678 69.4618 92.8344 69.3287L92.8677 69.2954C93.2672 68.7296 93.6002 68.1305 93.9998 67.598C94.4659 67.0987 94.8322 66.5329 95.365 66.1002C96.3306 65.1683 97.496 64.4694 98.728 64.0034C99.96 63.5374 101.325 63.3378 102.657 63.3045C103.989 63.2712 105.354 63.4043 106.686 63.6373H106.719C106.886 63.6706 107.052 63.5707 107.052 63.4043C107.119 63.2379 107.019 63.1048 106.919 63.0382Z" fill="#E2AEA2"/>
<path d="M100.126 47.4617C103.922 68.3633 96.1303 88.8989 70.2581 93.4919C46.0175 97.7854 28.9692 82.0093 25.1733 61.1077C21.3774 40.206 35.0627 20.203 55.7737 16.442C76.4515 12.6478 96.3301 26.56 100.126 47.4617Z" fill="#ECD0C4"/>
<path d="M24.4075 72.2902C24.4075 72.2902 10.256 51.788 16.516 38.7743C22.8092 25.7607 43.9531 11.6821 58.6373 11.7153C73.3216 11.7486 88.372 8.38704 94.0659 19.7032C99.7598 31.0194 101.758 48.26 101.758 48.26C101.758 48.26 91.9682 42.3356 89.7372 41.6367C87.5063 40.9377 83.6438 33.0164 82.2786 31.7516C80.9134 30.4869 84.0101 41.0376 84.0101 41.0376C84.0101 41.0376 75.1529 43.0346 71.0906 43.0346C67.0283 43.0346 62.4 32.4506 62.4 32.4506C62.4 32.4506 66.8618 43.5005 65.43 44.3992C63.9982 45.2645 45.7512 52.0209 43.5536 51.4551C41.3559 50.8893 35.3957 41.5035 35.3957 41.5035C35.3957 41.5035 40.6234 52.9529 39.0584 54.4506C37.4601 56.0149 29.502 74.1208 24.4075 72.2902Z" fill="#773D14"/>
<path d="M53.1426 9.55223C64.4637 5.99096 77.4165 7.98793 87.1394 14.8775C96.8289 21.7338 103.056 33.2829 103.455 45.1649" stroke="#8D5428" stroke-width="0.1753" stroke-miterlimit="10" stroke-linecap="round" stroke-linejoin="round"/>
<path d="M26.3725 28.4902C18.2479 39.3072 17.3156 55.05 24.1416 66.7323" stroke="#8D5428" stroke-width="0.1753" stroke-miterlimit="10" stroke-linecap="round" stroke-linejoin="round"/>
<path d="M49.6797 15.1104C55.307 15.2435 60.8677 17.1739 65.3295 20.5687C69.8247 23.9303 73.221 28.7231 74.9525 34.0816" stroke="#8D5428" stroke-width="0.1753" stroke-miterlimit="10" stroke-linecap="round" stroke-linejoin="round"/>
<path d="M68.6934 18.9717C75.1531 22.6994 79.2487 30.1547 78.9157 37.6101" stroke="#8D5428" stroke-width="0.1753" stroke-miterlimit="10" stroke-linecap="round" stroke-linejoin="round"/>
<path d="M38.2266 24.1631C47.3834 26.6926 54.9752 34.2478 57.5058 43.4006" stroke="#8D5428" stroke-width="0.1753" stroke-miterlimit="10" stroke-linecap="round" stroke-linejoin="round"/>
<path d="M29.4683 36.0459C29.1686 42.4029 30.9334 48.8598 34.4962 54.1518" stroke="#8D5428" stroke-width="0.1753" stroke-miterlimit="10" stroke-linecap="round" stroke-linejoin="round"/>
<path opacity="0.4" d="M63.499 76.85C64.0318 81.1435 58.8707 85.2705 51.9781 86.1026C45.0855 86.9347 39.092 84.1389 38.5925 79.8787C38.0597 75.5852 43.2208 71.4581 50.1134 70.6261C56.9727 69.794 62.9663 72.5898 63.499 76.85Z" fill="url(#paint0_radial_962_1479)"/>
<path opacity="0.4" d="M97.8961 62.0057C99.6609 65.9331 95.9649 71.4248 89.6717 74.2538C83.3451 77.0829 76.7855 76.2175 75.0207 72.2901C73.256 68.3628 76.952 62.8711 83.2452 60.042C89.5718 57.213 96.0981 58.0783 97.8961 62.0057Z" fill="url(#paint1_radial_962_1479)"/>
<path d="M62.2012 71.1255C62.2012 71.1255 64.4987 74.2874 69.2935 72.8562C72.5567 71.891 73.7221 69.661 74.0884 67.6641" stroke="#84332D" stroke-width="0.1753" stroke-linecap="round" stroke-linejoin="round"/>
<path d="M37.1275 62.239C37.1275 62.239 42.9879 48.2935 48.0824 49.9909C53.177 51.6884 44.786 61.174 43.4208 62.4055C42.0889 63.6036 36.062 67.6974 37.1275 62.239Z" fill="#773D14"/>
<path d="M87.4074 45.3312C87.4074 45.3312 74.3881 37.5763 71.2914 42.0029C68.1947 46.3962 80.5814 49.0256 82.4128 49.2253C84.2108 49.3917 91.503 49.0921 87.4074 45.3312Z" fill="#773D14"/>
<path d="M59.9023 50.29C59.9023 50.29 62.3331 63.0041 64.7305 62.5714C67.1279 62.1388 69.5586 57.4459 71.6897 61.4398C73.8207 65.4005 68.26 68.8952 68.26 68.8952" stroke="#84332D" stroke-width="0.1753" stroke-linecap="round" stroke-linejoin="round"/>
<path d="M88.2721 58.2774C88.2055 57.5119 88.0057 56.7797 87.6394 56.0807C86.0411 52.8856 82.0454 51.6541 78.6824 53.3183C75.3193 54.9824 73.8542 58.9431 75.4525 62.1382" stroke="black" stroke-width="0.1753" stroke-linecap="round" stroke-linejoin="round"/>
<path d="M88.2383 56.6805L91.1019 55.5156" stroke="black" stroke-width="0.1753" stroke-linecap="round" stroke-linejoin="round"/>
<path d="M87.6055 55.6156L90.1361 53.8516" stroke="black" stroke-width="0.1753" stroke-linecap="round" stroke-linejoin="round"/>
<path d="M86.8398 54.2838L88.9043 51.9873" stroke="black" stroke-width="0.1753" stroke-linecap="round" stroke-linejoin="round"/>
<path d="M45.0189 71.5916C44.6526 70.9259 44.4195 70.1604 44.3196 69.3616C43.9201 65.7338 46.6838 62.4388 50.513 62.0061C54.3422 61.5734 57.7718 64.1695 58.2047 67.7973" stroke="black" stroke-width="0.1753" stroke-linecap="round" stroke-linejoin="round"/>
<path d="M44.1534 70.2266L41.0234 70.7924" stroke="black" stroke-width="0.1753" stroke-linecap="round" stroke-linejoin="round"/>
<path d="M44.0871 68.9289L40.9238 68.8291" stroke="black" stroke-width="0.1753" stroke-linecap="round" stroke-linejoin="round"/>
<path d="M43.9871 67.3643L40.957 66.5322" stroke="black" stroke-width="0.1753" stroke-linecap="round" stroke-linejoin="round"/>
</g>
<defs>
<radialGradient id="paint0_radial_962_1479" cx="0" cy="0" r="1" gradientUnits="userSpaceOnUse" gradientTransform="translate(51.0338 78.3782) rotate(-5.06343) scale(11.5924 8.57039)">
<stop offset="0.1463" stop-color="#D8514E"/>
<stop offset="1" stop-color="#ECD0C4"/>
</radialGradient>
<radialGradient id="paint1_radial_962_1479" cx="0" cy="0" r="1" gradientUnits="userSpaceOnUse" gradientTransform="translate(86.442 67.1569) rotate(-22.3613) scale(11.5919 8.57076)">
<stop offset="0.1463" stop-color="#D8514E"/>
<stop offset="1" stop-color="#ECD0C4"/>
</radialGradient>
<clipPath id="clip0_962_1479">
<rect width="186" height="220" fill="white"/>
</clipPath>
</defs>
</svg>
