<svg width="209" height="209" viewBox="0 0 209 209" fill="none" xmlns="http://www.w3.org/2000/svg">
<path d="M90.7605 180.396C91.0935 181.482 94.1945 181.816 94.4442 181.816L94.6107 181.691C93.8615 180.688 93.0498 178.913 92.3006 176.762L92.1965 176.804C92.1965 176.804 90.4275 179.31 90.7605 180.396Z" fill="#211915"/>
<path d="M90.512 171.707C90.512 171.707 88.9303 172.96 89.0968 174.464C89.2633 175.968 92.1977 176.803 92.1977 176.803L92.3018 176.761C91.3653 174.067 90.4704 170.767 89.8252 167.571L89.6587 167.592C89.6587 167.592 87.2237 168.929 87.5567 170.182C87.9105 171.435 90.512 171.707 90.512 171.707Z" fill="#211915"/>
<path d="M89.1792 156.648C89.0127 157.066 88.9295 157.588 88.8671 158.236C88.763 159.426 88.8463 161.013 89.0544 162.768C89.1376 162.81 89.1792 162.831 89.1792 162.831C89.1792 162.831 89.1376 162.851 89.0752 162.893C89.2417 164.355 89.5122 165.943 89.8452 167.572C90.4904 170.746 91.3645 174.067 92.3218 176.762C93.0919 178.934 93.8827 180.688 94.632 181.691C95.069 182.276 95.5061 182.589 95.8807 182.547C98.8984 182.213 102.083 166.507 102.083 166.507C102.083 166.507 92.0305 164.167 90.0117 154.476L89.9493 154.455C89.6371 155.332 89.3874 156.084 89.1792 156.648Z" fill="#6EB2AE"/>
<path d="M35.3394 136.576C40.1469 138.477 48.4301 139.959 61.6873 137.411C84.9759 132.962 94.6118 123.647 97.0468 120.827L97.4214 120.848C98.0666 120.723 105.372 119.386 111.261 120.514C111.012 120.452 110.762 120.389 110.512 120.326C107.078 119.345 103.561 117.444 100.044 114.353C99.6483 113.998 99.2737 113.643 98.9407 113.267C96.6514 110.823 95.2154 107.69 94.5286 104.265C93.7377 100.401 93.9042 96.1607 94.9448 92.046C95.3402 90.4796 95.8605 88.9549 96.4849 87.451L96.4433 87.4302C89.7002 73.1439 81.2506 75.7964 80.9592 75.88L80.8759 75.7129C77.9623 77.1749 74.5283 78.4072 70.6156 79.2636C70.6156 79.8902 70.4283 83.9839 65.4751 85.4251C60.1056 86.9707 57.0879 80.8509 57.0879 80.8509L57.1087 80.5585C52.5925 80.3914 48.8047 79.4933 45.6621 78.1984C45.1834 78.0104 44.7256 77.8015 44.2677 77.5927C42.7484 77.0914 40.6256 76.9034 38.0449 77.8851C34.9648 79.0547 26.5984 88.203 19.668 97.1006C19.7512 97.3303 19.8345 97.5809 19.9385 97.7898C22.1862 102.803 29.4912 106.353 33.5495 108.003C34.1739 108.254 34.715 108.463 35.1729 108.63C33.3206 116.379 29.6785 133.046 29.6785 133.046C29.6785 133.046 31.2602 134.988 35.3394 136.576Z" fill="#BF0611"/>
<path opacity="0.2" d="M70.6149 79.2848C74.5275 78.4285 77.9615 77.1962 80.8752 75.7341L80.9584 75.9012C81.0833 75.8595 82.8107 75.3164 85.2665 75.9639C80.6254 79.5355 75.3392 82.1045 69.6367 82.5222C70.5524 81.0602 70.6149 79.619 70.6149 79.2848Z" fill="#CA902B"/>
<path d="M38.0651 77.9268C40.6458 76.9243 42.7686 77.1122 44.2879 77.6344C44.725 77.8433 45.1828 78.0521 45.6823 78.2401C48.8249 79.5142 52.5919 80.4123 57.1289 80.6003L57.1081 80.8927C57.1081 80.8927 60.1258 87.0124 65.4953 85.4668C67.6805 84.8402 68.9293 83.6915 69.6577 82.5427C75.3602 82.1459 80.6464 79.5559 85.2875 75.9844C88.4093 76.7781 92.6965 79.4724 96.4843 87.4719L96.5259 87.4928C95.8808 88.9966 95.3604 90.5213 94.9858 92.0878C93.9452 96.2024 93.7787 100.442 94.5696 104.306C95.2564 107.732 96.7132 110.844 98.9817 113.308C99.3355 113.684 99.6893 114.06 100.085 114.394C103.581 117.486 107.098 119.407 110.553 120.368C110.803 120.431 111.053 120.514 111.302 120.556C105.413 119.428 98.1076 120.765 97.4625 120.89L97.0878 120.869C94.6528 123.668 84.9961 132.983 61.7283 137.453C48.4711 139.98 40.188 138.497 35.3804 136.618C31.3012 135.009 29.7195 133.109 29.7195 133.109C29.7195 133.109 33.3616 116.441 35.2139 108.692C34.7768 108.525 34.2149 108.317 33.5906 108.066C29.5322 106.416 22.248 102.865 19.9795 97.8524C19.8755 97.6227 19.7922 97.3929 19.709 97.1632C26.6186 88.2238 34.985 79.0964 38.0651 77.9268Z" fill="#ECB845"/>
<path d="M5.55676 116.191C5.55676 116.191 -2.31016 122.374 0.68676 126.718C0.68676 126.718 -0.811701 130.895 4.37048 131.564C4.37048 131.564 6.72223 137.913 12.9242 133.234C12.9242 133.234 16.4206 134.968 18.2937 132.065C19.6881 129.893 19.0221 126.112 19.0221 126.112C19.0221 126.112 29.5946 113.664 33.5697 108.045C29.5113 106.395 22.2271 102.845 19.9586 97.832C13.7983 105.769 7.90851 113.685 5.55676 116.191Z" fill="#EABAAF"/>
<g opacity="0.2">
<path d="M20.4783 98.834C22.2057 101.695 25.494 104.014 28.6366 105.726C30.4264 106.708 32.1746 107.481 33.5482 108.045C32.8406 109.027 31.9457 110.238 30.9259 111.554C27.0132 116.587 21.4565 123.208 19.625 125.401C21.4565 119.428 26.2016 114.791 27.9914 108.985C24.8072 105.998 22.0184 102.698 20.4783 98.834Z" fill="#57167E"/>
<path d="M13.0079 130.957C12.6125 131.772 12.9247 132.565 13.2369 133.38C13.0496 133.296 12.9247 133.255 12.9247 133.255C9.13691 136.116 6.78515 134.842 5.51562 133.422C8.15874 134.57 11.4054 132.544 13.0079 130.957Z" fill="#57167E"/>
<path d="M5.34835 129.642C4.9113 130.226 4.724 130.957 4.43263 131.73C4.391 131.626 4.37019 131.584 4.37019 131.584C2.4763 131.333 1.47733 130.623 0.957031 129.83C2.18494 130.644 3.74583 130.79 5.34835 129.642Z" fill="#57167E"/>
<path d="M6.2029 128.91C5.91153 129.203 5.62016 129.432 5.34961 129.641C5.55773 129.349 5.82828 129.098 6.2029 128.91Z" fill="#57167E"/>
<path d="M0.686923 126.717C0.416367 126.341 0.249872 125.944 0.125 125.527C0.811795 126.091 2.14376 124.169 2.80974 125.506C1.64427 125.506 1.47778 126.989 0.603675 127.01C0.624487 126.968 0.624487 126.905 0.645299 126.884C0.666111 126.78 0.686923 126.717 0.686923 126.717Z" fill="#57167E"/>
</g>
<path d="M73.029 145.934L73.0706 145.954L92.3841 147.772C92.6547 147.103 92.9461 146.435 93.2582 145.746C93.3623 145.495 93.4664 145.244 93.5912 144.994L93.508 144.952C96.9836 124.588 107.306 121.977 112.884 122.165C115.09 122.227 116.547 122.729 116.547 122.729C115.402 121.789 113.904 121.162 112.26 120.765C112.218 120.765 112.197 120.745 112.155 120.745C111.885 120.682 111.614 120.64 111.323 120.577C111.302 120.577 111.281 120.557 111.24 120.557C105.35 119.429 98.045 120.765 97.3998 120.891L97.0252 120.87C94.5902 123.669 84.9335 132.984 61.6657 137.454C48.4085 139.981 40.1253 138.498 35.3177 136.618L30.2812 156.418C30.2812 156.418 30.3853 160.178 38.2106 163.311C40.1461 164.084 42.5395 164.815 45.5364 165.441C52.4876 166.903 58.0236 166.569 61.9571 165.755C66.5565 164.815 68.9915 163.248 68.9915 163.248C69.3037 159.907 71.3432 152.074 73.029 145.934Z" fill="#4B72B0"/>
<path opacity="0.2" d="M34.5059 139.834L35.3383 136.576C40.1459 138.477 48.4291 139.959 61.6863 137.411C80.2922 133.861 90.1778 127.198 94.6524 123.229C80.646 138.894 55.2554 145.682 34.5059 139.834Z" fill="#97D6ED"/>
<path d="M34.5055 139.834C55.255 145.682 80.6456 138.894 94.652 123.25C95.7759 122.248 96.5667 121.412 97.0454 120.848L97.42 120.869C98.0652 120.744 105.37 119.407 111.26 120.535C111.281 120.535 111.302 120.556 111.343 120.556C111.614 120.619 111.905 120.681 112.176 120.723C112.217 120.723 112.238 120.744 112.28 120.744C113.924 121.141 115.422 121.767 116.567 122.707C116.567 122.707 115.11 122.206 112.904 122.143C108.18 121.997 100.084 123.835 95.5886 136.743C88.3044 140.628 80.4791 143.385 72.1335 144.575C72.7162 145.014 73.1741 145.473 73.5279 145.975L73.0908 145.933L73.0492 145.912C71.3426 152.053 69.3239 159.885 69.0325 163.206C69.0325 163.206 66.5975 164.752 61.9981 165.712C58.0646 166.506 52.5286 166.861 45.5774 165.399C42.5805 164.772 40.1871 164.041 38.2516 163.269C30.4263 160.136 30.3223 156.376 30.3223 156.376L34.5055 139.834Z" fill="#97D6ED"/>
<path d="M47.7211 200.864C49.2196 201.449 50.6764 201.929 51.9252 202.305C53.5277 202.786 54.8596 203.078 55.6921 203.099C56.1916 203.12 56.5246 203.036 56.6079 202.848C57.4403 201.01 51.3632 192.99 51.3632 192.99L51.4257 192.823C49.844 192.823 37.1487 192.572 34.1518 187.246H34.1309C33.8188 189.23 33.5898 190.818 33.4858 191.653C33.465 191.862 33.4858 192.113 33.5898 192.342C33.9228 193.24 34.9842 194.243 36.4827 195.287C37.3984 195.935 38.4806 196.561 39.6461 197.209C40.77 197.815 41.977 198.399 43.205 198.963C44.7242 199.653 46.2435 200.3 47.7211 200.864Z" fill="#6EB2AE"/>
<path d="M33.5903 192.343C33.4863 192.969 33.0909 195.873 33.9025 196.165C34.7974 196.499 36.3375 195.476 36.4208 195.413L36.504 195.309C34.9847 194.264 33.9233 193.241 33.5903 192.343Z" fill="#211915"/>
<path d="M34.1309 187.247C37.1486 192.573 49.8439 192.803 51.4256 192.824L55.0469 183.487L54.9844 183.466C54.9844 183.466 42.8094 184.302 35.775 178.12L35.6293 178.099C35.0882 181.399 34.5471 184.678 34.1309 187.247Z" fill="#E8E3DB"/>
<path d="M35.6504 178.098L35.7961 178.119C42.8305 184.301 55.0055 183.466 55.0055 183.466L55.0679 183.487L61.9775 165.733V165.712C58.0441 166.506 52.5081 166.861 45.5569 165.399C42.56 164.772 40.1666 164.041 38.2311 163.269L38.1686 163.394C38.1895 163.394 36.8783 170.788 35.6504 178.098Z" fill="#E4BFA4"/>
<path opacity="0.2" d="M38.1907 163.394L38.2532 163.269C40.1887 164.041 42.5821 164.772 45.579 165.399C52.5302 166.861 58.0662 166.527 61.9996 165.712V165.733L59.6687 171.748C51.885 171.581 44.0805 168.824 38.1699 163.603C38.1699 163.477 38.1907 163.394 38.1907 163.394Z" fill="#57167E"/>
<path d="M38.1478 163.604C44.0584 168.825 51.8421 171.582 59.6466 171.749L55.0679 183.487L55.0055 183.466C55.0055 183.466 42.8305 184.302 35.7961 178.12L35.6504 178.099C36.7742 171.499 37.9397 164.815 38.1478 163.604Z" fill="#EABAAF"/>
<path d="M36.4209 195.413C36.3585 195.58 35.4012 197.773 36.858 198.337C38.294 198.901 39.5011 197.481 39.626 197.335L39.6884 197.23C38.523 196.583 37.4407 195.956 36.525 195.309L36.4209 195.413Z" fill="#211915"/>
<path d="M39.606 197.335C39.5435 197.502 38.7319 199.695 40.0222 200.259C41.3542 200.844 43.2064 199.006 43.2064 199.006L43.2273 198.985C41.9993 198.421 40.7922 197.815 39.6684 197.23L39.606 197.335Z" fill="#211915"/>
<path d="M43.2058 199.006C43.2058 199.006 42.5398 201.345 44.2047 202.014C45.7865 202.64 47.5138 201.032 47.7012 200.865C46.2443 200.301 44.725 199.653 43.2058 199.006Z" fill="#211915"/>
<path d="M47.7216 200.864C47.6383 201.031 46.8058 202.89 48.4084 203.684C50.0941 204.519 51.9256 202.347 51.9256 202.347L51.9464 202.305C50.6769 201.929 49.2408 201.449 47.7216 200.864Z" fill="#211915"/>
<path d="M51.9268 202.347C51.9268 202.347 51.7811 204.708 52.676 204.937C54.2577 205.355 55.6937 203.099 55.6937 203.099C54.8612 203.078 53.5293 202.786 51.9268 202.306V202.347Z" fill="#211915"/>
<path d="M57.1282 80.5801L57.1074 80.8725C57.1074 80.8725 60.1252 86.9922 65.4946 85.4466C70.4479 84.0055 70.6352 79.9117 70.6352 79.2852C67.8048 79.9117 64.7038 80.3504 61.3739 80.5383C59.8754 80.6219 58.4602 80.6428 57.1282 80.5801Z" fill="#E4BFA4"/>
<path d="M69.5114 82.7105C68.7621 83.7757 67.5342 84.8409 65.4946 85.4466C60.1252 86.9922 57.1074 80.8725 57.1074 80.8725L57.1282 80.5801C57.2323 80.5801 57.3155 80.5801 57.4196 80.5801C60.8328 83.2327 65.2033 83.6504 69.5114 82.7105Z" fill="#E4BFA4"/>
<path opacity="0.2" d="M61.3527 80.5383C64.7034 80.3504 67.7836 79.9117 70.614 79.2852C70.614 79.6402 70.5308 81.2067 69.4902 82.7105C65.1821 83.6504 60.8116 83.2327 57.3984 80.5801C58.668 80.6219 59.9791 80.6219 61.3527 80.5383Z" fill="#57167E"/>
<path d="M89.0754 162.893C88.6175 163.143 86.7653 164.271 86.8277 165.503C86.911 166.924 89.6789 167.592 89.6789 167.592L89.8454 167.571C89.5125 165.942 89.2419 164.355 89.0754 162.893Z" fill="#211915"/>
<path d="M88.8259 158.235C88.8259 158.235 86.6406 158.82 86.6406 160.24C86.6406 161.473 88.5553 162.517 89.034 162.768C88.8259 160.992 88.7426 159.426 88.8467 158.235H88.8259V158.235Z" fill="#211915"/>
<path d="M92.3835 147.771C91.3221 150.34 90.5313 152.679 89.9277 154.455L89.9902 154.476C92.0089 164.167 102.061 166.506 102.061 166.506C102.061 166.506 106.64 161.305 111.26 154.893C110.823 154.789 100.792 152.659 93.3409 145.787L93.2577 145.745C92.9455 146.434 92.6541 147.124 92.3835 147.771Z" fill="#E8E3DB"/>
<path d="M93.6123 144.993C93.4874 145.244 93.3834 145.494 93.2793 145.745L93.3625 145.787C100.813 152.658 110.845 154.81 111.282 154.893C115.59 148.899 119.96 141.839 120.689 136.931C121.396 132.106 119.69 128.555 117.692 126.153C115.59 123.626 113.176 122.373 112.905 122.248V122.185C107.327 122.018 97.0046 124.608 93.529 144.972L93.6123 144.993Z" fill="#EABAAF"/>
<path opacity="0.2" d="M92.1752 138.894C93.195 138.351 98.7102 134.299 101.27 133.359C98.0442 136.054 95.5884 142.591 93.7777 146.184C93.632 146.058 93.4864 145.933 93.3615 145.808L93.2782 145.766C92.9661 146.455 92.6747 147.144 92.4041 147.792L73.5485 146.017C73.1739 145.515 74.6932 144.534 74.1104 144.116C82.4144 142.884 84.891 142.758 92.1752 138.894Z" fill="#97D6ED"/>
<path d="M94.965 92.0674C93.9244 96.182 93.7579 100.422 94.5487 104.286C95.2355 103.638 99.1482 98.4377 98.9817 97.4978C98.8152 96.558 95.5477 92.7357 94.965 92.0674Z" fill="#211915"/>
<path d="M110.532 120.305C110.532 120.305 108.014 113.872 106.932 113.037C105.912 112.243 99.6269 113.162 98.9609 113.267C99.3147 113.643 99.6685 114.019 100.064 114.353C103.56 117.444 107.078 119.366 110.532 120.326V120.305Z" fill="#211915"/>
<path d="M123.935 113.267C123.144 113.497 120.418 119.888 120.043 120.765C124.33 119.972 128.285 117.862 131.614 115.105C131.157 114.959 124.746 113.037 123.935 113.267Z" fill="#211915"/>
<path d="M134.757 99.9831C134.154 101.215 137.546 106.792 138.108 107.711C140.813 103.45 142.27 98.8761 141.958 95.0957C141.23 95.4925 135.382 98.7299 134.757 99.9831Z" fill="#211915"/>
<path d="M101.125 80.0162C101.708 80.1833 106.952 81.7289 108.451 81.1649C108.492 81.144 108.555 81.1232 108.617 81.0814C110.261 80.0788 113.487 72.6224 113.487 72.6224L113.466 72.4971C108.43 73.604 104.288 76.3611 101.125 80.0162Z" fill="#211915"/>
<path d="M124.56 72.8936L124.539 72.998C124.539 72.998 125.455 82.2715 126.558 83.107C127.619 83.9216 137.526 83.3785 137.942 83.3576C134.862 78.136 130.366 74.46 124.56 72.8936Z" fill="#211915"/>
<path d="M106.661 97.0798C106.599 98.3539 109.679 104.16 110.47 104.662C111.177 105.121 119.398 104.996 120.418 104.662C121.417 104.327 123.893 99.0432 124.039 98.0824C124.164 97.414 122.166 92.0671 121.084 90.6259C120.98 90.4797 120.876 90.3753 120.792 90.3335C119.232 89.331 112.031 89.3936 111.24 89.7278C110.303 90.1247 106.703 95.9102 106.661 97.0798Z" fill="#211915"/>
<path d="M108.43 81.1859C106.931 81.7289 101.686 80.2042 101.104 80.0371C99.189 82.2511 97.6489 84.7783 96.4834 87.4936C95.8383 88.9974 95.318 90.5221 94.9434 92.0886C95.5261 92.7569 98.8144 96.6 98.9601 97.4981L106.64 97.1013C106.702 95.9317 110.303 90.1461 111.218 89.7493L108.762 81.2694L108.575 81.1232C108.534 81.1441 108.492 81.165 108.43 81.1859Z" fill="#F6F7F7"/>
<path d="M94.5273 104.265C95.2141 107.69 96.671 110.802 98.9395 113.267C99.6263 113.162 105.891 112.243 106.91 113.037L110.428 104.682C109.637 104.181 106.577 98.3955 106.619 97.1006L98.9395 97.4974C99.1268 98.4164 95.235 103.617 94.5273 104.265Z" fill="#F6F7F7"/>
<path d="M110.449 104.662L106.932 113.016C108.035 113.852 110.532 120.285 110.532 120.285L110.511 120.326C110.761 120.389 111.011 120.473 111.261 120.514C111.281 120.514 111.302 120.535 111.344 120.535C111.614 120.577 111.906 120.64 112.176 120.702C112.218 120.702 112.239 120.723 112.28 120.723C114.944 121.245 117.567 121.204 120.064 120.744C120.439 119.867 123.186 113.476 123.956 113.246L120.418 104.641C119.398 104.996 111.156 105.121 110.449 104.662Z" fill="#F6F7F7"/>
<path d="M120.396 104.662L123.935 113.267C124.746 113.038 131.135 114.959 131.614 115.105C134.195 112.954 136.401 110.385 138.107 107.712C137.525 106.793 134.132 101.216 134.757 99.9837L124.039 98.083C123.851 99.0438 121.395 104.328 120.396 104.662Z" fill="#F6F7F7"/>
<path d="M121.167 90.4591L121.062 90.647C122.145 92.0882 124.122 97.4351 124.018 98.1035L134.736 100.004C135.36 98.751 141.229 95.5136 141.958 95.1167C141.916 94.6781 141.854 94.2395 141.791 93.8218C141 89.916 139.71 86.3862 137.92 83.3786C137.504 83.3995 127.597 83.9425 126.536 83.1279L121.167 90.4591Z" fill="#F6F7F7"/>
<path d="M108.598 81.102L108.785 81.2482L111.241 89.7281C112.032 89.3939 119.233 89.3312 120.793 90.3338C120.877 90.3965 120.981 90.5009 121.085 90.6262L121.189 90.4382L126.558 83.0862C125.476 82.2508 124.54 72.9772 124.54 72.9772L124.56 72.8728C122.875 72.4133 121.064 72.1417 119.17 72.0582C117.151 71.9746 115.257 72.1417 113.447 72.5177L113.468 72.643C113.468 72.643 110.242 80.0995 108.598 81.102Z" fill="#F6F7F7"/>
<path opacity="0.1" d="M106.931 113.016C107.514 113.454 108.513 115.522 109.304 117.339C112.363 117.11 115.402 116.253 118.357 114.582C120.022 113.58 121.604 112.431 123.102 111.178C126.952 107.94 130.116 103.93 132.239 99.5232C134.653 94.5314 135.714 88.9965 134.965 83.4616C134.715 81.5818 134.237 79.702 133.55 77.8223C135.236 79.3887 136.713 81.2268 137.941 83.3154C139.731 86.323 141.021 89.8528 141.812 93.7586C141.895 94.1763 141.958 94.6149 141.979 95.0535C142.27 98.834 140.813 103.408 138.128 107.669C136.422 110.342 134.216 112.911 131.635 115.063C128.305 117.841 124.351 119.929 120.064 120.723C117.566 121.182 114.965 121.224 112.28 120.702C112.238 120.702 112.217 120.681 112.176 120.681C111.905 120.618 111.635 120.556 111.343 120.514C111.323 120.514 111.302 120.493 111.26 120.493C111.01 120.431 110.761 120.368 110.511 120.305C108.242 119.658 105.953 118.613 103.643 117.089C102.436 116.295 101.25 115.397 100.042 114.332C99.6471 113.977 99.2724 113.622 98.9395 113.246C99.6262 113.162 105.911 112.222 106.931 113.016Z" fill="#57167E"/>
<path d="M112.904 122.164V122.227C113.154 122.352 115.589 123.605 117.691 126.132C118.44 124.002 116.567 122.707 116.567 122.707C116.567 122.707 115.11 122.227 112.904 122.164Z" fill="#406396"/>
<path d="M47.0973 79.4724C46.577 78.9711 45.9527 78.5325 45.2659 78.261C44.5791 77.9686 43.9131 77.6553 43.1639 77.5717C41.707 77.3002 40.1877 77.4882 38.7933 77.9477C37.3781 78.3654 36.2335 79.3889 35.0888 80.3705C33.965 81.3731 32.8827 82.4383 31.8213 83.5244C27.5549 87.8479 23.663 92.5264 19.8128 97.2467C19.7504 97.3094 19.6463 97.3303 19.5839 97.2676C19.5215 97.205 19.5007 97.1005 19.5631 97.0379C23.226 92.1504 27.1803 87.5137 31.3843 83.0857C32.4457 81.9997 33.5695 80.9345 34.7142 79.9319C35.8797 78.9502 37.0868 77.9059 38.6268 77.4464C40.1045 76.966 41.707 76.8198 43.2471 77.1122C44.0171 77.2376 44.7456 77.5717 45.4324 77.9059C46.14 78.2192 46.7851 78.6787 47.3262 79.2635C47.3887 79.3262 47.3887 79.4306 47.3262 79.4933C47.2638 79.556 47.1806 79.5559 47.0973 79.4724Z" fill="#CA902B"/>
<path d="M45.1828 91.9837C43.8508 94.9078 42.3732 97.7483 40.958 100.631C39.4595 103.471 38.0443 106.333 36.4626 109.152C36.4209 109.236 36.3169 109.257 36.2336 109.215C36.1504 109.173 36.1296 109.069 36.1712 109.006C37.5032 106.082 38.9808 103.241 40.396 100.359C41.8945 97.5186 43.3097 94.6362 44.8914 91.8375C44.933 91.7539 45.0371 91.733 45.1203 91.7748C45.2036 91.7957 45.2244 91.9001 45.1828 91.9837Z" fill="#CA902B"/>
<path d="M80.9386 80.3499C83.873 86.9082 86.6618 93.5083 89.5339 100.108C92.3019 106.729 95.1531 113.329 97.8587 119.971C97.9003 120.055 97.8587 120.159 97.7754 120.18C97.6922 120.222 97.5881 120.18 97.5673 120.097C94.6328 113.538 91.844 106.917 88.972 100.338C86.1832 93.7172 83.3527 87.1171 80.6472 80.4752C80.6056 80.3916 80.6472 80.2872 80.7304 80.2663C80.8137 80.2454 80.9177 80.2663 80.9386 80.3499Z" fill="#CA902B"/>
<path d="M93.1345 145.683C93.8629 143.322 94.9867 141.129 96.2563 139.02C97.5674 136.952 99.0659 134.947 100.918 133.339C100.96 133.297 101.043 133.297 101.085 133.36C101.126 133.401 101.126 133.464 101.085 133.506C99.6694 135.49 98.275 137.453 97.0471 139.521C95.7776 141.568 94.6537 143.698 93.4258 145.808C93.3842 145.891 93.2801 145.912 93.2177 145.871C93.1345 145.829 93.1136 145.745 93.1345 145.683Z" fill="#865B5A"/>
<path d="M75.6297 137.663C74.7764 142.007 73.5277 146.226 72.4455 150.487L70.7181 156.857C70.1562 158.988 69.5734 161.097 69.1572 163.248C69.1364 163.332 69.0531 163.395 68.9699 163.374C68.8867 163.353 68.845 163.29 68.8242 163.207C68.8658 160.972 69.2821 158.779 69.6983 156.607C70.1146 154.434 70.6765 152.283 71.1968 150.153C71.7795 148.022 72.3623 145.892 73.0282 143.782C73.6942 141.673 74.381 139.584 75.1719 137.516C75.2135 137.412 75.3384 137.349 75.4424 137.391C75.5881 137.454 75.6505 137.558 75.6297 137.663Z" fill="#384D80"/>
<path d="M111.239 89.7278C112.03 89.3936 119.231 89.331 120.792 90.3335C120.875 90.3962 120.979 90.5006 121.083 90.6259C122.165 92.0671 124.143 97.414 124.039 98.0824C123.872 99.0223 121.416 104.327 120.417 104.662C119.418 104.996 111.177 105.121 110.469 104.662C109.678 104.16 106.619 98.3748 106.661 97.0798C106.702 95.9102 110.303 90.1247 111.239 89.7278Z" stroke="black" stroke-width="0.3026" stroke-miterlimit="10" stroke-linecap="round" stroke-linejoin="round"/>
<path d="M111.239 89.7275L108.783 81.2686" stroke="black" stroke-width="0.3026" stroke-miterlimit="10" stroke-linecap="round" stroke-linejoin="round"/>
<path d="M106.662 97.0801L98.9824 97.4769" stroke="black" stroke-width="0.3026" stroke-miterlimit="10" stroke-linecap="round" stroke-linejoin="round"/>
<path d="M110.449 104.662L106.932 113.017" stroke="black" stroke-width="0.3026" stroke-miterlimit="10" stroke-linecap="round" stroke-linejoin="round"/>
<path d="M120.396 104.662L123.935 113.267" stroke="black" stroke-width="0.3026" stroke-miterlimit="10" stroke-linecap="round" stroke-linejoin="round"/>
<path d="M134.757 99.9837L124.018 98.083" stroke="black" stroke-width="0.3026" stroke-miterlimit="10" stroke-linecap="round" stroke-linejoin="round"/>
<path d="M126.537 83.0859L121.168 90.4588" stroke="black" stroke-width="0.3026" stroke-miterlimit="10" stroke-linecap="round" stroke-linejoin="round"/>
<path d="M54.6728 197.773C53.549 197.481 52.4043 197.314 51.2805 197.418C50.1358 197.481 49.0536 197.857 47.9506 198.295C47.9089 198.316 47.8673 198.295 47.8465 198.253C47.8257 198.212 47.8465 198.17 47.8673 198.149C48.346 197.773 48.8663 197.439 49.4282 197.209C49.9901 196.958 50.6145 196.854 51.2181 196.77C52.446 196.687 53.7155 196.875 54.7769 197.564C54.8185 197.606 54.8393 197.669 54.8185 197.71C54.7769 197.773 54.7353 197.773 54.6728 197.773Z" fill="white"/>
<path d="M52.7785 195.267C51.7587 195.079 50.7389 194.995 49.7399 195.141C48.7409 195.246 47.7836 195.643 46.8471 196.123C46.8054 196.144 46.7638 196.123 46.743 196.102C46.7222 196.081 46.743 196.019 46.7638 195.998C47.1592 195.622 47.5755 195.267 48.0958 195.037C48.5953 194.765 49.1364 194.64 49.6775 194.536C50.7805 194.389 51.9252 194.515 52.9033 195.079C52.945 195.1 52.9658 195.183 52.945 195.225C52.8825 195.246 52.8409 195.267 52.7785 195.267Z" fill="white"/>
<path d="M126.1 69.6773C128.952 69.2596 131.99 70.9096 134.384 72.2672C136.777 73.6248 139.503 75.6717 140.211 78.4705C140.336 78.9508 139.628 79.285 139.378 78.8255C136.777 73.8337 131.095 71.9957 126.08 70.471C125.747 70.3457 125.663 69.74 126.1 69.6773Z" fill="black"/>
<path d="M123.707 65.6877C129.805 63.9123 137.006 67.9852 140.752 72.6011C140.877 72.7682 140.71 73.0606 140.502 72.9144C135.32 69.0713 130.429 66.6276 123.853 66.7738C123.228 66.7738 123.124 65.8548 123.707 65.6877Z" fill="black"/>
<path d="M99.585 175.884C98.0657 174.443 96.38 173.294 94.2988 172.897C94.2571 172.897 94.2363 172.855 94.2363 172.814C94.2363 172.772 94.278 172.751 94.2988 172.751C96.5048 172.521 98.7109 173.879 99.7515 175.779C99.7723 175.821 99.7515 175.905 99.7099 175.926C99.6683 175.926 99.6058 175.905 99.585 175.884Z" fill="white"/>
<path d="M100.687 172.647C100.23 172.083 99.6885 171.561 99.1265 171.101C98.5646 170.642 97.9611 170.245 97.3159 169.932C96.0255 169.263 94.5687 169.117 93.0911 169.201C93.0494 169.201 93.0078 169.18 93.0078 169.138C93.0078 169.096 93.0286 169.054 93.0703 169.054C93.7987 168.866 94.5687 168.699 95.3388 168.783C96.1088 168.825 96.8788 169.054 97.5864 169.368C98.9808 170.057 100.188 171.143 100.875 172.522C100.896 172.584 100.875 172.647 100.833 172.668C100.791 172.689 100.729 172.689 100.687 172.647Z" fill="white"/>
<path d="M52.8841 172.814C53.1131 171.457 53.9247 168.052 55.9851 168.762C56.1308 168.804 56.1516 169.034 55.9851 169.055C55.0902 169.305 54.5699 169.577 54.0912 170.433C53.7791 170.976 53.6334 171.582 53.4877 172.167C53.2588 173.023 52.8633 174.318 53.2588 175.174C53.6542 176.031 54.6532 174.339 54.778 174.109C55.0902 173.462 55.3191 172.731 55.3816 172C55.4024 171.686 55.1943 170.997 54.8405 171.498C54.6532 171.77 54.5699 172.083 54.4867 172.376C54.341 172.856 54.1745 173.399 54.1537 173.88C54.1537 174.005 53.9664 174.026 53.9455 173.9C53.7999 173.295 54.445 169.702 55.5481 170.914C56.5262 172 55.2983 174.778 54.1953 175.425C52.4679 176.407 52.7385 173.65 52.8841 172.814Z" fill="#926262"/>
<path d="M114.84 133.631C114.445 132.294 113.716 128.89 115.86 128.639C116.005 128.618 116.11 128.806 115.985 128.911C115.277 129.517 114.944 129.997 114.861 130.979C114.819 131.605 114.944 132.211 115.069 132.817C115.235 133.694 115.444 135.031 116.172 135.615C116.9 136.2 117.067 134.258 117.067 133.986C117.067 133.255 116.963 132.503 116.692 131.835C116.567 131.543 116.089 131.02 115.985 131.605C115.943 131.918 116.005 132.253 116.047 132.545C116.13 133.025 116.214 133.589 116.401 134.049C116.443 134.153 116.297 134.258 116.214 134.174C115.818 133.694 114.84 130.164 116.359 130.791C117.733 131.355 117.816 134.383 117.109 135.448C116.047 137.057 115.09 134.425 114.84 133.631Z" fill="#926262"/>
<path d="M106.931 155.52C107.181 155.311 107.452 155.123 107.785 155.102C107.972 155.081 108.346 155.144 108.367 155.395C108.388 155.792 108.159 156.251 107.951 156.585C107.68 157.066 107.556 157.63 107.056 157.922C106.702 158.131 106.14 157.943 106.057 157.504C105.932 156.815 106.411 155.98 106.931 155.52Z" fill="#939393"/>
<path d="M103.144 155.729C103.622 155.123 104.268 153.829 105.204 154.017C105.329 154.037 105.433 154.163 105.454 154.267C105.558 154.706 105.308 155.103 105.121 155.479C104.892 155.917 104.705 156.314 104.413 156.711C103.727 157.693 102.395 156.648 103.144 155.729Z" fill="#939393"/>
<path d="M100.792 154.434C101.021 154.141 101.333 153.912 101.604 153.64C101.875 153.369 102.145 153.118 102.457 152.867C102.645 152.721 102.957 152.805 103.123 152.951C103.311 153.139 103.311 153.39 103.207 153.619C102.874 154.35 102.436 155.207 101.75 155.645C101.458 155.833 101.063 155.771 100.813 155.52C100.459 155.207 100.522 154.768 100.792 154.434Z" fill="#939393"/>
<path d="M98.3366 152.763C98.628 152.513 98.8986 152.241 99.1691 151.97C99.3981 151.74 99.6478 151.406 100.002 151.427C100.064 151.427 100.106 151.468 100.126 151.51C100.21 151.824 100.022 152.137 99.9183 152.408C99.7727 152.805 99.6062 153.223 99.4397 153.62C99.0026 154.518 97.5458 153.453 98.3366 152.763Z" fill="#939393"/>
<path d="M95.5481 151.155C95.777 150.779 96.11 150.466 96.4222 150.152C96.6927 149.881 96.9425 149.588 97.3379 149.526C97.4836 149.505 97.5876 149.588 97.5876 149.714C97.6292 150.11 97.4836 150.466 97.3587 150.842C97.213 151.301 97.0673 151.719 96.7551 152.095C96.1932 152.784 95.0902 151.886 95.5481 151.155Z" fill="#939393"/>
<path d="M93.8618 148.878C94.0907 148.586 94.3196 148.272 94.5278 147.959C94.944 147.374 95.8389 147.875 95.5059 148.523C95.3186 148.878 95.1521 149.233 94.9648 149.567C94.7151 150.006 94.4653 150.57 93.9034 150.549C93.6328 150.528 93.4039 150.382 93.3207 150.11C93.1542 149.567 93.5496 149.254 93.8618 148.878Z" fill="#939393"/>
<path d="M51.6141 185.639C51.8014 185.221 52.0304 184.908 52.4882 184.845C52.5715 184.824 52.6547 184.887 52.6547 184.97C52.6755 185.346 52.6131 185.68 52.5715 186.035C52.509 186.495 52.5298 186.996 52.2801 187.414C51.9887 187.936 51.1771 187.706 51.1562 187.121C51.1771 186.599 51.4268 186.098 51.6141 185.639Z" fill="#939393"/>
<path d="M48.3255 186.161C48.388 185.889 49.3453 184.051 49.7824 184.532C50.0113 184.762 49.8656 185.158 49.824 185.43C49.7616 185.848 49.6991 186.286 49.491 186.662C49.1372 187.31 48.1591 186.85 48.3255 186.161Z" fill="#939393"/>
<path d="M45.349 185.429C45.5571 184.886 45.9318 184.406 46.1815 183.884C46.4312 183.382 47.1389 183.654 47.1805 184.155C47.2221 184.761 47.1389 185.513 46.8267 186.056C46.3688 186.85 45.016 186.327 45.349 185.429Z" fill="#939393"/>
<path d="M42.1235 184.699C42.1651 184.406 42.3732 184.218 42.4981 183.968C42.6021 183.78 42.6646 183.571 42.6646 183.362C42.727 182.485 44.0382 182.464 44.0382 183.362C44.0382 184.135 43.7468 185.284 42.9143 185.513C42.394 185.68 42.0402 185.179 42.1235 184.699Z" fill="#939393"/>
<path d="M39.3343 183.257C39.6881 182.902 39.9795 182.484 40.1668 182.025C40.3125 181.649 40.6455 181.398 41.0617 181.502C41.4363 181.607 41.6861 182.025 41.582 182.4C41.3739 183.152 41.0201 183.821 40.5206 184.426C39.8338 185.283 38.5435 184.03 39.3343 183.257Z" fill="#939393"/>
<path d="M37.1294 182.004C37.2542 181.711 37.3375 181.398 37.3999 181.106C37.504 180.688 37.9618 180.437 38.3573 180.563C38.7943 180.688 38.9816 181.106 38.8984 181.523C38.7735 182.213 38.5654 183.299 37.8994 183.654C37.3791 183.925 36.838 183.57 36.7964 183.027C36.7756 182.651 36.9837 182.359 37.1294 182.004Z" fill="#939393"/>
<path d="M41.9159 13.1375C41.9159 13.1375 47.764 -2.88241 72.9465 2.27653C95.0696 6.78799 104.726 16.6673 103.186 37.5954C101.646 58.5236 100.98 70.6377 83.8728 75.9429C66.7445 81.2271 42.3737 83.8797 32.051 70.22C21.7283 56.5603 16.8375 41.1252 19.2517 31.2251C21.645 21.2831 21.9364 12.6988 41.9159 13.1375Z" fill="#D2593E"/>
<path d="M42.207 11.2163C42.207 11.2163 50.3237 -2.73582 69.4291 0.79398C88.5553 4.32378 102.895 11.3625 103.332 31.497C103.769 51.6315 101.729 65.876 93.4877 71.1603C85.2253 76.4445 76.5468 77.6142 76.5468 77.6142" stroke="#D2593E" stroke-width="0.2134" stroke-miterlimit="10" stroke-linecap="round" stroke-linejoin="round"/>
<path d="M62.561 95.4514H63.0397C67.7015 95.4514 71.4893 93.9684 71.4893 89.2899V75.1498C71.4893 70.4712 67.7015 66.6699 63.0397 66.6699H62.561C57.8991 66.6699 54.1113 70.4712 54.1113 75.1498V89.2899C54.1113 93.9684 57.8991 95.4514 62.561 95.4514Z" fill="#EABAAF"/>
<path opacity="0.2" d="M54.1113 84.5905V75.1498C54.1113 70.4712 57.8991 66.6699 62.561 66.6699H63.0397C67.7015 66.6699 71.4893 70.4712 71.4893 75.1498V86.0107C67.764 86.5538 61.6453 86.8044 54.1113 84.5905Z" fill="#84332D"/>
<path d="M36.0668 62.3878C35.5048 68.3195 30.2602 72.6639 24.3913 72.0999C18.5223 71.536 14.2142 66.2517 14.7969 60.32C15.3589 54.3883 20.6035 50.0439 26.4724 50.6078C32.3414 51.1927 36.6287 56.456 36.0668 62.3878Z" fill="#DAA297"/>
<path opacity="0.2" d="M34.1312 65.6669C33.7566 69.5518 29.7399 72.3296 25.1612 71.8701C20.5826 71.4315 17.1694 67.9226 17.5232 64.0586C17.8979 60.1738 21.9146 57.3959 26.4932 57.8554C31.0926 58.294 34.5058 61.8029 34.1312 65.6669Z" fill="#84332D"/>
<path opacity="0.2" d="M34.1312 65.6669C33.7566 69.5518 29.7399 72.3296 25.1612 71.8701C20.5826 71.4315 17.1694 67.9226 17.5232 64.0586C17.8979 60.1738 21.9146 57.3959 26.4932 57.8554C31.0926 58.294 34.5058 61.8029 34.1312 65.6669Z" fill="#84332D"/>
<path opacity="0.5" d="M16.42 62.1166C17.0235 61.49 17.6479 60.9678 18.3555 60.4874C19.0423 59.9862 19.7707 59.5893 20.5407 59.2134C22.06 58.4824 23.725 58.0437 25.4315 57.9393C26.2848 57.8349 27.1381 57.9393 27.9706 58.0229L29.2193 58.2735C29.6356 58.3361 30.031 58.545 30.4264 58.6703C31.2381 58.921 31.9665 59.3596 32.7157 59.7564C33.0903 59.9444 33.4025 60.2159 33.7563 60.4666L34.7761 61.1976C34.9218 61.302 34.9634 61.5318 34.8594 61.678C34.7553 61.8242 34.5472 61.8659 34.3807 61.7615L34.3391 61.7406L33.3401 61.0932C33.0071 60.8843 32.6949 60.6128 32.3203 60.4666C31.5919 60.1324 30.9051 59.7355 30.135 59.5267C28.6574 58.9836 27.0549 58.8165 25.494 58.9419C23.9331 59.0463 22.393 59.5058 20.957 60.1324C19.5209 60.8007 18.1265 61.6362 16.9195 62.6179L16.8986 62.6387C16.753 62.7641 16.524 62.7432 16.42 62.5761C16.2743 62.4299 16.2951 62.2419 16.42 62.1166Z" fill="#84332D"/>
<path opacity="0.5" d="M23.7675 64.9781C24.6416 63.9547 25.7238 63.2028 26.9101 62.618C28.0964 62.054 29.4076 61.7199 30.7395 61.6363C31.4055 61.5736 32.0715 61.6363 32.7375 61.699C33.3826 61.8452 34.0486 61.9705 34.6522 62.2211C35.2973 62.4091 35.8593 62.7642 36.4212 63.0775C36.9831 63.4117 37.4826 63.8503 38.0029 64.2262C38.1278 64.3098 38.1486 64.4769 38.0653 64.6022C37.9821 64.7066 37.8364 64.7484 37.7115 64.6857L37.6699 64.6648C37.1288 64.3515 36.6293 63.9756 36.0674 63.7041C35.5055 63.4534 34.9643 63.161 34.3816 63.0148C33.237 62.618 32.0091 62.5135 30.8228 62.5971C29.6157 62.6806 28.4502 63.0357 27.3472 63.537C26.2441 64.0382 25.1619 64.6648 24.1629 65.3541L24.1421 65.375C24.0173 65.4585 23.8508 65.4376 23.7675 65.3123C23.6843 65.2079 23.6843 65.0617 23.7675 64.9781Z" fill="#84332D"/>
<path d="M88.4301 57.4797C90.2823 63.1399 96.3386 66.2311 101.937 64.3722C107.535 62.5133 110.574 56.4145 108.722 50.7543C106.869 45.0941 100.813 42.0029 95.2147 43.8618C89.5955 45.7416 86.557 51.8195 88.4301 57.4797Z" fill="#DAA297"/>
<path opacity="0.2" d="M91.0311 60.2577C92.2382 63.9546 96.7752 65.7717 101.146 64.3306C105.516 62.8894 108.076 58.7121 106.869 55.0152C105.662 51.3183 101.125 49.5012 96.7544 50.9424C92.3839 52.3835 89.824 56.5608 91.0311 60.2577Z" fill="#84332D"/>
<path opacity="0.5" d="M107.535 52.8639C106.807 52.3835 106.078 52.0076 105.288 51.6943C104.518 51.3601 103.706 51.1304 102.873 50.9424C101.229 50.5664 99.5019 50.5038 97.8161 50.7753C96.9629 50.8797 96.1512 51.1512 95.3603 51.4019L94.1949 51.924C93.7994 52.0702 93.4664 52.3627 93.0918 52.5715C92.3426 52.9892 91.7391 53.5741 91.0939 54.138C90.7609 54.3886 90.5111 54.7437 90.2406 55.057L89.4081 55.9969C89.2832 56.1431 89.3041 56.352 89.4289 56.4773C89.5746 56.6026 89.7827 56.5817 89.9076 56.4564L89.9284 56.4146L90.7609 55.5583C91.0523 55.2868 91.2812 54.9526 91.6142 54.7228C92.2385 54.2424 92.8213 53.6994 93.5289 53.3234C94.8608 52.4671 96.3801 51.9658 97.9202 51.7361C99.4603 51.5063 101.063 51.5899 102.603 51.9032C104.143 52.2373 105.683 52.7386 107.098 53.4279L107.119 53.4487C107.286 53.5323 107.494 53.4696 107.577 53.2817C107.723 53.1563 107.681 52.9684 107.535 52.8639Z" fill="#84332D"/>
<path opacity="0.5" d="M100.98 57.2918C99.8975 56.4982 98.6905 55.9969 97.4001 55.6836C96.1098 55.3912 94.757 55.3494 93.4458 55.5583C92.7799 55.6418 92.1347 55.8507 91.5103 56.0595C90.9068 56.3311 90.2824 56.6026 89.7621 56.9994C89.1794 57.3336 88.7215 57.7931 88.222 58.2317C87.7434 58.6912 87.3479 59.2134 86.9317 59.6938C86.8276 59.7982 86.8484 59.9862 86.9525 60.0697C87.0566 60.1533 87.2023 60.1533 87.3063 60.0697L87.3479 60.028C87.8058 59.6102 88.222 59.1298 88.7007 58.7539C89.2002 58.3988 89.6581 57.9811 90.1992 57.7096C91.2398 57.0621 92.4052 56.6861 93.5915 56.519C94.7778 56.3311 96.0057 56.4146 97.192 56.6653C98.3783 56.9159 99.5646 57.271 100.709 57.7305H100.73C100.876 57.7931 101.021 57.7305 101.084 57.5843C101.125 57.4798 101.084 57.3545 100.98 57.2918Z" fill="#84332D"/>
<path d="M97.0657 46.8908C96.3373 66.3569 85.4527 83.1913 61.6854 82.1888C39.4166 81.2489 27.4706 63.767 28.1782 44.3217C28.9066 24.8556 44.911 9.67121 63.9331 10.3813C82.9552 11.0915 97.7942 27.4247 97.0657 46.8908Z" fill="#EABAAF"/>
<path opacity="0.4" d="M61.5405 67.8187C61.1659 71.7245 55.7964 74.3771 49.5528 73.7714C43.3092 73.1657 38.5641 69.5105 38.9387 65.6257C39.3133 61.7199 44.6828 59.0673 50.9264 59.673C57.1492 60.2788 61.9151 63.913 61.5405 67.8187Z" fill="url(#paint0_radial_962_1864)"/>
<path opacity="0.4" d="M93.0082 60.3C93.7366 64.1431 89.3245 68.2159 83.1642 69.3856C77.0038 70.5552 71.4262 68.383 70.6978 64.5399C69.9694 60.6968 74.3815 56.624 80.5419 55.4543C86.7022 54.2847 92.2798 56.4569 93.0082 60.3Z" fill="url(#paint1_radial_962_1864)"/>
<path d="M56.8376 55.2662C56.2341 59.527 52.3422 62.4929 48.1382 61.8872C43.9342 61.2815 41.0205 57.3548 41.6241 53.094C42.2276 48.8332 46.1194 45.8673 50.3235 46.473C54.5275 47.0787 57.4412 51.0263 56.8376 55.2662Z" fill="black" stroke="black" stroke-width="0.1481" stroke-miterlimit="10"/>
<path d="M56.9215 55.914C56.318 60.1539 52.447 63.0989 48.2846 62.4932C44.1014 61.9084 41.2085 57.9817 41.812 53.7627C42.4156 49.5227 46.2866 46.5777 50.449 47.1834C54.6322 47.7683 57.5251 51.674 56.9215 55.914Z" fill="white"/>
<path d="M55.5884 53.4492C55.1929 56.2062 52.6955 58.1069 49.9691 57.7309C47.2636 57.355 45.3697 54.8068 45.7651 52.0498C46.1605 49.2928 48.658 47.3921 51.3843 47.7681C54.0899 48.1441 55.9838 50.6922 55.5884 53.4492Z" fill="black"/>
<path d="M48.2003 51.9453C48.117 52.6137 47.2429 53.0314 46.2648 52.8852C45.2866 52.739 44.5582 52.0915 44.6622 51.4231C44.7455 50.7548 45.6196 50.337 46.5978 50.4833C47.5759 50.6503 48.3043 51.2978 48.2003 51.9453Z" fill="white"/>
<path d="M71.6546 52.2581C72.6952 56.4354 76.8576 58.9835 80.9784 57.9601C85.0992 56.9366 87.5966 52.7176 86.5768 48.5403C85.5362 44.363 81.3738 41.8149 77.2531 42.8383C73.1323 43.8618 70.614 48.0808 71.6546 52.2581Z" fill="black" stroke="black" stroke-width="0.1481" stroke-miterlimit="10"/>
<path d="M71.6336 52.8843C72.6533 57.0407 76.8157 59.5679 80.8949 58.5445C84.9948 57.5211 87.4715 53.3438 86.4517 49.1874C85.4319 45.031 81.2695 42.5037 77.1904 43.5272C73.0904 44.5506 70.6138 48.7488 71.6336 52.8843Z" fill="white"/>
<path d="M74.9007 50.3779C75.5667 53.0722 78.2514 54.7223 80.9154 54.0539C83.5793 53.3855 85.1818 50.6703 84.5158 47.9759C83.8498 45.2816 81.1651 43.6316 78.5012 44.2999C75.8372 44.9683 74.2347 47.6835 74.9007 50.3779Z" fill="black"/>
<path d="M82.0811 48.1436C82.2476 48.7911 83.1425 49.1253 84.1206 48.8955C85.078 48.6658 85.7232 47.9348 85.5775 47.2873C85.411 46.6398 84.5161 46.3056 83.5379 46.5354C82.5806 46.7651 81.9354 47.4961 82.0811 48.1436Z" fill="white"/>
<path d="M60.3535 62.4092C60.3535 62.4092 62.6428 67.401 68.3453 66.3149" stroke="#84332D" stroke-width="0.2134" stroke-linecap="round" stroke-linejoin="round"/>
<path d="M61.3945 65.7715C62.3103 67.1291 63.9752 67.9437 65.5985 67.8392" stroke="#84332D" stroke-width="0.2134" stroke-linecap="round" stroke-linejoin="round"/>
<path d="M38.46 17.8997C36.5037 15.8111 34.9844 13.3256 34.0063 10.6312C33.8398 10.1508 33.6733 9.64957 33.7565 9.16918C33.8398 8.66791 34.2144 8.18752 34.7139 8.16663C35.4215 8.12486 35.8377 8.91854 36.0875 9.56602C36.9616 11.9053 37.8357 14.2655 38.7098 16.6047C38.2103 13.3882 38.2519 10.0882 38.8138 6.87168C38.8971 6.39129 39.0011 5.89001 39.2717 5.47229C39.5422 5.05456 40.0001 4.74126 40.4996 4.78304C40.9991 4.82481 41.3945 5.24254 41.5818 5.72292C41.7691 6.20331 41.7483 6.70458 41.7483 7.20586C41.6234 10.7148 40.9783 14.2028 39.8544 17.5029" fill="#D2593E"/>
<path d="M37.6691 42.9846C37.6691 42.9846 46.4933 32.4578 50.4476 35.3192C54.4019 38.1807 44.5786 44.1124 43.0802 44.8226C41.5817 45.5118 35.2757 47.4125 37.6691 42.9846Z" fill="#D2593E"/>
<path d="M87.7007 37.9091C87.7007 37.9091 76.15 30.5153 73.2364 34.4211C70.3227 38.3268 81.4363 41.0629 83.0804 41.2718C84.7246 41.4807 91.322 41.418 87.7007 37.9091Z" fill="#D2593E"/>
<path d="M64.8906 55.3708C67.0967 55.4543 70.156 51.7783 71.2799 55.7258C72.3829 59.6734 66.7845 61.6576 66.7845 61.6576" fill="#EABAAF"/>
<path d="M62.9984 43.5488C62.9984 43.5488 62.6654 55.287 64.8714 55.3914C67.0775 55.475 70.1369 51.799 71.2607 55.7465C72.3638 59.694 66.7653 61.6782 66.7653 61.6782" stroke="#84332D" stroke-width="0.2134" stroke-linecap="round" stroke-linejoin="round"/>
<path d="M97.3366 42.0239C97.3366 42.0239 83.7256 39.6638 74.943 30.8497C73.6942 29.5965 75.38 38.7865 63.6629 35.6954C55.7335 33.6067 51.7584 31.2883 41.9976 27.3199C41.9976 27.3199 35.8581 49.0627 28.8237 51.4019C21.7892 53.7621 18.2928 33.189 24.141 22.0148C29.9891 10.8405 39.3545 14.0779 39.3545 14.0779C39.3545 14.0779 49.8854 -1.19002 73.3196 4.09424C96.7539 9.42027 100.562 26.756 97.3366 42.0239Z" fill="#D2593E"/>
<path d="M76.13 31.059C76.7544 33.2103 75.1518 35.5078 73.0915 36.3642C71.0311 37.2205 68.7001 36.9907 66.4941 36.5939C57.4201 34.9857 48.7831 30.9337 41.707 25.002" stroke="#D2593E" stroke-width="0.2134" stroke-miterlimit="10" stroke-linecap="round" stroke-linejoin="round"/>
<path d="M42.0605 24.876C41.9981 32.9381 39.2509 40.9585 34.3185 47.3289C32.9449 49.1251 31.3215 50.8378 29.2195 51.6523C27.1175 52.4669 24.4536 52.1745 23.0176 50.4409" stroke="#D2593E" stroke-width="0.2134" stroke-miterlimit="10" stroke-linecap="round" stroke-linejoin="round"/>
<path d="M68.6993 26.7561C69.2196 28.7404 67.4922 30.7663 65.5151 31.2885C63.5379 31.8107 61.4359 31.2258 59.5004 30.5575C50.9051 27.6334 42.8508 23.1637 35.8164 17.4199" stroke="#DB7D6D" stroke-width="0.2134" stroke-miterlimit="10" stroke-linecap="round" stroke-linejoin="round"/>
<path d="M49.4277 10.6735C56.2124 7.33164 64.225 7.37341 71.5925 9.12787C77.8985 10.6317 84.0172 13.4305 88.5958 18.0464C93.1745 22.6623 96.0049 29.2206 95.1932 35.6745" stroke="#DB7D6D" stroke-width="0.2134" stroke-miterlimit="10" stroke-linecap="round" stroke-linejoin="round"/>
<path d="M28.6375 19.2373C22.0609 26.5893 19.2513 37.1578 21.27 46.8282" stroke="#DB7D6D" stroke-width="0.2134" stroke-miterlimit="10" stroke-linecap="round" stroke-linejoin="round"/>
<path d="M31.8622 24.9805C32.2784 30.1812 31.6748 35.4446 30.0931 40.4155C29.6977 41.6687 28.9277 43.1516 27.6165 43.1725C26.8257 43.1934 26.118 42.6295 25.7226 41.9402C25.3272 41.251 25.1815 40.4573 25.0566 39.6636" stroke="#DB7D6D" stroke-width="0.2134" stroke-miterlimit="10" stroke-linecap="round" stroke-linejoin="round"/>
<path d="M27.5972 25.0225C25.5577 28.2599 24.6419 32.2074 25.0374 36.0087" stroke="#DB7D6D" stroke-width="0.2134" stroke-miterlimit="10" stroke-linecap="round" stroke-linejoin="round"/>
<path d="M88.5955 30.7871C87.4092 24.6674 82.8306 19.3205 76.9824 17.2109" stroke="#DB7D6D" stroke-width="0.2134" stroke-miterlimit="10" stroke-linecap="round" stroke-linejoin="round"/>
<path d="M57.5454 23.4354C53.05 22.3284 48.8252 20.1354 45.3496 17.0859" stroke="#DB7D6D" stroke-width="0.2134" stroke-miterlimit="10" stroke-linecap="round" stroke-linejoin="round"/>
<defs>
<radialGradient id="paint0_radial_962_1864" cx="0" cy="0" r="1" gradientUnits="userSpaceOnUse" gradientTransform="translate(50.2398 66.7215) rotate(7.41301) scale(10.489 7.78313)">
<stop offset="0.1463" stop-color="#D8514E"/>
<stop offset="0.2701" stop-color="#D95754" stop-opacity="0.8549"/>
<stop offset="0.4356" stop-color="#DC6863" stop-opacity="0.6611"/>
<stop offset="0.6246" stop-color="#E0847D" stop-opacity="0.4397"/>
<stop offset="0.8294" stop-color="#E6AAA1" stop-opacity="0.1999"/>
<stop offset="1" stop-color="#ECD0C4" stop-opacity="0"/>
</radialGradient>
<radialGradient id="paint1_radial_962_1864" cx="0" cy="0" r="1" gradientUnits="userSpaceOnUse" gradientTransform="translate(81.8561 62.4119) rotate(-8.84918) scale(10.4896 7.7826)">
<stop offset="0.1463" stop-color="#D8514E"/>
<stop offset="0.2701" stop-color="#D95754" stop-opacity="0.8549"/>
<stop offset="0.4356" stop-color="#DC6863" stop-opacity="0.6611"/>
<stop offset="0.6246" stop-color="#E0847D" stop-opacity="0.4397"/>
<stop offset="0.8294" stop-color="#E6AAA1" stop-opacity="0.1999"/>
<stop offset="1" stop-color="#ECD0C4" stop-opacity="0"/>
</radialGradient>
</defs>
</svg>
