<svg width="153" height="328" viewBox="0 0 153 328" fill="none" xmlns="http://www.w3.org/2000/svg">
<path d="M164.988 215.807C165.495 212.301 162.924 203.928 163.43 199.955C164.092 194.853 169.235 190.725 169.858 185.389C170.365 181.144 166.391 175.691 166.897 171.602C168.144 161.086 171.806 156.802 172.312 148.428C174.572 109.871 124.043 101.692 108.382 112.558C102.383 112.947 81.4231 115.323 76.3196 129.071C73.3977 136.939 75.7352 142.391 73.2029 152.673C72.229 156.646 66.58 160.346 65.5671 164.513C64.2815 169.732 67.6319 175.418 66.4632 180.404C65.5282 184.298 60.1909 191.231 59.4507 194.697C57.7365 202.681 60.113 206.381 61.1649 208.874C61.1649 208.874 63.1128 209.458 66.3073 210.354C67.0475 210.549 69.0344 204.356 69.8915 204.59C70.9823 204.863 70.9823 211.639 72.229 211.951C81.1893 214.249 94.0455 217.17 104.876 218.066C104.915 218.26 104.915 218.338 104.915 218.338C115.473 223.362 134.718 226.128 146.99 227.452C148.275 227.569 150.652 221.259 151.782 221.376C152.678 221.454 152.327 227.997 153.106 228.036C156.418 228.348 158.404 228.464 158.404 228.464C160.274 226.478 163.82 223.869 164.988 215.807Z" fill="#ECB845"/>
<path d="M104.759 117.543C102.227 115.323 100.629 112.013 100.513 108.624C100.474 107.612 100.824 106.326 101.837 106.287C102.733 106.287 103.201 107.3 103.434 108.157C104.097 110.494 104.759 112.83 105.421 115.206C105.538 112.636 105.694 110.065 105.811 107.456C105.85 106.599 106.006 105.586 106.785 105.236C107.369 105.002 108.032 105.275 108.46 105.742C108.85 106.209 109.044 106.833 109.161 107.417C109.785 110.416 109.239 113.648 107.681 116.297" fill="#ECB845"/>
<path d="M30.5438 74.4676H30.3879C30.5048 74.8181 30.7385 75.1297 31.0502 75.2855C33.4656 76.6097 39.4262 73.1434 37.79 71.1571C37.79 71.1571 32.1021 71.235 30.5438 74.4676Z" fill="#2F1C3B"/>
<path d="M32.3748 66.055C31.9462 66.9897 29.6477 72.2476 30.4269 74.5065H30.5827C32.219 71.3128 37.8679 71.3129 37.8679 71.3129C36.2706 69.3265 34.2058 65.9771 34.2058 65.9771C33.6214 66.016 32.9981 66.055 32.3748 66.055Z" fill="#F593AF"/>
<path d="M32.3748 66.055C32.9981 66.055 33.6214 66.016 34.2058 65.9381C38.4912 65.4707 42.6986 63.6013 46.4386 59.9013C67.4371 39.0256 54.5809 13.9047 46.6724 7.16688C31.0112 -6.23093 7.20776 -0.895172 0.818624 23.6026C-4.16802 42.8035 14.532 66.2108 32.3748 66.055Z" fill="#F593AF"/>
<path d="M136.471 315.706C136.549 316.68 136.588 317.537 136.549 318.277C136.471 322.911 115.823 325.326 114.81 322.171C113.797 318.978 122.095 314.966 122.095 314.966C122.095 314.966 129.809 317.848 136.471 315.706Z" fill="#615BA3"/>
<path d="M92.0587 312.279C92.0587 313.213 91.9808 314.07 91.9028 314.849C91.3574 319.445 70.5538 319.757 69.8915 316.485C69.2292 313.213 77.9169 310.059 77.9169 310.059C77.9169 310.059 85.241 313.72 92.0587 312.279Z" fill="#615BA3"/>
<path d="M131.523 216.78C130.627 216.313 130.082 215.885 130.082 215.69C130.082 214.716 130.51 213.002 130.51 213.002C130.549 212.925 130.588 212.808 130.588 212.73C130.705 209.575 132.653 196.216 135.224 191.621C138.146 193.373 141.029 196.06 142.938 200.267C145.47 205.914 147.847 212.847 147.769 219.623C147.262 219.701 146.717 219.779 146.21 219.818C140.328 220.247 134.211 218.221 131.523 216.78Z" fill="#AFA7CF"/>
<path d="M106.239 216.663C106.123 216.274 104.214 209.264 106.512 209.147C108.889 209.03 109.707 214.755 111.499 216.157C111.499 216.157 111.849 212.34 113.564 212.418C115.823 212.496 115.356 219.662 115.356 219.662C115.356 219.662 118.005 223.908 125.095 223.285C131.679 222.7 132.108 217.52 132.108 216.78C134.796 218.221 140.912 220.247 146.756 219.74V219.857C146.522 225.388 141.38 233.372 134.64 236.098C119.213 242.33 107.486 233.216 103.629 227.296C99.7724 221.376 96.8895 217.326 98.292 216.079C99.6166 214.911 102.538 218.299 102.85 218.728C102.538 218.182 98.9932 212.224 101.526 211.055C103.629 210.12 106.084 216.274 106.239 216.663Z" fill="#ECCEAD"/>
<path d="M144.379 222.856C139.86 221.96 135.614 220.286 131.991 217.403C131.757 219 130.588 222.817 125.017 223.285C117.927 223.908 115.278 219.662 115.278 219.662C115.278 219.662 115.745 212.496 113.486 212.418C111.771 212.34 111.421 216.157 111.421 216.157C109.629 214.755 108.811 209.03 106.434 209.147C104.136 209.264 106.084 216.274 106.162 216.663C106.006 216.313 103.551 210.12 101.448 211.094C98.9153 212.262 102.422 218.221 102.772 218.767C102.422 218.377 99.4997 214.95 98.2141 216.118C96.8116 217.365 99.7334 221.415 103.551 227.335C104.993 229.594 107.564 232.242 111.031 234.423C111.966 234.657 112.901 234.93 113.836 235.241C125.68 239.798 139.899 234.774 144.379 222.856Z" fill="#ECD0C4"/>
<path d="M146.717 219.779C146.249 219.818 145.743 219.857 145.276 219.857C139.86 219.935 134.523 218.143 132.069 216.819C132.069 216.936 132.03 217.17 131.991 217.442C135.614 220.363 139.86 221.999 144.379 222.895C139.899 234.774 125.68 239.837 113.875 235.241C112.979 234.93 112.044 234.696 111.07 234.423C116.797 237.968 124.978 240.032 134.562 236.176C140.055 233.956 144.496 228.231 146.055 223.207C146.405 222.038 146.639 220.948 146.678 219.935L146.717 219.779Z" fill="#57167E"/>
<path d="M98.0582 266.243C97.1232 271.54 97.3959 277.07 97.3959 277.07V277.421C93.8118 277.382 87.7733 276.993 81.8127 274.967C75.6962 272.903 71.7615 270.566 69.5409 269.554C70.2032 261.881 71.0213 254.871 71.9952 248.405C72.7744 248.25 82.2412 246.185 83.2152 235.163L83.2931 235.047C90.6172 238.863 102.655 243.576 117.459 243.459V243.498C117.459 243.498 117.81 259.155 135.536 259.311L135.692 259.272C136.627 266.555 138.029 273.604 140.055 277.109C137.25 277.733 130.627 278.901 123.537 279.018C118.2 279.096 114.654 278.317 112.395 277.772L112.473 277.421L112.161 267.334C106.941 268.035 102.032 267.334 98.0582 266.243Z" fill="#D46954"/>
<path d="M135.653 259.739L135.497 259.778C117.81 259.622 117.42 243.965 117.42 243.965V243.926C122.563 243.888 128.056 243.264 133.783 241.823H134.017C134.289 246.263 134.796 253.079 135.653 259.739Z" fill="#D2593E"/>
<path d="M136.471 315.706C129.809 317.848 122.134 314.966 122.134 314.966C121.979 314.382 121.784 313.681 121.589 312.863L121.706 312.824C121.706 312.824 129.77 316.446 136.315 313.798C136.354 314.46 136.432 315.122 136.471 315.706Z" fill="white"/>
<path d="M134.874 241.317H134.64C128.913 242.758 123.42 243.381 118.278 243.42C103.473 243.537 91.4353 238.863 84.1112 235.008C79.1635 232.437 76.3585 230.256 76.3585 230.256L76.1637 230.217C79.0077 217.326 82.3581 207.55 85.5916 200.228L85.6695 200.267C85.1241 203.149 92.9158 205.875 95.0195 205.525C96.4609 205.291 97.1232 203.266 98.0972 200.033L98.3309 200.111C98.3309 200.111 107.058 209.926 119.836 207.16C119.563 208.718 119.485 209.965 119.602 210.705C120.07 214.093 130.043 214.638 131.095 212.925C131.095 212.925 130.666 214.677 130.666 215.612C130.666 215.846 131.173 216.235 132.108 216.702C132.069 217.442 131.64 222.622 125.095 223.207C118.005 223.83 115.356 219.585 115.356 219.585C115.356 219.585 115.823 212.418 113.564 212.34C111.849 212.262 111.499 216.079 111.499 216.079C109.707 214.677 108.889 208.952 106.512 209.069C104.214 209.186 106.162 216.196 106.239 216.586C106.084 216.235 103.629 210.042 101.526 211.016C98.9932 212.185 102.499 218.143 102.85 218.689C102.499 218.299 99.5776 214.872 98.292 216.04C96.8895 217.287 99.8113 221.337 103.629 227.257C107.486 233.216 119.213 242.291 134.64 236.059C134.601 236.137 134.679 238.162 134.874 241.317Z" fill="#D46954"/>
<path d="M133.549 287.275C134.64 300.01 135.809 308.423 136.315 313.798C129.809 316.446 121.706 312.824 121.706 312.824L121.589 312.863C119.875 305.268 117.732 288.56 117.576 287.353C120.693 287.82 124.784 288.054 129.225 287.664C130.783 287.586 132.225 287.43 133.549 287.275Z" fill="#ECCEAD"/>
<path d="M119.836 207.199C120.81 201.435 124.043 191.659 127.472 188.699V188.622C129.459 188.933 132.614 189.712 135.77 191.621C133.237 196.216 131.251 209.575 131.134 212.73C131.134 212.847 131.095 212.925 131.056 213.002C130.004 214.677 120.031 214.171 119.563 210.782C119.446 210.004 119.563 208.757 119.836 207.199Z" fill="#D46954"/>
<path d="M126.926 188.622V188.699C123.498 191.698 120.264 201.435 119.29 207.199C106.551 209.965 97.7855 200.15 97.7855 200.15L97.5518 200.072C97.9803 198.631 98.4868 196.995 99.1491 195.165C101.526 188.699 104.019 184.688 104.019 184.688C104.33 184.844 104.603 184.961 104.915 185.116C104.915 185.116 103.59 193.724 110.875 195.515C118.161 197.307 122.251 188.622 122.251 188.622V188.583C123.186 188.544 124.082 188.466 124.939 188.349V188.388C124.939 188.388 125.68 188.388 126.926 188.622Z" fill="#AFA7CF"/>
<path d="M122.797 188.544V188.583C122.797 188.583 118.706 197.268 111.421 195.476C104.136 193.685 105.46 185.077 105.46 185.077C109.083 186.752 113.096 187.882 117.343 188.31C119.29 188.583 121.082 188.622 122.797 188.544Z" fill="#ECCEAD"/>
<path d="M105.655 189.556C106.2 191.971 107.681 194.619 111.382 195.515C118.161 197.19 122.173 189.751 122.719 188.738C117.537 190.452 111.187 190.958 105.655 189.556Z" fill="#ECCEAD"/>
<path d="M122.719 188.738C122.758 188.661 122.797 188.622 122.797 188.622L122.797 188.583C121.121 188.661 119.29 188.583 117.343 188.388C113.096 187.959 109.044 186.791 105.46 185.155C105.46 185.155 105.149 187.258 105.694 189.556C111.187 190.958 117.537 190.452 122.719 188.738Z" fill="#57167E"/>
<path d="M104.564 184.727C104.564 184.727 102.071 188.738 99.6945 195.204C99.0322 197.034 98.5257 198.67 98.0972 200.111C97.1232 203.305 96.4999 205.369 95.0195 205.603C92.9157 205.914 85.1241 203.227 85.6695 200.345L85.5916 200.306C86.137 199.059 86.6824 197.93 87.1889 196.839C92.0976 186.713 96.422 182.156 97.8634 180.676L97.9024 180.598C99.8893 182.117 102.149 183.52 104.564 184.727Z" fill="#D46954"/>
<path d="M97.9024 180.56L97.8634 180.637C96.4609 182.117 92.0976 186.635 87.1889 196.8L86.9552 196.684C86.9552 196.684 81.8906 194.97 73.7483 184.883L73.8652 184.805C73.8652 175.535 83.6048 169.927 84.8514 169.265C88.942 173.043 92.3703 175.73 93.9676 176.937C95.1364 178.184 96.4609 179.43 97.9024 180.56Z" fill="#AFA7CF"/>
<path d="M92.0976 310.37C92.0976 311.032 92.0976 311.655 92.0976 312.24C85.241 313.72 77.9169 310.059 77.9169 310.059C77.8 309.474 77.6831 308.734 77.6052 307.917H77.7221C77.7221 307.917 85.3579 312.318 92.0976 310.37Z" fill="white"/>
<path d="M91.8249 286.184V286.223C91.5912 298.647 92.0587 305.658 92.0976 310.37C85.3579 312.318 77.7221 307.878 77.7221 307.878H77.6052C76.7092 300.361 76.3196 284.276 76.2806 282.25C79.0077 283.536 82.1633 284.704 85.4747 285.327C87.8902 285.834 89.9939 286.106 91.8249 286.184Z" fill="#ECCEAD"/>
<path d="M133.627 288.404C133.588 288.015 133.549 287.664 133.51 287.275V287.236C132.225 287.391 130.783 287.547 129.225 287.703C124.745 288.054 120.693 287.82 117.576 287.391C117.615 287.664 117.771 288.794 117.966 290.429C123.225 290.702 128.913 290.312 133.627 288.404Z" fill="#57167E"/>
<path d="M117.966 290.39C118.667 295.804 120.264 307.021 121.589 312.863L121.706 312.824C121.706 312.824 129.77 316.446 136.315 313.798C135.809 308.579 134.718 300.517 133.627 288.404C128.913 290.312 123.225 290.702 117.966 290.39Z" fill="#ECD0C4"/>
<path d="M76.3196 282.328C76.2806 282.328 76.2806 282.328 76.2417 282.289C76.2806 284.315 76.6702 300.4 77.5662 307.917H77.6831C77.6831 307.917 85.3189 312.318 92.0587 310.409C92.0197 306.047 91.6301 299.699 91.747 288.833C85.7085 288.599 79.1246 287.547 76.3196 282.328Z" fill="#ECD0C4"/>
<path d="M91.8249 286.184C89.9939 286.067 87.8902 285.834 85.4747 285.366C82.1633 284.743 79.0467 283.614 76.3196 282.328C79.1635 287.547 85.7085 288.638 91.786 288.832C91.786 288.015 91.8249 287.158 91.8249 286.262V286.184Z" fill="#57167E"/>
<path d="M84.1112 235.047L84.0333 235.163C83.0983 246.185 73.5925 248.25 72.8133 248.405C73.7873 241.745 74.9171 235.709 76.1248 230.256L76.3196 230.295C76.3585 230.295 79.1635 232.476 84.1112 235.047Z" fill="#D2593E"/>
<path d="M62.0999 129.344C64.4373 129.227 67.3982 131.486 67.9825 134.446C68.8786 138.847 64.3205 142.547 64.3205 142.547C69.2682 153.374 77.9948 162.878 84.8514 169.265C83.6437 169.927 73.8652 175.535 73.8652 184.805L73.7483 184.883C73.0081 183.948 72.229 182.935 71.4109 181.845C62.0999 169.265 50.0618 144.495 48.8541 139.548C47.6464 134.602 50.5293 131.915 50.5293 131.915C50.8799 129.266 54.3082 127.864 54.3082 127.864C58.204 123.541 62.0609 129.266 62.0609 129.266V129.344H62.0999Z" fill="#ECCEAD"/>
<path d="M97.357 180.56C95.9155 179.43 94.5909 178.223 93.4222 176.937C91.8249 175.73 88.3966 173.043 84.306 169.265C83.332 169.771 77.0987 173.393 74.4885 179.391C78.8908 184.182 83.7216 188.466 89.2537 191.815C93.0326 185.077 96.1882 181.845 97.318 180.598L97.357 180.56Z" fill="#AFA7CF"/>
<path d="M75.034 179.391C66.3073 169.888 59.3728 158.438 52.3993 148C52.3603 148.039 52.3603 148.078 52.3603 148.117C56.8795 157.892 64.8269 172.926 71.4498 181.806C72.2679 182.896 73.0471 183.909 73.7873 184.844C81.9296 194.931 86.9941 196.645 86.9941 196.645L87.2279 196.762C88.1239 194.931 88.981 193.295 89.7991 191.815C84.267 188.466 79.3973 184.182 75.034 179.391Z" fill="#57167E"/>
<path d="M84.8514 169.265C77.9558 162.878 69.2292 153.374 64.3205 142.547C64.3205 142.547 68.8396 138.886 67.9825 134.446C67.3982 131.486 64.4763 129.227 62.0999 129.344L62.0998 129.227C62.0998 129.227 58.243 123.502 54.3472 127.825C54.3472 127.825 50.9189 129.188 50.5682 131.876C50.5682 131.876 47.6464 134.563 48.893 139.509C49.2437 140.95 50.5293 144.105 52.3993 148.117C52.3993 148.078 52.4382 148.039 52.4382 148C59.3728 158.438 66.3463 169.888 75.0729 179.391C77.6442 173.354 83.8775 169.771 84.8514 169.265Z" fill="#ECD0C4"/>
<path d="M117.576 287.353C114.031 286.807 111.694 285.95 111.226 285.405C110.369 284.354 109.2 278.122 110.174 276.759C110.486 276.33 111.421 276.642 113.174 277.109C115.434 277.694 118.979 278.512 124.316 278.434C131.406 278.317 137.99 277.07 140.834 276.408C141.574 276.253 142.042 276.097 142.198 276.019C143.016 275.668 143.756 281.744 143.561 283.341C143.406 284.665 140.094 286.223 133.471 287.197C132.186 287.391 130.744 287.547 129.186 287.703C124.784 288.093 120.732 287.82 117.576 287.353Z" fill="#D2593E"/>
<path d="M76.2417 282.25C70.7486 279.641 66.8527 276.408 66.4632 275.59C65.8788 274.383 67.0475 269.826 68.45 268.892C68.7617 268.697 69.385 268.892 70.3979 269.359C72.5796 270.411 76.5144 272.747 82.6698 274.85C88.6304 276.915 94.6299 277.304 98.253 277.343C100.006 277.343 101.214 277.265 101.525 277.226C102.46 277.148 101.448 282.913 100.785 284.315C100.318 285.366 97.4739 286.535 91.8249 286.184C89.9939 286.067 87.8902 285.834 85.4747 285.366C82.1243 284.743 79.0077 283.575 76.2417 282.25Z" fill="#D2593E"/>
<path d="M37.5952 9.54272C38.8808 10.2048 40.0106 11.0227 41.1014 11.9574C43.2831 12.7364 44.9193 15.0343 46.127 16.9037C47.5295 19.0848 48.3087 21.7332 48.1918 24.3037C48.0749 26.3679 45.8933 27.5363 44.257 26.1342C39.8158 22.4732 35.0239 17.5269 34.2058 11.6459C33.9721 9.8543 36.1537 8.80273 37.5952 9.54272Z" fill="white"/>
<path d="M25.9467 6.77748C26.8038 6.23222 27.7777 6.11538 28.6738 6.58274C29.7646 7.05011 30.271 8.56905 29.7256 9.58167C29.5698 9.89325 29.2971 10.1269 29.0244 10.2827C28.44 11.0227 27.4661 11.1396 26.609 10.7501C26.0636 10.4775 25.674 9.89325 25.3623 9.38694C24.739 8.5301 25.0896 7.32274 25.9467 6.77748Z" fill="white"/>
<path d="M104.915 184.922C103.59 187.453 102.46 190.102 101.409 192.789C100.357 195.476 99.5776 198.203 98.6815 200.968C98.2141 202.37 97.9024 203.772 96.8895 205.213C96.4609 205.992 95.1364 206.498 94.3182 206.343C93.5001 206.304 92.7599 206.109 92.0197 205.875C90.5783 205.447 89.1758 204.863 87.8901 204.045C87.2279 203.655 86.6435 203.149 86.0981 202.565C85.5916 202.019 85.0462 201.163 85.241 200.189C85.2799 199.955 85.5137 199.799 85.7474 199.838C85.9812 199.877 86.0981 200.072 86.0981 200.306V200.345C86.0202 201.435 87.3447 202.37 88.5135 202.954C89.7212 203.616 91.0458 204.123 92.4093 204.434C93.0716 204.59 93.7728 204.707 94.3962 204.746C95.0584 204.785 95.2532 204.668 95.6428 204.2C96.3051 203.227 96.6947 201.786 97.1232 200.423C98.0582 197.657 98.8763 194.853 100.045 192.166C101.214 189.478 102.538 186.869 104.175 184.415C104.292 184.221 104.564 184.143 104.759 184.298C104.954 184.493 105.032 184.727 104.915 184.922Z" fill="#D2593E"/>
<path d="M127.744 189.011C125.757 191.153 124.628 194.074 123.537 196.878C122.485 199.722 121.589 202.643 120.966 205.641C120.654 207.121 120.342 208.64 120.303 210.042C120.147 211.289 121.238 211.951 122.641 212.496C124.004 212.964 125.485 213.236 126.965 213.314C127.705 213.353 128.446 213.353 129.186 213.275C129.887 213.236 130.705 212.886 130.744 212.73L130.783 212.613C130.822 212.379 131.056 212.224 131.29 212.301C131.484 212.34 131.64 212.535 131.64 212.769C131.601 213.548 130.978 213.781 130.627 213.976C130.238 214.132 129.809 214.288 129.42 214.327C128.601 214.482 127.822 214.56 127.004 214.56C125.407 214.56 123.81 214.366 122.251 213.898C121.472 213.626 120.654 213.353 119.953 212.691C119.213 212.146 118.706 210.86 118.823 210.081C118.823 208.407 119.135 206.888 119.446 205.33C120.147 202.253 121.044 199.293 122.251 196.411C123.498 193.568 124.822 190.647 127.277 188.427C127.472 188.271 127.744 188.271 127.9 188.466C128.056 188.622 128.056 188.894 127.9 189.05L127.744 189.011Z" fill="#D2593E"/>
<path d="M89.6822 261.998C91.4743 262.855 93.3443 263.595 95.2532 264.296C97.1622 264.958 99.0711 265.542 101.019 265.932C104.915 266.827 108.928 267.139 112.94 266.905C113.174 266.905 113.408 267.061 113.408 267.295C113.408 267.528 113.291 267.723 113.057 267.762C109.005 268.658 104.72 268.424 100.668 267.567C96.6168 266.633 92.682 265.153 89.2537 262.777C89.0589 262.66 89.0199 262.387 89.1368 262.154C89.2537 261.92 89.4874 261.881 89.6822 261.998Z" fill="#D2593E"/>
<path d="M76.6312 229.944C80.7608 232.788 85.3579 235.085 89.9939 237.033C94.6689 238.941 99.5386 240.421 104.486 241.317C114.382 243.381 124.667 243.109 134.562 240.889C134.796 240.85 135.03 240.966 135.068 241.2C135.107 241.434 134.991 241.668 134.757 241.706C129.809 243.109 124.706 243.926 119.563 244.082C114.421 244.238 109.239 243.849 104.175 242.914C99.1101 241.94 94.2014 240.304 89.4485 238.279C84.7345 236.254 80.1764 233.761 76.0858 230.568C75.891 230.412 75.8521 230.139 76.0079 229.944C76.1637 229.828 76.3975 229.789 76.6312 229.944Z" fill="#D2593E"/>
<path d="M94.4351 200.617C94.3182 199.41 93.2664 198.514 92.0587 198.631C90.851 198.748 89.9549 199.799 90.0718 201.007C90.1887 202.214 91.2405 203.11 92.4482 202.993C93.656 202.876 94.552 201.825 94.4351 200.617Z" fill="#ECECEE"/>
<path d="M127.394 209.186C127.277 207.978 126.225 207.083 125.017 207.199C123.81 207.316 122.914 208.368 123.03 209.575C123.147 210.782 124.199 211.678 125.407 211.561C126.615 211.445 127.511 210.393 127.394 209.186Z" fill="#ECECEE"/>
<path d="M77.8 292.961C77.6831 292.026 77.6052 291.091 77.6441 290.157C77.761 289.261 77.761 288.17 78.735 287.391C79.2414 287.002 80.1375 287.275 80.4102 287.781C80.7608 288.248 80.8777 288.716 80.9946 289.183C81.2283 290.118 81.3062 291.091 81.2673 292.026C81.1893 293 81.1114 293.935 80.566 294.869C80.4102 295.103 80.1764 295.376 79.8258 295.453C79.4362 295.57 79.0077 295.298 78.8519 295.025C78.5402 294.48 78.5402 294.012 78.5012 293.545C78.4623 292.571 78.5402 291.637 78.735 290.702C78.8129 290.468 78.8519 290.235 78.9687 290.001C79.0856 289.884 79.0077 289.767 79.3194 289.611C79.5531 289.534 79.7089 289.689 79.8258 289.806C80.1375 290.312 80.1375 290.78 80.1375 291.247C80.1375 291.325 80.0985 291.364 80.0206 291.364C79.9816 291.364 79.9037 291.325 79.9037 291.247C79.8648 290.819 79.7479 290.312 79.5141 290.04C79.3583 289.806 79.3583 290.39 79.2414 290.819C79.1246 291.715 79.0466 292.61 79.1246 293.506C79.1635 293.935 79.2414 294.402 79.4362 294.675C79.5921 294.869 79.67 294.83 79.9037 294.48C80.2543 293.818 80.3712 292.844 80.3712 291.987C80.4102 291.091 80.3712 290.196 80.2154 289.339C80.0596 288.482 79.631 287.586 79.0856 287.976C78.5402 288.326 78.3064 289.339 78.2285 290.196C78.1116 291.091 78.0727 291.987 78.0727 292.922C78.0727 293 78.0337 293.078 77.9169 293.078C77.8779 293.078 77.8 293.039 77.8 292.961Z" fill="#9E746D"/>
<path d="M120.459 298.998C120.225 298.102 120.031 297.167 119.953 296.232C119.953 295.298 119.797 294.246 120.693 293.35C121.121 292.883 122.095 293.078 122.407 293.506C122.797 293.896 122.991 294.363 123.186 294.83C123.537 295.726 123.732 296.661 123.81 297.635C123.849 298.608 123.887 299.543 123.498 300.556C123.381 300.789 123.186 301.101 122.836 301.257C122.485 301.412 121.979 301.218 121.823 300.945C121.472 300.439 121.394 299.971 121.277 299.504C121.121 298.569 121.044 297.635 121.121 296.661C121.16 296.427 121.199 296.193 121.277 295.921C121.355 295.765 121.277 295.687 121.55 295.492C121.745 295.376 121.94 295.492 122.056 295.609C122.446 296.077 122.485 296.544 122.563 297.011C122.563 297.089 122.524 297.128 122.485 297.128C122.446 297.128 122.368 297.089 122.368 297.05C122.251 296.622 122.095 296.155 121.823 295.921C121.628 295.726 121.706 296.271 121.667 296.7C121.667 297.596 121.706 298.491 121.901 299.348C122.017 299.777 122.134 300.205 122.368 300.478C122.524 300.633 122.641 300.594 122.797 300.244C123.069 299.504 123.03 298.569 122.952 297.712C122.875 296.817 122.719 295.921 122.446 295.103C122.173 294.285 121.628 293.467 121.16 293.896C120.654 294.324 120.576 295.337 120.576 296.193C120.576 297.089 120.654 298.024 120.771 298.92C120.771 298.998 120.732 299.076 120.654 299.076C120.537 299.115 120.459 299.076 120.459 298.998Z" fill="#9E746D"/>
<path d="M112.629 196.684L112.122 196.606C107.213 195.71 103.512 193.451 104.408 188.544L107.097 173.744C107.993 168.836 112.706 165.565 117.615 166.461L118.122 166.539C123.03 167.434 126.303 172.147 125.407 177.054L122.719 191.854C121.784 196.723 117.537 197.579 112.629 196.684Z" fill="#ECD0C4"/>
<path d="M122.875 190.842L124.667 180.949C125.563 176.042 122.29 171.329 117.381 170.433L116.875 170.355C111.966 169.46 107.252 172.731 106.356 177.638L104.292 189.011C108.148 190.296 114.538 191.737 122.875 190.842Z" fill="#E2AEA2"/>
<path d="M93.7339 164.708C91.6301 170.511 85.2799 173.51 79.5531 171.446C73.7873 169.382 70.8265 162.994 72.9302 157.23C75.034 151.427 81.3841 148.428 87.111 150.492C92.8378 152.557 95.8376 158.905 93.7339 164.708Z" fill="#E6C2B6"/>
<path d="M90.9678 167.512C89.6043 171.29 84.8514 173.043 80.3712 171.446C75.891 169.849 73.3588 165.448 74.6833 161.67C76.0079 157.892 80.7998 156.14 85.28 157.736C89.7991 159.333 92.3314 163.734 90.9678 167.512Z" fill="#E2AEA2"/>
<path d="M74.099 159.411C74.8781 158.944 75.6183 158.554 76.4365 158.282C77.2546 157.97 78.0727 157.736 78.9298 157.581C80.6439 157.23 82.436 157.23 84.1502 157.542C85.0072 157.659 85.8643 157.97 86.6824 158.282L87.8512 158.866C88.2408 159.022 88.5914 159.333 88.981 159.567C89.7212 160.034 90.3445 160.658 91.0068 161.242C91.3574 161.514 91.5912 161.904 91.8639 162.215L92.682 163.228C92.7989 163.384 92.7989 163.618 92.643 163.734C92.4872 163.851 92.2924 163.851 92.1366 163.695L92.1755 163.579L91.3185 162.683C91.0458 162.41 90.773 162.06 90.4614 161.787C89.8381 161.281 89.2147 160.696 88.5135 160.307C87.1499 159.411 85.5916 158.827 83.9943 158.554C82.397 158.282 80.7608 158.321 79.1246 158.593C77.5273 158.905 75.891 159.372 74.4496 160.034H74.4106C74.2158 160.112 74.021 160.034 73.9431 159.84C73.8652 159.684 73.9431 159.489 74.099 159.411Z" fill="#E2AEA2"/>
<path d="M80.7608 164.163C81.8906 163.384 83.1762 162.878 84.5008 162.605C85.8254 162.332 87.2668 162.332 88.5914 162.605C89.2926 162.722 89.916 162.955 90.5783 163.189C91.2016 163.501 91.8249 163.773 92.3703 164.202C92.9547 164.552 93.4222 165.059 93.9287 165.526C94.3962 165.993 94.7857 166.578 95.2143 167.084C95.2922 167.201 95.2922 167.395 95.1753 167.473C95.0584 167.551 94.9026 167.551 94.8247 167.473L94.7857 167.434C94.3182 166.967 93.9287 166.5 93.4222 166.071C92.9157 165.682 92.4483 165.253 91.9028 164.942C90.851 164.241 89.6433 163.812 88.4356 163.618C87.1889 163.384 85.9422 163.462 84.6956 163.656C83.4489 163.89 82.2023 164.241 81.0335 164.669H80.9946C80.8387 164.708 80.6829 164.669 80.6439 164.513C80.605 164.358 80.6439 164.241 80.7608 164.163Z" fill="#E2AEA2"/>
<path d="M143.094 172.381C143.522 178.534 148.821 183.169 154.898 182.741C161.015 182.312 165.612 177.015 165.183 170.862C164.755 164.708 159.456 160.073 153.379 160.502C147.262 160.891 142.665 166.227 143.094 172.381Z" fill="#E6C2B6"/>
<path d="M145.003 175.808C145.275 179.82 149.366 182.78 154.119 182.468C158.872 182.156 162.534 178.612 162.222 174.601C161.95 170.589 157.859 167.629 153.106 167.941C148.353 168.291 144.73 171.796 145.003 175.808Z" fill="#E2AEA2"/>
<path d="M163.469 172.614C162.885 171.952 162.222 171.368 161.521 170.862C160.82 170.316 160.08 169.888 159.3 169.499C157.742 168.681 156.028 168.213 154.275 168.019C153.418 167.902 152.522 167.98 151.626 168.019L150.34 168.252C149.912 168.291 149.483 168.486 149.093 168.603C148.236 168.836 147.496 169.265 146.717 169.654C146.327 169.81 145.977 170.122 145.626 170.355L144.574 171.095C144.418 171.212 144.379 171.446 144.496 171.602C144.613 171.757 144.808 171.796 144.964 171.719L145.003 171.68L146.055 171.017C146.405 170.823 146.756 170.55 147.145 170.394C147.886 170.083 148.626 169.693 149.444 169.499C151.002 168.992 152.639 168.875 154.275 169.031C155.911 169.187 157.469 169.693 158.95 170.394C160.43 171.134 161.833 172.03 163.079 173.082C163.235 173.199 163.469 173.199 163.586 173.043C163.586 172.965 163.586 172.731 163.469 172.614Z" fill="#E2AEA2"/>
<path d="M155.755 175.38C154.898 174.328 153.768 173.471 152.561 172.848C151.353 172.225 149.989 171.835 148.626 171.719C147.925 171.641 147.262 171.68 146.561 171.719C145.899 171.835 145.198 171.952 144.574 172.225C143.912 172.42 143.328 172.77 142.704 173.082C142.12 173.393 141.574 173.822 141.029 174.211C140.912 174.289 140.873 174.484 140.951 174.601C141.029 174.717 141.185 174.756 141.302 174.678L141.341 174.64C141.925 174.328 142.432 173.977 143.016 173.705C143.6 173.471 144.185 173.16 144.808 173.043C146.016 172.653 147.262 172.575 148.509 172.731C149.756 172.848 150.963 173.237 152.093 173.783C153.223 174.328 154.314 174.99 155.327 175.769C155.444 175.847 155.638 175.847 155.716 175.691C155.833 175.613 155.833 175.457 155.755 175.38Z" fill="#E2AEA2"/>
<path d="M156.651 159.45C151.041 178.573 135.848 192.477 112.239 185.389C90.1108 178.768 82.5139 158.399 88.1628 139.276C93.7728 120.153 113.68 109.208 132.614 114.778C151.509 120.347 162.261 140.366 156.651 159.45Z" fill="#ECD0C4"/>
<path d="M82.7866 148.35C82.7866 148.35 79.5531 125.216 90.3055 116.959C101.058 108.702 124.706 105.82 136.977 112.052C149.249 118.283 163.274 121.788 163.274 133.667C163.274 145.546 157.664 160.813 157.664 160.813C157.664 160.813 151.976 151.739 150.418 150.22C148.86 148.701 148.977 140.444 148.314 138.808C147.691 137.172 145.86 147.338 145.86 147.338C145.86 147.338 137.601 145.273 134.211 143.56C130.822 141.846 131.406 131.058 131.406 131.058C131.406 131.058 130.471 142.197 128.913 142.313C127.355 142.43 109.239 140.405 107.642 139.003C106.045 137.601 104.993 127.202 104.993 127.202C104.993 127.202 104.564 138.964 102.577 139.587C100.591 140.21 86.2539 152.011 82.7866 148.35Z" fill="#ECB845"/>
<path d="M113.564 168.642C112.2 172.459 106.123 173.744 100.006 171.524C93.8897 169.343 90.0328 164.474 91.4353 160.658C92.7989 156.841 98.8763 155.555 104.993 157.775C111.109 159.995 114.927 164.864 113.564 168.642Z" fill="url(#paint0_radial_1300_1059)"/>
<path d="M148.626 170.706C148.47 174.756 143.055 177.794 136.549 177.522C130.043 177.249 124.939 173.744 125.134 169.693C125.29 165.643 130.705 162.605 137.211 162.878C143.678 163.15 148.821 166.655 148.626 170.706Z" fill="url(#paint1_radial_1300_1059)"/>
<path d="M97.6686 145.273C97.6686 145.273 108.46 136.043 112.005 139.626C115.55 143.209 104.525 147.571 102.889 148.039C101.253 148.545 94.4741 149.402 97.6686 145.273Z" fill="#ECB845"/>
<path d="M146.873 152.323C146.873 152.323 139.237 140.366 134.796 142.742C130.355 145.118 139.627 152.557 141.068 153.452C142.509 154.387 148.743 157.191 146.873 152.323Z" fill="#ECB845"/>
<path d="M114.654 317.108C116.213 319.601 116.213 322.327 115.317 324.975C112.473 325.092 111.187 324.898 108.733 324.703C108.733 324.703 106.629 319.756 114.654 317.108Z" fill="white"/>
<path d="M114.499 316.952C116.369 316.329 116.408 316.29 117.226 316.173C117.226 316.173 115.511 308.734 122.602 308.384C126.342 308.228 128.523 311.11 128.523 312.707C128.562 312.668 128.523 312.629 128.523 312.707C128.718 311.889 129.186 310.721 131.056 309.591C133.939 307.878 137.64 309.708 138.029 313.058L139.003 321.509C139.003 321.509 128.173 324.235 115.2 324.82C116.057 322.171 116.057 319.445 114.499 316.952Z" fill="#615BA3"/>
<path d="M139.12 321.665L139.354 323.573C139.354 323.573 122.212 328.325 109.395 326.65C109.395 326.65 108.46 324.469 109.005 324.508C124.238 325.053 139.12 321.665 139.12 321.665Z" fill="white"/>
<path d="M130.588 316.952C130.744 318.16 131.835 319.017 133.004 318.861C134.211 318.705 135.068 317.614 134.913 316.446C134.757 315.239 133.666 314.382 132.497 314.538C131.29 314.654 130.471 315.745 130.588 316.952Z" fill="white"/>
<path d="M117.343 315.901L124.861 315.472C125.095 315.472 125.29 315.628 125.329 315.862C125.329 316.095 125.173 316.29 124.939 316.329C124.939 316.329 124.939 316.329 124.9 316.329L117.381 316.758C117.148 316.758 116.953 316.602 116.914 316.368C116.914 316.096 117.109 315.901 117.343 315.901Z" fill="white"/>
<path d="M113.096 311.967C113.096 312.629 113.758 313.058 113.953 313.174C114.732 313.681 115.784 314.148 116.875 314.421C116.875 314.654 117.07 314.849 117.304 314.849L119.563 314.771C119.641 314.81 119.719 314.81 119.797 314.81C119.836 314.81 119.914 314.771 119.953 314.771L125.212 314.616H125.251C125.485 314.577 125.641 314.382 125.641 314.187C125.641 313.953 125.446 313.759 125.212 313.759L120.264 313.875C119.875 313.291 119.641 312.59 119.368 311.889C119.057 310.993 118.706 310.059 118.044 309.202C117.81 308.929 117.576 308.657 117.226 308.501C116.758 308.267 116.213 308.345 115.901 308.696C115.628 308.968 115.434 309.474 115.862 310.37C116.057 310.76 116.252 311.149 116.485 311.539C116.174 311.383 115.901 311.227 115.589 311.11C115.2 310.916 114.732 310.76 114.226 310.799C113.641 310.838 113.057 311.305 113.096 311.967ZM118.901 313.058C118.862 313.019 118.784 312.98 118.745 312.941C117.888 312.084 117.187 311.071 116.68 309.981C116.524 309.669 116.485 309.358 116.563 309.28C116.602 309.241 116.641 309.241 116.68 309.241C116.758 309.241 116.836 309.241 116.914 309.28C117.109 309.358 117.265 309.552 117.42 309.747C118.005 310.487 118.278 311.305 118.628 312.201C118.667 312.473 118.784 312.785 118.901 313.058ZM113.953 311.967C113.953 311.811 114.148 311.656 114.343 311.656C114.615 311.617 114.966 311.772 115.278 311.889C116.33 312.357 117.304 312.941 118.2 313.642C118.278 313.72 118.316 313.759 118.394 313.837C117.109 313.759 115.667 313.291 114.421 312.512C114.031 312.201 113.953 312.045 113.953 311.967Z" fill="white"/>
<path d="M70.1642 311.578C71.294 314.304 70.8654 316.991 69.5798 319.445C66.7359 319.094 65.5282 318.705 63.1517 318.121C63.1128 318.121 61.8271 312.902 70.1642 311.578Z" fill="white"/>
<path d="M70.0473 311.383C71.9952 311.071 72.0342 311.032 72.8523 311.032C72.8523 311.032 72.3458 303.399 79.3973 304.217C83.0983 304.645 84.8125 307.839 84.5787 309.436C84.6177 309.397 84.6177 309.358 84.5787 309.436C84.8904 308.657 85.5527 307.566 87.5785 306.787C90.6951 305.58 94.0455 307.956 93.8897 311.305L93.5001 319.795C93.5001 319.795 82.3581 320.769 69.4629 319.25C70.7486 316.797 71.1771 314.109 70.0473 311.383Z" fill="#615BA3"/>
<path d="M93.617 319.951L93.5391 321.86C93.5391 321.86 75.8521 323.807 63.5023 320.107C63.5023 320.107 62.918 317.809 63.4634 317.926C78.3844 320.925 93.617 319.951 93.617 319.951Z" fill="white"/>
<path d="M85.9422 313.953C85.9033 315.161 86.8383 316.173 88.046 316.212C89.2537 316.251 90.2666 315.317 90.3056 314.109C90.3445 312.902 89.4095 311.889 88.2018 311.85C86.9941 311.811 85.9812 312.746 85.9422 313.953Z" fill="white"/>
<path d="M73.0081 310.799L80.5271 311.578C80.7608 311.617 80.9166 311.811 80.9166 312.045C80.8777 312.279 80.6829 312.434 80.4881 312.434C80.4881 312.434 80.4881 312.434 80.4491 312.434L72.9302 311.655C72.6965 311.617 72.5406 311.422 72.5406 311.188C72.5796 310.954 72.7744 310.76 73.0081 310.799Z" fill="white"/>
<path d="M69.424 306.242C69.3461 306.904 69.8915 307.41 70.0863 307.605C70.7875 308.228 71.7225 308.851 72.7744 309.28C72.7354 309.513 72.8913 309.747 73.164 309.747L75.4235 310.059C75.5015 310.098 75.5404 310.137 75.6183 310.137C75.6573 310.137 75.7352 310.137 75.7742 310.098L80.9946 310.799H81.0335C81.2673 310.799 81.4621 310.643 81.4621 310.409C81.501 310.175 81.3452 309.942 81.1114 309.942L76.2027 309.28C75.93 308.618 75.7742 307.917 75.6183 307.177C75.4235 306.242 75.2677 305.268 74.7223 304.333C74.5665 304.022 74.3717 303.71 74.06 303.516C73.6315 303.243 73.0861 303.204 72.7354 303.477C72.4238 303.71 72.1511 304.178 72.4238 305.112C72.5406 305.541 72.6965 305.93 72.8523 306.359C72.5796 306.164 72.3069 305.969 72.0342 305.775C71.6836 305.541 71.255 305.268 70.7096 305.268C70.2031 305.229 69.5409 305.58 69.424 306.242ZM75.034 308.267C74.995 308.228 74.956 308.15 74.8781 308.111C74.1769 307.138 73.6315 306.047 73.2808 304.879C73.164 304.528 73.164 304.256 73.2808 304.178C73.3198 304.139 73.3588 304.139 73.3977 304.139C73.4756 304.139 73.5535 304.178 73.6315 304.217C73.7873 304.333 73.9431 304.567 74.06 304.762C74.5275 305.58 74.6833 306.437 74.8392 307.371C74.8781 307.644 74.956 307.956 75.034 308.267ZM70.2811 306.359C70.2811 306.203 70.5148 306.086 70.7096 306.086C71.0213 306.086 71.294 306.281 71.5667 306.476C72.5017 307.099 73.3977 307.839 74.1769 308.657C74.2158 308.734 74.2938 308.812 74.3327 308.89C73.0471 308.579 71.7225 307.917 70.6317 306.943C70.32 306.631 70.2811 306.437 70.2811 306.359Z" fill="white"/>
<defs>
<radialGradient id="paint0_radial_1300_1059" cx="0" cy="0" r="1" gradientUnits="userSpaceOnUse" gradientTransform="translate(87.3676 163.837) rotate(46.6749) scale(113.205 121.801)">
<stop offset="0.1463" stop-color="#D8514E"/>
<stop offset="1" stop-color="#ECD0C4"/>
</radialGradient>
<radialGradient id="paint1_radial_1300_1059" cx="0" cy="0" r="1" gradientUnits="userSpaceOnUse" gradientTransform="translate(87.2635 163.299) rotate(12.8638) scale(82.5366 174.988)">
<stop offset="0.1463" stop-color="#D8514E"/>
<stop offset="1" stop-color="#ECD0C4"/>
</radialGradient>
</defs>
</svg>
