<svg width="382" height="180" viewBox="0 0 382 180" fill="none" xmlns="http://www.w3.org/2000/svg">
<path d="M9.36878 151.016C5.96195 144.981 3.40683 137.13 0 131.137C6.15122 130.124 12.3497 129.069 17.9805 126.747C23.6585 124.426 28.4849 119.445 30.9453 114.338C35.961 120.458 40.9292 126.621 45.9449 132.741C39.2731 143.672 23.3273 151.396 9.36878 151.016Z" fill="#6EAFFA"/>
<path d="M318.396 0C313.333 6.71088 309.027 13.9282 305.668 21.4833C315.226 18.2756 327.86 21.9053 332.781 29.8824C335.336 34.0187 336.093 38.8725 338.175 43.2198C341.582 50.3105 348.726 55.924 357.102 58.0344C365.429 60.1447 374.845 58.6675 381.896 54.1935C380.145 48.0314 379.483 41.8692 378.773 35.5381C375.792 37.0998 372.243 38.4504 368.836 38.1972C364.909 37.9017 361.691 35.1583 359.799 32.0772C357.906 28.9961 357.007 25.5351 355.587 22.243C349.957 9.15888 334.058 0.92855 318.396 0Z" fill="#D2593E"/>
<path d="M146.287 58.2173C121.755 58.2173 101.878 78.1145 101.878 102.672C101.878 127.229 121.755 147.126 146.287 147.126C170.819 147.126 190.696 127.229 190.696 102.672C190.77 78.1145 170.819 58.2173 146.287 58.2173Z" fill="#EBB530"/>
<path d="M109.194 29.2959C108.307 29.8136 108.012 30.9971 108.529 31.8847C111.706 37.8761 114.884 43.8674 117.987 49.9327C118.43 50.8204 119.687 51.1162 120.573 50.5985C121.46 50.0807 121.682 48.9712 121.238 48.0096C118.135 41.9443 114.958 35.9529 111.78 29.9616C111.485 29.3698 110.82 29 110.155 29C109.785 29 109.49 29.074 109.194 29.2959Z" fill="#EBB530"/>
<path d="M171.337 152.452C170.45 152.969 170.229 154.079 170.672 155.04C174.81 163.103 178.8 171.165 183.234 179.08C183.751 179.967 184.933 180.263 185.82 179.746C186.706 179.228 187.002 178.044 186.485 177.157C182.051 169.242 177.987 161.18 173.923 153.117C173.628 152.526 172.963 152.156 172.298 152.156C171.928 152.156 171.632 152.23 171.337 152.452Z" fill="#EBB530"/>
<path d="M75.1297 77.5228C74.7602 78.4104 75.2036 79.5939 76.1641 79.9638C80.8194 81.739 85.5485 83.3663 90.3514 84.7716C90.8687 84.9196 91.312 84.9935 91.7554 84.7716C92.2726 84.5497 92.6421 84.1799 92.7899 83.6621C92.9377 83.2183 92.9377 82.7005 92.7899 82.2567C92.6421 81.8129 92.1988 81.3691 91.7554 81.2212C86.9524 79.8158 82.2233 78.1885 77.5681 76.4873C77.3464 76.4133 77.0509 76.3394 76.8292 76.3394C76.0903 76.3394 75.4252 76.7832 75.1297 77.5228Z" fill="#EBB530"/>
<path d="M194.908 120.498C194.465 120.719 194.095 121.089 193.874 121.533C193.504 122.421 193.948 123.678 194.908 123.974C201.706 126.193 208.578 128.116 215.524 129.743C215.968 129.817 216.559 129.669 216.928 129.374C217.298 129.078 217.593 128.634 217.667 128.116C217.741 127.598 217.593 127.155 217.298 126.711C217.002 126.267 216.559 126.119 216.041 125.971C214.268 125.527 212.495 125.084 210.721 124.64C210.869 124.64 211.017 124.714 211.165 124.788C206.214 123.53 201.263 122.051 196.386 120.498C196.164 120.424 195.869 120.35 195.647 120.35C195.352 120.424 195.13 120.424 194.908 120.498Z" fill="#EBB530"/>
<path d="M193.21 38.8381C187.373 45.791 181.461 52.7439 175.624 59.8448C174.959 60.6584 175.033 61.8419 175.845 62.5076C176.658 63.1733 177.84 63.0993 178.505 62.2857C184.269 55.2588 190.18 48.3059 196.092 41.279C196.757 40.4653 196.609 39.2819 195.87 38.6162C195.501 38.3203 195.057 38.1724 194.688 38.1724C194.097 38.1724 193.58 38.3943 193.21 38.8381Z" fill="#EBB530"/>
<path d="M114.439 143.946C108.602 151.195 102.617 158.222 96.3358 165.175C95.6708 165.914 95.8186 167.172 96.5575 167.837C97.3703 168.503 98.4787 168.355 99.2176 167.616C105.425 160.737 111.41 153.636 117.321 146.387C117.986 145.573 117.912 144.39 117.1 143.724C116.73 143.428 116.287 143.28 115.917 143.28C115.326 143.28 114.735 143.502 114.439 143.946Z" fill="#EBB530"/>
<path d="M139.417 156.076C138.53 160.218 137.717 164.36 137.126 168.576C136.978 169.612 137.643 170.573 138.678 170.721C139.638 170.869 140.673 170.204 140.821 169.168C141.412 164.952 142.225 160.81 143.111 156.668C143.333 155.706 142.52 154.67 141.56 154.522C141.486 154.522 141.338 154.522 141.264 154.522C140.303 154.522 139.564 155.188 139.417 156.076Z" fill="#EBB530"/>
<path d="M155.598 39.5034C155.08 39.5774 154.637 39.7993 154.341 40.1691C153.972 40.6129 153.898 41.0567 153.898 41.5745V41.6485C153.898 41.5745 153.898 41.5005 153.898 41.4266C153.824 43.4237 153.676 45.4948 153.381 47.4919C153.233 48.5274 153.898 49.489 154.933 49.6369C155.893 49.7849 156.928 49.1192 157.075 48.0836C157.371 45.7906 157.519 43.4977 157.593 41.2047C157.593 40.7609 157.297 40.2431 156.928 39.9472C156.558 39.6514 156.189 39.5034 155.745 39.5034C155.672 39.5034 155.598 39.5034 155.598 39.5034ZM153.898 41.7964C153.898 41.8704 153.898 41.8704 153.898 41.9443C153.898 41.8704 153.898 41.7964 153.898 41.7964Z" fill="#EBB530"/>
<path d="M94.9325 120.646C92.0507 121.312 89.1689 122.051 86.361 123.013C85.4004 123.309 84.8832 124.492 85.2526 125.454C85.6221 126.415 86.7305 126.859 87.6911 126.563C89.9817 125.75 92.2724 125.084 94.6369 124.566C94.8586 124.492 95.0803 124.492 95.3759 124.418C95.8931 124.344 96.2626 124.196 96.632 123.753C96.9276 123.383 97.1493 122.865 97.0754 122.347C97.0015 121.829 96.7798 121.386 96.4104 121.09C96.1148 120.868 95.6714 120.646 95.2281 120.646C95.0803 120.646 95.0064 120.646 94.9325 120.646Z" fill="#EBB530"/>
<path d="M207.618 86.8425C204.515 87.5082 201.411 88.3958 198.456 89.4314C197.495 89.8012 196.978 90.9107 197.347 91.8723C197.717 92.8339 198.825 93.3516 199.786 92.9818C202.076 92.1682 204.441 91.4285 206.879 90.8368C207.249 90.7628 207.692 90.6888 208.062 90.5409C208.579 90.4669 208.948 90.319 209.318 89.8752C209.613 89.5053 209.761 88.9876 209.761 88.4698C209.687 87.952 209.466 87.5082 209.096 87.2124C208.801 86.9905 208.357 86.7686 207.914 86.7686C207.766 86.8425 207.692 86.8425 207.618 86.8425Z" fill="#EBB530"/>
<path d="M97.6671 59.8448C97.2237 60.8064 97.6671 61.842 98.5538 62.3597C99.7361 62.8775 100.844 63.4692 101.879 64.135C102.101 64.2829 102.322 64.4308 102.544 64.5788C102.987 64.8746 103.357 65.0965 103.948 65.0226C104.391 64.9486 104.835 64.7267 105.204 64.3569C105.5 63.987 105.721 63.4692 105.647 62.9515C105.574 62.5077 105.352 61.9899 104.909 61.694C103.431 60.6585 101.805 59.7709 100.179 58.9572C99.9577 58.8093 99.6622 58.8093 99.4405 58.8093C98.7016 58.7353 97.9627 59.1791 97.6671 59.8448ZM102.027 64.2089C102.101 64.2089 102.101 64.2829 102.175 64.2829C102.101 64.2829 102.027 64.2829 102.027 64.2089Z" fill="#EBB530"/>
<path d="M187.077 138.99C186.634 139.951 187.077 141.061 187.964 141.505C189.146 142.023 190.255 142.614 191.289 143.28C192.102 143.872 192.989 144.463 193.728 145.055C194.54 145.721 195.723 145.647 196.388 144.833C197.053 144.094 196.979 142.836 196.166 142.17C194.097 140.543 191.88 139.138 189.516 138.028C189.294 137.88 188.998 137.88 188.777 137.88C188.038 137.88 187.373 138.324 187.077 138.99Z" fill="#EBB530"/>
<path d="M141.336 63.0254C140.819 63.0993 140.302 63.3952 140.302 63.987C140.302 64.5047 140.745 65.0225 141.262 65.0225C143.553 64.8006 145.918 64.8746 148.208 65.2444C150.499 65.6142 152.79 66.2799 154.932 67.1675C157.666 68.351 160.179 69.9043 162.469 71.7535C165.425 74.1205 168.011 76.8573 170.302 79.8899C172.667 83.1445 174.662 86.6209 176.139 90.3933C177.396 93.6478 178.208 97.0503 178.578 100.527C178.8 103.412 178.8 106.296 178.356 109.181C178.208 109.921 178.061 110.66 177.913 111.4C177.765 112.14 177.765 112.879 178.135 113.545C178.504 114.211 179.095 114.655 179.834 114.876C181.238 115.32 183.011 114.433 183.307 112.953C183.75 110.882 184.046 108.737 184.12 106.592C184.194 104.447 184.046 102.302 183.676 100.157C183.085 96.0148 181.755 91.9466 180.056 88.1003C176.583 80.4077 170.967 73.7506 163.873 69.0907C158.036 65.1704 151.09 62.8774 144.07 62.8774C143.184 62.8774 142.223 62.9514 141.336 63.0254Z" fill="#FEFEFE"/>
<path d="M174.441 120.794C174.367 122.273 175.623 123.679 177.175 123.679C178.726 123.679 180.056 122.495 180.056 120.942C180.13 119.463 178.874 118.057 177.322 118.057C175.771 118.057 174.514 119.241 174.441 120.794Z" fill="#FEFEFE"/>
</svg>
