<svg width="145" height="268" viewBox="0 0 145 268" fill="none" xmlns="http://www.w3.org/2000/svg">
<path d="M1 267.599C28.7745 264.427 45.3047 241.934 52.6087 218.864C58.3751 200.6 62.9882 178.202 64.3336 159.169C64.7181 153.979 66.0635 134.273 85.573 118.22C90.9549 113.798 97.4901 110.914 103.064 106.685" stroke="#2F1C3B" stroke-width="0.3026" stroke-miterlimit="10" stroke-linecap="round" stroke-linejoin="round"/>
<path d="M97.4895 104.858C97.3934 104.954 97.2973 105.147 97.2012 105.243C98.6428 107.742 100.661 109.857 102.871 111.587C103.832 112.26 104.986 113.221 106.139 113.029C107.196 109.088 108.542 105.147 110.079 101.302C109.31 100.725 108.734 99.6676 108.061 99.0908C105.274 101.878 101.238 103.513 97.4895 104.858Z" fill="#D2593E"/>
<path d="M86.7259 43.1451C84.7077 50.9313 84.4194 59.0059 85.7649 66.7921C86.3415 70.4449 87.3026 74.0977 88.6481 77.6544C92.0118 86.5941 97.5859 94.7648 105.37 101.301C129.685 121.872 166.013 118.796 186.58 94.5725C186.868 94.188 187.156 93.8035 187.445 93.5151C187.733 93.2267 187.925 92.8422 188.213 92.5539C188.79 91.7849 189.463 90.9197 189.943 90.1507C190.136 89.8623 190.328 89.6701 190.424 89.3817C190.808 88.9011 191.097 88.3243 191.481 87.8437C191.769 87.3631 192.058 86.8824 192.346 86.4018C192.442 86.2095 192.538 86.0173 192.634 85.9212C192.923 85.4406 193.211 84.9599 193.499 84.3832C193.788 83.9025 194.076 83.3257 194.364 82.8451C194.46 82.749 194.46 82.6529 194.556 82.5567C194.845 81.98 195.133 81.4032 195.325 80.8265C195.325 80.7303 195.421 80.6343 195.421 80.6343C195.71 80.0575 195.902 79.5769 196.094 79.0001C196.382 78.4234 196.575 77.7505 196.767 77.1737C197.44 75.2512 198.016 73.4248 198.497 71.5023C203.59 50.9313 197.055 28.2456 179.852 13.6344C155.538 -6.93655 119.21 -3.86055 98.6431 20.3632C92.7806 26.9959 88.8402 34.8783 86.7259 43.1451Z" fill="#D2593E"/>
<path d="M127.09 21.8053C124.495 22.1898 121.516 22.286 119.69 20.5557C118.248 19.21 117.864 16.9029 118.441 14.9804C119.017 13.0579 120.267 11.4238 121.804 10.078C126.61 5.6562 136.893 2.00339 141.89 8.44383C148.233 16.6145 132.472 21.1325 127.09 21.8053Z" fill="white"/>
<path d="M108.734 31.3215C106.62 31.1293 104.698 29.5912 104.121 27.4765C103.929 26.8036 103.929 26.1307 103.929 25.4578C104.217 20.9399 110.079 17.6716 113.251 21.7089C116.038 25.3617 113.731 31.706 108.734 31.3215Z" fill="white"/>
<path opacity="0.19" d="M88.6484 77.6545C92.0121 86.5942 97.5862 94.7649 105.371 101.301C129.686 121.872 166.013 118.796 186.58 94.5726C186.868 94.1881 187.157 93.8036 187.445 93.5152C187.733 93.2268 187.926 92.8424 188.214 92.554C188.79 91.785 189.463 90.9198 189.944 90.1508C190.136 89.8624 190.328 89.6702 190.424 89.3818C190.809 88.9012 191.097 88.3245 191.481 87.8438C191.77 87.3632 192.058 86.8825 192.346 86.4019C192.442 86.2097 192.539 86.0175 192.635 85.9213C192.923 85.4407 193.211 84.96 193.5 84.3833C193.788 83.9026 194.076 83.3259 194.365 82.8452C194.461 82.7491 194.461 82.653 194.557 82.5569C194.845 81.9801 195.134 81.4033 195.326 80.8266C195.326 80.7305 195.422 80.6344 195.422 80.6344C195.71 80.0576 195.902 79.577 196.094 79.0002C196.383 78.4235 196.575 77.7506 196.767 77.1738C192.923 82.0763 188.214 86.4019 182.832 90.1508C177.258 93.9959 171.203 97.3603 164.668 98.9944C159.574 100.244 154.289 100.436 149.099 100.34C131.031 99.8596 112.963 94.7649 97.7784 84.96C94.5109 82.653 91.4355 80.346 88.6484 77.6545Z" fill="#FF8C9C"/>
</svg>
