<svg width="176" height="303" viewBox="0 0 176 303" fill="none" xmlns="http://www.w3.org/2000/svg">
<path d="M-181 300.839C-176.483 297.379 -152.553 275.943 -115.84 281.614C-88.9308 285.747 -73.3617 310.74 -47.7976 298.724C-32.6129 291.611 -35.8805 265.273 -52.8912 269.502C-72.1123 274.212 -56.2549 307.376 -27.1349 294.207C4.77219 279.788 -12.6229 191.64 38.0247 147.807" stroke="#2F1C3B" stroke-width="0.3026" stroke-miterlimit="10" stroke-linecap="round" stroke-linejoin="round"/>
<path d="M36.9675 159.534C36.7753 159.726 36.5831 159.822 36.3909 160.015C32.5467 158.573 28.9907 156.362 25.9154 153.574C24.666 152.421 23.0322 151.075 23.0322 149.345C28.4141 146.845 33.6038 143.962 38.6013 140.693C39.6585 141.558 41.2923 142.135 42.3495 143C39.178 147.711 37.9286 153.959 36.9675 159.534Z" fill="#6EAFFA"/>
<path d="M127.403 158.861C116.831 163.668 105.491 166.167 94.0542 166.359C88.6723 166.455 83.2904 165.975 77.9084 165.013C64.3576 162.61 51.2872 156.747 39.9468 147.422C4.48379 118.2 -0.705937 65.8114 28.5102 30.3409C28.9907 29.8603 29.3751 29.2835 29.8556 28.8029C30.2401 28.3222 30.6245 27.9377 31.0089 27.4571C31.97 26.3997 32.931 25.3424 33.9882 24.285C34.2765 23.9966 34.5648 23.7082 34.9492 23.3237C35.622 22.6508 36.1986 22.0741 36.9674 21.4974C37.5441 20.9206 38.1207 20.4399 38.7935 19.8632C38.9857 19.6709 39.274 19.4787 39.4662 19.2864C40.1389 18.7097 40.7155 18.2291 41.3883 17.7484C42.061 17.1717 42.7338 16.691 43.4065 16.2104C43.5026 16.1143 43.6948 16.0182 43.7909 15.922C44.5598 15.3453 45.2325 14.8646 46.0014 14.384C46.0975 14.2878 46.1936 14.2879 46.2897 14.1918C47.0585 13.7111 47.7313 13.2305 48.5002 12.7498C49.269 12.2692 50.134 11.6924 50.9028 11.3079C53.4015 9.86605 55.9963 8.52033 58.5912 7.36681C86.4618 -5.22569 120.387 -1.86131 145.663 18.9019C181.126 48.1242 186.219 100.513 157.099 136.08C148.738 146.077 138.551 153.767 127.403 158.861Z" fill="#6EAFFA"/>
<path d="M147.2 95.9947C147.393 99.7436 147.873 104.069 150.949 106.28C153.255 108.01 156.619 107.914 159.214 106.569C161.809 105.319 163.827 103.012 165.364 100.513C170.362 92.4379 172.957 76.8656 162.481 71.4825C149.219 64.6576 146.912 88.1123 147.2 95.9947Z" fill="white"/>
<path d="M138.551 124.545C139.319 127.525 142.107 129.832 145.182 130.12C146.143 130.216 147.2 130.12 148.161 129.832C154.408 128.294 157.676 119.162 151.044 115.701C145.086 112.625 136.629 117.624 138.551 124.545Z" fill="white"/>
<path opacity="0.19" d="M77.9085 165.013C64.3576 162.61 51.2872 156.746 39.9468 147.422C4.48379 118.2 -0.705938 65.8111 28.5102 30.3406C28.9907 29.86 29.3751 29.2832 29.8556 28.8025C30.2401 28.3219 30.6245 27.9374 31.0089 27.4568C31.97 26.3994 32.931 25.3421 33.9882 24.2847C34.2765 23.9963 34.5648 23.7079 34.9492 23.3234C35.622 22.6505 36.1986 22.0738 36.9674 21.497C37.5441 20.9203 38.1207 20.4396 38.7935 19.8628C38.9857 19.6706 39.274 19.4783 39.4662 19.2861C40.1389 18.7093 40.7155 18.2287 41.3883 17.7481C42.061 17.1714 42.7338 16.6907 43.4065 16.2101C43.5026 16.1139 43.6948 16.0178 43.7909 15.9217C44.5598 15.3449 45.2325 14.8643 46.0014 14.3836C46.0975 14.2875 46.1936 14.1914 46.2897 14.1914C47.0585 13.7108 47.7313 13.2302 48.5002 12.7495C49.269 12.2689 50.134 11.6921 50.9028 11.3076C44.9443 18.0364 40.0428 25.8227 36.0064 34.474C31.8739 43.3176 28.7985 52.8341 28.2219 62.5428C27.7413 70.1368 28.7985 77.6346 30.4323 85.0363C35.8142 110.606 47.6352 134.926 65.5108 153.959C69.355 157.996 73.3915 161.841 77.9085 165.013Z" fill="#F3C24C"/>
</svg>
