<svg width="297" height="289" viewBox="0 0 297 289" fill="none" xmlns="http://www.w3.org/2000/svg">
<path d="M187.832 149.962C185.616 158.966 180.699 174.412 168.858 189.095C111.728 260.09 77.4501 222.896 1 288.142" stroke="#2F1C3B" stroke-width="0.3026" stroke-miterlimit="10" stroke-linecap="round" stroke-linejoin="round"/>
<path d="M193.649 158.343C193.511 158.551 193.372 158.689 193.303 158.897C189.494 158.551 185.824 157.373 182.431 155.573C181.046 154.811 179.315 153.98 178.83 152.456C183.054 148.923 187.001 145.114 190.741 141.027C191.849 141.581 193.511 141.72 194.619 142.274C192.887 147.261 193.164 153.148 193.649 158.343Z" fill="#F3C24C"/>
<path opacity="0.19" d="M193.649 158.343C193.511 158.551 193.372 158.689 193.303 158.897C189.494 158.551 185.824 157.373 182.431 155.573C181.046 154.811 179.315 153.98 178.83 152.456C183.054 148.923 187.001 145.114 190.741 141.027C191.849 141.581 193.511 141.72 194.619 142.274C192.887 147.261 193.164 153.148 193.649 158.343Z" fill="#F3C24C"/>
<path d="M295.444 108.958C290.389 119.971 283.118 129.183 274.393 136.386C262.205 146.36 247.247 152.386 231.597 153.633C218.925 154.672 205.837 152.525 193.511 146.845C154.939 129.114 137.974 83.4695 155.632 44.89C158.748 38.033 162.764 31.9378 167.473 26.5353C168.651 25.2193 169.897 23.9033 171.144 22.5873C193.234 0.492455 227.581 -6.78016 257.635 7.00317C296.206 24.6652 313.172 70.3095 295.444 108.958Z" fill="#F3C24C"/>
<path d="M277.232 75.4351C278.271 78.7597 279.794 82.4307 283.049 83.6774C285.542 84.6471 288.52 83.7467 290.528 82.0151C292.536 80.2835 293.783 77.7208 294.544 75.158C297.106 66.7772 295.722 52.3013 285.127 49.9463C271.554 46.968 275.016 68.5088 277.232 75.4351Z" fill="white"/>
<path d="M276.193 103.071C277.578 105.564 280.625 106.949 283.464 106.465C284.364 106.326 285.264 105.98 286.026 105.564C291.289 102.655 291.981 93.7202 285.264 92.1964C279.24 90.8111 272.869 97.3219 276.193 103.071Z" fill="white"/>
<path opacity="0.19" d="M231.597 153.564C218.925 154.603 205.837 152.455 193.511 146.776C154.939 129.045 137.974 83.4002 155.632 44.8207C159.579 36.3014 164.842 28.821 171.074 22.5181C167.335 29.9292 164.842 38.033 163.318 46.7601C161.726 55.695 161.172 64.8377 162.972 73.7034C164.357 80.5604 167.058 87.0711 170.243 93.3048C181.115 114.846 197.458 133.824 217.886 146.568C222.179 149.339 226.819 151.763 231.597 153.564Z" fill="#6EAFFA"/>
</svg>
