<svg width="153" height="334" viewBox="0 0 153 334" fill="none" xmlns="http://www.w3.org/2000/svg">
<path d="M-69.7567 333.307C-101.375 298.798 -98.3962 280.822 -94.9364 261.501C-85.4219 209.304 31.1542 205.459 56.3338 143.458C70.7497 107.891 68.6354 85.1096 64.8872 61.0781" stroke="#2F1C3B" stroke-width="0.3026" stroke-miterlimit="10" stroke-linecap="round" stroke-linejoin="round"/>
<path d="M50.0873 140.574C50.0873 140.767 49.9912 140.959 49.9912 141.151C52.5861 143.362 55.6614 145.092 58.929 146.15C60.2745 146.63 61.9083 147.207 63.1577 146.63C62.8694 141.728 62.8694 136.729 63.2538 131.827C62.1966 131.442 61.1395 130.481 60.0823 130.097C57.7758 134.134 53.7394 137.595 50.0873 140.574Z" fill="#615BA3"/>
<path opacity="0.19" d="M50.0873 140.574C50.0873 140.767 49.9912 140.959 49.9912 141.151C52.5861 143.362 55.6614 145.092 58.929 146.15C60.2745 146.63 61.9083 147.207 63.1577 146.63C62.8694 141.728 62.8694 136.729 63.2538 131.827C62.1966 131.442 61.1395 130.481 60.0823 130.097C57.7758 134.134 53.7394 137.595 50.0873 140.574Z" fill="#615BA3"/>
<path d="M19.2368 43.4869C15.2004 53.5801 13.6627 64.0578 14.4316 74.2472C15.4887 88.3777 20.8706 101.835 29.7124 112.794C36.9203 121.733 46.3387 128.943 57.7752 133.461C93.2382 147.687 133.506 130.481 147.73 95.0104C150.229 88.7622 151.767 82.3218 152.343 75.8813C152.535 74.2472 152.631 72.7092 152.631 71.075C153.4 43.0062 136.774 16.0909 109.192 4.94032C73.7287 -9.19021 33.4605 8.01637 19.2368 43.4869Z" fill="#615BA3"/>
<path d="M52.3936 34.643C49.6065 35.9888 46.2428 37.3345 43.4558 35.9888C41.2453 34.9314 39.996 32.5282 39.8999 30.1251C39.8038 27.7219 40.6687 25.3188 41.822 23.204C45.6662 16.283 56.0456 8.20836 64.1185 13.6875C74.4018 20.7047 58.256 31.7592 52.3936 34.643Z" fill="white"/>
<path d="M34.9018 52.4268C32.4031 53.0036 29.616 51.9462 28.1744 49.8314C27.6939 49.1585 27.4056 48.3895 27.2134 47.6205C25.8679 42.4297 31.2498 36.3737 36.3434 39.8343C41.0526 42.8142 40.7642 50.9849 34.9018 52.4268Z" fill="white"/>
<path opacity="0.19" d="M29.6162 112.794C36.8241 121.734 46.2425 128.943 57.679 133.461C93.142 147.688 133.41 130.481 147.634 95.0106C150.805 87.1282 152.343 79.0537 152.631 71.0752C150.133 78.0924 146.385 84.7251 141.675 91.1655C136.87 97.7021 131.2 103.758 124.28 108.084C118.994 111.448 113.036 113.659 106.981 115.485C86.2224 121.734 63.7337 122.887 42.6866 117.408C38.2657 116.351 33.8449 114.813 29.6162 112.794Z" fill="#6EAFFA"/>
</svg>
