<svg width="229" height="143" viewBox="0 0 229 143" fill="none" xmlns="http://www.w3.org/2000/svg">
<path d="M168.217 0C165.184 0 161.802 0.157705 157.789 0.504657C145.116 1.64014 132.855 4.57346 121.32 9.24154C115.442 11.5756 110.039 14.225 105.235 17.0953C99.9576 20.2178 95.0594 23.8135 90.73 27.7246C85.3893 32.5819 80.5226 38.2278 76.2248 44.5676C71.8954 50.8758 68.5772 57.6256 66.3335 64.5646C63.995 71.6929 63.0153 79.105 63.4893 85.981C63.837 90.176 64.6902 94.1501 65.9859 97.8089C63.5525 95.191 60.3292 92.92 56.2525 90.8383C49.3318 87.2742 41.8738 85.4133 34.6054 85.4133H33.847C29.96 85.4763 26.0414 86.1387 22.2492 87.4319C18.3938 88.6305 14.9492 90.3337 11.9154 92.4785C9.32406 94.2763 7.04875 96.6104 5.15265 99.3544C3.54096 101.625 2.21369 104.338 1.29724 107.429C0.41239 110.331 -0.0300204 113.485 0.0015813 116.765C0.0015813 119.856 0.53881 123.136 1.58166 126.606C3.44616 132.725 7.08035 138.339 11.8206 142.471L87.2538 142.566H227.218H313.237C315.576 139.191 317.377 135.406 318.61 131.274C319.21 129.413 319.652 127.521 319.937 125.691C320.158 123.925 320.253 122.001 320.221 119.667C320.126 116.008 319.336 112.192 317.883 108.281C316.619 104.779 314.691 101.342 312.194 98.0928C308.086 92.8254 302.303 88.662 295.54 86.0441C290.2 83.9624 284.132 82.89 277.496 82.89C276.864 82.89 276.263 82.89 275.663 82.9215C268.237 83.1423 260.494 84.814 252.689 87.8104C249.023 89.1982 245.641 90.8383 242.355 92.7939C241.407 93.3301 240.49 93.8663 239.605 94.4656C244.03 84.6878 245.136 72.3237 242.829 58.7926C241.565 51.5066 239.258 44.3152 235.94 37.4393C233.159 31.5411 229.461 26.116 224.942 21.2902C217.168 13.1211 206.676 7.00212 194.541 3.59568C189.232 2.01863 183.133 0.946233 176.434 0.378493C173.368 0.0946232 170.682 0 168.217 0Z" fill="#E1E1E1"/>
</svg>
