<svg width="496" height="126" viewBox="0 0 496 126" fill="none" xmlns="http://www.w3.org/2000/svg">
<path d="M222.285 128.844H510.956V6.43121C501.383 3.94568 491.363 3.32431 481.577 4.80009C453.653 9.0721 429.05 30.471 420.972 57.54C404.467 47.6755 383.689 48.4328 365.572 54.8214C347.436 61.21 332.445 75.929 325.745 93.9686C319.26 91.716 312.541 89.9878 305.725 88.9004C300.482 88.046 295.162 87.58 289.88 87.5411C279.744 87.4829 269.666 89.0169 260.19 92.551C243.296 98.8425 228.654 112.241 222.285 128.844Z" fill="#2B7A0B"/>
<path d="M385.168 82.917C381.187 110.763 381.42 139.21 385.848 166.998" stroke="#2F1C3B" stroke-miterlimit="10" stroke-linecap="round" stroke-linejoin="round"/>
<path d="M383.265 151.523C378.643 134.221 366.507 119.075 350.623 110.803C349.497 118.376 353.633 125.211 358.176 131.347C364.565 139.911 373.187 148.008 383.265 151.523Z" fill="#2F1C3B"/>
<path d="M351.553 94.509C351.922 94.8974 352.311 95.3052 352.68 95.6741L373.418 87.2854C367.166 90.5283 361.01 93.9847 355.01 97.713C359.029 100.956 363.729 103.344 368.467 105.403C371.69 106.801 375.011 108.063 378.409 109.111C380.292 103.383 382.351 97.9848 384.215 92.1594C385.555 98.5285 386.759 104.937 387.827 111.383C395.283 112.665 402.817 112.587 410.002 110.296C412.973 109.345 415.925 107.927 418.197 105.83C412.837 98.7033 406.449 92.8973 399.089 87.7709C407.342 90.6254 414.527 95.7906 421.362 101.325C423.983 94.8973 420.469 87.3048 416.08 81.7512C414.216 79.3822 412.158 77.1685 409.944 75.1296C404.449 74.5665 398.817 75.2461 393.575 77.0714C398.002 75.0908 402.662 73.6927 407.439 72.9548C405.73 71.5373 403.944 70.2168 402.08 69.0129C395.827 64.9157 388.953 62.1388 381.749 60.799C382.37 64.5467 382.875 68.3139 382.467 72.1198C382.409 72.547 382.758 72.4305 382.467 72.7412C381.108 68.3915 379.36 64.1777 377.283 60.1388C374.778 59.8863 372.253 59.7893 369.709 59.8669C363.962 60.0611 357.437 61.634 352.563 65.1293C358.389 67.9837 363.981 71.3431 369.243 75.1102C363.224 71.1489 356.855 68.8381 349.981 67.2846C347.689 69.576 346 72.4693 345.32 76.0423C344.058 82.6445 346.951 89.5768 351.553 94.509Z" fill="white"/>
<path d="M398.778 79.2667C400.933 82.0046 402.642 85.7912 401.03 88.8981C400.04 90.8205 397.982 91.9662 395.923 92.6264C389.574 94.6459 382.622 92.9954 376.505 90.3351C373.612 89.0729 370.738 87.5582 368.602 85.2474C366.447 82.9367 365.107 79.6938 365.689 76.5869C366.699 71.3052 372.427 69.1886 377.107 69.0333C382.505 68.8585 387.71 70.3537 392.234 73.3053C394.7 74.9364 396.933 76.9559 398.778 79.2667Z" fill="#F3C24C"/>
<path d="M441.539 27.6709C450.724 66.6627 453.87 107.072 450.879 147.035" stroke="#2F1C3B" stroke-miterlimit="10" stroke-linecap="round" stroke-linejoin="round"/>
<path d="M453.307 139.286C472.395 123.402 482.453 97.3237 478.977 72.7402C470.628 81.6532 465.695 91.5177 462.025 103.169C458.355 114.82 455.19 127.228 453.307 139.286Z" fill="#2F1C3B"/>
<path d="M474.898 35.3411C474.529 35.7294 474.141 36.1372 473.772 36.5062L453.033 28.1175C459.286 31.3603 465.441 34.8167 471.441 38.545C467.422 41.7879 462.723 44.1763 457.985 46.2346C454.761 47.6328 451.441 48.8949 448.042 49.9435C446.159 44.2152 444.101 38.8169 442.236 32.9915C440.897 39.3606 439.693 45.7686 438.625 52.2155C431.168 53.4971 423.634 53.4194 416.449 51.1281C413.478 50.1766 410.527 48.759 408.255 46.6618C413.614 39.5354 420.003 33.7293 427.362 28.6029C419.109 31.4574 411.925 36.6226 405.089 42.1568C402.468 35.7294 405.983 28.1369 410.371 22.5833C412.235 20.2142 414.294 18.0006 416.507 15.9617C422.003 15.3985 427.634 16.0782 432.877 17.9035C428.45 15.9228 423.789 14.5247 419.012 13.7868C420.721 12.3693 422.508 11.0489 424.372 9.84493C430.624 5.74768 437.498 2.97086 444.702 1.631C444.081 5.37872 443.576 9.14588 443.984 12.9519C444.042 13.3791 443.693 13.2626 443.984 13.5733C445.343 9.22357 447.091 5.00978 449.169 0.970788C451.674 0.718351 454.198 0.621291 456.742 0.698964C462.49 0.893146 469.014 2.466 473.888 5.96128C468.063 8.81576 462.47 12.1751 457.208 15.9422C463.227 11.9809 469.597 9.67013 476.471 8.11668C478.762 10.408 480.451 13.3014 481.131 16.8743C482.393 23.4765 479.5 30.4088 474.898 35.3411Z" fill="white"/>
<path d="M427.672 20.0987C425.516 22.8367 423.808 26.6232 425.419 29.7301C426.41 31.6525 428.468 32.7982 430.526 33.4584C436.876 35.4779 443.828 33.8274 449.944 31.1671C452.838 29.9049 455.712 28.3902 457.848 26.0795C460.003 23.7687 461.343 20.5259 460.76 17.419C459.751 12.1372 454.022 10.0207 449.343 9.86531C443.944 9.69055 438.74 11.1857 434.216 14.1373C431.73 15.7684 429.497 17.7879 427.672 20.0987Z" fill="#F3C24C"/>
<path d="M269.938 127.134C270.113 127.95 270.307 128.843 270.599 129.833H305.687C311.998 118.532 315.765 105.91 314.192 93.2299C314.057 92.1036 313.862 90.9579 313.493 89.8899C313.28 89.2491 312.989 88.6471 312.62 88.1034C310.503 84.8994 305.881 84.1227 302.289 85.5014C300.541 86.181 298.988 87.2491 297.648 88.5501C296.211 89.9093 295.007 91.4822 293.9 93.1327C290.852 97.7154 288.522 103.308 287.279 108.687C286.405 107.366 285.551 106.046 284.677 104.745C283.764 103.366 282.813 101.968 281.376 101.152C278.812 99.7155 275.395 100.745 273.356 102.861C271.317 104.997 270.404 107.968 269.861 110.842C268.851 116.202 268.89 121.775 269.938 127.134Z" fill="#2F1C3B"/>
<path d="M22.0258 72.4414C24.3393 88.6242 24.2038 105.157 21.6309 121.306" stroke="#2F1C3B" stroke-miterlimit="10" stroke-linecap="round" stroke-linejoin="round"/>
<path d="M23.1328 112.312C25.8187 102.257 32.8718 93.4549 42.103 88.6475C42.7575 93.0373 40.3538 97.0209 37.7131 100.587C34.0003 105.564 28.9897 110.27 23.1328 112.312Z" fill="#2F1C3B"/>
<path d="M41.5595 79.178C41.3451 79.4037 41.1194 79.6406 40.905 79.8551L28.8526 74.9799C32.4864 76.8645 36.0637 78.8733 39.5508 81.04C37.2148 82.9246 34.4838 84.3127 31.7303 85.5089C29.8569 86.3214 27.9272 87.0549 25.9523 87.6643C24.8577 84.3352 23.6615 81.198 22.5781 77.8125C21.7994 81.514 21.0997 85.238 20.4791 88.9847C16.1456 89.7295 11.767 89.6843 7.59156 88.3527C5.86495 87.7997 4.14962 86.9759 2.82927 85.7572C5.94394 81.6155 9.65672 78.2413 13.9337 75.262C9.1376 76.9209 4.96214 79.9228 0.989801 83.139C-0.53368 79.4037 1.50891 74.9912 4.05933 71.7637C5.1427 70.3869 6.33892 69.1004 7.62541 67.9155C10.8191 67.5882 14.0917 67.9832 17.1387 69.044C14.5657 67.8929 11.8573 67.0804 9.08119 66.6516C10.0743 65.8278 11.1125 65.0604 12.1958 64.3607C15.8296 61.9796 19.8245 60.3658 24.0113 59.5871C23.6502 61.7652 23.3568 63.9544 23.5937 66.1663C23.6276 66.4146 23.4245 66.3469 23.5937 66.5274C24.3837 63.9996 25.3994 61.5507 26.6069 59.2035C28.0626 59.0567 29.5297 59.0003 31.008 59.0454C34.3484 59.1583 38.1402 60.0724 40.9727 62.1037C37.5872 63.7626 34.3371 65.7149 31.2789 67.9042C34.7772 65.6021 38.4787 64.2591 42.4736 63.3563C43.8053 64.688 44.7871 66.3695 45.182 68.4459C45.9156 72.2828 44.2341 76.3116 41.5595 79.178Z" fill="white"/>
<path d="M14.1143 70.3302C12.8616 71.9214 11.8686 74.122 12.8052 75.9276C13.3808 77.0448 14.577 77.7106 15.7732 78.0943C19.4634 79.268 23.5034 78.3087 27.0582 76.7627C28.7397 76.0292 30.4099 75.1489 31.6513 73.806C32.9039 72.4631 33.6826 70.5785 33.344 68.7729C32.7572 65.7033 29.4281 64.4733 26.7084 64.383C23.5712 64.2814 20.5468 65.1504 17.9173 66.8657C16.4729 67.8023 15.1864 68.976 14.1143 70.3302Z" fill="#F593AF"/>
</svg>
