<svg width="254" height="154" viewBox="0 0 254 154" fill="none" xmlns="http://www.w3.org/2000/svg">
<path d="M-29 0.0878906V151.425H243.423C235.501 140.692 224.447 132.279 211.971 127.59C205.03 124.983 197.65 123.527 190.235 123.24C183.43 122.986 176.591 123.697 170.023 125.423C168.771 125.745 167.501 126.1 166.265 126.507C164.894 117.298 159.257 108.614 154.432 100.641C149.726 92.8706 144.089 85.4222 136.573 80.3269C127.805 74.3851 116.869 72.0829 106.289 72.7262C95.709 73.4033 85.4676 76.8905 76.0555 81.7827C74.6336 74.0804 70.6555 67.5123 64.0536 63.2803C57.4516 59.0483 49.1061 57.6941 41.4884 59.607C30.773 37.6851 13.4217 17.8962 -8.60169 7.40083C-15.1528 4.28606 -21.9749 1.83148 -29 0.0878906Z" fill="#F3C24C"/>
<path d="M84.6552 104.599C87.4059 123.84 87.2449 143.498 84.1855 162.699" stroke="#2F1C3B" stroke-miterlimit="10" stroke-linecap="round" stroke-linejoin="round"/>
<path d="M85.957 152.005C89.1505 140.049 97.5368 129.583 108.513 123.867C109.291 129.1 106.433 133.823 103.293 138.063C98.892 143.994 92.9344 149.59 85.957 152.005Z" fill="#2F1C3B"/>
<path d="M107.883 112.623C107.628 112.891 107.36 113.173 107.105 113.428L92.7744 107.631C97.095 109.872 101.349 112.261 105.495 114.837C102.717 117.078 99.47 118.728 96.196 120.15C93.9686 121.116 91.6741 121.989 89.326 122.713C88.0244 118.755 86.6021 115.025 85.314 110.999C84.3881 115.4 83.5562 119.828 82.8182 124.283C77.6657 125.169 72.4595 125.115 67.4948 123.532C65.4419 122.874 63.4023 121.895 61.8324 120.446C65.5358 115.521 69.9503 111.509 75.0358 107.967C69.3331 109.939 64.3684 113.508 59.6453 117.333C57.8339 112.891 60.2625 107.645 63.295 103.807C64.5831 102.17 66.0054 100.64 67.5351 99.2316C71.3324 98.8425 75.2236 99.3121 78.8465 100.573C75.7872 99.2048 72.5669 98.2387 69.266 97.7288C70.4468 96.7493 71.6813 95.8368 72.9694 95.0049C77.29 92.1737 82.04 90.2549 87.0181 89.3291C86.5887 91.9188 86.2398 94.5219 86.5216 97.1518C86.5619 97.447 86.3203 97.3665 86.5216 97.5812C87.4609 94.5756 88.6685 91.6638 90.1042 88.8729C91.8352 88.6984 93.5795 88.6314 95.3373 88.685C99.309 88.8192 103.817 89.9061 107.185 92.3213C103.16 94.2938 99.2956 96.6151 95.6593 99.2182C99.8189 96.4809 104.22 94.8841 108.97 93.8107C110.553 95.394 111.721 97.3933 112.19 99.8622C113.062 104.411 111.063 109.201 107.883 112.623Z" fill="white"/>
<path d="M75.2499 102.09C73.7605 103.982 72.5798 106.598 73.6934 108.745C74.3778 110.073 75.8001 110.865 77.2224 111.321C81.6101 112.717 86.4137 111.576 90.6404 109.738C92.6397 108.866 94.6256 107.819 96.1016 106.222C97.591 104.626 98.5168 102.385 98.1143 100.238C97.4165 96.5882 93.4582 95.1256 90.2245 95.0183C86.4943 94.8975 82.8982 95.9307 79.7718 97.9702C78.0543 99.0839 76.5246 100.479 75.2499 102.09Z" fill="#F593AF"/>
<path d="M30.6875 83.3975C35.7193 110.623 44.9643 137.056 57.9664 161.49" stroke="#2F1C3B" stroke-miterlimit="10" stroke-linecap="round" stroke-linejoin="round"/>
<path d="M54.2764 157.276C37.7856 152.54 24.1797 138.84 19.5371 122.322C27.2927 125.637 33.1564 130.507 38.7115 136.854C44.2666 143.201 49.7277 150.178 54.2764 157.276Z" fill="#2F1C3B"/>
<path d="M11.7153 97.5274C12.0642 97.675 12.4131 97.8226 12.7619 97.9434L23.55 86.8735C20.4907 90.6708 17.5656 94.5621 14.8015 98.5875C18.2365 99.5267 21.8862 99.728 25.4554 99.7146C27.8841 99.7012 30.3262 99.5804 32.7682 99.2986C32.3791 95.1524 32.1644 91.1673 31.7351 86.9674C34.3516 90.6306 36.901 94.3474 39.3699 98.1178C44.4419 96.8565 49.1919 94.7096 53.0966 91.2612C54.7067 89.8389 56.1827 88.1214 57.028 86.1624C51.6608 83.1433 46.0118 81.2379 39.9201 80.0571C45.9447 79.5607 51.9158 80.8354 57.7795 82.4455C57.6587 77.6553 53.3112 73.8312 49.0041 71.5233C47.1658 70.5438 45.247 69.7118 43.288 69.0409C39.6517 70.2083 36.2838 72.2076 33.466 74.8107C35.7202 72.3284 38.2696 70.1412 41.1008 68.3566C39.6249 67.9406 38.122 67.5918 36.6058 67.3502C31.5069 66.5049 26.3947 66.6525 21.4568 67.8065C22.8926 70.007 24.2612 72.2479 25.0529 74.7705C25.1334 75.0522 25.3212 74.8778 25.2273 75.1595C23.1609 72.7846 20.8799 70.6108 18.4378 68.625C16.7874 69.1617 15.1638 69.8058 13.5804 70.5572C9.99783 72.2747 6.32129 75.0925 4.18782 78.6482C8.66945 78.8361 13.1377 79.3997 17.5119 80.3255C12.6009 79.4936 7.93146 79.8022 3.15463 80.728C2.34955 82.8212 2.06777 85.1158 2.64475 87.5578C3.67794 92.1066 7.43499 95.6892 11.7153 97.5274Z" fill="white"/>
<path d="M37.358 74.7571C39.4915 75.8842 41.6249 77.8164 41.4639 80.2182C41.37 81.7076 40.3905 83.0092 39.2634 83.9887C35.8149 87.0346 30.9442 87.9201 26.3418 87.947C24.1546 87.9604 21.9273 87.786 19.928 86.9272C17.9287 86.0551 16.1709 84.3912 15.6744 82.2577C14.8425 78.6349 17.8884 75.6963 20.7867 74.3009C24.1546 72.6907 27.8714 72.1942 31.548 72.798C33.5741 73.1335 35.5466 73.791 37.358 74.7571Z" fill="#F593AF"/>
<path d="M143.318 117.224C143.452 124.376 145.841 131.407 149.41 137.821H173.67C173.871 137.137 174.019 136.506 174.126 135.956C174.851 132.253 174.877 128.402 174.18 124.685C173.804 122.685 173.187 120.646 171.764 119.17C170.356 117.707 167.994 116.983 166.223 117.989C165.23 118.553 164.572 119.532 163.942 120.472C163.338 121.371 162.747 122.283 162.144 123.195C161.553 120.606 160.587 117.949 159.339 115.507C158.803 114.447 158.212 113.414 157.568 112.461C156.106 110.247 154.24 108.154 151.772 107.201C149.303 106.248 146.109 106.785 144.633 108.999C143.949 110.032 143.694 111.307 143.546 112.541C143.358 114.098 143.291 115.654 143.318 117.224Z" fill="#2F1C3B"/>
<path d="M226.783 151.078C229.534 139.606 235.84 129.019 244.616 121.129" stroke="#2F1C3B" stroke-width="0.8642" stroke-miterlimit="10" stroke-linecap="round" stroke-linejoin="round"/>
<path d="M237.49 125.985C236.363 124.858 235.504 123.463 234.995 121.946C234.096 119.317 234.377 116.15 236.296 114.137C236.712 113.708 237.195 113.332 237.759 113.117C238.819 112.715 240.12 112.983 240.925 113.775C240.939 112.889 241.65 112.098 242.281 111.467C243.743 110.004 245.957 109.24 247.97 109.709C249.982 110.179 251.687 111.977 251.834 114.057C251.968 116.043 250.788 117.867 249.513 119.397C251.163 119.236 252.693 120.712 253.028 122.349C253.471 124.563 252.25 126.898 250.425 128.226C248.735 129.461 246.521 129.97 244.454 129.608C242.898 129.326 241.462 128.588 240.053 127.85C239.463 127.542 238.832 127.193 238.523 126.603" fill="white"/>
<path d="M236.806 140.973C237.142 141.979 237.021 143.093 236.632 144.072C236.243 145.052 235.599 145.924 234.874 146.689C233.774 147.869 232.499 148.889 231.09 149.668C230.232 150.151 229.319 150.674 228.434 151.05C229.104 146.742 232.969 142.744 236.806 140.973Z" fill="#2F1C3B"/>
<path d="M206.064 108.636C208.574 111.601 210.398 115.076 212.009 118.605C216.812 129.085 219.939 140.329 221.254 151.775" stroke="#2F1C3B" stroke-width="0.8642" stroke-miterlimit="10" stroke-linecap="round" stroke-linejoin="round"/>
<path d="M219.724 107.456C219.63 107.698 219.523 107.926 219.402 108.154L208.883 107.751C212.17 108.181 215.444 108.731 218.691 109.429C217.43 111.508 215.739 113.32 213.968 114.984C212.76 116.111 211.499 117.211 210.157 118.204C208.399 115.977 206.628 113.91 204.884 111.629C205.313 114.662 205.81 117.694 206.36 120.713C203.274 122.471 199.919 123.638 196.377 123.772C194.914 123.826 193.371 123.678 192.043 123.102C193.277 119.09 195.169 115.507 197.611 112.058C194.418 114.648 192.056 118.083 189.923 121.626C187.736 119.197 188.085 115.279 189.131 112.112C189.574 110.77 190.138 109.455 190.782 108.194C193.116 107.067 195.719 106.463 198.336 106.436C196.055 106.262 193.774 106.396 191.533 106.839C192.07 105.94 192.647 105.068 193.277 104.236C195.397 101.431 197.987 99.0967 200.966 97.3523C201.288 99.1101 201.677 100.854 202.455 102.478C202.549 102.652 202.375 102.652 202.549 102.746C202.455 100.599 202.563 98.466 202.831 96.3325C203.891 95.8226 205.005 95.3799 206.145 95.0042C208.722 94.1722 211.861 93.8234 214.572 94.5882C212.452 96.7888 210.52 99.1637 208.789 101.673C210.828 98.9491 213.27 96.9229 216.061 95.1249C217.443 95.769 218.651 96.7754 219.523 98.2513C221.147 101.002 220.972 104.531 219.724 107.456Z" fill="white"/>
<path d="M196.391 108.261C195.868 109.818 195.72 111.763 196.928 112.877C197.679 113.561 198.766 113.749 199.786 113.709C202.912 113.588 205.73 111.736 208.011 109.589C209.098 108.57 210.118 107.443 210.695 106.074C211.272 104.705 211.352 103.055 210.601 101.78C209.313 99.6064 206.428 99.5796 204.348 100.264C201.933 101.042 199.866 102.545 198.337 104.571C197.491 105.685 196.82 106.933 196.391 108.261Z" fill="#F3C24C"/>
<path d="M219.147 139.176C217.618 131.649 220.905 123.356 227.185 118.915C228.191 122.055 228.218 125.168 227.051 128.254C225.481 132.346 222.301 136.157 219.147 139.176Z" fill="#2F1C3B"/>
<path d="M209.084 144.316C210.064 143.927 211.191 143.967 212.197 144.302C213.203 144.638 214.102 145.228 214.921 145.899C216.169 146.919 217.256 148.14 218.128 149.495C218.664 150.327 219.241 151.213 219.671 152.071C215.31 151.655 211.083 148.046 209.084 144.316Z" fill="#2F1C3B"/>
</svg>
