<svg width="148" height="277" viewBox="0 0 148 277" fill="none" xmlns="http://www.w3.org/2000/svg">
<g clip-path="url(#clip0_820_4845)">
<path d="M139.532 182.807C139.961 179.838 137.786 172.745 138.215 169.38C138.775 165.058 143.124 161.561 143.651 157.041C144.079 153.444 140.719 148.826 141.147 145.361C142.201 136.454 145.298 132.825 145.727 125.731C147.638 93.0693 104.905 86.141 91.6598 95.3458C86.5859 95.6757 68.8601 97.6882 64.544 109.334C62.073 115.999 64.0498 120.618 61.9082 129.327C61.0845 132.693 56.3071 135.827 55.4505 139.357C54.3632 143.778 57.1967 148.595 56.2083 152.818C55.4176 156.117 50.9038 161.989 50.2778 164.926C48.8281 171.689 50.8379 174.823 51.7274 176.935C51.7274 176.935 53.3748 177.43 56.0765 178.188C56.7025 178.353 58.3828 173.108 59.1077 173.306C60.0302 173.537 60.0302 179.277 61.0845 179.541C68.6624 181.488 79.5351 183.962 88.6945 184.721C88.7275 184.886 88.7275 184.952 88.7275 184.952C97.6562 189.208 113.932 191.55 124.311 192.672C125.398 192.771 127.408 187.426 128.363 187.525C129.121 187.591 128.825 193.134 129.483 193.167C132.284 193.431 133.964 193.53 133.964 193.53C135.546 191.847 138.544 189.637 139.532 182.807Z" fill="#ECB845"/>
<path d="M83.4561 99.6348C77.8221 101.845 73.0777 106.2 70.376 111.644C67.6743 117.054 67.0483 123.488 68.6956 129.327C69.4534 132.099 70.7054 135.167 69.3546 137.707C67.8061 140.677 63.5558 141.271 61.6778 144.042C60.327 146.021 60.5247 148.661 60.9859 151.003C61.4801 153.346 62.205 155.721 61.8096 158.096C61.2825 161.198 58.9432 163.573 57.1311 166.113C55.319 168.654 53.9681 172.151 55.5825 174.823" stroke="#EAC274" stroke-width="0.2134" stroke-miterlimit="10" stroke-linecap="round" stroke-linejoin="round"/>
<path d="M126.848 97.2266C132.515 100.163 137.094 105.112 139.565 111.017C142.036 116.89 142.366 123.653 140.488 129.757C139.598 132.693 138.215 135.464 137.226 138.367C136.271 141.271 135.743 144.471 136.6 147.407C137.325 149.882 139.005 152.224 138.61 154.764C138.083 157.998 134.459 159.812 133.338 162.88C132.185 166.015 133.898 169.38 134.788 172.58C136.402 178.387 135.15 184.952 131.493 189.736" stroke="#EAC274" stroke-width="0.2134" stroke-miterlimit="10" stroke-linecap="round" stroke-linejoin="round"/>
<path d="M128.231 148.991C130.043 150.278 130.571 152.818 130.109 154.996C129.615 157.173 128.33 159.054 127.111 160.934C125.892 162.815 124.706 164.761 124.442 167.005C124.179 169.215 124.904 171.426 125.694 173.537C126.485 175.616 127.342 177.76 127.342 180.004C127.375 182.247 126.353 184.655 124.311 185.546" stroke="#EAC274" stroke-width="0.2134" stroke-miterlimit="10" stroke-linecap="round" stroke-linejoin="round"/>
<path d="M74.8239 140.017C72.287 141.567 71.2986 144.866 71.4962 147.836C71.6939 150.805 72.8471 153.642 73.6049 156.513C74.3627 159.383 74.7251 162.583 73.4072 165.255C72.6494 166.839 71.3644 168.093 70.4749 169.61C69.5853 171.128 69.157 173.14 70.1454 174.592" stroke="#EAC274" stroke-width="0.2134" stroke-miterlimit="10" stroke-linecap="round" stroke-linejoin="round"/>
<path d="M88.5957 99.5689C86.4541 97.6884 85.1032 94.884 85.0044 92.0138C84.9714 91.156 85.268 90.0672 86.1246 90.0342C86.8824 90.0342 87.2778 90.892 87.4755 91.6179C88.0356 93.5974 88.5957 95.5769 89.1558 97.5894C89.2546 95.4119 89.3864 93.2345 89.4853 91.024C89.5182 90.2982 89.65 89.4404 90.3089 89.1435C90.8032 88.9455 91.3633 89.1764 91.7257 89.5724C92.0552 89.9683 92.2199 90.4961 92.3187 90.991C92.8459 93.5314 92.3846 96.2697 91.0667 98.5132" fill="#ECB845"/>
<path d="M51.728 178.024C48.2026 173.537 48.0049 166.84 51.2338 162.188C52.8153 159.911 55.1216 158.064 56.0441 155.457C57.8892 150.113 53.0788 144.075 54.9568 138.763C55.9123 136.091 58.3504 134.244 59.8331 131.802C62.9631 126.622 61.151 119.991 62.0076 114.02C62.8313 108.312 66.4226 103.264 71.2329 99.998C75.8455 96.8637 83.7859 96.0389 87.2124 96.5008C90.6389 96.9957 87.7396 100.328 88.8927 103.561" stroke="#ECB845" stroke-width="0.2134" stroke-miterlimit="10" stroke-linecap="round" stroke-linejoin="round"/>
<path d="M135.348 194.684C139.598 190.725 141.74 184.622 140.916 178.848C140.356 174.823 138.445 170.6 140.092 166.872C141.476 163.771 145.068 161.857 145.858 158.558C146.748 154.797 143.651 151.366 142.498 147.704C141.213 143.646 142.267 139.225 143.75 135.233C145.232 131.241 147.143 127.315 147.539 123.092C148.296 115.273 143.684 107.685 137.358 103.066C131.032 98.447 123.223 96.3685 115.514 95.0488" stroke="#ECB845" stroke-width="0.2134" stroke-miterlimit="10" stroke-linecap="round" stroke-linejoin="round"/>
<path d="M25.831 63.0807H25.6992C25.7981 63.3776 25.9957 63.6415 26.2593 63.7735C28.3021 64.8952 33.343 61.959 31.9592 60.2764C31.9592 60.2764 27.1489 60.3424 25.831 63.0807Z" fill="#2F1C3B"/>
<path d="M27.3803 55.9537C27.0179 56.7455 25.074 61.1994 25.7329 63.1129H25.8647C27.2485 60.4076 32.0259 60.4076 32.0259 60.4076C30.675 58.725 28.9288 55.8877 28.9288 55.8877C28.4346 55.9207 27.9074 55.9537 27.3803 55.9537Z" fill="#F593AF"/>
<path d="M27.3798 55.9538C27.9069 55.9538 28.4341 55.9208 28.9283 55.8548C32.5525 55.4589 36.1108 53.8753 39.2738 50.7411C57.0325 33.0574 46.1598 11.7777 39.4715 6.07005C26.2266 -5.27916 6.09571 -0.759273 0.692324 19.9926C-3.52495 36.2576 12.2898 56.0858 27.3798 55.9538Z" fill="#F593AF"/>
<path d="M115.415 267.432C115.481 268.257 115.514 268.983 115.481 269.61C115.415 273.536 97.9526 275.582 97.0959 272.909C96.2393 270.204 103.257 266.806 103.257 266.806C103.257 266.806 109.781 269.247 115.415 267.432Z" fill="#615BA3"/>
<path d="M77.8557 264.529C77.8557 265.321 77.7898 266.047 77.7239 266.706C77.2626 270.599 59.6687 270.863 59.1086 268.092C58.5485 265.321 65.8958 262.648 65.8958 262.648C65.8958 262.648 72.0899 265.75 77.8557 264.529Z" fill="#615BA3"/>
<path d="M111.231 183.633C110.473 183.237 110.012 182.874 110.012 182.709C110.012 181.885 110.374 180.433 110.374 180.433C110.407 180.367 110.44 180.268 110.44 180.202C110.539 177.53 112.186 166.213 114.361 162.32C116.832 163.805 119.27 166.081 120.884 169.645C123.026 174.428 125.036 180.301 124.97 186.041C124.542 186.107 124.08 186.173 123.652 186.206C118.677 186.569 113.504 184.854 111.231 183.633Z" fill="#AFA7CF"/>
<path d="M89.8483 183.534C89.7495 183.204 88.135 177.266 90.0789 177.167C92.0887 177.068 92.7806 181.917 94.2962 183.105C94.2962 183.105 94.5927 179.872 96.0424 179.938C97.9534 180.004 97.558 186.074 97.558 186.074C97.558 186.074 99.7984 189.67 105.795 189.143C111.363 188.648 111.725 184.26 111.725 183.633C113.999 184.854 119.172 186.569 124.114 186.14V186.239C123.916 190.924 119.567 197.687 113.867 199.997C100.82 205.276 90.9026 197.556 87.6408 192.541C84.379 187.526 81.9409 184.095 83.127 183.039C84.2472 182.049 86.7183 184.92 86.9819 185.283C86.7183 184.821 83.7201 179.773 85.8616 178.783C87.6408 177.991 89.7165 183.204 89.8483 183.534Z" fill="#ECCEAD"/>
<path d="M122.105 188.78C118.283 188.021 114.692 186.602 111.627 184.161C111.43 185.513 110.441 188.747 105.73 189.143C99.7334 189.67 97.493 186.074 97.493 186.074C97.493 186.074 97.8884 180.004 95.9774 179.938C94.5277 179.872 94.2312 183.105 94.2312 183.105C92.7156 181.917 92.0237 177.068 90.0139 177.167C88.07 177.266 89.7174 183.204 89.7833 183.534C89.6515 183.237 87.5758 177.991 85.7967 178.816C83.6551 179.806 86.6203 184.854 86.9169 185.316C86.6203 184.986 84.1493 182.082 83.062 183.072C81.8759 184.128 84.347 187.559 87.5758 192.574C88.7949 194.487 90.9694 196.731 93.9017 198.578C94.6925 198.776 95.4832 199.007 96.2739 199.271C106.29 203.131 118.316 198.875 122.105 188.78Z" fill="#ECD0C4"/>
<path opacity="0.1" d="M124.081 186.173C123.685 186.206 123.257 186.239 122.861 186.239C118.282 186.305 113.768 184.788 111.692 183.666C111.692 183.765 111.659 183.963 111.626 184.194C114.69 186.668 118.282 188.054 122.104 188.813C118.315 198.875 106.289 203.164 96.3058 199.271C95.548 199.007 94.7573 198.809 93.9336 198.578C98.7769 201.581 105.696 203.329 113.801 200.063C118.447 198.182 122.203 193.333 123.52 189.077C123.817 188.087 124.015 187.163 124.048 186.305L124.081 186.173Z" fill="#57167E"/>
<path d="M82.93 225.532C82.1393 230.019 82.3699 234.704 82.3699 234.704V235.001C79.3388 234.968 74.2319 234.638 69.1909 232.922C64.0182 231.174 60.6905 229.194 58.8125 228.336C59.3726 221.837 60.0645 215.898 60.8882 210.422C61.5471 210.29 69.5534 208.541 70.3771 199.204L70.443 199.105C76.6371 202.339 86.8178 206.331 99.3379 206.232V206.265C99.3379 206.265 99.6344 219.527 114.626 219.659L114.757 219.626C115.548 225.796 116.734 231.767 118.447 234.737C116.075 235.265 110.474 236.254 104.478 236.353C99.9639 236.419 96.9657 235.759 95.0547 235.298L95.1206 235.001L94.857 226.456C90.4421 227.05 86.2907 226.456 82.93 225.532Z" fill="#D46954"/>
<path d="M114.724 220.023L114.592 220.056C99.6342 219.924 99.3047 206.661 99.3047 206.661V206.628C103.654 206.595 108.299 206.067 113.143 204.847H113.34C113.571 208.608 113.999 214.381 114.724 220.023Z" fill="#D2593E"/>
<path d="M115.416 267.432C109.782 269.246 103.291 266.805 103.291 266.805C103.16 266.31 102.995 265.716 102.83 265.023L102.929 264.99C102.929 264.99 109.749 268.058 115.284 265.815C115.317 266.376 115.383 266.937 115.416 267.432Z" fill="white"/>
<path d="M114.064 204.418H113.866C109.023 205.638 104.377 206.166 100.028 206.199C87.5083 206.298 77.3275 202.339 71.1334 199.073C66.9491 196.896 64.5769 195.048 64.5769 195.048L64.4121 195.015C66.8173 184.095 69.6508 175.814 72.3854 169.611L72.4513 169.644C71.99 172.086 78.5795 174.395 80.3587 174.098C81.5777 173.9 82.1378 172.185 82.9615 169.446L83.1592 169.512C83.1592 169.512 90.5395 177.826 101.346 175.484C101.116 176.803 101.05 177.859 101.149 178.486C101.544 181.356 109.978 181.818 110.868 180.367C110.868 180.367 110.506 181.851 110.506 182.643C110.506 182.841 110.934 183.171 111.725 183.567C111.692 184.194 111.329 188.582 105.794 189.076C99.7977 189.604 97.5573 186.008 97.5573 186.008C97.5573 186.008 97.9526 179.938 96.0417 179.872C94.592 179.806 94.2955 183.039 94.2955 183.039C92.7799 181.851 92.088 177.001 90.0782 177.1C88.1343 177.199 89.7817 183.138 89.8476 183.468C89.7158 183.171 87.6401 177.925 85.8609 178.75C83.7193 179.74 86.6846 184.788 86.9811 185.249C86.6846 184.919 84.2135 182.016 83.1263 183.006C81.9402 184.062 84.4112 187.493 87.6401 192.508C90.9019 197.555 100.819 205.243 113.866 199.964C113.833 200.03 113.899 201.745 114.064 204.418Z" fill="#D46954"/>
<path d="M112.944 243.348C113.867 254.136 114.855 261.262 115.283 265.815C109.781 268.059 102.928 264.99 102.928 264.99L102.829 265.023C101.379 258.59 99.5673 244.436 99.4355 243.414C102.071 243.81 105.531 244.007 109.287 243.678C110.605 243.612 111.824 243.48 112.944 243.348Z" fill="#ECCEAD"/>
<path d="M101.347 175.516C102.171 170.634 104.905 162.353 107.805 159.845V159.779C109.485 160.043 112.154 160.703 114.822 162.32C112.681 166.213 111.001 177.529 110.902 180.201C110.902 180.3 110.869 180.366 110.836 180.432C109.946 181.851 101.512 181.422 101.116 178.552C101.017 177.892 101.116 176.836 101.347 175.516Z" fill="#D46954"/>
<path d="M107.344 159.779V159.845C104.445 162.386 101.71 170.634 100.887 175.517C90.1128 177.859 82.6996 169.545 82.6996 169.545L82.502 169.479C82.8644 168.258 83.2927 166.873 83.8528 165.322C85.8626 159.845 87.9712 156.447 87.9712 156.447C88.2348 156.579 88.4654 156.678 88.729 156.81C88.729 156.81 87.6088 164.101 93.77 165.619C99.9312 167.137 103.391 159.779 103.391 159.779V159.746C104.181 159.713 104.939 159.647 105.664 159.549V159.581C105.664 159.581 106.29 159.582 107.344 159.779Z" fill="#AFA7CF"/>
<path d="M103.851 159.714V159.747C103.851 159.747 100.391 167.104 94.23 165.586C88.0688 164.069 89.189 156.777 89.189 156.777C92.2531 158.196 95.6467 159.153 99.238 159.516C100.885 159.747 102.401 159.78 103.851 159.714Z" fill="#ECCEAD"/>
<path d="M89.3535 160.572C89.8148 162.617 91.0668 164.861 94.1968 165.62C99.9297 167.038 103.323 160.737 103.785 159.879C99.4025 161.331 94.0321 161.759 89.3535 160.572Z" fill="#ECCEAD"/>
<path opacity="0.1" d="M103.786 159.878C103.819 159.812 103.852 159.779 103.852 159.779V159.746C102.435 159.812 100.887 159.746 99.2392 159.581C95.6479 159.218 92.2214 158.228 89.1902 156.843C89.1902 156.843 88.9266 158.624 89.3879 160.571C94.0335 161.759 99.4039 161.33 103.786 159.878Z" fill="#57167E"/>
<path d="M88.4321 156.481C88.4321 156.481 86.3235 159.879 84.3137 165.355C83.7536 166.906 83.3253 168.292 82.9629 169.512C82.1392 172.218 81.612 173.966 80.36 174.164C78.5808 174.428 71.9914 172.152 72.4526 169.71L72.3867 169.677C72.848 168.622 73.3092 167.665 73.7376 166.741C77.8889 158.163 81.5461 154.303 82.7652 153.049L82.7981 152.983C84.4784 154.27 86.3894 155.458 88.4321 156.481Z" fill="#D46954"/>
<path d="M82.7966 152.95L82.7636 153.016C81.5775 154.27 77.8874 158.097 73.736 166.708L73.5383 166.609C73.5383 166.609 69.2552 165.157 62.3691 156.613L62.468 156.547C62.468 148.695 70.7049 143.944 71.7592 143.383C75.2187 146.583 78.118 148.859 79.4689 149.882C80.4573 150.938 81.5775 151.994 82.7966 152.95Z" fill="#AFA7CF"/>
<path d="M77.8893 262.912C77.8893 263.473 77.8893 264.001 77.8893 264.496C72.0905 265.75 65.8964 262.649 65.8964 262.649C65.7975 262.154 65.6987 261.527 65.6328 260.834H65.7317C65.7317 260.834 72.1894 264.562 77.8893 262.912Z" fill="white"/>
<path d="M77.6578 242.424V242.457C77.4601 252.981 77.8554 258.92 77.8884 262.912C72.1885 264.562 65.7308 260.8 65.7308 260.8H65.6319C64.8741 254.433 64.5447 240.807 64.5117 239.092C66.818 240.181 69.4868 241.17 72.2873 241.698C74.3301 242.127 76.1092 242.358 77.6578 242.424Z" fill="#ECCEAD"/>
<path opacity="0.1" d="M113.01 244.305C112.977 243.975 112.944 243.678 112.911 243.348V243.315C111.824 243.447 110.605 243.579 109.287 243.711C105.498 244.008 102.071 243.81 99.4355 243.447C99.4685 243.678 99.6003 244.635 99.765 246.021C104.213 246.252 109.023 245.922 113.01 244.305Z" fill="#57167E"/>
<path d="M99.7656 245.987C100.359 250.573 101.71 260.075 102.83 265.024L102.929 264.991C102.929 264.991 109.749 268.059 115.284 265.815C114.856 261.394 113.933 254.565 113.011 244.305C109.024 245.921 104.214 246.251 99.7656 245.987Z" fill="#ECD0C4"/>
<path d="M64.5444 239.158C64.5115 239.158 64.5115 239.158 64.4785 239.125C64.5115 240.841 64.8409 254.466 65.5987 260.834H65.6976C65.6976 260.834 72.1553 264.562 77.8552 262.945C77.8222 259.25 77.4928 253.872 77.5916 244.668C72.4847 244.47 66.9166 243.579 64.5444 239.158Z" fill="#ECD0C4"/>
<path opacity="0.1" d="M77.658 242.424C76.1095 242.325 74.3303 242.127 72.2876 241.732C69.487 241.204 66.8512 240.247 64.5449 239.158C66.9501 243.579 72.4853 244.503 77.6251 244.668C77.6251 243.975 77.658 243.249 77.658 242.49V242.424Z" fill="#57167E"/>
<path d="M71.1348 199.106L71.0689 199.205C70.2782 208.542 62.239 210.29 61.5801 210.422C62.4038 204.78 63.3592 199.667 64.3806 195.048L64.5453 195.081C64.5783 195.081 66.9505 196.928 71.1348 199.106Z" fill="#D2593E"/>
<path d="M52.5186 109.566C54.4954 109.467 56.9994 111.381 57.4936 113.888C58.2514 117.616 54.3966 120.75 54.3966 120.75C58.5809 129.922 65.9611 137.972 71.7599 143.383C70.7385 143.944 62.4687 148.694 62.4687 156.546L62.3698 156.612C61.7438 155.821 61.0849 154.963 60.393 154.039C52.5186 143.383 42.3378 122.4 41.3164 118.21C40.295 114.02 42.7332 111.743 42.7332 111.743C43.0297 109.5 45.9291 108.312 45.9291 108.312C49.2238 104.65 52.4856 109.5 52.4856 109.5V109.566H52.5186Z" fill="#ECCEAD"/>
<path d="M82.3363 152.95C81.1172 151.994 79.997 150.971 79.0086 149.882C77.6577 148.859 74.7583 146.583 71.2988 143.383C70.4752 143.812 65.2036 146.88 62.9961 151.961C66.7192 156.019 70.8046 159.648 75.4832 162.485C78.6791 156.778 81.3478 154.039 82.3033 152.983L82.3363 152.95Z" fill="#AFA7CF"/>
<path opacity="0.1" d="M63.4567 151.961C56.0764 143.911 50.2118 134.211 44.3142 125.369C44.2813 125.402 44.2812 125.435 44.2812 125.468C48.1032 133.749 54.8244 146.484 60.4255 154.006C61.1174 154.93 61.7764 155.788 62.4024 156.579C69.2884 165.124 73.5715 166.576 73.5715 166.576L73.7692 166.675C74.527 165.124 75.2519 163.739 75.9438 162.485C71.2652 159.648 67.1468 156.019 63.4567 151.961Z" fill="#57167E"/>
<path d="M71.7602 143.383C65.9285 137.972 58.5482 129.922 54.3969 120.75C54.3969 120.75 58.2188 117.649 57.4939 113.888C56.9997 111.38 54.5286 109.467 52.5188 109.566V109.467C52.5188 109.467 49.257 104.617 45.9623 108.279C45.9623 108.279 43.0629 109.434 42.7664 111.71C42.7664 111.71 40.2953 113.987 41.3497 118.177C41.6462 119.397 42.7334 122.07 44.3149 125.468C44.3149 125.435 44.3479 125.402 44.3479 125.369C50.2125 134.211 56.1101 143.91 63.4904 151.96C65.6649 146.847 70.9365 143.811 71.7602 143.383Z" fill="#ECD0C4"/>
<path d="M99.435 243.414C96.4368 242.952 94.46 242.226 94.0646 241.764C93.3398 240.873 92.3513 235.595 93.175 234.44C93.4386 234.077 94.2293 234.341 95.712 234.737C97.6229 235.232 100.621 235.925 105.135 235.859C111.131 235.76 116.7 234.704 119.105 234.143C119.731 234.011 120.126 233.879 120.258 233.813C120.95 233.516 121.576 238.663 121.411 240.016C121.279 241.137 118.479 242.457 112.878 243.282C111.79 243.447 110.571 243.579 109.253 243.711C105.53 244.041 102.104 243.81 99.435 243.414Z" fill="#D2593E"/>
<path d="M64.4782 239.092C59.8326 236.881 56.5379 234.143 56.2084 233.45C55.7142 232.427 56.7026 228.567 57.8887 227.775C58.1523 227.61 58.6794 227.775 59.5361 228.171C61.3811 229.062 64.7088 231.042 69.9145 232.823C74.9555 234.572 80.0294 234.902 83.0935 234.935C84.5762 234.935 85.5975 234.869 85.8611 234.836C86.6518 234.77 85.7952 239.652 85.2351 240.84C84.8397 241.731 82.4346 242.721 77.6572 242.424C76.1087 242.325 74.3295 242.127 72.2868 241.731C69.4533 241.203 66.8175 240.213 64.4782 239.092Z" fill="#D2593E"/>
<path d="M31.7952 8.08273C32.8824 8.64359 33.8379 9.33642 34.7604 10.1282C36.6055 10.7881 37.9893 12.7346 39.0107 14.3182C40.1968 16.1657 40.8557 18.4092 40.7569 20.5867C40.658 22.3352 38.813 23.325 37.4292 22.1373C33.6732 19.036 29.6206 14.8461 28.9287 9.86429C28.731 8.34666 30.5761 7.45588 31.7952 8.08273Z" fill="white"/>
<path d="M21.9436 5.73983C22.6685 5.27794 23.4921 5.17897 24.2499 5.57487C25.1725 5.97077 25.6008 7.25746 25.1395 8.11525C25.0077 8.37918 24.7771 8.57713 24.5465 8.7091C24.0523 9.33595 23.2286 9.43492 22.5037 9.105C22.0425 8.87406 21.713 8.37918 21.4494 7.95029C20.9222 7.22447 21.2188 6.20172 21.9436 5.73983Z" fill="white"/>
<path d="M88.7274 156.645C87.6071 158.789 86.6517 161.033 85.7621 163.309C84.8725 165.586 84.2136 167.895 83.4558 170.238C83.0604 171.425 82.7968 172.613 81.9402 173.834C81.5778 174.494 80.4575 174.922 79.7656 174.79C79.0737 174.758 78.4478 174.593 77.8217 174.395C76.6027 174.032 75.4166 173.537 74.3293 172.844C73.7692 172.514 73.275 172.085 72.8137 171.59C72.3854 171.128 71.9241 170.403 72.0889 169.578C72.1218 169.38 72.3195 169.248 72.5172 169.281C72.7149 169.314 72.8137 169.479 72.8137 169.677V169.71C72.7478 170.634 73.868 171.425 74.8565 171.92C75.8778 172.481 76.9981 172.91 78.1512 173.174C78.7113 173.306 79.3044 173.405 79.8315 173.438C80.3916 173.471 80.5564 173.372 80.8859 172.976C81.446 172.151 81.7754 170.93 82.1379 169.776C82.9286 167.433 83.6205 165.058 84.6089 162.781C85.5973 160.505 86.7176 158.295 88.1014 156.216C88.2002 156.051 88.4308 155.985 88.5956 156.117C88.7603 156.282 88.8262 156.48 88.7274 156.645Z" fill="#D2593E"/>
<path d="M108.036 160.11C106.355 161.924 105.4 164.399 104.477 166.774C103.588 169.182 102.83 171.657 102.303 174.197C102.039 175.451 101.776 176.738 101.743 177.925C101.611 178.981 102.533 179.542 103.72 180.004C104.873 180.4 106.125 180.631 107.377 180.697C108.003 180.73 108.629 180.73 109.255 180.664C109.848 180.631 110.54 180.334 110.573 180.202L110.606 180.103C110.639 179.905 110.836 179.773 111.034 179.839C111.199 179.872 111.33 180.037 111.33 180.235C111.298 180.895 110.77 181.092 110.474 181.257C110.144 181.389 109.782 181.521 109.452 181.554C108.761 181.686 108.102 181.752 107.41 181.752C106.059 181.752 104.708 181.587 103.39 181.191C102.731 180.96 102.039 180.73 101.446 180.169C100.82 179.707 100.392 178.618 100.491 177.958C100.491 176.54 100.754 175.253 101.018 173.933C101.611 171.327 102.369 168.819 103.39 166.378C104.444 163.97 105.565 161.495 107.64 159.615C107.805 159.483 108.036 159.483 108.168 159.648C108.299 159.78 108.299 160.011 108.168 160.143L108.036 160.11Z" fill="#D2593E"/>
<path d="M75.845 221.936C77.3606 222.662 78.9421 223.289 80.5565 223.882C82.1709 224.443 83.7853 224.938 85.4327 225.268C88.7274 226.027 92.121 226.291 95.5146 226.093C95.7123 226.093 95.91 226.225 95.91 226.423C95.91 226.621 95.8112 226.786 95.6135 226.819C92.1869 227.578 88.5627 227.38 85.1362 226.654C81.7096 225.862 78.3819 224.608 75.4826 222.596C75.3178 222.497 75.2849 222.266 75.3837 222.068C75.4826 221.87 75.6803 221.837 75.845 221.936Z" fill="#D2593E"/>
<path d="M64.8077 194.784C68.3001 197.193 72.1879 199.139 76.1087 200.789C80.0624 202.405 84.1808 203.659 88.3651 204.418C96.7338 206.167 105.432 205.936 113.801 204.055C113.998 204.022 114.196 204.121 114.229 204.319C114.262 204.517 114.163 204.715 113.965 204.748C109.781 205.936 105.465 206.628 101.116 206.76C96.7667 206.892 92.3847 206.562 88.1016 205.771C83.8184 204.946 79.667 203.56 75.6474 201.845C71.6608 200.129 67.8059 198.018 64.3464 195.312C64.1817 195.18 64.1487 194.949 64.2805 194.784C64.4123 194.685 64.61 194.652 64.8077 194.784Z" fill="#D2593E"/>
<path d="M79.8648 169.941C79.766 168.919 78.8764 168.16 77.855 168.259C76.8336 168.358 76.0758 169.248 76.1747 170.271C76.2735 171.294 77.1631 172.053 78.1845 171.954C79.2058 171.855 79.9636 170.964 79.8648 169.941Z" fill="#ECECEE"/>
<path d="M107.738 177.199C107.639 176.176 106.749 175.418 105.728 175.516C104.707 175.615 103.949 176.506 104.048 177.529C104.147 178.552 105.036 179.311 106.058 179.212C107.079 179.113 107.837 178.222 107.738 177.199Z" fill="#ECECEE"/>
<path d="M51.1011 120.486C54.0664 126.26 55.7138 131.902 54.4288 136.784C51.793 146.88 44.0174 142.03 45.3024 140.578C46.8838 138.797 49.5855 145.593 45.8954 148.958" stroke="black" stroke-width="0.3026" stroke-miterlimit="10" stroke-linecap="round" stroke-linejoin="round"/>
<path d="M27.4462 56.6797C27.4462 56.6797 20.659 69.4146 25.4694 80.3019C30.2797 91.1892 36.342 90.5624 36.7703 89.2097C37.1987 87.857 31.7953 85.6136 32.1906 92.7398C32.586 99.4702 39.3073 104.584 44.7107 110.127" stroke="black" stroke-width="0.3026" stroke-miterlimit="10" stroke-linecap="round" stroke-linejoin="round"/>
<path d="M65.7966 248.164C65.6978 247.373 65.6319 246.581 65.6648 245.789C65.7637 245.03 65.7637 244.106 66.5873 243.446C67.0157 243.117 67.7735 243.347 68.0041 243.776C68.3006 244.172 68.3995 244.568 68.4983 244.964C68.696 245.756 68.7619 246.581 68.7289 247.373C68.663 248.197 68.5971 248.989 68.1359 249.781C68.0041 249.979 67.8064 250.21 67.5099 250.276C67.1804 250.375 66.818 250.144 66.6862 249.913C66.4226 249.451 66.4226 249.055 66.3897 248.659C66.3567 247.834 66.4226 247.043 66.5873 246.251C66.6532 246.053 66.6862 245.855 66.785 245.657C66.8839 245.558 66.818 245.459 67.0816 245.327C67.2792 245.261 67.411 245.393 67.5099 245.492C67.7735 245.921 67.7735 246.317 67.7735 246.713C67.7735 246.779 67.7405 246.812 67.6746 246.812C67.6417 246.812 67.5758 246.779 67.5758 246.713C67.5428 246.35 67.444 245.921 67.2463 245.69C67.1145 245.492 67.1145 245.987 67.0157 246.35C66.9168 247.109 66.8509 247.867 66.9168 248.626C66.9498 248.989 67.0157 249.385 67.1804 249.616C67.3122 249.781 67.3781 249.748 67.5758 249.451C67.8723 248.89 67.9711 248.065 67.9711 247.34C68.0041 246.581 67.9711 245.822 67.8394 245.096C67.7076 244.37 67.3451 243.611 66.8839 243.941C66.4226 244.238 66.2249 245.096 66.159 245.822C66.0602 246.581 66.0272 247.34 66.0272 248.131C66.0272 248.197 65.9943 248.263 65.8955 248.263C65.8625 248.263 65.7966 248.23 65.7966 248.164Z" fill="#9E746D"/>
<path d="M101.875 253.279C101.677 252.52 101.512 251.728 101.446 250.936C101.446 250.144 101.314 249.254 102.072 248.495C102.435 248.099 103.258 248.264 103.522 248.627C103.851 248.957 104.016 249.353 104.181 249.748C104.477 250.507 104.642 251.299 104.708 252.124C104.741 252.949 104.774 253.74 104.444 254.598C104.346 254.796 104.181 255.06 103.884 255.192C103.588 255.324 103.16 255.159 103.028 254.928C102.731 254.499 102.665 254.103 102.566 253.707C102.435 252.916 102.369 252.124 102.435 251.299C102.468 251.101 102.501 250.903 102.566 250.672C102.632 250.54 102.566 250.474 102.797 250.309C102.962 250.21 103.127 250.309 103.225 250.408C103.555 250.804 103.588 251.2 103.654 251.596C103.654 251.662 103.621 251.695 103.588 251.695C103.555 251.695 103.489 251.662 103.489 251.629C103.39 251.266 103.258 250.87 103.028 250.672C102.863 250.507 102.929 250.969 102.896 251.332C102.896 252.091 102.929 252.85 103.094 253.576C103.192 253.938 103.291 254.301 103.489 254.532C103.621 254.664 103.72 254.631 103.851 254.334C104.082 253.707 104.049 252.916 103.983 252.19C103.917 251.431 103.786 250.672 103.555 249.979C103.324 249.287 102.863 248.594 102.468 248.957C102.039 249.32 101.973 250.177 101.973 250.903C101.973 251.662 102.039 252.454 102.138 253.213C102.138 253.279 102.105 253.345 102.039 253.345C101.94 253.378 101.875 253.345 101.875 253.279Z" fill="#9E746D"/>
<path d="M95.251 166.609L94.8227 166.543C90.6714 165.784 87.5413 163.87 88.2991 159.713L90.5725 147.176C91.3303 143.019 95.3169 140.248 99.4683 141.007L99.8966 141.073C104.048 141.832 106.816 145.824 106.058 149.981L103.784 162.518C102.994 166.642 99.4024 167.367 95.251 166.609Z" fill="#ECD0C4"/>
<path opacity="0.69" d="M103.917 161.66L105.433 153.28C106.19 149.123 103.423 145.131 99.2715 144.372L98.8432 144.306C94.6918 143.547 90.7052 146.318 89.9474 150.475L88.2012 160.109C91.463 161.198 96.8664 162.418 103.917 161.66Z" fill="#E2AEA2"/>
<path d="M79.2721 139.522C77.493 144.438 72.1225 146.978 67.2793 145.229C62.403 143.481 59.899 138.07 61.6782 133.187C63.4573 128.272 68.8278 125.731 73.6711 127.48C78.5143 129.228 81.0513 134.606 79.2721 139.522Z" fill="#E6C2B6"/>
<path opacity="0.5" d="M76.9326 141.897C75.7794 145.097 71.7599 146.582 67.9709 145.229C64.1819 143.877 62.0404 140.149 63.1606 136.948C64.2808 133.748 68.3333 132.264 72.1223 133.616C75.9442 134.969 78.0858 138.697 76.9326 141.897Z" fill="#E2AEA2"/>
<path d="M62.6674 135.035C63.3264 134.64 63.9524 134.31 64.6443 134.079C65.3362 133.815 66.028 133.617 66.7529 133.485C68.2026 133.188 69.7182 133.188 71.1679 133.452C71.8927 133.551 72.6175 133.815 73.3094 134.079L74.2979 134.574C74.6273 134.706 74.9239 134.969 75.2533 135.167C75.8793 135.563 76.4065 136.091 76.9666 136.586C77.2631 136.817 77.4608 137.147 77.6915 137.411L78.3834 138.269C78.4822 138.401 78.4822 138.599 78.3504 138.698C78.2186 138.797 78.0539 138.797 77.9221 138.665L77.955 138.566L77.2302 137.807C76.9996 137.576 76.7689 137.279 76.5053 137.048C75.9782 136.619 75.451 136.124 74.858 135.794C73.7048 135.035 72.3869 134.541 71.0361 134.31C69.6852 134.079 68.3014 134.112 66.9176 134.343C65.5668 134.607 64.183 135.002 62.9639 135.563H62.931C62.7663 135.629 62.6015 135.563 62.5356 135.398C62.4697 135.266 62.5356 135.101 62.6674 135.035Z" fill="#E2AEA2"/>
<path d="M68.3006 139.06C69.2561 138.4 70.3434 137.972 71.4636 137.741C72.5838 137.51 73.8029 137.51 74.9231 137.741C75.5161 137.84 76.0433 138.038 76.6034 138.235C77.1306 138.499 77.6577 138.73 78.119 139.093C78.6132 139.39 79.0086 139.819 79.4369 140.215C79.8323 140.611 80.1617 141.106 80.5242 141.535C80.5901 141.634 80.5901 141.799 80.4912 141.865C80.3924 141.931 80.2606 141.931 80.1947 141.865L80.1617 141.832C79.7664 141.436 79.4369 141.04 79.0086 140.677C78.5803 140.347 78.1849 139.984 77.7236 139.72C76.834 139.126 75.8127 138.763 74.7913 138.598C73.737 138.4 72.6827 138.466 71.6283 138.631C70.574 138.829 69.5197 139.126 68.5313 139.489H68.4983C68.3665 139.522 68.2348 139.489 68.2018 139.357C68.1689 139.225 68.2018 139.126 68.3006 139.06Z" fill="#E2AEA2"/>
<path d="M121.016 146.021C121.378 151.234 125.859 155.16 130.999 154.797C136.171 154.434 140.059 149.947 139.697 144.735C139.334 139.522 134.854 135.596 129.714 135.959C124.541 136.289 120.653 140.809 121.016 146.021Z" fill="#E6C2B6"/>
<path opacity="0.5" d="M122.631 148.925C122.862 152.323 126.321 154.83 130.341 154.566C134.361 154.302 137.458 151.3 137.194 147.902C136.963 144.504 133.504 141.996 129.484 142.26C125.465 142.557 122.401 145.526 122.631 148.925Z" fill="#E2AEA2"/>
<path d="M138.247 146.22C137.753 145.659 137.193 145.164 136.6 144.735C136.007 144.273 135.381 143.91 134.722 143.58C133.404 142.888 131.954 142.492 130.472 142.327C129.747 142.228 128.989 142.294 128.231 142.327L127.144 142.525C126.782 142.558 126.419 142.723 126.09 142.822C125.365 143.02 124.739 143.382 124.08 143.712C123.751 143.844 123.454 144.108 123.157 144.306L122.268 144.933C122.136 145.032 122.103 145.23 122.202 145.362C122.301 145.494 122.466 145.527 122.597 145.461L122.63 145.428L123.52 144.867C123.816 144.702 124.113 144.471 124.442 144.339C125.068 144.075 125.694 143.745 126.386 143.58C127.704 143.151 129.088 143.053 130.472 143.184C131.856 143.316 133.174 143.745 134.426 144.339C135.678 144.966 136.864 145.725 137.918 146.616C138.05 146.715 138.247 146.715 138.346 146.583C138.346 146.517 138.346 146.319 138.247 146.22Z" fill="#E2AEA2"/>
<path d="M131.724 148.562C130.999 147.671 130.044 146.946 129.023 146.418C128.001 145.89 126.848 145.56 125.695 145.461C125.102 145.395 124.542 145.428 123.949 145.461C123.389 145.56 122.795 145.659 122.268 145.89C121.708 146.055 121.214 146.352 120.687 146.616C120.193 146.88 119.731 147.243 119.27 147.572C119.171 147.638 119.138 147.803 119.204 147.902C119.27 148.001 119.402 148.034 119.501 147.968L119.534 147.935C120.028 147.671 120.456 147.374 120.95 147.144C121.445 146.946 121.939 146.682 122.466 146.583C123.487 146.253 124.542 146.187 125.596 146.319C126.65 146.418 127.672 146.748 128.627 147.21C129.583 147.671 130.505 148.232 131.362 148.892C131.461 148.958 131.625 148.958 131.691 148.826C131.79 148.76 131.79 148.628 131.724 148.562Z" fill="#E2AEA2"/>
<path d="M132.482 135.068C127.738 151.267 114.888 163.046 94.9222 157.041C76.208 151.432 69.7833 134.178 74.5606 117.979C79.3051 101.78 96.1412 92.5088 112.154 97.2267C128.133 101.945 137.227 118.902 132.482 135.068Z" fill="#ECD0C4"/>
<path d="M70.0146 125.666C70.0146 125.666 67.28 106.069 76.3735 99.0745C85.467 92.0802 105.466 89.6388 115.845 94.9175C126.223 100.196 138.084 103.165 138.084 113.228C138.084 123.291 133.34 136.223 133.34 136.223C133.34 136.223 128.529 128.536 127.211 127.25C125.894 125.963 125.992 118.969 125.432 117.583C124.905 116.197 123.357 124.808 123.357 124.808C123.357 124.808 116.372 123.06 113.505 121.608C110.639 120.156 111.133 111.018 111.133 111.018C111.133 111.018 110.342 120.453 109.024 120.552C107.707 120.651 92.386 118.936 91.0351 117.748C89.6843 116.56 88.7947 107.751 88.7947 107.751C88.7947 107.751 88.4323 117.715 86.7519 118.243C85.0716 118.771 72.9469 128.767 70.0146 125.666Z" fill="#ECB845"/>
<path d="M112.746 91.4199C122.037 92.9375 130.505 98.9751 134.92 107.322C139.335 115.636 139.631 126.061 135.678 134.606" stroke="#EAC274" stroke-width="0.2134" stroke-miterlimit="10" stroke-linecap="round" stroke-linejoin="round"/>
<path d="M87.0153 95.3125C77.3946 100.096 71.1346 110.918 71.7936 121.64" stroke="#EAC274" stroke-width="0.2134" stroke-miterlimit="10" stroke-linecap="round" stroke-linejoin="round"/>
<path d="M108.299 94.125C112.22 96.2365 115.481 99.6017 117.458 103.594C119.435 107.586 120.16 112.205 119.435 116.592" stroke="#EAC274" stroke-width="0.2134" stroke-miterlimit="10" stroke-linecap="round" stroke-linejoin="round"/>
<path d="M120.357 103.66C123.586 108.609 123.85 115.372 120.95 120.519" stroke="#EAC274" stroke-width="0.2134" stroke-miterlimit="10" stroke-linecap="round" stroke-linejoin="round"/>
<path d="M96.9648 96.4678C102.533 101.516 105.202 109.599 103.752 116.989" stroke="#EAC274" stroke-width="0.2134" stroke-miterlimit="10" stroke-linecap="round" stroke-linejoin="round"/>
<path d="M86.5203 101.746C84.0163 106.167 82.995 111.38 83.621 116.394" stroke="#EAC274" stroke-width="0.2134" stroke-miterlimit="10" stroke-linecap="round" stroke-linejoin="round"/>
<path opacity="0.4" d="M96.0418 142.855C94.8886 146.088 89.7488 147.177 84.576 145.296C79.4033 143.448 76.1415 139.324 77.3276 136.091C78.4808 132.858 83.6206 131.769 88.7933 133.65C93.9661 135.53 97.1949 139.654 96.0418 142.855Z" fill="url(#paint0_radial_820_4845)"/>
<path opacity="0.4" d="M125.694 144.603C125.562 148.034 120.983 150.607 115.48 150.376C109.978 150.145 105.662 147.176 105.827 143.745C105.959 140.314 110.538 137.74 116.041 137.971C121.51 138.202 125.859 141.172 125.694 144.603Z" fill="url(#paint1_radial_820_4845)"/>
<path d="M97.1621 138.334C97.1621 138.334 97.6563 141.369 101.577 142.095C104.246 142.557 105.86 141.402 106.816 140.116" stroke="#84332D" stroke-width="0.2134" stroke-linecap="round" stroke-linejoin="round"/>
<path d="M82.5992 123.059C82.5992 123.059 91.7256 115.24 94.7238 118.275C97.7221 121.31 88.3979 125.005 87.0141 125.401C85.6303 125.83 79.8975 126.556 82.5992 123.059Z" fill="#ECB845"/>
<path d="M124.212 129.031C124.212 129.031 117.754 118.902 113.998 120.915C110.242 122.927 118.084 129.229 119.303 129.988C120.522 130.78 125.793 133.155 124.212 129.031Z" fill="#ECB845"/>
<path d="M102.993 122.729C102.993 122.729 100.192 132.627 102.037 133.155C103.882 133.716 107.276 131.241 107.375 134.838C107.474 138.401 102.268 138.896 102.268 138.896" stroke="#84332D" stroke-width="0.2134" stroke-linecap="round" stroke-linejoin="round"/>
<path d="M120.226 138.532C120.456 137.971 120.555 137.377 120.588 136.751C120.621 133.913 118.216 131.604 115.218 131.604C112.252 131.571 109.814 133.88 109.781 136.685" stroke="black" stroke-width="0.2134" stroke-linecap="round" stroke-linejoin="round"/>
<path d="M120.752 137.378L123.19 137.576" stroke="black" stroke-width="0.2134" stroke-linecap="round" stroke-linejoin="round"/>
<path d="M120.688 136.421L123.126 136.058" stroke="black" stroke-width="0.2134" stroke-linecap="round" stroke-linejoin="round"/>
<path d="M120.654 135.2L122.928 134.31" stroke="black" stroke-width="0.2134" stroke-linecap="round" stroke-linejoin="round"/>
<path d="M84.8398 132.527C84.8398 131.901 84.9387 131.307 85.1364 130.68C86.1248 127.941 89.2877 126.589 92.1542 127.678C95.0206 128.733 96.5362 131.802 95.5148 134.54" stroke="black" stroke-width="0.2134" stroke-linecap="round" stroke-linejoin="round"/>
<path d="M84.7079 131.24L82.3027 130.515" stroke="black" stroke-width="0.2134" stroke-linecap="round" stroke-linejoin="round"/>
<path d="M85.1355 130.317L82.9609 129.097" stroke="black" stroke-width="0.2134" stroke-linecap="round" stroke-linejoin="round"/>
<path d="M85.6302 129.162L83.7852 127.479" stroke="black" stroke-width="0.2134" stroke-linecap="round" stroke-linejoin="round"/>
<path d="M96.9646 268.62C98.2825 270.732 98.2825 273.041 97.5247 275.284C95.1195 275.383 94.0323 275.219 91.9566 275.054C91.9566 275.054 90.1774 270.864 96.9646 268.62Z" fill="white"/>
<path d="M96.832 268.488C98.4135 267.96 98.4465 267.927 99.1384 267.828C99.1384 267.828 97.6887 261.527 103.685 261.23C106.848 261.098 108.693 263.539 108.693 264.892C108.693 264.826 108.726 264.859 108.693 264.892C108.858 264.199 109.253 263.209 110.835 262.252C113.273 260.801 116.403 262.351 116.732 265.189L117.556 272.348C117.556 272.348 108.397 274.657 97.4251 275.152C98.1499 272.909 98.1499 270.599 96.832 268.488Z" fill="#615BA3"/>
<path d="M117.656 272.48L117.854 274.097C117.854 274.097 103.357 278.122 92.5169 276.703C92.5169 276.703 91.7262 274.856 92.1874 274.889C105.07 275.351 117.656 272.48 117.656 272.48Z" fill="white"/>
<path d="M110.441 268.488C110.573 269.51 111.495 270.236 112.484 270.104C113.505 269.972 114.23 269.049 114.098 268.059C113.966 267.036 113.044 266.31 112.055 266.442C111.034 266.541 110.342 267.465 110.441 268.488Z" fill="white"/>
<path d="M99.2374 267.597L105.596 267.234C105.794 267.234 105.959 267.366 105.992 267.564C105.992 267.762 105.86 267.927 105.662 267.96C105.662 267.96 105.662 267.96 105.629 267.96L99.2704 268.323C99.0727 268.323 98.9079 268.191 98.875 267.993C98.875 267.762 99.0397 267.597 99.2374 267.597Z" fill="white"/>
<path d="M95.6461 264.265C95.6461 264.826 96.2062 265.189 96.3709 265.288C97.0299 265.717 97.9195 266.113 98.842 266.344C98.842 266.542 99.0067 266.707 99.2044 266.707L101.115 266.641C101.181 266.674 101.247 266.674 101.313 266.674C101.346 266.674 101.412 266.641 101.445 266.641L105.893 266.509H105.926C106.123 266.476 106.255 266.311 106.255 266.146C106.255 265.948 106.09 265.783 105.893 265.783L101.708 265.882C101.379 265.387 101.181 264.793 100.951 264.199C100.687 263.44 100.391 262.649 99.8304 261.923C99.6327 261.692 99.435 261.461 99.1385 261.329C98.7432 261.131 98.2819 261.197 98.0183 261.494C97.7877 261.725 97.6229 262.154 97.9854 262.913C98.1501 263.243 98.3148 263.572 98.5125 263.902C98.2489 263.77 98.0183 263.638 97.7547 263.539C97.4253 263.374 97.0299 263.243 96.6016 263.276C96.1074 263.308 95.6131 263.704 95.6461 264.265ZM100.555 265.189C100.522 265.156 100.456 265.123 100.423 265.09C99.6986 264.364 99.1056 263.506 98.6773 262.583C98.5455 262.319 98.5125 262.055 98.5784 261.989C98.6114 261.956 98.6443 261.956 98.6773 261.956C98.7432 261.956 98.809 261.956 98.8749 261.989C99.0397 262.055 99.1715 262.22 99.3033 262.385C99.7975 263.012 100.028 263.704 100.325 264.463C100.358 264.694 100.456 264.958 100.555 265.189ZM96.3709 264.265C96.3709 264.133 96.5357 264.001 96.7004 264.001C96.931 263.968 97.2276 264.1 97.4911 264.199C98.3807 264.595 99.2044 265.09 99.9622 265.684C100.028 265.75 100.061 265.783 100.127 265.849C99.0397 265.783 97.8206 265.387 96.7663 264.727C96.4368 264.463 96.3709 264.331 96.3709 264.265Z" fill="white"/>
<path d="M59.3395 263.935C60.295 266.244 59.9326 268.52 58.8453 270.599C56.4401 270.302 55.4188 269.972 53.409 269.477C53.376 269.477 52.2888 265.056 59.3395 263.935Z" fill="white"/>
<path d="M59.2403 263.77C60.8877 263.506 60.9206 263.473 61.6125 263.473C61.6125 263.473 61.1842 257.007 67.1477 257.699C70.2777 258.062 71.7274 260.768 71.5297 262.12C71.5627 262.054 71.5627 262.087 71.5297 262.12C71.7933 261.46 72.3534 260.537 74.0667 259.877C76.7025 258.854 79.5359 260.867 79.4042 263.704L79.0747 270.896C79.0747 270.896 69.6517 271.721 58.7461 270.434C59.8334 268.356 60.1958 266.079 59.2403 263.77Z" fill="#615BA3"/>
<path d="M79.1747 271.028L79.1088 272.644C79.1088 272.644 64.1507 274.294 53.7063 271.16C53.7063 271.16 53.2121 269.213 53.6734 269.312C66.2922 271.853 79.1747 271.028 79.1747 271.028Z" fill="white"/>
<path d="M72.6826 265.948C72.6497 266.97 73.4404 267.828 74.4618 267.861C75.4832 267.894 76.3398 267.102 76.3728 266.08C76.4057 265.057 75.615 264.199 74.5936 264.166C73.5722 264.133 72.7156 264.925 72.6826 265.948Z" fill="white"/>
<path d="M61.745 263.275L68.1038 263.935C68.3015 263.968 68.4333 264.133 68.4333 264.33C68.4004 264.528 68.2356 264.66 68.0709 264.66C68.0709 264.66 68.0709 264.66 68.0379 264.66L61.6791 264.001C61.4814 263.968 61.3496 263.803 61.3496 263.605C61.3826 263.407 61.5473 263.242 61.745 263.275Z" fill="white"/>
<path d="M58.7134 259.415C58.6475 259.976 59.1088 260.405 59.2735 260.57C59.8666 261.098 60.6573 261.626 61.5469 261.988C61.514 262.186 61.6458 262.384 61.8764 262.384L63.7873 262.648C63.8532 262.681 63.8862 262.714 63.9521 262.714C63.985 262.714 64.0509 262.714 64.0839 262.681L68.4988 263.275H68.5318C68.7295 263.275 68.8942 263.143 68.8942 262.945C68.9271 262.747 68.7954 262.549 68.5977 262.549L64.4463 261.988C64.2157 261.428 64.0839 260.834 63.9521 260.207C63.7873 259.415 63.6555 258.59 63.1943 257.798C63.0625 257.535 62.8978 257.271 62.6342 257.106C62.2718 256.875 61.8105 256.842 61.514 257.073C61.2504 257.271 61.0198 257.666 61.2504 258.458C61.3492 258.821 61.481 259.151 61.6128 259.514C61.3822 259.349 61.1515 259.184 60.9209 259.019C60.6244 258.821 60.262 258.59 59.8007 258.59C59.3724 258.557 58.8123 258.854 58.7134 259.415ZM63.4579 261.131C63.4249 261.098 63.392 261.032 63.3261 260.999C62.733 260.174 62.2718 259.25 61.9752 258.26C61.8764 257.963 61.8764 257.732 61.9752 257.666C62.0082 257.633 62.0411 257.633 62.0741 257.633C62.14 257.633 62.2059 257.666 62.2718 257.699C62.4035 257.798 62.5353 257.996 62.6342 258.161C63.0295 258.854 63.1613 259.58 63.2931 260.372C63.3261 260.603 63.392 260.867 63.4579 261.131ZM59.4383 259.514C59.4383 259.382 59.636 259.283 59.8007 259.283C60.0643 259.283 60.2949 259.448 60.5255 259.613C61.3163 260.141 62.0741 260.768 62.733 261.461C62.766 261.527 62.8319 261.593 62.8648 261.659C61.7775 261.395 60.6573 260.834 59.7348 260.009C59.4712 259.745 59.4383 259.58 59.4383 259.514Z" fill="white"/>
</g>
<defs>
<radialGradient id="paint0_radial_820_4845" cx="0" cy="0" r="1" gradientUnits="userSpaceOnUse" gradientTransform="translate(86.6897 139.487) rotate(21.6917) scale(9.19083 6.80394)">
<stop offset="0.1463" stop-color="#D8514E"/>
<stop offset="1" stop-color="#ECD0C4"/>
</radialGradient>
<radialGradient id="paint1_radial_820_4845" cx="0" cy="0" r="1" gradientUnits="userSpaceOnUse" gradientTransform="translate(115.759 144.166) rotate(4.36059) scale(9.18927 6.80509)">
<stop offset="0.1463" stop-color="#D8514E"/>
<stop offset="1" stop-color="#ECD0C4"/>
</radialGradient>
<clipPath id="clip0_820_4845">
<rect width="148" height="277" fill="white"/>
</clipPath>
</defs>
</svg>
