<svg width="77" height="60" viewBox="0 0 77 60" fill="none" xmlns="http://www.w3.org/2000/svg">
<path d="M12.9295 0.905273C7.86653 7.61616 3.56068 14.8335 0.201172 22.3885C9.75921 19.1808 22.3929 22.8106 27.3138 30.7876C29.869 34.9239 30.626 39.7777 32.708 44.125C36.1148 51.2158 43.2597 56.8293 51.6348 58.9396C59.9626 61.05 69.3787 59.5727 76.4289 55.0988C74.6782 48.9366 74.0157 42.7744 73.306 36.4434C70.325 38.0051 66.7762 39.3556 63.3694 39.1024C59.4421 38.8069 56.2245 36.0635 54.3319 32.9824C52.4392 29.9013 51.5402 26.4403 50.1206 23.1482C44.4899 10.1063 28.5914 1.87603 12.9295 0.905273Z" fill="#D2593E"/>
</svg>
