<svg width="394" height="235" viewBox="0 0 394 235" fill="none" xmlns="http://www.w3.org/2000/svg">
<path d="M330.549 176.079C325.486 182.79 321.18 190.007 317.82 197.562C327.378 194.355 340.012 197.984 344.933 205.962C347.488 210.098 348.245 214.952 350.327 219.299C353.734 226.39 360.879 232.003 369.254 234.113C377.582 236.224 386.998 234.747 394.048 230.273C392.297 224.111 391.635 217.948 390.925 211.617C387.944 213.179 384.395 214.53 380.989 214.276C377.061 213.981 373.844 211.237 371.951 208.156C370.058 205.075 369.159 201.614 367.74 198.322C362.109 185.238 346.163 177.008 330.549 176.079Z" fill="#F3C24C"/>
<path d="M134.663 107.285C133.077 113.727 129.56 124.777 121.088 135.282C80.2168 186.073 55.6938 159.463 1 206.141" stroke="#2F1C3B" stroke-width="0.3026" stroke-miterlimit="10" stroke-linecap="round" stroke-linejoin="round"/>
<path d="M138.825 113.282C138.725 113.43 138.626 113.529 138.577 113.678C135.852 113.43 133.226 112.588 130.799 111.299C129.808 110.754 128.569 110.16 128.223 109.07C131.245 106.542 134.069 103.817 136.744 100.894C137.536 101.29 138.725 101.389 139.518 101.785C138.28 105.353 138.478 109.565 138.825 113.282Z" fill="#F3C24C"/>
<path opacity="0.19" d="M138.825 113.282C138.725 113.43 138.626 113.529 138.577 113.678C135.852 113.43 133.226 112.588 130.799 111.299C129.808 110.754 128.569 110.16 128.223 109.07C131.245 106.542 134.069 103.817 136.744 100.894C137.536 101.29 138.725 101.389 139.518 101.785C138.28 105.353 138.478 109.565 138.825 113.282Z" fill="#F3C24C"/>
<path d="M211.65 77.9507C208.033 85.8294 202.832 92.4199 196.589 97.5733C187.87 104.709 177.169 109.02 165.973 109.912C156.907 110.655 147.543 109.119 138.725 105.056C111.13 92.3703 98.9928 59.7156 111.626 32.1151C113.855 27.2095 116.729 22.8489 120.097 18.9838C120.94 18.0424 121.831 17.1009 122.723 16.1594C138.527 0.352311 163.099 -4.85064 184.6 5.0102C212.195 17.6459 224.333 50.3007 211.65 77.9507Z" fill="#2B7A0B"/>
<path d="M198.62 53.9673C199.363 56.3458 200.453 58.972 202.781 59.8639C204.565 60.5577 206.695 59.9135 208.132 58.6747C209.568 57.4359 210.46 55.6025 211.005 53.7691C212.838 47.7733 211.847 37.4169 204.267 35.7321C194.557 33.6014 197.034 49.0121 198.62 53.9673Z" fill="white"/>
<path d="M197.878 73.7378C198.869 75.5217 201.049 76.5127 203.08 76.1659C203.724 76.0668 204.368 75.819 204.913 75.5217C208.678 73.4405 209.174 67.0483 204.368 65.9582C200.058 64.9671 195.5 69.625 197.878 73.7378Z" fill="white"/>
<path opacity="0.19" d="M165.973 109.863C156.907 110.606 147.543 109.07 138.725 105.007C111.13 92.3213 98.9928 59.6665 111.626 32.0661C114.45 25.9712 118.215 20.6196 122.674 16.1104C119.998 21.4124 118.215 27.21 117.125 33.4535C115.985 39.8457 115.589 46.3866 116.877 52.7292C117.868 57.6349 119.8 62.2928 122.079 66.7524C129.857 82.1631 141.549 95.7403 156.164 104.858C159.235 106.84 162.554 108.574 165.973 109.863Z" fill="#6EAFFA"/>
</svg>
