<svg width="382" height="174" viewBox="0 0 382 174" fill="none" xmlns="http://www.w3.org/2000/svg">
<path d="M318.396 22C313.333 28.7109 309.028 35.9282 305.668 43.4833C315.226 40.2756 327.86 43.9053 332.781 51.8824C335.336 56.0187 336.093 60.8725 338.175 65.2198C341.582 72.3105 348.727 77.924 357.102 80.0344C365.43 82.1447 374.846 80.6675 381.896 76.1935C380.145 70.0313 379.483 63.8692 378.773 57.5381C375.792 59.0998 372.243 60.4504 368.836 60.1972C364.909 59.9017 361.692 57.1583 359.799 54.0772C357.906 50.9961 357.007 47.5351 355.588 44.243C349.957 31.1589 334.058 22.9285 318.396 22Z" fill="#D2593E"/>
<path d="M9.36878 173.016C5.96195 166.98 3.40683 159.13 0 153.137C6.15122 152.124 12.3497 151.068 17.9805 148.747C23.6585 146.426 28.4849 141.445 30.9453 136.338C35.961 142.458 40.9292 148.62 45.9449 154.74C39.2732 165.672 23.3273 173.396 9.36878 173.016Z" fill="#6EAFFA"/>
<path d="M304.287 29.2172C279.755 29.2172 259.878 49.1144 259.878 73.6716C259.878 98.2287 279.755 118.126 304.287 118.126C328.819 118.126 348.696 98.2287 348.696 73.6716C348.77 49.1144 328.819 29.2172 304.287 29.2172Z" fill="#EBB530"/>
<path d="M267.194 0.295869C266.307 0.81364 266.012 1.99712 266.529 2.88472C269.707 8.87608 272.884 14.8674 275.987 20.9327C276.431 21.8204 277.687 22.1162 278.574 21.5985C279.46 21.0807 279.682 19.9712 279.239 19.0096C276.135 12.9443 272.958 6.95293 269.78 0.961575C269.485 0.369837 268.82 0 268.155 0C267.785 0 267.49 0.073967 267.194 0.295869Z" fill="#EBB530"/>
<path d="M329.337 123.452C328.451 123.969 328.229 125.079 328.672 126.04C332.81 134.103 336.801 142.165 341.234 150.08C341.751 150.967 342.934 151.263 343.82 150.745C344.707 150.228 345.003 149.044 344.485 148.157C340.052 140.242 335.988 132.18 331.924 124.117C331.628 123.525 330.963 123.156 330.298 123.156C329.929 123.156 329.633 123.23 329.337 123.452Z" fill="#EBB530"/>
<path d="M233.13 48.5229C232.76 49.4105 233.204 50.5939 234.164 50.9638C238.819 52.739 243.548 54.3663 248.351 55.7717C248.869 55.9196 249.312 55.9936 249.755 55.7717C250.273 55.5498 250.642 55.1799 250.79 54.6621C250.938 54.2183 250.938 53.7006 250.79 53.2568C250.642 52.813 250.199 52.3692 249.755 52.2212C244.952 50.8158 240.223 49.1886 235.568 47.4873C235.346 47.4134 235.051 47.3394 234.829 47.3394C234.09 47.3394 233.425 47.7832 233.13 48.5229Z" fill="#EBB530"/>
<path d="M352.908 91.4977C352.465 91.7196 352.095 92.0894 351.874 92.5332C351.504 93.4208 351.947 94.6783 352.908 94.9742C359.706 97.1932 366.578 99.1163 373.524 100.744C373.967 100.818 374.558 100.67 374.928 100.374C375.297 100.078 375.593 99.6341 375.667 99.1163C375.741 98.5986 375.593 98.1548 375.297 97.711C375.002 97.2671 374.558 97.1192 374.041 96.9713C372.268 96.5275 370.494 96.0837 368.721 95.6399C368.869 95.6399 369.017 95.7138 369.164 95.7878C364.214 94.5304 359.263 93.051 354.386 91.4977C354.164 91.4237 353.869 91.3498 353.647 91.3498C353.351 91.4237 353.13 91.4237 352.908 91.4977Z" fill="#EBB530"/>
<path d="M351.21 9.83801C345.372 16.7909 339.461 23.7439 333.624 30.8447C332.959 31.6584 333.032 32.8418 333.845 33.5076C334.658 34.1733 335.84 34.0993 336.505 33.2856C342.269 26.2588 348.18 19.3058 354.092 12.2789C354.757 11.4653 354.609 10.2818 353.87 9.61611C353.501 9.32024 353.057 9.17231 352.688 9.17231C352.097 9.17231 351.579 9.39421 351.21 9.83801Z" fill="#EBB530"/>
<path d="M272.44 114.946C266.602 122.195 260.617 129.222 254.336 136.174C253.671 136.914 253.819 138.172 254.558 138.837C255.371 139.503 256.479 139.355 257.218 138.615C263.425 131.736 269.41 124.636 275.322 117.387C275.987 116.573 275.913 115.39 275.1 114.724C274.73 114.428 274.287 114.28 273.918 114.28C273.327 114.28 272.735 114.502 272.44 114.946Z" fill="#EBB530"/>
<path d="M297.417 127.076C296.53 131.218 295.718 135.36 295.126 139.576C294.979 140.612 295.644 141.574 296.678 141.721C297.639 141.869 298.673 141.204 298.821 140.168C299.412 135.952 300.225 131.81 301.112 127.668C301.333 126.706 300.521 125.671 299.56 125.523C299.486 125.523 299.338 125.523 299.264 125.523C298.304 125.523 297.565 126.188 297.417 127.076Z" fill="#EBB530"/>
<path d="M313.598 10.5035C313.081 10.5775 312.637 10.7994 312.342 11.1692C311.972 11.613 311.898 12.0568 311.898 12.5746V12.6485C311.898 12.5746 311.898 12.5006 311.898 12.4266C311.825 14.4238 311.677 16.4948 311.381 18.492C311.233 19.5275 311.898 20.4891 312.933 20.637C313.894 20.7849 314.928 20.1192 315.076 19.0837C315.371 16.7907 315.519 14.4977 315.593 12.2047C315.593 11.7609 315.298 11.2432 314.928 10.9473C314.559 10.6514 314.189 10.5035 313.746 10.5035C313.672 10.5035 313.598 10.5035 313.598 10.5035ZM311.898 12.7965C311.898 12.8704 311.898 12.8704 311.898 12.9444C311.898 12.8704 311.898 12.7965 311.898 12.7965Z" fill="#EBB530"/>
<path d="M252.933 91.6459C250.051 92.3116 247.169 93.0513 244.361 94.0129C243.401 94.3087 242.883 95.4922 243.253 96.4538C243.622 97.4153 244.731 97.8592 245.691 97.5633C247.982 96.7496 250.273 96.0839 252.637 95.5662C252.859 95.4922 253.08 95.4922 253.376 95.4182C253.893 95.3443 254.263 95.1963 254.632 94.7525C254.928 94.3827 255.149 93.8649 255.076 93.3471C255.002 92.8294 254.78 92.3856 254.411 92.0897C254.115 91.8678 253.672 91.6459 253.228 91.6459C253.08 91.6459 253.007 91.6459 252.933 91.6459Z" fill="#EBB530"/>
<path d="M365.618 57.8425C362.515 58.5082 359.411 59.3958 356.455 60.4313C355.495 60.8012 354.978 61.9107 355.347 62.8722C355.717 63.8338 356.825 64.3516 357.786 63.9818C360.076 63.1681 362.441 62.4284 364.879 61.8367C365.249 61.7627 365.692 61.6888 366.061 61.5408C366.579 61.4669 366.948 61.3189 367.318 60.8751C367.613 60.5053 367.761 59.9875 367.761 59.4697C367.687 58.952 367.465 58.5082 367.096 58.2123C366.8 57.9904 366.357 57.7685 365.914 57.7685C365.766 57.8425 365.692 57.8425 365.618 57.8425Z" fill="#EBB530"/>
<path d="M255.667 30.8446C255.224 31.8062 255.667 32.8418 256.554 33.3595C257.736 33.8773 258.845 34.469 259.879 35.1347C260.101 35.2827 260.322 35.4306 260.544 35.5785C260.987 35.8744 261.357 36.0963 261.948 36.0223C262.391 35.9484 262.835 35.7265 263.204 35.3566C263.5 34.9868 263.721 34.469 263.648 33.9513C263.574 33.5075 263.352 32.9897 262.909 32.6938C261.431 31.6583 259.805 30.7707 258.18 29.957C257.958 29.8091 257.662 29.8091 257.441 29.8091C256.702 29.7351 255.963 30.1789 255.667 30.8446ZM260.027 35.2087C260.101 35.2087 260.101 35.2827 260.175 35.2827C260.101 35.2827 260.027 35.2827 260.027 35.2087Z" fill="#EBB530"/>
<path d="M345.077 109.99C344.634 110.951 345.077 112.061 345.964 112.505C347.146 113.023 348.255 113.614 349.289 114.28C350.102 114.872 350.989 115.463 351.728 116.055C352.54 116.721 353.723 116.647 354.388 115.833C355.053 115.094 354.979 113.836 354.166 113.17C352.097 111.543 349.88 110.138 347.516 109.028C347.294 108.88 346.999 108.88 346.777 108.88C346.038 108.88 345.373 109.324 345.077 109.99Z" fill="#EBB530"/>
<path d="M299.336 34.0253C298.819 34.0993 298.302 34.3952 298.302 34.9869C298.302 35.5047 298.745 36.0225 299.262 36.0225C301.553 35.8006 303.917 35.8745 306.208 36.2444C308.499 36.6142 310.789 37.2799 312.932 38.1675C315.666 39.351 318.179 40.9043 320.469 42.7535C323.425 45.1204 326.011 47.8572 328.302 50.8899C330.666 54.1445 332.661 57.6209 334.139 61.3932C335.395 64.6478 336.208 68.0503 336.578 71.5268C336.799 74.4115 336.799 77.2962 336.356 80.1809C336.208 80.9206 336.06 81.6603 335.913 82.4C335.765 83.1396 335.765 83.8793 336.134 84.545C336.504 85.2107 337.095 85.6545 337.834 85.8764C339.238 86.3202 341.011 85.4326 341.307 83.9533C341.75 81.8822 342.046 79.7371 342.12 77.5921C342.194 75.447 342.046 73.302 341.676 71.1569C341.085 67.0148 339.755 62.9466 338.056 59.1003C334.583 51.4077 328.967 44.7506 321.873 40.0907C316.036 36.1704 309.09 33.8774 302.07 33.8774C301.183 33.8774 300.223 33.9514 299.336 34.0253Z" fill="#FEFEFE"/>
<path d="M332.441 91.794C332.367 93.2734 333.623 94.6787 335.175 94.6787C336.727 94.6787 338.057 93.4952 338.057 91.9419C338.131 90.4626 336.875 89.0572 335.323 89.0572C333.771 89.0572 332.515 90.2407 332.441 91.794Z" fill="#FEFEFE"/>
</svg>
