<svg width="87" height="44" viewBox="0 0 87 44" fill="none" xmlns="http://www.w3.org/2000/svg">
<path d="M0 21.7787C2.98097 29.4182 6.90829 36.8043 11.6873 43.7263C14.5263 34.9894 25.3619 28.1519 35.4405 29.4182C40.6927 30.0935 45.4717 32.457 50.6765 33.5544C59.099 35.3693 68.4204 33.5966 75.2814 28.9117C82.1424 24.1845 86.4482 16.6295 86.6848 8.90564C80.1077 6.45764 74.1458 3.24992 68.0419 0C67.6634 3.03889 66.7643 6.41542 64.4931 8.69459C61.8907 11.3114 57.4902 11.9867 53.6102 11.4803C49.7302 10.9738 46.0395 9.53871 42.2541 8.61016C27.1127 4.76934 10.2205 11.1848 0 21.7787Z" fill="#6EAFFA"/>
</svg>
