<svg width="354" height="96" viewBox="0 0 354 96" fill="none" xmlns="http://www.w3.org/2000/svg">
<path d="M44.5605 29.4407C38.4566 33.4082 30.2234 36.9535 24.1195 40.921C21.9902 35.6873 19.8136 30.4115 16.3122 25.8109C12.8107 21.2104 6.51752 17.7494 0.460938 16.3988C6.42289 10.9963 12.3848 5.59388 18.3468 0.191406C31.5482 4.36988 42.6678 17.1163 44.5605 29.4407Z" fill="#F3C24C"/>
<path d="M312.044 92.5399C311.618 85.829 312.801 77.7253 312.375 70.9722C318.431 72.1962 324.63 73.4624 330.829 73.378C337.074 73.2514 343.746 70.4658 348.289 66.6671C350.134 74.0533 351.932 81.4817 353.777 88.8679C342.752 96.4651 324.677 97.858 312.044 92.5399Z" fill="#D2593E"/>
</svg>
