<svg width="164" height="219" viewBox="0 0 164 219" fill="none" xmlns="http://www.w3.org/2000/svg">
<g clip-path="url(#clip0_894_2086)">
<path d="M14.2906 66.957C13.6445 68.8995 13.1884 70.9943 12.8843 73.3176C12.3142 77.5452 12.3523 81.9633 12.9604 86.4195C13.0744 87.1431 13.1884 87.9049 13.3404 88.857V88.7047C13.3784 88.8951 13.4164 89.0856 13.4544 89.276C14.0245 92.2468 14.8607 95.0652 15.9249 97.579C16.1149 97.9979 16.3049 98.4169 16.495 98.7977C16.685 99.2167 16.875 99.5976 17.1411 100.093L17.4071 100.664C18.3193 101.311 19.2695 101.921 20.2196 102.568C22.31 103.978 24.5524 105.425 27.2128 107.101C27.0988 106.872 26.9468 106.644 26.8328 106.415L26.7568 106.301C25.8826 104.701 25.0845 103.063 24.4384 101.426C24.2863 101.045 24.1343 100.626 23.9823 100.245C23.3742 98.6835 22.8421 97.0457 22.424 95.408C22.424 95.408 22.424 95.408 22.386 95.408C22.0439 94.1892 21.7399 92.8943 21.5119 91.5612C20.7137 87.4097 20.4097 83.1821 20.5997 79.0687C20.7517 75.5647 21.2838 72.175 22.12 68.9376C19.3075 68.252 16.609 67.5664 13.9485 66.8809C13.9865 66.8809 14.1386 66.9189 14.2906 66.957Z" fill="#E8E3DB"/>
<path d="M14.2525 66.957C13.6444 68.8995 13.1503 70.9942 12.8463 73.3176C12.2762 77.5452 12.3142 81.9633 12.9223 86.4195C12.9983 87.105 13.1123 87.8287 13.2643 88.6666C13.2643 88.7047 13.2643 88.7428 13.3023 88.8189V88.7047C13.3403 88.8951 13.3784 89.0856 13.4164 89.276C13.9865 92.2468 14.8226 95.0652 15.8868 97.5789C16.0768 97.9979 16.2669 98.4169 16.4569 98.7977C16.6469 99.2167 16.837 99.5976 17.103 100.093V100.131C17.217 100.321 17.331 100.55 17.4451 100.74C18.3192 101.35 19.2314 101.959 20.1435 102.606C22.2719 104.016 24.5143 105.501 27.1748 107.177C27.0227 106.948 26.9087 106.72 26.7947 106.453L26.7187 106.339C25.8445 104.739 25.0464 103.102 24.4003 101.464C24.2482 101.083 24.0962 100.664 23.9442 100.283C23.3741 98.7977 22.88 97.2742 22.4619 95.7127C22.4239 95.6365 22.4239 95.5222 22.3859 95.4461C22.3859 95.4461 22.3859 95.4461 22.3479 95.4461C22.0059 94.2273 21.7018 92.9323 21.4738 91.5993C20.6756 87.4478 20.3716 83.2202 20.5616 79.1068C20.7136 75.6028 21.2457 72.213 22.0819 68.9756C19.3834 68.252 16.7989 67.6045 14.2525 66.957Z" fill="#435E7F"/>
<path d="M15.8864 97.5788C16.0764 97.9978 16.2664 98.4167 16.4565 98.7976C16.6465 99.2166 16.8365 99.5974 17.1026 100.093L17.2546 100.397C17.3306 100.512 17.3686 100.626 17.4446 100.74C18.3188 101.349 19.2309 101.959 20.1811 102.606C22.3095 104.054 24.5899 105.501 27.2884 107.215L27.2503 107.177C27.0983 106.948 26.9843 106.682 26.8323 106.453L26.7563 106.339C25.8821 104.739 25.084 103.101 24.4379 101.464C24.2858 101.083 24.1338 100.664 23.9818 100.283C23.2977 98.7595 22.8036 97.236 22.3855 95.7126C22.3475 95.5983 22.3475 95.5221 22.3095 95.4079C22.3095 95.4079 22.3095 95.4079 22.2715 95.4079C19.535 93.6559 16.7985 91.8277 14.1761 89.8853C13.91 89.6948 13.644 89.5044 13.3779 89.314C13.986 92.2467 14.8222 95.027 15.8864 97.5788Z" fill="#3C5572"/>
<path d="M22.0438 68.8994C21.2077 72.1368 20.6756 75.5265 20.5236 79.0305C20.3335 83.1439 20.6376 87.3716 21.4357 91.5231C21.7018 92.8561 21.9678 94.1511 22.3099 95.3699C22.3099 95.3699 22.3099 95.3699 22.3479 95.3699C22.3479 95.3699 22.3479 95.3699 22.3479 95.3318C22.842 95.6745 23.3361 95.9792 23.8301 96.2839C26.9087 98.2264 30.3293 100.207 33.9779 102.149C40.477 105.653 47.4703 108.929 54.7675 111.862C58.1121 113.233 61.6087 114.528 65.1433 115.746C69.2861 117.194 73.4668 118.489 77.6095 119.631C86.4651 122.107 95.1306 123.783 103.454 124.621C105.81 124.849 108.129 125.04 110.371 125.116C110.333 124.887 110.295 124.621 110.257 124.392L110.219 124.164L110.105 123.516C110.067 123.25 110.029 122.945 109.991 122.678C109.953 122.412 109.953 122.145 109.915 121.878V121.688C109.763 119.174 109.307 116.66 108.623 114.185C107.369 109.767 105.126 105.577 101.972 101.73C99.1593 98.3025 95.6627 95.2175 91.2919 92.2467C87.5673 89.733 83.3105 87.4097 78.2936 85.1625C77.7996 84.934 77.2675 84.7055 76.7734 84.5151C76.0132 84.1723 75.2151 83.8676 74.493 83.4867C73.2388 82.9154 71.9465 82.2679 70.7303 81.6585L70.2742 81.43L69.7802 81.2015C69.096 80.8587 68.4499 80.554 67.7658 80.2493C70.0842 80.7825 72.4026 81.2777 74.721 81.7728L75.5572 81.9632L78.7117 82.6488C82.8544 83.5248 86.9592 84.4389 91.0639 85.353C93.0782 85.81 95.1306 86.2671 97.1449 86.7241C99.3873 87.2192 101.44 87.7144 103.416 88.2095C103.454 88.2095 103.492 88.2095 103.53 88.2095C103.796 88.2095 104.1 87.981 104.138 87.7144C104.214 87.3716 103.986 87.0669 103.644 86.9526C101.06 86.3052 98.3231 85.6958 95.8907 85.1245L95.4726 85.0483L94.1044 84.7436C90.9499 84.0199 87.7573 83.3344 84.6027 82.6488C79.2818 81.5062 73.9229 80.3636 68.6019 79.221L65.5234 78.5735L63.9651 78.2307L62.4449 77.926L62.2928 77.8499C62.0648 77.7737 61.8368 77.6594 61.6087 77.5832C59.5944 76.8215 57.618 76.2121 55.7557 75.7932C55.7177 75.7932 55.6797 75.7932 55.6417 75.7932C55.3376 75.7932 55.0716 76.0217 55.0336 76.3264C44.1637 74.0031 35.6502 72.0606 27.4028 70.1182C25.5404 69.7373 23.7541 69.3184 22.0438 68.8994Z" fill="#FEFEFE"/>
<path d="M4.21834 64.2529C3.87628 64.5957 3.57223 64.9004 3.34419 65.2051C3.00213 65.586 2.69807 66.0049 2.39402 66.462C2.01396 67.0333 1.74791 67.5665 1.48186 68.0616C1.21582 68.5948 1.02578 69.1661 0.797743 69.7755C0.569703 70.5373 0.37967 71.2609 0.26565 72.0227C0.151631 72.7463 0.0756173 73.5461 -0.000395953 74.346C-0.0384026 75.5267 -0.00039596 76.7454 0.113624 77.9642C2.24199 80.059 4.52239 82.1538 6.95482 84.2105C9.00717 85.9625 11.1736 87.6383 13.3019 89.238L13.2639 89.0475L13.3019 88.8571C13.1499 87.943 13.0359 87.1432 12.9219 86.4195C12.3138 81.9634 12.3138 77.5453 12.8458 73.3176C13.1499 70.9943 13.606 68.8995 14.2521 66.9571C10.4514 65.9288 7.18286 65.0528 4.21834 64.2529Z" fill="#FEFEFE"/>
<path d="M0.151367 77.9639C0.22738 78.878 0.379407 79.8301 0.607447 80.7823C1.17755 83.4103 2.0897 85.9621 3.30592 88.3616C3.72399 89.1614 4.25608 90.0755 4.9402 91.18C8.62684 94.3413 12.6936 97.4644 17.4064 100.702L17.1023 100.054C16.8743 99.5592 16.6462 99.1783 16.4562 98.7593C16.2662 98.3785 16.0761 97.9595 15.8861 97.5406C14.8219 94.9887 13.9858 92.2084 13.4157 89.1995C13.3777 89.0091 13.3397 88.8187 13.3017 88.6282L13.3397 88.971L13.3777 89.1614C11.2493 87.5618 9.08292 85.886 7.03057 84.134C4.59814 82.1915 2.27974 80.0967 0.151367 77.9639Z" fill="#E8E3DB"/>
<path d="M22.3096 95.3696C22.7276 97.0074 23.2597 98.6451 23.8678 100.245C24.0199 100.626 24.1719 101.045 24.3239 101.425C25.008 103.063 25.7682 104.701 26.6423 106.301L26.7183 106.415C26.8324 106.643 26.9844 106.91 27.1364 107.138L27.8585 107.596L28.3526 107.9C31.1651 109.652 33.8256 111.29 36.524 112.89C49.2943 120.507 60.1262 125.649 70.578 129.115C76.7731 131.171 82.9301 132.581 88.8592 133.342C91.0255 133.609 93.3059 133.799 95.6624 133.914C96.4225 133.952 97.1446 133.952 97.9047 133.952C99.159 133.952 100.261 133.914 101.363 133.799C102.428 133.685 103.378 133.533 104.252 133.304C105.24 133.076 106.114 132.771 106.874 132.39C107.254 132.2 107.634 131.971 107.977 131.743C108.357 131.476 108.699 131.171 109.003 130.867C109.573 130.295 110.029 129.572 110.295 128.772C110.447 128.315 110.523 127.858 110.561 127.363C110.599 126.677 110.485 126.03 110.409 125.42C110.409 125.344 110.371 125.23 110.371 125.154C108.129 125.039 105.81 124.887 103.416 124.658C95.1303 123.821 86.4267 122.145 77.5712 119.669C73.4665 118.526 69.2477 117.232 65.105 115.784C61.5704 114.565 58.1118 113.27 54.7292 111.899C47.47 108.967 40.4767 105.691 33.9396 102.187C30.291 100.207 26.9084 98.2642 23.7918 96.3218C23.3358 96.0171 22.8417 95.7124 22.3096 95.3696Z" fill="#E8E3DB"/>
<path d="M217.435 45.8569C215.839 46.6568 214.205 47.4566 212.57 48.2945C205.007 52.027 197.33 55.6834 187.714 60.1776C186.004 61.0155 184.332 61.7392 182.773 62.3867C182.127 62.6914 181.481 62.958 180.835 63.2627C180.683 63.3769 180.531 63.4531 180.379 63.5674C176.084 65.3194 172.397 66.8809 169.091 68.3663C161.908 71.5275 155.751 74.6126 150.24 77.7357L149.556 78.0785L149.48 78.1166L149.251 78.2309C146.895 79.3735 144.425 80.5161 142.03 81.7348C141.726 81.8872 141.574 82.2681 141.726 82.5728C141.764 82.687 141.84 82.7632 141.954 82.8394C139.598 84.3628 137.317 86.0006 135.151 87.7145C131.768 90.3425 128.576 93.2371 125.725 96.2841C121.887 100.359 119.416 103.978 117.934 107.748C116.87 110.491 116.3 113.576 116.338 117.003C116.338 120.279 116.984 123.554 118.162 126.487C119.378 129.572 121.279 132.162 123.635 133.952C124.889 134.904 126.257 135.666 127.778 136.161C128.538 136.428 129.374 136.618 130.172 136.732C130.742 136.809 131.312 136.847 131.958 136.847C132.186 136.847 132.453 136.847 132.681 136.847C134.239 136.77 135.911 136.466 137.925 135.856C139.598 135.361 141.308 134.676 143.246 133.762C146.895 132.048 150.392 129.839 153.318 127.972C153.888 127.592 154.458 127.211 155.066 126.83H154.99H154.914H154.648C153.698 126.944 152.786 127.02 151.95 127.02H151.722C150.696 127.02 149.784 126.906 148.947 126.716C148.529 126.639 148.111 126.487 147.731 126.335C147.275 126.144 146.857 125.916 146.553 125.725C145.869 125.306 145.261 124.697 144.843 123.973C144.577 123.554 144.425 123.135 144.273 122.678C144.083 121.993 144.045 121.345 144.007 120.774V120.507C146.363 119.822 148.605 119.136 150.658 118.451L151.038 118.336C158.829 115.67 166.811 112.166 174.754 107.862C178.517 105.844 182.317 103.635 186.042 101.273C189.158 99.331 192.275 97.2743 195.277 95.1795C201.701 90.6853 207.782 85.9625 213.369 81.0874C216.409 78.4594 219.298 75.7552 221.958 73.0891C222.376 72.6702 222.794 72.2512 223.212 71.8322C223.174 72.1369 223.174 72.4416 223.136 72.7844V72.8987V72.9748C223.136 72.9748 223.136 72.9748 223.136 73.0129V72.9748V73.0129V72.9748C223.174 72.594 223.212 72.2131 223.212 71.8322C223.25 70.5373 223.25 69.2423 223.212 67.9093C223.06 63.6816 222.414 59.4921 221.312 55.4929C220.248 52.027 218.994 48.8277 217.435 45.8569Z" fill="#FEFEFE"/>
<path d="M223.06 71.7559C222.642 72.1748 222.224 72.5938 221.806 73.0127C219.146 75.6788 216.257 78.3449 213.217 81.011C207.63 85.8861 201.549 90.647 195.125 95.1032C192.123 97.1979 189.006 99.2546 185.89 101.197C182.127 103.52 178.365 105.729 174.602 107.786C166.658 112.09 158.677 115.632 150.886 118.26L150.506 118.374C148.453 119.06 146.249 119.745 143.854 120.431V120.698C143.892 121.269 143.969 121.954 144.121 122.602C144.235 123.059 144.425 123.478 144.691 123.897C145.147 124.621 145.755 125.23 146.401 125.649C146.743 125.839 147.123 126.068 147.579 126.258C147.997 126.411 148.415 126.525 148.833 126.639C149.67 126.83 150.582 126.906 151.608 126.944H151.836C152.672 126.944 153.584 126.868 154.534 126.753H154.8H154.876H154.952C155.903 126.601 156.853 126.411 157.917 126.182C158.639 126.03 159.361 125.839 160.121 125.649C162.364 125.04 164.568 124.316 166.62 123.592C172.207 121.536 177.908 118.793 183.495 115.404C192.921 109.729 202.347 102.302 213.141 92.0181C215.459 89.8091 217.701 87.6 219.982 85.3529L220.4 84.9339L220.97 84.3626C221.046 84.096 221.122 83.8294 221.198 83.5628L221.236 83.4105C221.73 81.6585 222.148 79.8684 222.414 78.1164C222.49 77.6974 222.566 77.2785 222.604 76.8595C222.794 75.5646 222.908 74.1934 223.022 72.7842L222.984 72.8985C222.984 72.8985 222.984 72.8985 222.984 72.9366V72.8604V72.7461C223.022 72.4033 223.06 72.0986 223.06 71.7559Z" fill="#E8E3DB"/>
<path d="M117.554 76.9355C116.68 76.9355 115.729 76.9736 114.817 77.0498C110.598 77.3926 106.266 78.5352 101.933 80.4776C97.7142 82.3439 93.8755 84.8957 90.4929 87.9808C87.0723 91.142 84.4119 94.8364 82.7396 98.6451C81.8654 100.702 81.2193 102.797 80.9153 104.929C80.7252 106.11 80.6492 107.329 80.6872 108.586C80.7252 109.728 80.8773 110.947 81.1053 112.28C81.5234 114.565 82.3215 116.927 83.5377 119.593C84.5639 121.84 85.8561 124.125 87.4904 126.601C88.8207 128.62 90.3789 130.676 92.1652 132.809C92.5453 133.304 92.9634 133.761 93.3814 134.218C93.6475 134.79 93.9515 135.361 94.2556 135.932C96.802 140.922 99.3105 145.225 102.009 149.148C102.541 149.948 103.263 150.939 104.061 151.967C104.745 152.843 105.544 153.719 106.38 154.557C107.938 156.118 109.724 157.528 111.625 158.708C115.159 160.955 119.378 162.479 123.749 163.164C125.497 163.431 127.283 163.545 129.108 163.545C131.654 163.545 134.277 163.279 136.861 162.745C141.194 161.869 145.413 160.232 149.365 157.947C151.266 156.842 153.166 155.509 154.952 153.985C156.396 152.805 157.689 151.472 158.867 150.024C159.969 148.653 160.957 147.13 161.793 145.568C162.592 144.083 163.238 142.445 163.732 140.731C164.682 137.532 165.1 134.028 164.986 130.295C164.872 126.791 164.226 123.097 163.124 119.288C162.097 115.708 160.577 112.014 158.677 108.395C156.891 104.929 154.686 101.502 152.216 98.2262C149.745 94.9888 147.047 92.018 144.196 89.3519C141.308 86.6858 138.267 84.3625 135.151 82.4582C131.996 80.5157 128.766 79.0684 125.573 78.1543C124.015 77.6973 122.381 77.3545 120.708 77.1641C119.758 76.9736 118.694 76.9355 117.554 76.9355Z" fill="#939393"/>
<path d="M114.817 77.0117C114.323 77.0498 113.829 77.0879 113.335 77.1641H113.373C115.615 77.3926 117.858 77.8496 119.986 78.5733C122.114 79.2969 124.167 80.211 126.143 81.3155C128.804 82.8009 131.274 84.591 133.554 86.6096C135.835 88.6282 137.925 90.8754 139.788 93.2748C141.612 95.6362 143.246 98.1881 144.538 100.892C145.147 102.149 145.679 103.406 146.135 104.701C146.667 106.263 147.123 107.824 147.465 109.424C148.263 112.966 148.681 116.584 148.757 120.24C148.833 123.897 148.567 127.591 148.073 131.209C147.541 134.942 146.743 138.598 145.717 142.217C144.69 145.797 143.474 149.339 142.068 152.805C141.384 154.442 140.7 156.08 139.94 157.68C139.293 159.051 138.647 160.384 137.963 161.755C137.811 162.022 137.697 162.288 137.545 162.593C141.65 161.679 145.679 160.117 149.441 157.908C151.342 156.804 153.242 155.471 155.028 153.947C156.434 152.767 157.765 151.434 158.943 149.986C160.083 148.577 161.033 147.092 161.869 145.53C162.668 144.045 163.314 142.407 163.808 140.693C164.758 137.532 165.176 133.99 165.062 130.257C164.948 126.753 164.302 123.059 163.2 119.25C162.173 115.67 160.653 112.014 158.753 108.319C156.967 104.815 154.762 101.387 152.292 98.15C149.821 94.9126 147.123 91.9418 144.272 89.2757C141.384 86.6096 138.343 84.2863 135.189 82.382C131.996 80.4395 128.804 78.9922 125.611 78.0782C124.053 77.6211 122.419 77.2783 120.746 77.0879C119.72 76.9736 118.618 76.8975 117.516 76.8975C116.68 76.8975 115.767 76.9355 114.817 77.0117Z" fill="#77706A"/>
<path d="M36.3718 84.2485C36.0298 84.2866 35.6497 84.3628 35.2316 84.5151C34.6235 84.7437 34.0915 85.1245 33.6354 85.6577C33.0653 86.3052 32.6472 87.2193 32.4192 88.3619C32.2291 89.3141 32.1531 90.3424 32.1911 91.6755C32.2671 93.3894 32.5332 95.0652 32.7612 96.284C32.6472 96.1698 32.4952 96.0936 32.3431 95.9793C31.659 95.5984 31.0509 95.2937 30.4048 95.0652C29.8347 94.8748 29.3026 94.7605 28.8085 94.7986C28.6945 94.7986 28.5805 94.8367 28.5045 94.8367C27.8584 94.951 27.3263 95.3699 27.0222 95.9793C26.6802 96.6268 26.5281 97.4647 26.6041 98.4169C26.6422 98.7216 26.7182 99.0644 26.8322 99.4833C26.9462 99.8261 27.0982 100.207 27.3263 100.55C27.7063 101.235 28.2004 101.883 28.8845 102.568C29.4926 103.178 30.1768 103.749 30.9749 104.32C31.8111 104.93 32.7992 105.501 33.8254 105.958C34.2815 106.187 34.7756 106.377 35.2316 106.529C35.3077 106.644 35.3457 106.682 35.4217 106.72C36.5619 107.139 37.8541 107.558 39.1463 107.482C39.4124 107.443 39.6404 107.405 39.9065 107.329C40.1345 107.291 40.3245 107.177 40.5526 107.063C40.8946 106.91 41.2367 106.606 41.5788 106.225C41.9208 105.844 42.1869 105.425 42.3769 105.082C42.6429 104.625 42.871 104.13 43.099 103.635L43.2891 103.216C43.7451 102.226 44.2392 101.197 44.8853 100.283C45.3414 99.6738 45.8355 99.0644 46.3296 98.4931C47.0517 97.6171 47.8118 96.7411 48.4199 95.7508C48.876 94.951 49.1801 94.075 49.3321 93.0847C49.4081 92.4753 49.4841 91.7898 49.2561 91.1804C49.0661 90.6852 48.648 90.3424 48.1919 90.2663C48.0399 90.2282 47.9259 90.2282 47.7738 90.2282C47.4698 90.2663 47.1657 90.3424 46.7857 90.4948C46.2916 90.7233 45.7975 91.028 45.2654 91.4089C45.0754 91.5612 44.8853 91.7136 44.6953 91.8659C44.9233 91.3327 45.1134 90.8376 45.2654 90.3044C45.4934 89.5807 45.6455 88.9332 45.7595 88.3238C45.9875 86.8004 45.6835 85.7339 44.9233 85.1626C44.6953 84.9722 44.4292 84.8579 44.1252 84.7818C43.8592 84.7056 43.5171 84.6675 43.099 84.7056C42.4529 84.7437 41.8068 84.9722 41.2747 85.3911C40.7046 85.8101 40.2105 86.3814 39.7164 87.2193C39.3744 87.7906 39.0703 88.4381 38.7663 89.2379C38.8803 88.0572 38.9183 87.067 38.7283 86.1148C38.6142 85.6578 38.4242 85.2007 38.1202 84.8579C37.8541 84.5532 37.436 84.3247 36.98 84.2485C36.7139 84.2485 36.5239 84.2485 36.3718 84.2485Z" fill="#80544B"/>
<path d="M38.3106 89.8853C38.1206 90.5327 37.9305 91.1421 37.7785 91.7896C37.6265 92.4752 37.4745 93.1607 37.3984 93.8463C37.3984 93.9606 37.4364 94.0748 37.5125 94.151C37.5885 94.2272 37.7025 94.2653 37.8165 94.2653C38.0445 94.2653 38.2346 94.0748 38.2346 93.8463C38.2726 93.4273 38.2726 93.0465 38.3106 92.6275C38.3486 92.1705 38.4246 91.7134 38.5006 91.2945C38.5006 91.3326 38.5006 91.3326 38.5006 91.3707C38.5386 91.1802 38.5766 90.9517 38.6146 90.7613C38.6527 90.4947 38.7287 90.2661 38.8047 89.9995C38.8427 89.8853 38.7667 89.7329 38.6527 89.6948C38.6146 89.6948 38.6146 89.6948 38.5766 89.6948C38.4246 89.7329 38.3106 89.8091 38.3106 89.8853Z" fill="#8D3D35"/>
<path d="M44.1256 92.4752C43.8975 92.8942 43.6695 93.3131 43.4414 93.7321C43.2134 94.1891 43.0234 94.6462 42.8713 95.1413C42.7953 95.3698 42.9473 95.6364 43.1754 95.7126C43.2894 95.7507 43.4414 95.7507 43.5555 95.6745C43.6315 95.6364 43.7455 95.5222 43.7835 95.4079C43.9355 94.6462 44.1636 93.9225 44.4676 93.237L44.4296 93.3131C44.5056 93.1608 44.5816 92.9704 44.6957 92.818C44.7717 92.6657 44.7337 92.4752 44.5816 92.399C44.5436 92.361 44.4676 92.361 44.4296 92.361C44.2776 92.3229 44.1636 92.361 44.1256 92.4752Z" fill="#8D3D35"/>
<path d="M112.727 101.73C112.461 101.73 112.233 101.73 112.005 101.769C111.283 101.807 110.485 101.997 109.724 102.226C109.002 102.454 108.318 102.797 107.71 103.254C107.026 103.711 106.38 104.358 105.62 105.273C105.05 105.996 104.518 106.796 103.871 107.901C103.453 108.662 102.997 109.5 102.579 110.452C102.465 110.072 102.351 109.653 102.199 109.272C102.123 109.043 101.895 108.891 101.629 108.891C101.553 108.891 101.477 108.891 101.401 108.929C101.249 108.967 101.135 109.119 101.059 109.234C100.983 109.386 100.983 109.538 101.059 109.691C101.363 110.567 101.629 111.366 101.819 112.128C102.085 113.347 102.199 114.452 102.199 115.518V115.594V115.67C102.123 116.432 102.009 117.232 101.781 117.994L101.743 118.146C101.705 118.298 101.667 118.451 101.743 118.603C101.781 118.679 101.819 118.755 101.895 118.832C102.085 119.593 102.275 120.279 102.503 120.85C102.731 121.46 103.035 122.107 103.415 122.754C104.023 123.821 104.86 124.773 105.81 125.535C106.684 126.22 107.71 126.754 108.888 127.096C109.724 127.363 110.675 127.477 111.701 127.477C111.891 127.477 112.043 127.477 112.233 127.477C113.335 127.439 114.475 127.211 115.654 126.83C116.756 126.449 117.82 125.916 118.884 125.268C120.974 123.935 122.685 122.069 123.825 119.86C124.471 118.603 124.927 117.156 125.117 115.746C125.231 115.023 125.231 114.223 125.193 113.385C125.155 112.623 125.041 111.824 124.813 110.909C124.775 110.757 124.623 110.643 124.509 110.567C124.471 110.567 124.433 110.529 124.433 110.529C124.395 110.376 124.281 110.262 124.129 110.186C123.825 110.033 123.521 109.881 123.255 109.691C122.343 109.119 121.431 108.358 120.594 107.482C120.024 106.872 119.492 106.187 118.998 105.463C118.808 104.968 118.542 104.473 118.2 104.054C118.086 103.901 117.972 103.787 117.858 103.635L117.744 103.444L117.706 103.406L117.744 103.444C117.744 103.444 117.706 103.406 117.744 103.406V103.368C117.668 103.216 117.592 103.102 117.44 103.025C117.364 102.987 117.288 102.949 117.174 102.949C116.946 102.835 116.756 102.721 116.566 102.606C115.996 102.264 115.273 102.035 114.475 101.845C113.829 101.769 113.297 101.73 112.727 101.73Z" fill="#9A4339"/>
<path d="M112.005 101.73C111.245 101.769 110.485 101.959 109.724 102.188C109.002 102.416 108.318 102.759 107.71 103.216C107.026 103.673 106.342 104.32 105.62 105.234C105.05 105.958 104.517 106.758 103.871 107.862C103.415 108.662 102.997 109.5 102.579 110.414C102.503 109.995 102.351 109.576 102.199 109.234C102.123 109.005 101.857 108.815 101.591 108.815C101.515 108.815 101.439 108.815 101.363 108.853C101.211 108.929 101.097 109.043 101.021 109.196C100.945 109.348 100.945 109.538 101.021 109.691C101.325 110.567 101.591 111.366 101.781 112.128C101.971 112.966 102.085 113.728 102.123 114.49C102.313 114.49 102.503 114.452 102.693 114.413C103.757 114.299 104.86 114.109 105.886 113.842H105.848C106.798 113.614 107.748 113.309 108.66 112.928C109.534 112.585 110.409 112.166 111.245 111.709C112.005 111.29 112.727 110.833 113.373 110.3C114.057 109.805 114.665 109.234 115.273 108.662C115.843 108.091 116.414 107.482 116.908 106.834C117.402 106.187 117.858 105.539 118.276 104.854C118.352 104.739 118.39 104.663 118.466 104.549C118.352 104.358 118.238 104.206 118.124 104.054C118.01 103.901 117.896 103.749 117.782 103.635L117.668 103.444L117.592 103.368C117.516 103.178 117.44 103.064 117.288 102.987C117.212 102.949 117.098 102.911 117.022 102.911C116.87 102.835 116.756 102.759 116.642 102.683L116.414 102.568C115.843 102.226 115.159 101.997 114.323 101.807C113.829 101.73 113.297 101.654 112.765 101.654C112.499 101.692 112.233 101.73 112.005 101.73Z" fill="#8D3D35"/>
<path d="M122.115 168.078C120.481 168.42 118.922 168.954 117.44 169.639C115.92 170.325 114.475 171.239 113.183 172.305C111.853 173.41 110.637 174.705 109.573 176.228C108.698 177.485 107.862 179.009 107.178 180.646C107.102 180.456 107.026 180.304 106.912 180.113C106.798 179.885 106.57 179.77 106.342 179.77C106.266 179.77 106.152 179.808 106.076 179.808C105.924 179.885 105.81 179.999 105.734 180.151C105.696 180.304 105.696 180.456 105.772 180.608C107.824 184.722 110.333 188.568 113.259 192.072C116.072 195.424 119.302 198.547 122.951 201.366C129.792 206.66 138.078 210.735 146.933 213.135C153.356 214.887 160.083 215.801 166.849 215.801C169.205 215.801 171.599 215.686 173.918 215.458C178.403 215.039 182.925 214.201 187.296 212.944C189.463 212.335 191.629 211.573 193.757 210.735C196.456 209.669 199.192 208.374 202.081 206.85C204.475 205.593 206.87 204.146 209.264 202.584C209.454 201.556 209.568 200.528 209.606 199.461V199.499C209.606 198.661 209.606 197.785 209.492 196.948C209.378 196.072 209.226 195.234 209.036 194.396C209.036 194.434 209.036 194.434 209.036 194.434C208.846 193.71 208.656 193.025 208.39 192.339C208.124 191.692 207.82 191.044 207.516 190.435C207.212 189.901 206.908 189.406 206.528 188.911C203.601 189.635 200.484 190.054 197.254 190.206C196.456 190.244 195.696 190.244 194.936 190.244C193.491 190.244 192.085 190.206 190.755 190.054C188.816 189.901 186.726 189.559 184.636 189.102C181.747 188.454 178.859 187.54 175.818 186.283C173.234 185.217 170.497 183.922 167.457 182.322C164.758 180.875 162.098 179.313 160.045 178.133L158.677 177.333C157.271 176.495 155.865 175.657 154.42 174.857C151.114 173.105 147.693 171.582 144.235 170.363C140.396 169.03 136.633 168.116 133.023 167.659C131.388 167.468 129.83 167.354 128.31 167.354C126.144 167.43 124.053 167.659 122.115 168.078Z" fill="#D77EAE"/>
<path d="M120.632 168.04C119.112 168.382 117.63 168.839 116.262 169.449C116.68 170.134 117.098 170.82 117.554 171.505C118.314 172.648 119.15 173.753 119.986 174.857C121.545 176.8 123.255 178.666 125.079 180.38C126.866 182.094 128.766 183.655 130.742 185.141C135.683 188.797 141.118 191.73 146.819 193.977H146.781C150.088 195.272 153.508 196.338 157.005 197.1C158.639 197.481 160.273 197.747 161.908 198.014C163.542 198.281 165.138 198.471 166.773 198.661C166.773 198.661 166.773 198.661 166.811 198.661C166.811 198.661 166.811 198.661 166.849 198.661C171.029 199.08 175.286 199.309 179.505 199.195C183.837 199.119 188.208 198.738 192.503 198.052C192.465 198.052 192.465 198.052 192.465 198.052C197.634 197.214 202.727 195.881 207.554 193.901C207.402 193.329 207.212 192.796 207.022 192.339C206.755 191.653 206.451 191.006 206.147 190.435C205.843 189.901 205.539 189.406 205.159 188.911C202.195 189.635 199.078 190.054 195.848 190.206C195.049 190.244 194.289 190.244 193.529 190.244C192.047 190.244 190.641 190.206 189.348 190.054C187.372 189.901 185.32 189.559 183.229 189.102C180.341 188.454 177.452 187.54 174.412 186.283C171.789 185.217 169.053 183.922 166.05 182.322C163.466 180.951 160.958 179.504 158.639 178.133L157.271 177.333C156.055 176.571 154.496 175.657 153.014 174.857C149.708 173.067 146.287 171.582 142.828 170.363C138.99 169.03 135.227 168.116 131.616 167.659C129.982 167.468 128.386 167.354 126.904 167.354C124.699 167.43 122.609 167.621 120.632 168.04Z" fill="#D77EAE"/>
<path d="M123.711 176.571C123.559 176.647 123.445 176.762 123.407 176.914C123.369 177.066 123.369 177.257 123.445 177.371C124.471 178.895 125.573 180.342 126.865 181.675C128.158 183.046 129.526 184.303 131.008 185.484C134.049 187.921 137.393 189.902 140.89 191.578C144.462 193.33 148.225 194.701 152.026 195.843C155.788 196.948 159.589 197.824 163.428 198.471C165.252 198.776 167.038 199.043 168.863 199.233C170.877 199.462 172.853 199.614 174.868 199.69C179.809 199.957 184.787 199.919 189.69 199.423C192.883 199.119 196.113 198.624 199.23 197.862C200.788 197.481 202.347 197.062 203.867 196.529C204.589 196.3 205.349 196.034 206.071 195.729C206.907 195.424 207.743 195.043 208.542 194.701C208.846 194.586 208.96 194.167 208.808 193.901C208.656 193.596 208.314 193.482 208.01 193.634C207.325 193.939 206.641 194.244 205.919 194.51C205.273 194.777 204.589 195.005 203.905 195.234C198.356 197.1 192.541 198.052 186.726 198.433H186.878C181.975 198.738 177.034 198.662 172.169 198.281C168.521 198.014 164.91 197.519 161.337 196.834C160.881 196.757 160.425 196.643 159.969 196.567C160.007 196.567 160.083 196.605 160.121 196.605C153.204 195.158 146.401 193.025 140.054 189.826C136.443 187.959 132.984 185.75 129.944 183.046L129.982 183.084C129.944 183.046 129.944 183.046 129.906 183.008L129.868 182.97C129.868 182.97 129.868 182.97 129.906 183.008C127.854 181.142 125.991 179.085 124.433 176.762C124.471 176.8 124.471 176.838 124.509 176.876C124.471 176.838 124.471 176.8 124.433 176.8C124.357 176.647 124.243 176.571 124.091 176.495C124.015 176.457 123.977 176.457 123.901 176.457C123.901 176.495 123.787 176.533 123.711 176.571ZM140.168 189.902C140.168 189.902 140.206 189.902 140.206 189.94C140.206 189.902 140.206 189.902 140.168 189.902ZM204.095 195.234L203.981 195.272C204.019 195.272 204.057 195.272 204.095 195.234ZM129.982 183.084C129.982 183.046 129.982 183.084 129.982 183.084Z" fill="#FAEEDB"/>
<path d="M180.949 130.524C180.189 130.638 179.391 130.791 178.669 130.981H178.707C177.947 131.171 177.225 131.438 176.503 131.743C175.819 132.047 175.134 132.352 174.488 132.733C174.488 132.733 174.45 132.733 174.45 132.771C174.222 132.885 173.994 133.038 173.804 133.19C173.804 133.228 173.766 133.266 173.766 133.304C173.158 136.656 173.158 140.122 173.158 143.474C173.158 144.083 173.158 144.73 173.158 145.34V145.187C173.158 145.835 173.12 146.482 173.12 147.13V148.311C173.12 149.263 173.082 150.253 172.816 151.243C172.702 151.624 172.55 152.005 172.36 152.31C172.208 152.576 172.018 152.843 171.79 153.071C171.562 153.3 171.296 153.49 171.03 153.681C170.764 153.833 170.46 153.947 170.156 154.062C169.738 154.176 169.319 154.214 168.825 154.214C168.103 154.214 167.343 154.1 166.507 153.871C165.063 153.452 163.618 152.805 162.098 151.929C161.528 151.586 160.92 151.205 160.312 150.786C160.198 150.71 160.084 150.672 159.932 150.672C159.742 150.672 159.59 150.748 159.476 150.901C159.362 151.015 159.324 151.205 159.362 151.396C159.4 151.548 159.476 151.7 159.59 151.777C159.78 151.929 159.97 152.043 160.16 152.157C160.084 152.157 159.97 152.157 159.894 152.157C159.552 152.157 159.172 152.157 158.83 152.195C157.651 152.272 156.549 152.5 155.675 152.653C154.649 152.881 153.585 153.148 152.444 153.49C148.188 154.785 144.083 156.918 140.586 159.699C139.75 160.346 138.914 161.108 138.078 161.908C137.356 162.631 136.786 163.241 136.33 163.812C135.874 164.421 135.418 165.069 134.923 165.945C134.505 166.707 134.087 167.506 133.745 168.382C133.403 169.22 133.137 170.096 132.909 171.01C132.719 171.886 132.605 172.762 132.567 173.6C132.567 174.057 132.605 174.476 132.643 174.857C132.681 175.2 132.757 175.543 132.833 175.886C132.301 175.467 131.769 175.086 131.237 174.667C131.123 174.591 131.009 174.553 130.857 174.553C130.667 174.553 130.477 174.629 130.363 174.781C130.249 174.895 130.211 175.086 130.249 175.238C130.287 175.39 130.363 175.543 130.477 175.619C131.389 176.305 132.263 176.952 133.175 177.638L134.163 178.361L134.315 178.514C134.429 178.628 134.543 178.704 134.695 178.742C135.608 179.428 136.558 180.113 137.47 180.799C140.624 183.084 143.285 184.912 145.869 186.55C149.176 188.645 152.216 190.359 155.143 191.806C158.488 193.444 161.604 194.586 164.683 195.348C167.077 195.957 169.395 196.262 171.562 196.262C172.36 196.262 173.158 196.224 173.956 196.148C175.439 195.995 176.921 195.653 178.327 195.119C179.733 194.624 181.101 193.901 182.432 192.987C185.13 191.158 187.525 188.378 189.539 184.798C191.325 181.599 192.617 177.828 193.34 173.6C193.986 169.906 194.176 165.945 193.948 161.451C193.758 157.68 193.226 153.795 192.389 149.491C192.123 148.196 191.819 146.825 191.515 145.454C191.173 143.969 190.717 142.179 190.223 140.35C189.159 136.427 188.057 133.495 186.688 130.867C186.156 130.753 185.662 130.638 185.13 130.562C184.522 130.486 183.952 130.448 183.344 130.448H183.382H183.306C182.546 130.372 181.748 130.41 180.949 130.524Z" fill="#D77EAE"/>
<path d="M178.631 130.981C177.871 131.171 177.149 131.438 176.465 131.705C175.743 132.009 175.096 132.314 174.45 132.695C174.184 132.847 173.956 133 173.766 133.114C173.728 133.152 173.728 133.19 173.728 133.228C173.12 136.58 173.12 140.046 173.12 143.397C173.12 144.007 173.12 144.654 173.12 145.264L173.158 145.111C173.12 145.606 173.082 146.063 173.082 146.559V147.054V148.234C173.082 149.187 173.044 150.215 172.778 151.167C172.664 151.548 172.512 151.929 172.322 152.233C172.17 152.5 171.98 152.767 171.752 152.995C171.524 153.224 171.296 153.414 170.992 153.605C170.726 153.757 170.422 153.871 170.118 153.985C169.737 154.1 169.281 154.138 168.787 154.138C168.065 154.138 167.305 154.024 166.469 153.795C165.025 153.376 163.618 152.729 162.06 151.853C161.49 151.51 160.92 151.129 160.274 150.71C160.16 150.634 160.008 150.596 159.894 150.596C159.704 150.596 159.514 150.672 159.4 150.824C159.286 150.977 159.248 151.167 159.286 151.319C159.324 151.472 159.4 151.624 159.514 151.7C159.704 151.853 159.894 151.967 160.084 152.081C160.008 152.043 159.894 152.043 159.818 152.043C159.476 152.043 159.096 152.043 158.754 152.081C157.613 152.157 156.511 152.348 155.599 152.538C154.535 152.767 153.471 153.033 152.368 153.376C149.328 154.328 146.363 155.661 143.627 157.375C145.451 158.365 147.314 159.28 149.252 160.079H149.214C153.205 161.755 157.347 163.088 161.642 163.736C161.604 163.736 161.604 163.736 161.604 163.736C164.075 164.117 166.621 164.231 169.129 163.926H169.091C169.852 163.812 170.612 163.698 171.372 163.507C172.018 163.355 172.664 163.164 173.272 162.898C173.272 162.898 173.234 162.898 173.234 162.936C174.032 162.593 174.792 162.174 175.476 161.679C176.161 161.146 176.769 160.536 177.263 159.851C177.947 158.975 178.479 157.985 178.897 156.994C178.897 156.994 178.897 156.994 178.897 157.032C178.897 157.032 178.897 157.032 178.897 156.994C179.657 155.204 180.113 153.262 180.379 151.319C180.379 151.357 180.379 151.357 180.379 151.357C180.759 148.729 180.835 146.063 180.759 143.435C180.683 140.693 180.455 137.951 180.113 135.209V135.247C179.923 133.761 179.733 132.238 179.505 130.752C179.201 130.829 178.935 130.905 178.631 130.981ZM149.214 160.041C149.252 160.041 149.252 160.079 149.214 160.041C149.252 160.079 149.252 160.041 149.214 160.041Z" fill="#D77EAE"/>
<path d="M179.732 130.714C179.694 130.714 179.694 130.714 179.732 130.714C179.732 130.752 179.732 130.829 179.732 130.867C180.645 134.104 181.329 137.38 181.785 140.693C182.431 145.264 182.697 149.91 182.811 154.519C182.887 157.299 182.849 160.079 182.507 162.822V162.784C182.279 164.574 181.899 166.364 181.215 168.078C180.873 168.916 180.417 169.715 179.847 170.439C179.428 170.934 179.01 171.391 178.478 171.81C178.478 171.81 178.478 171.81 178.516 171.81L178.478 171.848L178.44 171.886C177.946 172.229 177.452 172.534 176.882 172.762C176.236 173.029 175.552 173.181 174.868 173.296C174.906 173.296 174.906 173.296 174.944 173.296C174.906 173.296 174.906 173.296 174.868 173.296C174.868 173.296 174.868 173.296 174.83 173.296C173.727 173.448 172.625 173.41 171.523 173.258C171.485 173.258 171.485 173.258 171.447 173.258C169.053 172.915 166.734 172.229 164.53 171.315C164.53 171.315 164.568 171.315 164.606 171.353C161.033 169.868 157.727 167.811 154.648 165.45C151.456 162.936 148.529 160.079 146.059 156.842C145.907 156.652 145.793 156.461 145.641 156.271C145.527 156.118 145.451 156.042 145.26 156.004C145.108 155.966 144.956 156.004 144.804 156.08C144.652 156.156 144.576 156.309 144.538 156.461C144.5 156.614 144.5 156.804 144.614 156.918C147.199 160.422 150.277 163.545 153.698 166.25C157.233 169.03 161.147 171.391 165.366 172.953C167.342 173.676 169.395 174.248 171.485 174.476C173.043 174.667 174.64 174.667 176.16 174.248C177.452 173.905 178.592 173.296 179.618 172.458C180.569 171.658 181.291 170.591 181.861 169.525C183.153 167.049 183.609 164.193 183.837 161.451C184.103 158.556 184.027 155.661 183.951 152.729C183.723 145.264 182.925 137.76 180.873 130.562C180.493 130.6 180.113 130.676 179.732 130.714Z" fill="#FAEEDB"/>
<path d="M163.162 137.113C162.782 137.113 162.364 137.189 161.832 137.304C161.679 137.342 161.565 137.418 161.489 137.57C161.413 137.723 161.375 137.913 161.413 138.065C161.451 138.218 161.565 138.332 161.679 138.408C158.791 141.798 156.016 144.807 153.204 147.625C150.201 150.558 147.161 153.262 144.082 155.662C140.928 158.137 137.583 160.423 134.125 162.441C133.897 162.593 133.631 162.708 133.403 162.86C129.944 164.841 126.219 166.631 122.381 168.192C120.404 168.992 118.352 169.716 116.262 170.401C113.525 171.277 111.093 172.039 108.812 172.686C108.318 172.839 107.786 172.953 107.292 173.105C105.848 173.486 104.594 173.829 103.377 174.096C103.529 173.829 103.377 173.448 103.111 173.334C103.035 173.296 102.921 173.258 102.807 173.258C102.769 173.258 102.693 173.258 102.655 173.296C102.503 173.334 102.389 173.41 102.275 173.601C101.781 174.362 101.477 175.162 101.363 175.962C101.287 176.648 101.401 177.409 101.667 178.095C102.161 179.39 103.149 180.494 104.746 181.675C106 182.551 107.406 183.237 108.964 183.732C109.876 183.998 110.827 184.151 111.625 184.265C112.689 184.417 113.829 184.493 115.007 184.493H115.121C117.212 184.493 119.416 184.265 121.887 183.77C124.015 183.351 126.219 182.741 128.652 181.942C130.628 181.294 132.68 180.494 134.923 179.504C136.595 178.78 138.229 177.981 139.826 177.181C143.246 175.429 146.515 173.486 149.517 171.353C152.9 168.992 155.902 166.44 158.411 163.85C161.223 160.956 163.466 157.909 165.062 154.786C165.898 153.148 166.62 151.434 167.114 149.682C167.38 148.844 167.57 147.968 167.761 147.016C167.913 146.14 167.989 145.454 168.027 144.807C168.027 143.893 167.951 142.941 167.723 141.988C167.494 140.998 167.152 140.122 166.696 139.36C166.354 138.789 165.708 138.027 164.758 137.57C164.454 137.304 163.998 137.189 163.428 137.113C163.352 137.113 163.238 137.113 163.162 137.113Z" fill="#6EB2AE"/>
<path d="M105.506 175.353C105.354 175.391 105.202 175.467 105.126 175.619C105.05 175.771 105.012 175.886 105.05 176.076C105.24 178.78 107.026 181.18 109.269 182.627C109.535 182.818 109.915 182.741 110.105 182.437C110.295 182.17 110.219 181.789 109.915 181.599C109.573 181.37 109.269 181.142 108.927 180.913C108.357 180.418 107.863 179.885 107.444 179.275C107.064 178.704 106.76 178.133 106.532 177.523C106.342 176.99 106.266 176.457 106.228 175.886C106.228 175.733 106.076 175.581 105.962 175.505C105.848 175.429 105.734 175.391 105.62 175.391C105.582 175.353 105.544 175.353 105.506 175.353ZM106.57 177.523C106.57 177.562 106.57 177.562 106.608 177.6C106.57 177.562 106.57 177.562 106.57 177.523Z" fill="#39506C"/>
<path d="M112.766 176C112.462 176.076 112.234 176.381 112.31 176.723C112.766 178.894 113.868 180.837 115.35 182.475C115.578 182.703 115.958 182.741 116.186 182.513C116.414 182.284 116.452 181.903 116.224 181.675C115.806 181.218 115.426 180.761 115.084 180.266C114.552 179.466 114.134 178.628 113.792 177.752C113.64 177.333 113.526 176.952 113.45 176.533C113.374 176.266 113.146 176.038 112.842 176.038C112.842 175.962 112.804 176 112.766 176Z" fill="#39506C"/>
<path d="M119.227 174.705C118.922 174.857 118.846 175.2 118.96 175.505C119.797 177.485 120.899 179.39 122.419 180.913C122.647 181.142 123.027 181.18 123.255 180.951C123.483 180.723 123.521 180.342 123.293 180.113C122.723 179.542 122.191 178.895 121.735 178.209L121.811 178.323C121.089 177.257 120.481 176.114 119.987 174.934C119.911 174.705 119.683 174.591 119.455 174.591C119.417 174.667 119.303 174.667 119.227 174.705Z" fill="#39506C"/>
<path d="M126.752 172.191C126.448 172.343 126.372 172.686 126.486 172.991C126.942 174.057 127.512 175.047 128.158 175.962C128.842 176.914 129.678 177.79 130.591 178.513C130.705 178.628 130.895 178.628 131.047 178.59C131.199 178.551 131.351 178.475 131.427 178.323C131.503 178.209 131.541 178.018 131.503 177.866C131.465 177.675 131.389 177.599 131.237 177.485C131.161 177.409 131.085 177.371 131.009 177.295C131.009 177.295 131.009 177.295 131.047 177.333C131.047 177.333 131.009 177.333 131.009 177.295C130.971 177.256 130.933 177.256 130.933 177.218C130.971 177.256 131.009 177.256 131.009 177.295C130.173 176.571 129.45 175.771 128.842 174.857C128.348 174.095 127.892 173.257 127.55 172.419C127.474 172.191 127.246 172.077 127.018 172.077C126.942 172.115 126.828 172.153 126.752 172.191Z" fill="#39506C"/>
<path d="M134.277 170.096C134.163 170.211 134.087 170.363 134.087 170.515C134.087 170.706 134.125 170.82 134.239 170.972C135.379 172.572 136.519 174.172 137.698 175.733C137.888 176 138.306 176 138.534 175.771C138.648 175.657 138.724 175.505 138.724 175.352C138.724 175.162 138.686 175.048 138.572 174.895C137.393 173.334 136.253 171.734 135.151 170.134C135.075 170.02 134.885 169.944 134.733 169.944H134.695C134.543 169.906 134.391 169.982 134.277 170.096Z" fill="#39506C"/>
<path d="M140.434 165.678C140.168 165.907 140.168 166.288 140.396 166.516C141.802 168.192 143.247 169.83 144.577 171.62C144.767 171.886 145.185 171.848 145.413 171.658C145.527 171.544 145.603 171.391 145.603 171.239C145.603 171.048 145.565 170.934 145.451 170.782C144.159 169.03 142.676 167.392 141.27 165.678C141.156 165.526 141.004 165.488 140.814 165.488C140.7 165.526 140.548 165.564 140.434 165.678Z" fill="#39506C"/>
<path d="M146.895 161.26C146.705 161.565 146.819 161.908 147.085 162.098C147.313 162.251 147.503 162.441 147.731 162.593C148.681 163.393 149.518 164.345 150.202 165.336C150.43 165.64 150.62 165.983 150.81 166.326C150.962 166.631 151.304 166.745 151.608 166.592C151.874 166.44 152.026 166.059 151.874 165.793C151.342 164.917 150.772 164.041 150.088 163.279C149.404 162.479 148.605 161.755 147.731 161.108C147.655 161.032 147.541 160.994 147.427 160.994C147.237 160.994 147.009 161.108 146.895 161.26Z" fill="#39506C"/>
<path d="M151.912 155.814C151.874 155.966 151.874 156.119 151.95 156.271C152.026 156.423 152.14 156.5 152.292 156.576C152.368 156.614 152.444 156.652 152.52 156.69C153.204 157.033 153.812 157.414 154.382 157.909C155.066 158.518 155.674 159.166 156.168 159.927C156.32 160.156 156.472 160.384 156.624 160.613C156.777 160.918 157.119 161.032 157.423 160.88C157.689 160.727 157.841 160.346 157.689 160.08C157.119 159.089 156.434 158.175 155.598 157.376C154.724 156.538 153.736 155.89 152.634 155.433C152.558 155.395 152.52 155.395 152.444 155.395C152.216 155.395 151.988 155.585 151.912 155.814Z" fill="#39506C"/>
<path d="M156.017 149.986C155.903 150.291 156.093 150.672 156.397 150.748C156.815 150.862 157.195 151.015 157.575 151.167C158.183 151.472 158.715 151.815 159.209 152.233C159.779 152.729 160.312 153.3 160.806 153.947C160.996 154.214 161.414 154.214 161.642 153.985C161.908 153.757 161.87 153.376 161.68 153.148C160.426 151.51 158.753 150.139 156.739 149.605C156.663 149.605 156.625 149.567 156.549 149.567C156.359 149.605 156.093 149.72 156.017 149.986Z" fill="#39506C"/>
<path d="M159.855 144.654C159.703 144.73 159.589 144.845 159.551 144.997C159.513 145.149 159.513 145.302 159.589 145.454C159.665 145.568 159.779 145.721 159.931 145.759C160.425 145.873 160.882 146.025 161.338 146.216C161.794 146.444 162.25 146.711 162.63 147.054C163.048 147.435 163.39 147.816 163.732 148.273C163.808 148.425 163.922 148.539 163.998 148.692C164.15 148.996 164.492 149.11 164.796 148.958C165.062 148.806 165.214 148.425 165.062 148.158C164.834 147.739 164.53 147.32 164.226 146.94C163.884 146.559 163.504 146.178 163.086 145.873C162.288 145.226 161.3 144.807 160.273 144.578C160.197 144.578 160.121 144.54 160.083 144.54C160.007 144.578 159.931 144.616 159.855 144.654ZM162.592 147.054L162.63 147.092L162.592 147.054ZM162.668 147.092C162.706 147.13 162.706 147.13 162.744 147.168C162.706 147.13 162.668 147.092 162.668 147.092Z" fill="#39506C"/>
<path d="M161.338 139.894C161.224 140.236 161.414 140.541 161.718 140.655C161.984 140.77 162.288 140.884 162.554 140.998L162.402 140.922C163.086 141.265 163.771 141.646 164.379 142.141C164.797 142.522 165.215 142.941 165.519 143.398C165.595 143.512 165.785 143.588 165.937 143.588C166.089 143.588 166.279 143.55 166.393 143.436C166.507 143.321 166.583 143.169 166.583 143.017C166.583 142.826 166.545 142.712 166.431 142.56C165.367 141.074 163.809 140.084 162.136 139.437C162.06 139.398 162.022 139.398 161.946 139.398C161.642 139.475 161.414 139.665 161.338 139.894Z" fill="#39506C"/>
<path d="M181.481 71.413C181.367 71.4511 181.291 71.5273 181.215 71.6035C181.139 71.6415 181.063 71.7177 181.025 71.7939C179.353 74.6123 177.3 77.2784 174.982 79.6779C171.637 83.1057 167.57 86.2289 162.554 89.2377C158.677 91.5229 154.648 93.5035 151.57 94.9889C150.201 95.6363 148.795 96.2838 147.389 96.9313L145.603 97.7692L143.626 98.6833C141.992 99.445 140.358 100.207 138.685 100.969C134.011 103.101 129.032 105.272 123.749 106.91C124.243 109.043 124.357 111.29 124.205 113.461C124.167 114.07 124.129 114.68 124.053 115.289C123.977 115.746 123.939 116.241 123.825 116.698C123.635 117.574 123.407 118.412 123.065 119.25C122.723 120.012 122.343 120.774 121.849 121.459C121.354 122.145 120.784 122.792 120.176 123.326C119.492 123.935 118.77 124.468 117.972 124.887C117.136 125.344 116.262 125.763 115.387 126.03C114.513 126.296 113.639 126.487 112.727 126.563C111.891 126.639 111.017 126.601 110.18 126.449C108.584 126.182 107.026 125.535 105.734 124.544C105.088 124.049 104.479 123.516 103.947 122.868C103.681 122.526 103.415 122.183 103.149 121.802C102.921 121.459 102.731 121.117 102.541 120.736C102.161 119.974 101.857 119.136 101.629 118.298C101.515 117.841 101.439 117.384 101.363 116.927C101.325 116.698 101.325 116.432 101.287 116.203C100.489 116.432 99.6146 116.622 98.6645 116.775H98.5885C96.9162 117.003 95.2439 117.117 93.6856 117.194C92.4314 117.232 91.1011 117.27 89.8089 117.27H89.2768C86.3883 117.27 83.4998 117.079 80.6493 116.737L80.8014 116.775C75.0624 116.051 69.5894 114.642 64.5345 112.585L64.6866 112.661C59.9737 110.681 55.527 108.129 51.4602 105.006L51.5743 105.12C49.6359 103.597 47.7356 101.959 45.9493 100.169C45.8733 100.093 45.7593 100.016 45.6452 100.016C45.5312 99.9402 45.4552 99.9402 45.3032 99.9402C45.2652 99.9402 45.2272 99.9402 45.1892 99.9402C44.277 100.016 43.3648 100.245 42.2626 100.588C41.3125 100.892 40.3243 101.349 39.3361 101.883C37.2838 103.063 35.7255 104.511 34.7753 106.148C34.6993 106.263 34.6613 106.339 34.6613 106.453C34.6233 106.567 34.6233 106.682 34.6613 106.796C35.6495 110.452 37.5878 114.223 40.5904 118.336C43.0608 121.688 45.9873 124.925 49.5599 128.239C51.2322 129.8 52.8285 131.171 54.4628 132.39C56.2111 133.761 58.0734 135.018 59.9737 136.199C63.7364 138.522 67.8031 140.427 72.0598 141.912C75.6705 143.169 79.3951 144.083 83.1958 144.616C85.0961 144.883 87.0344 145.073 88.9348 145.149C89.5429 145.187 90.151 145.187 90.7591 145.187C92.0133 145.187 93.1535 145.111 94.2177 144.997C93.9136 148.691 94.1417 152.653 94.8638 156.766C95.6619 161.108 96.9542 165.221 98.7025 168.954C99.7667 171.239 100.983 173.296 102.275 175.124C102.541 175.238 102.769 175.352 103.035 175.467C105.886 176.419 109.04 176.876 112.347 176.876C113.373 176.876 114.437 176.838 115.501 176.762C119.568 176.419 123.901 175.429 128.348 173.829C132.3 172.42 136.215 170.553 139.94 168.344C143.626 166.135 147.085 163.583 150.163 160.765C153.356 157.87 156.092 154.633 158.297 151.167C159.437 149.415 160.425 147.549 161.299 145.606C161.679 144.73 162.212 143.55 162.592 142.331C162.972 141.15 163.238 139.97 163.314 138.789C163.39 138.636 163.428 138.408 163.428 138.179C163.39 138.103 163.314 138.027 163.238 137.989C160.349 136.275 157.613 134.295 155.066 132.047L154.99 132.009C152.672 129.953 150.544 127.706 148.719 125.382C150.81 124.887 153.014 124.125 155.446 123.097C157.575 122.183 159.665 121.193 161.641 120.088C165.138 118.146 168.521 115.822 171.637 113.194C177.566 108.167 182.659 101.921 186.764 94.6461C189.918 89.0854 192.389 83.0676 194.175 76.669C194.251 76.4405 194.213 76.2501 194.061 76.0977C194.061 76.0596 194.023 76.0216 194.023 75.9835C193.377 75.1456 192.579 74.3838 191.629 73.6982C190.64 72.9746 189.538 72.4033 188.398 71.9462C187.182 71.4511 186.004 71.1845 184.825 71.0702C184.559 71.0322 184.255 71.0322 183.989 71.0322C183.077 70.9941 182.241 71.1464 181.481 71.413ZM159.703 137.189C160.501 137.761 161.337 138.256 162.174 138.789V138.827C161.337 138.256 160.501 137.722 159.703 137.189Z" fill="#F3C24C"/>
<path d="M122.191 107.367C122.039 107.405 121.887 107.558 121.849 107.71V107.748C121.887 108.167 121.887 108.586 121.925 109.043C121.925 109.043 121.925 109.043 121.925 109.081C122.039 109.652 122.153 110.224 122.229 110.795C122.343 112.09 122.305 113.347 122.077 114.566C121.887 115.594 121.583 116.622 121.165 117.613C120.708 118.641 120.1 119.593 119.416 120.469C118.732 121.307 117.934 122.069 117.06 122.716C116.224 123.288 115.35 123.783 114.437 124.125C113.563 124.43 112.689 124.659 111.777 124.735C111.511 124.735 111.245 124.773 110.979 124.773C110.447 124.773 109.953 124.735 109.459 124.659C108.774 124.544 108.128 124.354 107.482 124.087C106.912 123.821 106.304 123.478 105.772 123.021C105.278 122.602 104.822 122.107 104.404 121.612C104.138 121.269 103.91 120.888 103.72 120.507C103.453 120.088 103.225 119.631 103.035 119.174C102.921 118.869 102.769 118.565 102.693 118.222L102.617 118.032C102.617 118.032 102.617 118.032 102.617 117.993C102.465 117.536 102.275 117.117 102.199 116.66C102.161 116.508 102.123 116.394 102.123 116.241C102.047 116.203 101.933 116.165 101.819 116.165C101.743 116.165 101.705 116.165 101.667 116.203C101.097 116.356 100.527 116.508 99.8809 116.66C99.8809 117.27 99.8809 117.879 99.9569 118.489V118.527C100.033 119.174 100.147 119.822 100.299 120.469C100.451 121.079 100.641 121.688 100.869 122.297C100.869 122.297 100.869 122.259 100.831 122.259C101.059 122.831 101.287 123.364 101.591 123.897C101.857 124.354 102.161 124.811 102.465 125.268C102.769 125.649 103.073 126.03 103.415 126.373C103.72 126.677 104.062 126.982 104.404 127.249C104.404 127.249 104.404 127.249 104.366 127.249C104.708 127.515 105.012 127.744 105.392 127.972C105.772 128.201 106.114 128.391 106.532 128.582L106.494 128.544C106.912 128.734 107.368 128.886 107.824 129.039C108.242 129.153 108.698 129.267 109.154 129.343C109.116 129.343 109.116 129.343 109.116 129.343C109.801 129.458 110.485 129.496 111.169 129.534C111.891 129.534 112.575 129.534 113.297 129.458H113.259C114.019 129.381 114.741 129.267 115.502 129.077C116.224 128.886 116.946 128.658 117.668 128.391C117.668 128.391 117.63 128.391 117.63 128.429C118.2 128.201 118.77 127.934 119.34 127.629C119.834 127.363 120.328 127.02 120.785 126.677C121.203 126.373 121.583 126.03 121.963 125.649C122.305 125.306 122.647 124.925 122.951 124.544C123.331 124.049 123.673 123.554 124.015 123.021C124.319 122.488 124.623 121.916 124.889 121.345C125.231 120.545 125.535 119.707 125.801 118.869C126.029 118.032 126.219 117.194 126.371 116.356V116.394C126.752 113.918 126.79 111.404 126.524 108.891V108.929C126.447 108.053 126.295 107.177 126.105 106.301C124.623 106.605 123.407 107.024 122.191 107.367Z" fill="#6EB2AE"/>
<path d="M45.1892 99.978C44.277 100.054 43.3268 100.283 42.2626 100.626C41.3125 100.93 40.3243 101.387 39.3361 101.92C37.2838 103.101 35.7255 104.548 34.7753 106.186C34.6993 106.262 34.6613 106.377 34.6613 106.491C34.6233 106.605 34.6233 106.719 34.6613 106.834C35.0794 108.471 35.7255 110.147 36.5616 111.823C36.9037 111.366 37.2458 110.909 37.6258 110.49C38.766 109.195 40.0583 108.052 41.5025 107.062C42.9468 106.072 44.467 105.234 46.0633 104.587C47.1655 104.13 48.3057 103.711 49.4459 103.368C48.2297 102.301 47.0515 101.235 45.9493 100.168C45.8733 100.092 45.7593 100.016 45.6452 100.016C45.5692 99.9399 45.4552 99.9399 45.3032 99.9399C45.2652 99.9399 45.2272 99.9399 45.1892 99.978Z" fill="#6EB2AE"/>
<path d="M40.5912 118.412C43.0616 121.764 45.9881 125.001 49.5607 128.315C51.233 129.876 52.8293 131.209 54.4256 132.466C56.2119 133.837 58.0742 135.094 59.9366 136.275C63.6992 138.598 67.7659 140.503 72.0227 141.988C75.5953 143.245 79.3579 144.159 83.1586 144.692C85.0589 144.959 86.9973 145.149 88.8976 145.225C89.5057 145.264 90.1138 145.263 90.7219 145.263C91.9381 145.263 93.0403 145.225 94.1045 145.073C94.1045 144.73 94.1045 144.388 94.1425 144.007C94.1805 143.169 94.2565 142.369 94.4086 141.531C94.4086 141.493 94.4086 141.455 94.4466 141.417C92.6983 141.76 90.95 141.874 89.1636 141.836C87.1113 141.836 85.0589 141.683 83.0066 141.417C80.6502 141.112 78.3318 140.693 76.0514 140.122C73.771 139.55 71.5286 138.865 69.3622 138.027C64.9914 136.389 60.8107 134.294 56.934 131.743C55.0337 130.486 53.2094 129.115 51.4611 127.667C49.7508 126.258 48.1165 124.735 46.4822 123.211C43.7457 120.583 41.0853 117.841 38.4248 115.137C39.0329 116.241 39.755 117.308 40.5912 118.412Z" fill="#5B7EEC"/>
<path d="M189.463 83.8292C188.589 85.5812 187.601 87.257 186.498 88.8567C185.358 90.5325 184.142 92.1322 182.85 93.6937C180.227 96.8169 177.377 99.7115 174.298 102.378C171.334 104.967 168.217 107.405 164.949 109.652C163.466 110.681 161.946 111.671 160.388 112.585C159.59 113.08 158.754 113.575 157.917 114.032C156.853 114.642 155.789 115.213 154.725 115.784C150.468 118.031 146.021 119.974 141.309 121.002C141.347 121.04 141.347 121.04 141.347 121.078C141.613 122.335 141.955 123.554 142.411 124.735C142.829 125.839 143.285 126.906 143.779 127.934V127.972C144.387 129.229 145.109 130.41 145.869 131.59C146.668 132.809 147.504 133.99 148.34 135.17C149.176 136.313 150.012 137.456 150.848 138.636C151.608 139.741 152.331 140.883 153.015 142.064C154.079 143.969 154.953 145.949 155.485 148.044C155.751 149.11 155.941 150.215 156.055 151.319C156.169 152.271 156.207 153.224 156.207 154.214C156.967 153.224 157.651 152.233 158.298 151.205C159.438 149.453 160.426 147.587 161.3 145.644C161.68 144.768 162.212 143.588 162.592 142.369C162.972 141.226 163.238 140.007 163.314 138.827C163.428 138.636 163.428 138.408 163.428 138.179C163.39 138.103 163.314 138.027 163.238 137.989C160.35 136.275 157.575 134.256 155.067 132.047L154.991 132.009C152.635 129.914 150.544 127.705 148.72 125.382C150.772 124.925 152.977 124.163 155.447 123.097C157.575 122.183 159.666 121.193 161.642 120.088C165.139 118.146 168.521 115.822 171.638 113.194C177.567 108.167 182.66 101.921 186.765 94.6459C189.159 90.4563 191.173 85.924 192.808 81.1631C192.542 80.9346 192.313 80.7061 192.047 80.4776L191.895 80.3633C191.743 80.249 191.591 80.0967 191.439 79.9824L191.211 79.792C190.717 81.1631 190.109 82.5343 189.463 83.8292Z" fill="#5B7EEC"/>
<path d="M36.3342 105.425C35.9922 105.539 35.8781 105.882 35.9541 106.186C36.2202 107.139 36.6383 108.091 37.2464 108.891C37.4364 109.157 37.7785 109.271 38.0825 109.081C38.3486 108.929 38.4626 108.51 38.2726 108.243C38.0065 107.9 37.8165 107.558 37.6264 107.215C37.4364 106.758 37.2464 106.301 37.1324 105.844C37.0563 105.577 36.7903 105.425 36.5623 105.425C36.4482 105.387 36.3722 105.425 36.3342 105.425Z" fill="#39506C"/>
<path d="M38.5388 103.711C38.4248 103.787 38.3107 103.939 38.2727 104.092C38.2347 104.244 38.2727 104.396 38.3487 104.549C38.7288 105.272 39.1469 105.958 39.603 106.567C39.793 106.834 40.135 106.948 40.4391 106.758C40.7051 106.567 40.8192 106.186 40.6291 105.92C40.135 105.272 39.717 104.587 39.3749 103.901C39.2989 103.787 39.1469 103.673 38.9949 103.635C38.9568 103.635 38.9188 103.635 38.8808 103.635C38.7288 103.596 38.6148 103.635 38.5388 103.711Z" fill="#39506C"/>
<path d="M41.4654 102.073C41.1613 102.263 41.1233 102.606 41.2753 102.911C41.6174 103.558 41.9975 104.168 42.4155 104.777C42.6056 105.044 42.9856 105.12 43.2517 104.968C43.5177 104.777 43.5937 104.396 43.4417 104.13C43.0616 103.52 42.6816 102.911 42.3015 102.263C42.1875 102.073 41.9975 101.997 41.8074 101.997C41.6934 101.959 41.5794 101.997 41.4654 102.073Z" fill="#39506C"/>
<path d="M44.163 101.311C43.897 101.502 43.821 101.883 43.973 102.149C44.3531 102.721 44.8091 103.254 45.3412 103.711C45.5693 103.939 45.9873 103.901 46.1774 103.673C46.4054 103.444 46.3674 103.025 46.1394 102.835C45.9113 102.644 45.6833 102.416 45.4933 102.187C45.3032 101.959 45.1512 101.73 44.9992 101.502C44.8852 101.311 44.6951 101.235 44.5051 101.235C44.3911 101.197 44.277 101.235 44.163 101.311ZM45.5313 102.187C45.5313 102.225 45.5693 102.225 45.5693 102.264C45.5693 102.225 45.5313 102.225 45.5313 102.187Z" fill="#39506C"/>
<path d="M101.401 118.565C101.211 118.565 101.059 118.565 100.869 118.565C100.527 118.527 100.261 118.87 100.261 119.174C100.261 119.327 100.337 119.479 100.451 119.593C100.565 119.708 100.717 119.746 100.869 119.784C101.135 119.822 101.401 119.784 101.705 119.746C101.857 119.708 102.009 119.593 102.085 119.479C102.161 119.327 102.199 119.174 102.161 119.022C102.123 118.87 102.009 118.755 101.895 118.679C101.781 118.603 101.705 118.603 101.591 118.603C101.477 118.565 101.439 118.565 101.401 118.565Z" fill="#39506C"/>
<path d="M102.351 121.04C102.123 121.231 101.895 121.383 101.629 121.497C101.325 121.65 101.249 122.069 101.401 122.335C101.591 122.64 101.933 122.716 102.237 122.564C102.503 122.449 102.731 122.297 102.959 122.107C103.073 121.992 103.188 121.916 103.226 121.764C103.264 121.611 103.264 121.421 103.15 121.307C103.073 121.154 102.921 121.078 102.807 121.04C102.769 121.04 102.693 121.002 102.617 121.002C102.541 120.964 102.427 121.002 102.351 121.04Z" fill="#39506C"/>
<path d="M104.441 123.821C104.289 123.859 104.175 123.973 104.099 124.087C104.061 124.126 104.061 124.164 104.023 124.202L104.099 124.087C103.909 124.316 103.719 124.544 103.491 124.735C103.225 124.963 103.263 125.382 103.491 125.573C103.605 125.687 103.757 125.763 103.909 125.763C104.061 125.763 104.213 125.687 104.327 125.573C104.631 125.306 104.859 125.04 105.126 124.697C105.202 124.583 105.24 124.354 105.202 124.24C105.164 124.087 105.049 123.973 104.935 123.859C104.859 123.821 104.745 123.783 104.631 123.783C104.517 123.783 104.479 123.783 104.441 123.821Z" fill="#39506C"/>
<path d="M107.368 125.268C107.216 125.344 107.14 125.497 107.102 125.611C107.064 125.687 107.026 125.801 106.988 125.877C107.026 125.839 107.026 125.763 107.064 125.725C106.874 126.144 106.684 126.525 106.494 126.906C106.342 127.211 106.418 127.553 106.722 127.744C106.988 127.896 107.406 127.82 107.558 127.515C107.824 126.982 108.09 126.449 108.318 125.916C108.356 125.763 108.318 125.573 108.242 125.458C108.166 125.306 108.014 125.23 107.9 125.192C107.862 125.192 107.786 125.154 107.748 125.154C107.558 125.154 107.482 125.192 107.368 125.268Z" fill="#39506C"/>
<path d="M110.827 125.801C110.865 126.487 110.903 127.172 110.941 127.82C110.941 128.163 111.208 128.429 111.55 128.429C111.854 128.429 112.158 128.163 112.158 127.82C112.12 127.134 112.082 126.449 112.044 125.801C112.044 125.459 111.778 125.192 111.436 125.192C111.093 125.192 110.789 125.459 110.827 125.801Z" fill="#39506C"/>
<path d="M115.654 124.316C115.312 124.392 115.16 124.735 115.236 125.078C115.388 125.649 115.54 126.182 115.768 126.715C115.844 126.868 115.882 126.982 116.034 127.058C116.186 127.134 116.338 127.172 116.49 127.134C116.642 127.096 116.756 126.982 116.87 126.868C116.946 126.753 116.984 126.525 116.946 126.411C116.718 125.877 116.566 125.344 116.414 124.773C116.338 124.506 116.072 124.316 115.806 124.316C115.768 124.316 115.73 124.316 115.654 124.316Z" fill="#39506C"/>
<path d="M118.998 121.955C118.77 122.183 118.77 122.602 118.998 122.793C119.416 123.173 119.834 123.554 120.252 123.897C120.366 124.011 120.518 124.087 120.67 124.087C120.822 124.087 120.975 124.011 121.089 123.897C121.317 123.669 121.355 123.25 121.089 123.059C120.67 122.678 120.252 122.335 119.834 121.955C119.72 121.84 119.568 121.764 119.416 121.764C119.264 121.764 119.112 121.84 118.998 121.955Z" fill="#39506C"/>
<path d="M121.202 118.869C121.126 119.174 121.316 119.517 121.62 119.631C122.076 119.745 122.495 119.898 122.913 120.088C123.065 120.126 123.255 120.088 123.369 120.012C123.521 119.936 123.597 119.822 123.635 119.669C123.673 119.517 123.673 119.327 123.559 119.212C123.483 119.06 123.369 118.984 123.217 118.946C122.799 118.793 122.343 118.641 121.924 118.527C121.886 118.527 121.81 118.489 121.772 118.489C121.544 118.412 121.278 118.603 121.202 118.869Z" fill="#39506C"/>
<path d="M124.282 114.489C123.94 114.489 123.56 114.527 123.217 114.565C123.065 114.604 122.913 114.604 122.799 114.756C122.685 114.87 122.609 115.022 122.609 115.175C122.609 115.327 122.685 115.48 122.799 115.594C122.913 115.708 123.065 115.784 123.217 115.784C123.56 115.746 123.94 115.708 124.282 115.708C124.624 115.708 124.89 115.441 124.89 115.099C124.89 114.794 124.624 114.489 124.282 114.489Z" fill="#39506C"/>
<path d="M124.434 111.366C124.053 111.48 123.673 111.557 123.331 111.671C123.027 111.747 122.837 112.09 122.913 112.433C122.989 112.737 123.331 112.928 123.635 112.852C124.015 112.737 124.357 112.661 124.738 112.547C125.042 112.471 125.232 112.128 125.156 111.785C125.08 111.519 124.852 111.328 124.586 111.328C124.51 111.366 124.472 111.366 124.434 111.366Z" fill="#39506C"/>
<path d="M124.281 108.548C123.939 108.7 123.597 108.814 123.217 108.852C123.065 108.89 122.913 109.005 122.875 109.119C122.799 109.271 122.761 109.424 122.799 109.576C122.837 109.728 122.951 109.843 123.065 109.919C123.217 109.995 123.369 109.995 123.521 109.995C123.901 109.919 124.243 109.843 124.585 109.69C124.737 109.614 124.851 109.576 124.927 109.424C125.003 109.271 125.041 109.119 125.003 108.967C124.965 108.814 124.851 108.7 124.737 108.624C124.661 108.586 124.547 108.548 124.433 108.548C124.395 108.51 124.357 108.51 124.281 108.548Z" fill="#39506C"/>
<path d="M96.0805 115.67C95.7385 115.67 95.3964 115.708 95.0924 115.746C94.7503 115.822 94.4463 115.86 94.1042 115.975C93.8762 116.051 93.6481 116.127 93.4201 116.241C91.8618 118.869 90.5696 121.764 89.6194 124.849C88.4792 128.429 87.8331 132.047 87.7191 135.589C87.5671 139.398 88.0231 142.94 89.0113 146.178C89.5434 147.891 90.2655 149.529 91.1017 151.015C91.9758 152.576 93.078 153.985 94.2942 155.242C94.4082 155.357 94.5223 155.471 94.6743 155.623C94.5983 155.204 94.5223 154.747 94.4843 154.328C94.3702 153.528 94.2562 152.729 94.2182 151.929C94.2182 151.853 94.2182 151.776 94.1802 151.7C94.1422 151.434 94.1422 151.167 94.1422 150.9C94.1422 150.71 94.1422 150.519 94.1422 150.367C94.0662 149.415 94.0282 148.463 94.1042 147.511C94.1042 147.358 94.1042 147.244 94.1042 147.092C94.1042 146.939 94.1042 146.787 94.1042 146.635C94.1042 145.873 94.1422 145.149 94.1802 144.387C94.1802 144.311 94.1802 144.235 94.1802 144.121C93.8762 142.635 93.6861 141.112 93.5721 139.512C93.3821 135.932 93.6861 132.123 94.5223 128.239C95.3584 124.278 96.6506 120.545 98.3609 117.155L98.3989 117.079L98.741 116.394C98.817 116.317 98.817 116.241 98.855 116.165C98.855 116.165 98.855 116.165 98.855 116.127C98.741 116.089 98.665 116.051 98.551 116.013C98.3609 115.937 98.1709 115.898 97.9429 115.822C97.6388 115.746 97.2968 115.67 96.9547 115.67C96.7267 115.67 96.4606 115.632 96.2326 115.632H96.0805V115.67Z" fill="#6EB2AE"/>
<path d="M136.747 100.283C136.367 100.359 135.987 100.436 135.645 100.55C135.265 100.664 134.885 100.816 134.505 100.969C134.163 101.121 133.821 101.312 133.479 101.502L133.517 101.464C133.251 101.654 132.947 101.845 132.681 102.035C132.414 102.226 132.186 102.454 131.958 102.683C131.806 102.835 131.654 103.025 131.54 103.216C131.464 103.711 131.388 104.168 131.312 104.701C131.16 106.072 131.16 107.596 131.312 109.196C131.464 110.643 131.768 112.128 132.186 113.652C133.061 116.623 134.429 119.479 136.291 122.145C138.115 124.773 140.244 126.982 142.714 128.696C144.805 130.181 147.123 131.21 149.365 131.743C150.544 132.01 151.722 132.162 152.9 132.162H153.014C153.698 132.162 154.382 132.124 155.066 132.01C155.104 132.01 155.142 132.01 155.18 132.01C155.789 131.972 156.397 131.895 157.005 131.667C157.119 131.629 157.233 131.591 157.309 131.515C157.233 131.324 157.157 131.172 157.081 130.981C156.891 130.6 156.701 130.22 156.511 129.877L156.549 129.915C156.321 129.572 156.093 129.229 155.827 128.887C155.56 128.544 155.294 128.239 154.99 127.934L155.028 127.972C154.686 127.668 154.344 127.363 153.964 127.058C153.622 126.83 153.28 126.601 152.938 126.373C152.938 126.373 152.938 126.373 152.9 126.373C152.672 126.259 152.482 126.144 152.254 126.03C151.152 125.763 150.05 125.344 149.023 124.849C147.807 124.24 146.667 123.478 145.641 122.564L145.565 122.488C144.273 121.345 143.094 119.974 142.03 118.413C140.89 116.661 139.94 114.756 139.256 112.7C139.256 112.661 139.256 112.623 139.218 112.623C138.496 110.452 138.077 108.243 137.925 106.034C137.849 104.168 137.963 102.378 138.267 100.702L138.305 100.588L138.267 100.626C138.305 100.474 138.343 100.321 138.381 100.131C138.191 100.131 138.001 100.131 137.811 100.131H137.849C137.469 100.169 137.127 100.207 136.747 100.283Z" fill="#6EB2AE"/>
<path d="M131.921 102.76H131.96V102.721L131.921 102.76Z" fill="#66615C"/>
<path d="M152.9 126.411L152.94 126.45L152.9 126.411Z" fill="#66615C"/>
<path d="M95.8902 87.8668L95.9662 87.8287C96.0802 87.7906 96.1942 87.7906 96.2702 87.8668C96.3843 87.9049 96.4603 88.0192 96.4983 88.0953C96.8783 88.9332 97.0304 89.8854 96.9544 90.9899C96.8783 92.0183 96.6503 92.9705 96.1942 93.9226C96.0042 94.3035 95.7762 94.6844 95.4721 95.0652C95.3201 95.2557 95.13 95.4461 94.902 95.6366C94.4839 96.0174 93.9518 96.3602 93.3817 96.6649L93.3057 96.703C92.2035 97.2743 90.6833 97.7313 89.6951 96.7792C89.5051 96.5887 89.353 96.3602 89.239 96.0936C89.163 95.9032 89.125 95.6366 89.125 95.37C89.163 94.8748 89.315 94.3797 89.6191 93.7703C89.9231 93.199 90.3412 92.6277 90.9113 91.9421C91.4054 91.3708 91.9755 90.7995 92.6596 90.1901C93.2297 89.695 93.7998 89.2379 94.3699 88.8571C94.598 88.7047 94.826 88.5905 95.054 88.4381C95.3201 88.3239 95.5101 88.2096 95.7001 88.1715C95.7382 87.943 95.8142 87.9049 95.8902 87.8668Z" fill="#DE5843"/>
<path d="M76.6215 77.5068C76.4315 76.5546 74.6451 76.1356 72.7068 76.5927C70.7305 77.0116 69.3242 78.1162 69.5143 79.0683C69.7043 80.0205 71.4906 80.4014 73.4289 79.9824C75.4053 79.5635 76.8495 78.4589 76.6215 77.5068Z" fill="#FEFEFE"/>
<path d="M152.748 85.2764C156.093 81.9629 161.376 80.7441 165.823 82.2676C167.191 82.7246 168.559 83.5244 169.167 84.8575C169.775 86.1524 169.243 88.0568 167.875 88.4376C170.193 89.8469 172.588 91.2942 174.374 93.3889C176.16 95.4456 177.263 98.3022 176.617 100.968C175.97 103.634 173.196 105.805 170.535 105.12C172.702 107.633 172.056 112.052 169.205 113.765C166.355 115.479 162.136 114.108 160.92 110.985C160.54 113.689 157.917 115.86 155.181 115.746C152.444 115.632 150.012 113.232 149.86 110.49C149.024 112.28 146.629 112.851 144.805 112.09C142.981 111.366 141.726 109.652 140.928 107.9C139.104 103.977 139.028 99.2543 140.662 95.2552C142.335 91.2561 145.717 87.9806 149.784 86.5333" fill="#46312E"/>
<path d="M160.273 80.4395C163.01 79.9444 165.936 80.63 168.217 82.2296C169.661 83.2199 170.877 84.7814 170.839 86.5334C170.763 88.2854 168.825 89.8851 167.267 89.0853C171.751 88.9329 176.122 92.2084 177.3 96.5884C177.984 99.1402 177.49 102.111 175.514 103.825C173.5 105.501 169.927 105.158 168.787 102.797C170.193 104.663 171.675 106.643 172.093 108.929C172.549 111.252 171.675 113.994 169.509 114.908C167.381 115.822 164.834 114.604 163.466 112.699C162.098 110.833 161.642 108.472 161.223 106.186C162.934 108.852 161.794 112.813 159.095 114.451C156.397 116.127 152.634 115.518 150.316 113.385C147.959 111.252 147.009 107.824 147.503 104.701C147.883 106.148 148.263 107.634 148.035 109.081C147.845 110.566 146.933 112.014 145.489 112.433C144.235 112.775 142.866 112.242 141.954 111.328C141.042 110.414 140.51 109.195 140.092 107.938C138.686 103.787 138.458 99.2545 139.408 94.9887" stroke="#46312E" stroke-width="0.193" stroke-miterlimit="10" stroke-linecap="round" stroke-linejoin="round"/>
<path d="M74.4927 95.0271C78.8635 96.8171 81.98 101.235 82.2841 105.958C82.3601 107.405 82.17 108.967 81.1819 110.033C80.1937 111.1 78.2934 111.366 77.3812 110.224C76.9631 112.928 76.5451 115.67 75.3288 118.146C74.1126 120.583 71.9083 122.716 69.2478 123.173C66.5493 123.592 63.4708 121.84 63.0907 119.136C61.6085 122.107 57.2757 123.211 54.6152 121.269C51.9168 119.327 51.5747 114.87 53.9691 112.547C51.3467 113.233 48.3061 111.633 47.356 109.081C46.4058 106.529 47.698 103.33 50.1305 102.149C48.1921 102.073 46.7099 100.055 46.6719 98.1121C46.6338 96.1697 47.736 94.3415 49.0283 92.8942C51.9548 89.6949 56.2495 87.7905 60.5823 87.7905C64.915 87.7905 69.2098 89.6568 72.1363 92.8561" fill="#46312E"/>
<path d="M82.7026 103.749C83.5767 105.196 84.5269 106.719 84.6789 108.395C84.8689 110.071 84.0328 112.013 82.4365 112.547C80.4982 113.194 78.2938 111.023 78.8639 109.043C78.9399 111.709 79.0159 114.451 78.3698 117.041C77.7237 119.631 76.2794 122.183 73.961 123.516C71.6426 124.849 68.3741 124.658 66.5497 122.678C64.6874 120.621 64.8394 117.536 65.1055 114.794C65.1435 118.069 62.7871 121.23 59.6325 122.068C56.478 122.906 52.8293 121.23 51.4991 118.222C50.1689 115.251 51.3851 111.328 54.2356 109.728C53.7035 111.671 50.739 112.09 49.2567 110.68C47.7745 109.271 47.7365 106.834 48.5726 105.005C49.4087 103.139 50.967 101.73 52.4873 100.397C51.6891 101.997 48.9907 101.616 48.0785 100.054C47.1664 98.4925 47.5844 96.512 48.3066 94.8743C50.701 89.3517 56.402 85.3906 62.407 85.0859" stroke="#46312E" stroke-width="0.193" stroke-miterlimit="10" stroke-linecap="round" stroke-linejoin="round"/>
<path d="M131.541 13.0257C134.468 11.5403 137.964 11.6545 141.081 12.6829C144.197 13.7112 146.934 15.5394 149.594 17.4818C154.307 20.8716 158.868 24.6422 162.136 29.4411C166.507 35.8778 168.331 43.9904 167.077 51.6458C165.823 59.3013 161.528 66.4617 155.333 71.1464" stroke="#46312E" stroke-width="0.193" stroke-miterlimit="10" stroke-linecap="round" stroke-linejoin="round"/>
<path d="M125.308 9.78844C113.754 6.13209 101.439 4.95139 89.3913 6.36061C83.6903 7.04618 77.9893 8.30304 72.7824 10.7025C61.8745 15.6919 53.361 25.6326 50.1304 37.211C46.8999 48.7895 49.0283 61.7009 55.7934 71.6416" stroke="#46312E" stroke-width="0.193" stroke-miterlimit="10" stroke-linecap="round" stroke-linejoin="round"/>
<path d="M133.061 12.5686C138.381 9.94057 163.922 22.5854 165.556 46.1994C166.126 54.1976 164.378 60.939 163.428 68.9373C162.478 76.9355 159.893 84.9338 154.876 91.3705C146.857 101.692 133.327 107.062 119.986 107.9C106.646 108.738 97.6384 110.795 85.0582 106.605C80.4594 105.082 71.6799 98.0738 67.9172 95.1411C60.5819 89.4281 57.6554 80.0968 55.223 71.3368C53.2847 64.2526 51.3843 57.0922 50.9282 49.7795C50.4722 42.4668 51.4603 34.8875 54.995 28.3747C57.6934 23.4234 61.7601 19.2338 66.3589 15.806C75.5565 8.91223 87.0345 4.87501 98.6646 4.41797C110.295 3.96092 122.039 7.12214 131.692 13.2922" fill="#46312E"/>
<path d="M132.909 16.9105C135.114 13.8255 136.71 10.3215 137.546 6.58894C137.698 5.94146 137.812 5.2559 137.622 4.60842C137.432 3.96094 136.862 3.38964 136.178 3.42772C135.266 3.5039 134.81 4.60842 134.619 5.52251C133.859 8.7599 133.099 11.9973 132.339 15.2347C132.453 10.9309 131.845 6.58894 130.553 2.43746C130.363 1.82807 130.135 1.18059 129.717 0.685461C129.299 0.190331 128.614 -0.152452 128.006 -0.000103863C127.36 0.152244 126.904 0.761635 126.752 1.40911C126.6 2.05659 126.676 2.74216 126.79 3.38964C127.55 7.96007 128.957 12.4543 131.009 16.6058" fill="#46312E"/>
<path d="M111.321 125.497L111.929 125.458C118.124 125.039 122.989 122.716 122.533 116.508L121.203 97.8073C120.785 91.5991 115.388 86.9525 109.231 87.3715L108.623 87.4095C102.428 87.8285 97.7907 93.2368 98.2088 99.4069L99.539 118.108C99.9951 124.354 105.126 125.954 111.321 125.497Z" fill="#80544B"/>
<path opacity="0.57" d="M99.121 111.938L98.2469 99.445C97.8288 93.2368 102.466 87.8666 108.661 87.4476L109.269 87.4095C115.464 86.9906 120.823 91.6372 121.241 97.8454L122.267 112.204C117.402 113.271 109.307 114.147 99.121 111.938Z" fill="#5D3A34"/>
<path d="M145.566 76.4406C147.58 84.0961 155.334 88.6665 162.897 86.6479C170.46 84.6674 174.983 76.8215 172.969 69.2041C170.954 61.5486 163.201 56.9782 155.638 58.9968C148.074 60.9773 143.59 68.8232 145.566 76.4406Z" fill="#724942"/>
<path opacity="0.2" d="M148.796 80.3255C150.088 85.3149 155.979 88.0952 161.87 86.5336C167.799 84.9721 171.524 79.678 170.194 74.6886C168.902 69.6992 163.011 66.9188 157.12 68.4804C151.229 70.042 147.504 75.3361 148.796 80.3255Z" fill="#84332D"/>
<path opacity="0.57" d="M148.796 80.3255C150.088 85.3149 155.979 88.0952 161.87 86.5336C167.799 84.9721 171.524 79.678 170.194 74.6886C168.902 69.6992 163.011 66.9188 157.12 68.4804C151.229 70.042 147.504 75.3361 148.796 80.3255Z" fill="#5D3A34"/>
<path d="M171.258 71.9082C170.346 71.2227 169.396 70.6514 168.369 70.1943C167.381 69.6992 166.317 69.3183 165.253 69.0136C163.087 68.3662 160.806 68.1757 158.564 68.3662C157.424 68.4043 156.321 68.7089 155.257 69.0136L153.661 69.623C153.129 69.8135 152.673 70.1562 152.179 70.3848C151.152 70.8799 150.316 71.6036 149.404 72.2891C148.948 72.5938 148.606 73.0509 148.188 73.4317L147.01 74.6124C146.82 74.8029 146.82 75.0695 147.01 75.2599C147.2 75.4503 147.466 75.4503 147.656 75.2599L147.694 75.2218L148.872 74.1554C149.29 73.8126 149.632 73.3936 150.088 73.127C150.962 72.5557 151.799 71.8702 152.749 71.4512C154.573 70.4229 156.625 69.8896 158.716 69.6992C160.806 69.5088 162.896 69.7754 164.911 70.3086C166.925 70.8799 168.94 71.6797 170.726 72.7081H170.764C170.992 72.8223 171.258 72.7462 171.41 72.5176C171.524 72.2891 171.448 72.0225 171.258 71.9082Z" fill="#5D3A34"/>
<path d="M162.212 77.2021C160.844 76.0595 159.286 75.2978 157.576 74.8027C155.903 74.3075 154.117 74.1552 152.331 74.3075C151.457 74.3456 150.582 74.5741 149.746 74.8407C148.91 75.1454 148.074 75.4501 147.352 75.9453C146.554 76.3261 145.908 76.9355 145.223 77.4687C144.577 78.04 144.007 78.6875 143.399 79.2969C143.247 79.4493 143.285 79.6778 143.399 79.792C143.513 79.9063 143.741 79.9063 143.855 79.8301L143.893 79.792C144.539 79.2588 145.109 78.6875 145.794 78.1924C146.478 77.7354 147.124 77.2402 147.884 76.9355C149.29 76.1738 150.886 75.7548 152.483 75.6406C154.079 75.4882 155.675 75.7167 157.234 76.1357C158.792 76.5547 160.35 77.126 161.794 77.8496H161.832C162.022 77.9258 162.212 77.8496 162.326 77.6973C162.402 77.5068 162.364 77.3164 162.212 77.2021Z" fill="#5D3A34"/>
<path d="M75.9369 81.2011C74.6827 89.0089 67.4234 94.3411 59.6701 93.0842C51.9167 91.8654 46.6718 84.5146 47.888 76.7068C49.1423 68.899 56.4015 63.5668 64.1549 64.8237C71.9082 66.0806 77.1531 73.3932 75.9369 81.2011Z" fill="#724942"/>
<path opacity="0.57" d="M73.0866 85.3523C72.2885 90.456 66.7395 93.8077 60.6964 92.8555C54.6534 91.9033 50.3966 86.9901 51.2328 81.8864C52.0309 76.7828 57.5799 73.4311 63.623 74.3833C69.666 75.3736 73.8847 80.2868 73.0866 85.3523Z" fill="#5D3A34"/>
<path d="M49.9024 79.2203C50.7385 78.4586 51.6507 77.773 52.6008 77.2017C53.551 76.5923 54.5392 76.1353 55.6034 75.7163C57.6937 74.8784 59.9361 74.4214 62.1785 74.4214C63.3187 74.3452 64.4209 74.5737 65.5611 74.7261L67.1954 75.1831C67.7655 75.2974 68.2216 75.6021 68.7537 75.7925C69.8178 76.1734 70.73 76.8209 71.6802 77.3922C72.1742 77.6588 72.5543 78.0777 73.0104 78.4205L74.3026 79.4869C74.4926 79.6393 74.5307 79.944 74.3786 80.1344C74.2266 80.3249 73.9606 80.3629 73.7325 80.2106L73.6945 80.1725L72.4023 79.2203C71.9842 78.9156 71.5661 78.5348 71.1101 78.3062C70.1979 77.8111 69.2857 77.2398 68.2976 76.897C66.3592 76.0591 64.2689 75.7163 62.2165 75.7544C60.1261 75.7925 58.0738 76.2495 56.0974 76.9732C54.1591 77.7349 52.2208 78.7252 50.5485 79.944H50.5105C50.3204 80.0963 50.0164 80.0582 49.8644 79.8297C49.7123 79.6012 49.7503 79.3727 49.9024 79.2203Z" fill="#5D3A34"/>
<path d="M59.4417 83.6007C60.696 82.3439 62.1782 81.3917 63.8125 80.7442C65.4468 80.0967 67.1951 79.754 68.9814 79.754C69.8555 79.7159 70.7677 79.8682 71.6039 80.0206C72.44 80.2491 73.3141 80.4776 74.1123 80.8585C74.9484 81.1632 75.6706 81.6964 76.3927 82.1534C77.1148 82.6486 77.7229 83.258 78.369 83.7912C78.5211 83.9054 78.5211 84.134 78.407 84.2863C78.293 84.4387 78.103 84.4387 77.951 84.3625L77.913 84.3244C77.2288 83.8674 76.5827 83.3341 75.8606 82.9152C75.1385 82.5343 74.4543 82.1154 73.6562 81.8487C72.1739 81.2394 70.5397 80.9727 68.9434 81.0108C67.3471 81.0489 65.7508 81.3917 64.2686 81.963C62.7483 82.5343 61.2661 83.258 59.8978 84.134H59.8598C59.7078 84.2482 59.4797 84.172 59.3657 84.0197C59.2897 83.9054 59.3277 83.715 59.4417 83.6007Z" fill="#5D3A34"/>
<path d="M63.5083 67.49C67.727 92.9321 84.9441 113.232 116.071 107.9C145.223 102.911 158.031 77.8877 153.812 52.4456C149.555 26.9655 125.915 9.71207 100.983 13.8635C76.0505 18.0531 59.2896 42.0479 63.5083 67.49Z" fill="#80544B"/>
<path opacity="0.5" d="M75.1392 87.7139C74.7211 93.3888 80.3081 98.4544 87.6054 98.9876C94.9406 99.5208 101.212 95.3693 101.63 89.6944C102.048 84.0194 96.4609 78.9538 89.1636 78.4206C81.8284 77.8874 75.5573 82.0389 75.1392 87.7139Z" fill="url(#paint0_radial_894_2086)"/>
<path opacity="0.5" d="M117.669 88.6281C118.923 94.1888 125.726 97.3881 132.872 95.7885C140.017 94.1888 144.844 88.3996 143.59 82.8389C142.335 77.2782 135.532 74.0789 128.387 75.6786C121.242 77.2782 116.415 83.0675 117.669 88.6281Z" fill="url(#paint1_radial_894_2086)"/>
<path d="M138.989 70.6895L142.562 70.1182" stroke="black" stroke-width="0.193" stroke-linecap="round" stroke-linejoin="round"/>
<path d="M139.065 67.7188L142.486 66.6523" stroke="black" stroke-width="0.193" stroke-linecap="round" stroke-linejoin="round"/>
<path d="M138.229 65.0904L141.308 63.2622" stroke="black" stroke-width="0.193" stroke-linecap="round" stroke-linejoin="round"/>
<path d="M136.557 63.0719L138.837 60.2915" stroke="black" stroke-width="0.193" stroke-linecap="round" stroke-linejoin="round"/>
<path d="M134.087 61.5484L135.607 58.2729" stroke="black" stroke-width="0.193" stroke-linecap="round" stroke-linejoin="round"/>
<path d="M131.122 60.3297L131.996 56.8638" stroke="black" stroke-width="0.193" stroke-linecap="round" stroke-linejoin="round"/>
<path d="M119.264 72.365C120.937 77.8114 126.676 80.8965 132.035 79.2207C137.432 77.5448 140.434 71.7937 138.762 66.3473C137.09 60.9008 131.351 57.8158 125.992 59.4916C120.595 61.1674 117.592 66.9186 119.264 72.365Z" fill="black" stroke="black" stroke-width="0.134" stroke-miterlimit="10"/>
<path d="M119.302 73.2033C120.974 78.6116 126.637 81.6586 131.996 80.0209C137.355 78.3831 140.32 72.632 138.686 67.2236C137.013 61.8153 131.35 58.7683 125.991 60.4061C120.594 62.0819 117.63 67.7949 119.302 73.2033Z" fill="white"/>
<path d="M122.685 72.1747C123.749 75.6787 127.474 77.6592 130.933 76.5927C134.391 75.5263 136.367 71.7938 135.265 68.2898C134.201 64.7858 130.476 62.8053 127.018 63.8717C123.521 64.9381 121.583 68.6707 122.685 72.1747Z" fill="black"/>
<path d="M132.035 68.6705C132.301 69.5084 133.517 69.8893 134.771 69.5084C136.026 69.1275 136.824 68.1373 136.558 67.2613C136.292 66.4234 135.075 66.0425 133.821 66.4234C132.605 66.8423 131.807 67.8326 132.035 68.6705Z" fill="white"/>
<path d="M77.305 73.9648L73.6943 73.8887" stroke="black" stroke-width="0.193" stroke-linecap="round" stroke-linejoin="round"/>
<path d="M76.811 71.0322L73.2764 70.4609" stroke="black" stroke-width="0.193" stroke-linecap="round" stroke-linejoin="round"/>
<path d="M77.3046 68.3277L73.998 66.9565" stroke="black" stroke-width="0.193" stroke-linecap="round" stroke-linejoin="round"/>
<path d="M78.6732 66.0806L76.0127 63.6431" stroke="black" stroke-width="0.193" stroke-linecap="round" stroke-linejoin="round"/>
<path d="M80.8778 64.2144L78.9395 61.2056" stroke="black" stroke-width="0.193" stroke-linecap="round" stroke-linejoin="round"/>
<path d="M83.6904 62.6148L82.2842 59.3013" stroke="black" stroke-width="0.193" stroke-linecap="round" stroke-linejoin="round"/>
<path d="M97.2966 71.8317C96.8025 77.5067 91.8616 81.7343 86.2747 81.2392C80.6497 80.7441 76.5069 75.7927 76.963 70.0797C77.4571 64.4047 82.398 60.1771 87.9849 60.6722C93.6099 61.1674 97.7907 66.1568 97.2966 71.8317Z" fill="black" stroke="black" stroke-width="0.134" stroke-miterlimit="10"/>
<path d="M97.449 72.6697C96.9549 78.3065 92.052 82.4961 86.465 82.0391C80.8781 81.582 76.7354 76.5926 77.2294 70.9557C77.7235 65.3189 82.6264 61.1293 88.2133 61.5864C93.8003 62.0815 97.943 67.0328 97.449 72.6697Z" fill="white"/>
<path d="M93.914 72.3651C93.6099 76.0215 90.4174 78.7637 86.8067 78.459C83.1961 78.1543 80.4976 74.9169 80.8017 71.2606C81.1057 67.6042 84.2983 64.862 87.9089 65.1667C91.5196 65.4714 94.218 68.7088 93.914 72.3651Z" fill="black"/>
<path d="M83.9941 70.956C83.918 71.832 82.8158 72.4795 81.4856 72.3652C80.1934 72.251 79.1672 71.4511 79.2432 70.5751C79.3192 69.6991 80.4214 69.0517 81.7517 69.1659C83.0819 69.2802 84.0701 70.08 83.9941 70.956Z" fill="white"/>
<path d="M143.361 55.7592C143.361 55.7592 132.833 40.9053 127.284 44.2189C121.735 47.5705 134.087 56.4829 135.988 57.5874C137.926 58.6538 146.059 61.8912 143.361 55.7592Z" fill="#46312E"/>
<path d="M74.7965 56.8635C74.7965 56.8635 85.5144 42.1238 91.0254 45.5517C96.4983 48.9795 84.0701 57.7395 82.1318 58.7678C80.1935 59.8343 72.022 62.9574 74.7965 56.8635Z" fill="#46312E"/>
<path d="M118.656 84.248C118.656 84.248 117.402 91.4465 109.725 91.9797" stroke="#5D3A34" stroke-width="0.193" stroke-miterlimit="10" stroke-linecap="round" stroke-linejoin="round"/>
<path d="M118.429 88.895C117.707 90.9517 115.844 92.5514 113.716 92.9703" stroke="#5D3A34" stroke-width="0.193" stroke-miterlimit="10" stroke-linecap="round" stroke-linejoin="round"/>
<path d="M108.889 60.939C108.889 60.939 113.26 75.9071 110.447 76.745C107.635 77.621 102.466 73.9266 102.39 79.335C102.276 84.7433 110.143 85.4289 110.143 85.4289" stroke="#5D3A34" stroke-width="0.193" stroke-miterlimit="10" stroke-linecap="round" stroke-linejoin="round"/>
<path d="M154.687 57.9301C154.687 57.9301 136.786 62.8433 126.562 29.8981C126.562 29.8981 115.654 51.6077 107.331 53.3597C98.9694 55.1117 96.879 47.799 96.879 47.799C96.879 47.799 93.1923 57.5873 86.6172 57.5873C80.0421 57.6254 79.2439 52.2552 79.2439 52.2552C79.2439 52.2552 72.4407 67.528 62.8251 63.9478C62.8251 63.9478 58.1882 35.5731 68.07 26.2418C77.9137 16.9105 101.706 5.71289 119.037 11.5021C136.406 17.2913 151.457 27.9557 154.345 44.1426C157.196 60.4058 154.687 57.9301 154.687 57.9301Z" fill="#46312E"/>
<path d="M127.208 30.2026C124.965 35.8014 122.115 41.1336 118.694 46.0849C116.566 49.1699 114.172 52.1407 110.941 54.0451C107.748 55.9494 103.568 56.5969 100.261 54.883C96.9545 53.1691 95.0542 48.6748 96.8785 45.4374C96.6505 48.751 95.3962 51.9884 93.3439 54.5783C92.0897 56.1399 90.3794 57.5872 88.365 57.511C86.3507 57.4348 84.5263 55.1115 85.5905 53.3976C85.0204 56.635 82.816 59.5296 79.8895 60.9769C78.3313 61.7386 76.4309 62.0814 74.8727 61.2816C73.3144 60.4818 72.5163 58.2346 73.6184 56.9016C73.0864 59.0345 72.5162 61.2054 71.224 62.9955C69.9318 64.7856 67.8034 66.1186 65.6371 65.7378C64.6869 65.5854 63.6987 65.0522 63.3947 64.1381C63.0526 63.224 63.6227 62.0052 64.6109 61.9291" stroke="#46312E" stroke-width="0.193" stroke-miterlimit="10" stroke-linecap="round" stroke-linejoin="round"/>
<path d="M112.385 23.6519C111.473 27.6129 109.991 31.4597 108.015 35.0399C107.065 36.7538 105.962 38.4677 104.366 39.6484C102.808 40.8291 100.679 41.4766 98.8171 40.8291C96.9548 40.2197 95.5485 38.1249 96.1186 36.2206C95.2445 39.8388 92.698 43 89.3915 44.5997C87.8332 45.3614 85.9709 45.7804 84.4126 45.0186C83.1584 44.4092 82.2842 43.1524 81.8662 41.8193C81.4481 40.4863 81.4101 39.0771 81.3721 37.6679" stroke="#5D3A34" stroke-width="0.193" stroke-linecap="round" stroke-linejoin="round"/>
<path d="M71.9845 44.6759C72.0985 47.1134 71.4524 49.5891 70.1982 51.6458C69.476 52.8265 68.2218 54.0072 66.8916 53.6263C66.0554 53.3978 65.4473 52.598 65.2193 51.7601C64.9913 50.9221 65.0673 50.008 65.1433 49.132C64.6872 51.4554 63.395 53.9691 61.0766 54.5404C59.1762 54.9974 57.1239 53.9691 56.0597 52.3694C54.9575 50.7698 54.7295 48.675 54.9955 46.7707C55.2616 44.8282 56.0217 43 56.7438 41.21" stroke="#5D3A34" stroke-width="0.193" stroke-linecap="round" stroke-linejoin="round"/>
<path d="M86.3124 18.0151C86.4265 20.4527 85.7803 22.8903 84.4501 24.947C83.728 26.0896 82.7018 27.156 81.3716 27.3845C80.0413 27.613 78.4831 26.5466 78.6351 25.2136C78.7871 27.0798 76.8108 28.6795 74.9485 28.489C73.0861 28.2605 71.6039 26.5847 71.2618 24.7565C70.9578 22.8522 71.5279 20.9478 72.478 19.3482" stroke="#5D3A34" stroke-width="0.193" stroke-linecap="round" stroke-linejoin="round"/>
<path d="M155.941 42.6953C156.891 44.2949 155.979 46.5801 154.307 47.38C152.635 48.2179 150.544 47.7608 149.1 46.6182C147.656 45.4756 146.744 43.7236 146.249 41.9335C146.63 43.2285 145.983 44.6758 144.881 45.3994C143.779 46.1231 142.297 46.1993 141.043 45.7803C139.788 45.3614 138.724 44.4854 137.85 43.4951C135.874 41.2099 134.847 38.201 134.505 35.2302C134.163 32.2214 134.429 29.1744 134.809 26.2036" stroke="#5D3A34" stroke-width="0.193" stroke-linecap="round" stroke-linejoin="round"/>
<path d="M73.1623 100.359C74.0365 101.844 74.9486 103.406 74.9486 105.12C74.9486 106.834 73.6564 108.662 71.9461 108.586C70.9579 108.548 70.0838 107.9 69.5517 107.062C69.0196 106.224 68.8296 105.234 68.6775 104.244C68.8676 105.653 69.0956 107.138 68.7155 108.509C68.3735 109.919 67.3473 111.214 65.9411 111.48C64.0027 111.823 62.2544 109.995 61.9504 108.052C61.6083 106.11 62.2924 104.206 62.9765 102.339" stroke="#5D3A34" stroke-width="0.193" stroke-linecap="round" stroke-linejoin="round"/>
<path d="M56.4778 103.558C55.4516 104.891 53.0192 104.777 52.145 103.33C51.2329 101.883 52.183 99.6735 53.8553 99.3308C53.1332 100.169 51.6129 99.6735 51.1569 98.6452C50.7008 97.6168 51.1188 96.4362 51.765 95.5221C53.0572 93.7701 55.1856 92.8179 57.1999 91.98" stroke="#5D3A34" stroke-width="0.193" stroke-linecap="round" stroke-linejoin="round"/>
<path d="M163.998 92.0562C165.366 93.0083 166.734 94.1129 167.381 95.6363C168.027 97.1598 167.647 99.2546 166.164 99.9782C164.568 100.74 162.782 99.6355 161.375 98.6071C162.554 99.4831 162.972 101.273 162.288 102.568C161.642 103.901 159.969 104.625 158.563 104.206C156.549 103.635 155.636 101.273 155.522 99.1784" stroke="#5D3A34" stroke-width="0.193" stroke-linecap="round" stroke-linejoin="round"/>
<path d="M149.669 103.482C150.43 104.472 149.669 106.11 148.453 106.377C147.237 106.681 145.945 105.843 145.413 104.739C144.843 103.634 144.919 102.301 145.185 101.083" stroke="#5D3A34" stroke-width="0.193" stroke-linecap="round" stroke-linejoin="round"/>
</g>
<defs>
<radialGradient id="paint0_radial_894_2086" cx="0" cy="0" r="1" gradientUnits="userSpaceOnUse" gradientTransform="translate(88.3782 88.7261) rotate(-175.707) scale(11.6184 12.4073)">
<stop offset="0.1766" stop-color="#99483A"/>
<stop offset="0.9947" stop-color="#80544B"/>
</radialGradient>
<radialGradient id="paint1_radial_894_2086" cx="0" cy="0" r="1" gradientUnits="userSpaceOnUse" gradientTransform="translate(130.632 85.7409) rotate(167.418) scale(11.6199 12.4054)">
<stop offset="0.1766" stop-color="#99483A"/>
<stop offset="0.9947" stop-color="#80544B"/>
</radialGradient>
<clipPath id="clip0_894_2086">
<rect width="241" height="219" fill="white"/>
</clipPath>
</defs>
</svg>
