<svg width="271" height="180" viewBox="0 0 271 180" fill="none" xmlns="http://www.w3.org/2000/svg">
<path d="M78.387 0C74.5567 0 70.2874 0.199115 65.2202 0.637168C49.2205 2.0708 33.7395 5.77434 19.1761 11.6681C11.7548 14.615 4.93203 17.9602 -1.13269 21.5841C-7.79591 25.5265 -13.9803 30.0664 -19.4465 35.0044C-26.1896 41.1372 -32.3341 48.2655 -37.7604 56.2699C-43.2266 64.2345 -47.4161 72.7566 -50.249 81.5177C-53.2015 90.5177 -54.4384 99.8761 -53.8399 108.558C-53.401 113.854 -52.3237 118.872 -50.6879 123.491C-53.7601 120.186 -57.8299 117.319 -62.9769 114.69C-71.7149 110.19 -81.1312 107.841 -90.3081 107.841H-91.2656C-96.1733 107.92 -101.121 108.757 -105.909 110.389C-110.776 111.903 -115.126 114.053 -118.956 116.761C-122.228 119.031 -125.1 121.978 -127.494 125.442C-129.529 128.31 -131.205 131.735 -132.362 135.637C-133.479 139.301 -134.038 143.283 -133.998 147.425C-133.998 151.327 -133.32 155.469 -132.003 159.85C-129.649 167.575 -125.061 174.664 -119.076 179.881L-23.8355 180H152.879H261.486C264.438 175.739 266.713 170.96 268.269 165.743C269.027 163.394 269.585 161.004 269.945 158.695C270.224 156.465 270.344 154.035 270.304 151.088C270.184 146.469 269.186 141.65 267.351 136.712C265.755 132.292 263.321 127.951 260.169 123.85C254.982 117.199 247.681 111.942 239.142 108.637C232.399 106.009 224.738 104.655 216.359 104.655C215.561 104.655 214.803 104.655 214.045 104.695C204.669 104.973 194.894 107.084 185.038 110.867C180.41 112.619 176.141 114.69 171.991 117.159C170.794 117.836 169.637 118.513 168.52 119.27C174.106 106.925 175.502 91.3142 172.59 74.2301C170.994 65.031 168.081 55.9513 163.892 47.2699C160.38 39.823 155.712 32.9735 150.007 26.8805C140.191 16.5664 126.945 8.84071 111.623 4.53982C104.92 2.54867 97.2196 1.19469 88.7609 0.477876C84.8906 0.119469 81.4992 0 78.387 0Z" fill="#E1E1E1"/>
</svg>
